solid holder_metalplate_base_right_y-axis
facet normal 0.0 0.0 -1.0
  outer loop
    vertex 20.0 44.0 0.0
    vertex 0.0 41.0 0.0
    vertex 0.0 44.0 0.0
  endloop
endfacet
facet normal 0.0 0.0 -1.0
  outer loop
    vertex 0.0 41.0 0.0
    vertex 20.0 44.0 0.0
    vertex 17.0 41.0 0.0
  endloop
endfacet
facet normal 0.0 0.0 -1.0
  outer loop
    vertex 17.0 41.0 0.0
    vertex 20.0 44.0 0.0
    vertex 17.0 3.9999999999999996 -4.699944137579828e-17
  endloop
endfacet
facet normal 0.0 0.0 -1.0
  outer loop
    vertex 8.294019066317345e-17 3.9999999999999996 -4.699944137579828e-17
    vertex 20.0 0.0 0.0
    vertex 0.0 0.0 0.0
  endloop
endfacet
facet normal 0.0 0.0 -1.0
  outer loop
    vertex 20.0 0.0 0.0
    vertex 8.294019066317345e-17 3.9999999999999996 -4.699944137579828e-17
    vertex 17.0 3.9999999999999996 -4.699944137579828e-17
  endloop
endfacet
facet normal 0.0 0.0 -1.0
  outer loop
    vertex 20.0 0.0 0.0
    vertex 17.0 3.9999999999999996 -4.699944137579828e-17
    vertex 20.0 44.0 0.0
  endloop
endfacet
facet normal 1.0 0.0 0.0
  outer loop
    vertex 20.0 44.0 0.0
    vertex 20.0 0.0 15.0
    vertex 20.0 0.0 0.0
  endloop
endfacet
facet normal 1.0 0.0 0.0
  outer loop
    vertex 20.0 0.0 15.0
    vertex 20.0 44.0 0.0
    vertex 20.0 41.0 15.0
  endloop
endfacet
facet normal 1.0 0.0 0.0
  outer loop
    vertex 20.0 41.0 15.0
    vertex 20.0 44.0 0.0
    vertex 20.0 41.0 55.0
  endloop
endfacet
facet normal 1.0 0.0 0.0
  outer loop
    vertex 20.0 41.0 55.0
    vertex 20.0 0.0 70.0
    vertex 20.0 0.0 55.0
  endloop
endfacet
facet normal 1.0 0.0 0.0
  outer loop
    vertex 20.0 0.0 70.0
    vertex 20.0 41.0 55.0
    vertex 20.0 90.0 70.0
  endloop
endfacet
facet normal 1.0 0.0 0.0
  outer loop
    vertex 20.0 90.0 70.0
    vertex 20.0 41.0 55.0
    vertex 20.0 44.0 35.0
  endloop
endfacet
facet normal 1.0 0.0 0.0
  outer loop
    vertex 20.0 44.0 35.0
    vertex 20.0 41.0 55.0
    vertex 20.0 44.0 0.0
  endloop
endfacet
facet normal 1.0 0.0 0.0
  outer loop
    vertex 20.0 90.0 70.0
    vertex 20.0 44.0 35.0
    vertex 20.0 90.0 35.0
  endloop
endfacet
facet normal 0.0 1.0 0.0
  outer loop
    vertex 0.0 90.0 70.0
    vertex 20.0 90.0 35.0
    vertex 0.0 90.0 35.0
  endloop
endfacet
facet normal 0.0 1.0 0.0
  outer loop
    vertex 20.0 90.0 35.0
    vertex 0.0 90.0 70.0
    vertex 20.0 90.0 70.0
  endloop
endfacet
facet normal -0.0 -0.0 1.0
  outer loop
    vertex 20.0 0.0 70.0
    vertex 4.1470095331586724e-17 3.9999999999999996 70.0
    vertex 0.0 0.0 70.0
  endloop
endfacet
facet normal -0.0 -0.0 1.0
  outer loop
    vertex 4.1470095331586724e-17 3.9999999999999996 70.0
    vertex 20.0 0.0 70.0
    vertex 17.0 3.9999999999999996 70.0
  endloop
endfacet
facet normal -0.0 -0.0 1.0
  outer loop
    vertex 17.0 3.9999999999999996 70.0
    vertex 20.0 0.0 70.0
    vertex 17.0 41.0 70.0
  endloop
endfacet
facet normal -0.0 -0.0 1.0
  outer loop
    vertex 17.0 41.0 70.0
    vertex 0.0 90.0 70.0
    vertex 0.0 41.0 70.0
  endloop
endfacet
facet normal -0.0 -0.0 1.0
  outer loop
    vertex 0.0 90.0 70.0
    vertex 17.0 41.0 70.0
    vertex 20.0 90.0 70.0
  endloop
endfacet
facet normal -0.0 -0.0 1.0
  outer loop
    vertex 20.0 90.0 70.0
    vertex 17.0 41.0 70.0
    vertex 20.0 0.0 70.0
  endloop
endfacet
facet normal -1.0 3.615341644292176e-17 9.399888275159658e-17
  outer loop
    vertex 17.000000000000004 41.0 14.999999999999998
    vertex 17.0 3.9999999999999996 -4.699944137579828e-17
    vertex 17.0 3.9999999999999996 15.0
  endloop
endfacet
facet normal -1.0 3.615341644292176e-17 9.399888275159658e-17
  outer loop
    vertex 17.0 3.9999999999999996 -4.699944137579828e-17
    vertex 17.000000000000004 41.0 14.999999999999998
    vertex 17.0 41.0 0.0
  endloop
endfacet
facet normal -1.0 0.0 0.0
  outer loop
    vertex 0.0 41.0 70.0
    vertex 0.0 44.0 66.99999999999999
    vertex 0.0 41.0 0.0
  endloop
endfacet
facet normal -1.0 0.0 0.0
  outer loop
    vertex 0.0 44.0 66.99999999999999
    vertex 0.0 41.0 70.0
    vertex 0.0 90.0 70.0
  endloop
endfacet
facet normal -1.0 0.0 0.0
  outer loop
    vertex 0.0 44.0 66.99999999999999
    vertex 0.0 90.0 70.0
    vertex 0.0 87.00000000000001 66.99999999999999
  endloop
endfacet
facet normal -1.0 0.0 0.0
  outer loop
    vertex 0.0 87.00000000000001 66.99999999999999
    vertex 0.0 90.0 70.0
    vertex 0.0 87.00000000000001 38.0
  endloop
endfacet
facet normal -1.0 0.0 0.0
  outer loop
    vertex 0.0 87.00000000000001 38.0
    vertex 0.0 44.0 35.0
    vertex 0.0 44.0 38.0
  endloop
endfacet
facet normal -1.0 0.0 0.0
  outer loop
    vertex 0.0 44.0 35.0
    vertex 0.0 87.00000000000001 38.0
    vertex 0.0 90.0 35.0
  endloop
endfacet
facet normal -1.0 0.0 0.0
  outer loop
    vertex 0.0 90.0 35.0
    vertex 0.0 87.00000000000001 38.0
    vertex 0.0 90.0 70.0
  endloop
endfacet
facet normal -1.0 0.0 0.0
  outer loop
    vertex 0.0 44.0 66.99999999999999
    vertex 0.0 44.0 0.0
    vertex 0.0 41.0 0.0
  endloop
endfacet
facet normal -1.0 0.0 0.0
  outer loop
    vertex 0.0 44.0 0.0
    vertex 0.0 44.0 66.99999999999999
    vertex 0.0 44.0 38.0
  endloop
endfacet
facet normal -1.0 0.0 0.0
  outer loop
    vertex 0.0 44.0 0.0
    vertex 0.0 44.0 38.0
    vertex 0.0 44.0 35.0
  endloop
endfacet
facet normal 0.0 0.0 -1.0
  outer loop
    vertex 4.1470095331586724e-17 3.9999999999999996 55.0
    vertex 20.0 0.0 55.0
    vertex 0.0 0.0 55.0
  endloop
endfacet
facet normal 0.0 0.0 -1.0
  outer loop
    vertex 20.0 0.0 55.0
    vertex 4.1470095331586724e-17 3.9999999999999996 55.0
    vertex 17.0 3.999999999999999 55.0
  endloop
endfacet
facet normal 0.0 0.0 -1.0
  outer loop
    vertex 20.0 0.0 55.0
    vertex 17.0 3.999999999999999 55.0
    vertex 17.000000000000004 41.0 55.0
  endloop
endfacet
facet normal 0.0 0.0 -1.0
  outer loop
    vertex 20.0 0.0 55.0
    vertex 17.000000000000004 41.0 55.0
    vertex 20.0 41.0 55.0
  endloop
endfacet
facet normal -1.1596772928318286e-17 3.784406917987961e-17 1.0
  outer loop
    vertex 20.0 0.0 15.0
    vertex 8.294019066317345e-17 4.000000000000001 15.0
    vertex 0.0 0.0 15.0
  endloop
endfacet
facet normal -1.1596772928318286e-17 3.784406917987961e-17 1.0
  outer loop
    vertex 8.294019066317345e-17 4.000000000000001 15.0
    vertex 20.0 0.0 15.0
    vertex 17.0 3.9999999999999996 15.0
  endloop
endfacet
facet normal -1.1596772928318286e-17 3.784406917987961e-17 1.0
  outer loop
    vertex 17.0 3.9999999999999996 15.0
    vertex 20.0 0.0 15.0
    vertex 17.000000000000004 41.0 14.999999999999998
  endloop
endfacet
facet normal -1.1596772928318286e-17 3.784406917987961e-17 1.0
  outer loop
    vertex 17.000000000000004 41.0 14.999999999999998
    vertex 20.0 0.0 15.0
    vertex 20.0 41.0 15.0
  endloop
endfacet
facet normal 0.0 -1.0 0.0
  outer loop
    vertex 17.000000000000004 41.0 14.999999999999998
    vertex 0.0 41.0 0.0
    vertex 17.0 41.0 0.0
  endloop
endfacet
facet normal 0.0 -1.0 0.0
  outer loop
    vertex 0.0 41.0 0.0
    vertex 17.000000000000004 41.0 14.999999999999998
    vertex 0.0 41.0 70.0
  endloop
endfacet
facet normal 0.0 -1.0 0.0
  outer loop
    vertex 0.0 41.0 70.0
    vertex 17.000000000000004 41.0 14.999999999999998
    vertex 20.0 41.0 15.0
  endloop
endfacet
facet normal 0.0 -1.0 0.0
  outer loop
    vertex 0.0 41.0 70.0
    vertex 20.0 41.0 15.0
    vertex 17.000000000000004 41.0 55.0
  endloop
endfacet
facet normal 0.0 -1.0 0.0
  outer loop
    vertex 17.000000000000004 41.0 55.0
    vertex 20.0 41.0 15.0
    vertex 20.0 41.0 55.0
  endloop
endfacet
facet normal 0.0 -1.0 0.0
  outer loop
    vertex 0.0 41.0 70.0
    vertex 17.000000000000004 41.0 55.0
    vertex 17.0 41.0 70.0
  endloop
endfacet
facet normal -1.0 0.0 0.0
  outer loop
    vertex 4.1470095331586724e-17 3.9999999999999996 70.0
    vertex 0.0 0.0 55.0
    vertex 0.0 0.0 70.0
  endloop
endfacet
facet normal -1.0 0.0 0.0
  outer loop
    vertex 0.0 0.0 55.0
    vertex 4.1470095331586724e-17 3.9999999999999996 70.0
    vertex 4.1470095331586724e-17 3.9999999999999996 55.0
  endloop
endfacet
facet normal -1.0 0.0 0.0
  outer loop
    vertex 8.294019066317345e-17 4.000000000000001 15.0
    vertex 0.0 0.0 0.0
    vertex 0.0 0.0 15.0
  endloop
endfacet
facet normal -1.0 0.0 0.0
  outer loop
    vertex 0.0 0.0 0.0
    vertex 8.294019066317345e-17 4.000000000000001 15.0
    vertex 8.294019066317345e-17 3.9999999999999996 -4.699944137579828e-17
  endloop
endfacet
facet normal -1.0 3.6153416442921765e-17 -9.399888275159661e-17
  outer loop
    vertex 17.0 3.9999999999999996 70.0
    vertex 17.000000000000004 41.0 55.0
    vertex 17.0 3.999999999999999 55.0
  endloop
endfacet
facet normal -1.0 3.6153416442921765e-17 -9.399888275159661e-17
  outer loop
    vertex 17.000000000000004 41.0 55.0
    vertex 17.0 3.9999999999999996 70.0
    vertex 17.0 41.0 70.0
  endloop
endfacet
facet normal 0.0 0.0 -1.0
  outer loop
    vertex 20.0 90.0 35.0
    vertex 0.0 44.0 35.0
    vertex 0.0 90.0 35.0
  endloop
endfacet
facet normal 0.0 0.0 -1.0
  outer loop
    vertex 0.0 44.0 35.0
    vertex 20.0 90.0 35.0
    vertex 20.0 44.0 35.0
  endloop
endfacet
facet normal 0.0 1.0 0.0
  outer loop
    vertex 0.0 44.0 35.0
    vertex 20.0 44.0 0.0
    vertex 0.0 44.0 0.0
  endloop
endfacet
facet normal 0.0 1.0 0.0
  outer loop
    vertex 20.0 44.0 0.0
    vertex 0.0 44.0 35.0
    vertex 20.0 44.0 35.0
  endloop
endfacet
facet normal 0.0 0.0 -1.0
  outer loop
    vertex 2.000000000000001 87.00000000000001 66.99999999999999
    vertex 0.0 44.0 66.99999999999999
    vertex 0.0 87.00000000000001 66.99999999999999
  endloop
endfacet
facet normal 0.0 0.0 -1.0
  outer loop
    vertex 0.0 44.0 66.99999999999999
    vertex 2.000000000000001 87.00000000000001 66.99999999999999
    vertex 2.000000000000001 44.0 66.99999999999999
  endloop
endfacet
facet normal 0.0 -1.0 0.0
  outer loop
    vertex 2.000000000000001 87.00000000000001 66.99999999999999
    vertex 0.0 87.00000000000001 38.0
    vertex 2.000000000000001 87.00000000000001 38.0
  endloop
endfacet
facet normal 0.0 -1.0 0.0
  outer loop
    vertex 0.0 87.00000000000001 38.0
    vertex 2.000000000000001 87.00000000000001 66.99999999999999
    vertex 0.0 87.00000000000001 66.99999999999999
  endloop
endfacet
facet normal 0.0 0.0 1.0
  outer loop
    vertex 2.000000000000001 44.0 38.0
    vertex 0.0 87.00000000000001 38.0
    vertex 0.0 44.0 38.0
  endloop
endfacet
facet normal 0.0 0.0 1.0
  outer loop
    vertex 0.0 87.00000000000001 38.0
    vertex 2.000000000000001 44.0 38.0
    vertex 2.000000000000001 87.00000000000001 38.0
  endloop
endfacet
facet normal 0.0 1.0 0.0
  outer loop
    vertex 0.0 44.0 66.99999999999999
    vertex 2.000000000000001 44.0 38.0
    vertex 0.0 44.0 38.0
  endloop
endfacet
facet normal 0.0 1.0 0.0
  outer loop
    vertex 2.000000000000001 44.0 38.0
    vertex 0.0 44.0 66.99999999999999
    vertex 2.000000000000001 44.0 66.99999999999999
  endloop
endfacet
facet normal -1.0 -0.0 -0.0
  outer loop
    vertex 2.000000000000001 87.00000000000001 66.99999999999999
    vertex 2.000000000000001 44.0 38.0
    vertex 2.000000000000001 44.0 66.99999999999999
  endloop
endfacet
facet normal -1.0 -0.0 -0.0
  outer loop
    vertex 2.000000000000001 44.0 38.0
    vertex 2.000000000000001 87.00000000000001 66.99999999999999
    vertex 2.000000000000001 87.00000000000001 38.0
  endloop
endfacet
facet normal 0.7933533402911972 2.413268118295162e-15 0.6087614290087702
  outer loop
    vertex 5.929165256145117 4.0000000000000036 60.231616402480945
    vertex 5.9291652561451205 -2.1521027671116537e-16 60.23161640248095
    vertex 6.0604816049064105 1.2104931713087915e-16 60.0604816049064
  endloop
endfacet
facet normal 0.7933533402912213 4.5502345244952e-15 0.6087614290087388
  outer loop
    vertex 5.929165256145117 4.0000000000000036 60.231616402480945
    vertex 6.0604816049064105 1.2104931713087915e-16 60.0604816049064
    vertex 6.060481604906405 4.0000000000000036 60.06048160490638
  endloop
endfacet
facet normal -0.7933533402912367 -2.830806896420283e-15 -0.6087614290087189
  outer loop
    vertex 11.487787643056311 4.0000000000000036 64.22499999999997
    vertex 11.487787643056317 -1.888384255036845e-16 64.22499999999998
    vertex 11.070834743854888 2.1521027671116264e-16 64.76838359751899
  endloop
endfacet
facet normal -0.7933533402912345 -3.3969682757043313e-15 -0.6087614290087217
  outer loop
    vertex 11.487787643056311 4.0000000000000036 64.22499999999997
    vertex 11.070834743854888 2.1521027671116264e-16 64.76838359751899
    vertex 11.07083474385488 4.0000000000000036 64.76838359751898
  endloop
endfacet
facet normal -0.7933533402912344 -3.955661219987299e-15 -0.6087614290087217
  outer loop
    vertex 10.939518395093586 4.0000000000000036 64.93951839509356
    vertex 11.070834743854888 2.1521027671116264e-16 64.76838359751899
    vertex 10.939518395093597 -1.210493171308802e-16 64.93951839509356
  endloop
endfacet
facet normal -0.7933533402912282 -3.3960628157450378e-15 -0.6087614290087299
  outer loop
    vertex 11.07083474385488 4.0000000000000036 64.76838359751898
    vertex 11.070834743854888 2.1521027671116264e-16 64.76838359751899
    vertex 10.939518395093586 4.0000000000000036 64.93951839509356
  endloop
endfacet
facet normal -0.6087614290087444 -6.163501683114456e-16 -0.793353340291217
  outer loop
    vertex 10.939518395093586 4.0000000000000036 64.93951839509356
    vertex 10.225000000000003 2.834629055330906e-16 65.48778764305631
    vertex 10.224999999999998 4.0000000000000036 65.48778764305631
  endloop
endfacet
facet normal -0.6087614290087326 -3.954913579998408e-15 -0.7933533402912258
  outer loop
    vertex 10.939518395093597 -1.210493171308802e-16 64.93951839509356
    vertex 10.225000000000003 2.834629055330906e-16 65.48778764305631
    vertex 10.939518395093586 4.0000000000000036 64.93951839509356
  endloop
endfacet
facet normal -0.38268343236504876 -3.142551837327506e-15 -0.9238795325113037
  outer loop
    vertex 10.224999999999998 4.0000000000000036 65.48778764305631
    vertex 9.3929257056037 3.161617893110933e-16 65.83244410069724
    vertex 9.392925705603695 4.0000000000000036 65.83244410069724
  endloop
endfacet
facet normal -0.38268343236505986 -4.1900691164366683e-16 -0.9238795325112991
  outer loop
    vertex 10.225000000000003 2.834629055330906e-16 65.48778764305631
    vertex 9.3929257056037 3.161617893110933e-16 65.83244410069724
    vertex 10.224999999999998 4.0000000000000036 65.48778764305631
  endloop
endfacet
facet normal -0.13052619222008172 0.0 -0.9914448613738066
  outer loop
    vertex 9.392925705603695 4.0000000000000036 65.83244410069724
    vertex 8.499999999999998 3.2731476962960616e-16 65.94999999999997
    vertex 8.499999999999998 4.0000000000000036 65.94999999999997
  endloop
endfacet
facet normal -0.13052619222006856 -2.9771986583081057e-15 -0.9914448613738082
  outer loop
    vertex 9.3929257056037 3.161617893110933e-16 65.83244410069724
    vertex 8.499999999999998 3.2731476962960616e-16 65.94999999999997
    vertex 9.392925705603695 4.0000000000000036 65.83244410069724
  endloop
endfacet
facet normal 0.13052619222008172 -2.8898606476243796e-15 -0.9914448613738066
  outer loop
    vertex 8.499999999999998 4.0000000000000036 65.94999999999997
    vertex 7.6070742943963 3.161617893110933e-16 65.83244410069724
    vertex 7.607074294396303 4.0000000000000036 65.83244410069724
  endloop
endfacet
facet normal 0.13052619222006898 2.5687650201105473e-18 -0.9914448613738082
  outer loop
    vertex 8.499999999999998 3.2731476962960616e-16 65.94999999999997
    vertex 7.6070742943963 3.161617893110933e-16 65.83244410069724
    vertex 8.499999999999998 4.0000000000000036 65.94999999999997
  endloop
endfacet
facet normal 0.3826834323650492 8.049343302628376e-16 -0.9238795325113036
  outer loop
    vertex 7.607074294396303 4.0000000000000036 65.83244410069724
    vertex 6.775000000000008 6.359587158515777e-16 65.48778764305631
    vertex 6.775 4.0000000000000036 65.48778764305631
  endloop
endfacet
facet normal 0.38268343236506436 -2.877915893131573e-15 -0.9238795325112973
  outer loop
    vertex 7.607074294396303 4.0000000000000036 65.83244410069724
    vertex 7.6070742943963 3.161617893110933e-16 65.83244410069724
    vertex 6.775000000000008 6.359587158515777e-16 65.48778764305631
  endloop
endfacet
facet normal 0.6087614290087402 -1.3611066216877523e-15 -0.7933533402912202
  outer loop
    vertex 6.775 4.0000000000000036 65.48778764305631
    vertex 6.0604816049064105 5.83942303506094e-16 64.93951839509356
    vertex 6.060481604906405 4.0000000000000036 64.93951839509356
  endloop
endfacet
facet normal 0.6087614290087308 1.2969034791553122e-15 -0.7933533402912274
  outer loop
    vertex 6.775000000000008 6.359587158515777e-16 65.48778764305631
    vertex 6.0604816049064105 5.83942303506094e-16 64.93951839509356
    vertex 6.775 4.0000000000000036 65.48778764305631
  endloop
endfacet
facet normal 0.7933533402912266 -1.29756879983667e-15 -0.6087614290087319
  outer loop
    vertex 5.929165256145113 4.0000000000000036 64.76838359751898
    vertex 6.0604816049064105 5.83942303506094e-16 64.93951839509356
    vertex 5.929165256145116 2.1521027671116264e-16 64.76838359751899
  endloop
endfacet
facet normal 0.7933533402912343 -6.015682845604031e-16 -0.6087614290087218
  outer loop
    vertex 6.060481604906405 4.0000000000000036 64.93951839509356
    vertex 6.0604816049064105 5.83942303506094e-16 64.93951839509356
    vertex 5.929165256145113 4.0000000000000036 64.76838359751898
  endloop
endfacet
facet normal 0.7933533402912376 -1.29884081129872e-15 -0.6087614290087175
  outer loop
    vertex 5.929165256145113 4.0000000000000036 64.76838359751898
    vertex 5.929165256145116 2.1521027671116264e-16 64.76838359751899
    vertex 5.512212356943689 5.161531951332895e-16 64.22499999999998
  endloop
endfacet
facet normal 0.7933533402912345 -4.662505476456925e-16 -0.6087614290087214
  outer loop
    vertex 5.929165256145113 4.0000000000000036 64.76838359751898
    vertex 5.512212356943689 5.161531951332895e-16 64.22499999999998
    vertex 5.5122123569436825 4.0000000000000036 64.22499999999997
  endloop
endfacet
facet normal 0.9238795325112865 6.615898604899863e-17 -0.38268343236509017
  outer loop
    vertex 5.16755589930271 4.0000000000000036 63.39292570560366
    vertex 5.512212356943689 5.161531951332895e-16 64.22499999999998
    vertex 5.167555899302715 4.3721110644197335e-16 63.39292570560367
  endloop
endfacet
facet normal 0.9238795325112871 3.859274186191592e-16 -0.38268343236508895
  outer loop
    vertex 5.5122123569436825 4.0000000000000036 64.22499999999997
    vertex 5.512212356943689 5.161531951332895e-16 64.22499999999998
    vertex 5.16755589930271 4.0000000000000036 63.39292570560366
  endloop
endfacet
facet normal 0.99144486137381 -2.106387316490659e-16 -0.13052619222005454
  outer loop
    vertex 5.049999999999995 4.0000000000000036 62.49999999999995
    vertex 5.167555899302715 4.3721110644197335e-16 63.39292570560367
    vertex 5.049999999999998 3.524958103184856e-16 62.49999999999998
  endloop
endfacet
facet normal 0.9914448613738107 8.553987516967957e-16 -0.1305261922200499
  outer loop
    vertex 5.16755589930271 4.0000000000000036 63.39292570560366
    vertex 5.167555899302715 4.3721110644197335e-16 63.39292570560367
    vertex 5.049999999999995 4.0000000000000036 62.49999999999995
  endloop
endfacet
facet normal 0.99144486137381 1.590065547448437e-15 0.13052619222005457
  outer loop
    vertex 5.16755589930271 4.0000000000000036 61.60707429439627
    vertex 5.049999999999998 3.524958103184856e-16 62.49999999999998
    vertex 5.167555899302715 2.6778051419499983e-16 61.60707429439628
  endloop
endfacet
facet normal 0.9914448613738103 1.2586948598542063e-15 0.13052619222005316
  outer loop
    vertex 5.049999999999995 4.0000000000000036 62.49999999999995
    vertex 5.049999999999998 3.524958103184856e-16 62.49999999999998
    vertex 5.16755589930271 4.0000000000000036 61.60707429439627
  endloop
endfacet
facet normal 0.9238795325112865 2.5581474605612813e-15 0.38268343236509017
  outer loop
    vertex 5.5122123569436825 4.0000000000000036 60.77499999999996
    vertex 5.167555899302715 2.6778051419499983e-16 61.60707429439628
    vertex 5.512212356943689 1.8883842550368245e-16 60.77499999999997
  endloop
endfacet
facet normal 0.9238795325112873 2.2163260326414568e-15 0.3826834323650889
  outer loop
    vertex 5.16755589930271 4.0000000000000036 61.60707429439627
    vertex 5.167555899302715 2.6778051419499983e-16 61.60707429439628
    vertex 5.5122123569436825 4.0000000000000036 60.77499999999996
  endloop
endfacet
facet normal 0.7933533402912406 2.4089611628359958e-15 0.6087614290087136
  outer loop
    vertex 5.929165256145117 4.0000000000000036 60.231616402480945
    vertex 5.512212356943689 1.8883842550368245e-16 60.77499999999997
    vertex 5.9291652561451205 -2.1521027671116537e-16 60.23161640248095
  endloop
endfacet
facet normal 0.7933533402912386 2.964021338604652e-15 0.6087614290087161
  outer loop
    vertex 5.5122123569436825 4.0000000000000036 60.77499999999996
    vertex 5.512212356943689 1.8883842550368245e-16 60.77499999999997
    vertex 5.929165256145117 4.0000000000000036 60.231616402480945
  endloop
endfacet
facet normal 0.6087614290087102 5.32886083019281e-15 0.7933533402912433
  outer loop
    vertex 6.775000000000003 -2.834629055330909e-16 59.512212356943685
    vertex 6.060481604906405 4.0000000000000036 60.06048160490638
    vertex 6.0604816049064105 1.2104931713087915e-16 60.0604816049064
  endloop
endfacet
facet normal 0.6087614290087022 3.068910213050821e-15 0.7933533402912493
  outer loop
    vertex 6.775000000000003 -2.834629055330909e-16 59.512212356943685
    vertex 6.774999999999998 4.0000000000000036 59.51221235694368
    vertex 6.060481604906405 4.0000000000000036 60.06048160490638
  endloop
endfacet
facet normal 0.38268343236511576 3.1535783350022973e-15 0.9238795325112761
  outer loop
    vertex 7.6070742943963 -3.1616178931109587e-16 59.16755589930269
    vertex 6.774999999999998 4.0000000000000036 59.51221235694368
    vertex 6.775000000000003 -2.834629055330909e-16 59.512212356943685
  endloop
endfacet
facet normal 0.38268343236511443 2.8668893954566152e-15 0.9238795325112765
  outer loop
    vertex 7.6070742943963 -3.1616178931109587e-16 59.16755589930269
    vertex 7.607074294396297 4.0000000000000036 59.16755589930268
    vertex 6.774999999999998 4.0000000000000036 59.51221235694368
  endloop
endfacet
facet normal 0.13052619222004436 2.894998177664594e-15 0.9914448613738114
  outer loop
    vertex 8.499999999999998 -3.273147696296084e-16 59.04999999999998
    vertex 7.607074294396297 4.0000000000000036 59.16755589930268
    vertex 7.6070742943963 -3.1616178931109587e-16 59.16755589930269
  endloop
endfacet
facet normal 0.13052619222003164 2.5687650201105427e-18 0.9914448613738132
  outer loop
    vertex 8.499999999999998 4.0000000000000036 59.04999999999998
    vertex 7.607074294396297 4.0000000000000036 59.16755589930268
    vertex 8.499999999999998 -3.273147696296084e-16 59.04999999999998
  endloop
endfacet
facet normal -0.13052619222004394 -2.568765020110538e-18 0.9914448613738114
  outer loop
    vertex 9.3929257056037 -3.1616178931109587e-16 59.16755589930269
    vertex 8.499999999999998 4.0000000000000036 59.04999999999998
    vertex 8.499999999999998 -3.273147696296084e-16 59.04999999999998
  endloop
endfacet
facet normal -0.13052619222003248 2.6124340254524553e-15 0.9914448613738129
  outer loop
    vertex 9.3929257056037 -3.1616178931109587e-16 59.16755589930269
    vertex 9.392925705603695 4.0000000000000036 59.16755589930268
    vertex 8.499999999999998 4.0000000000000036 59.04999999999998
  endloop
endfacet
facet normal -0.3826834323651133 2.0729815628686163e-15 0.9238795325112771
  outer loop
    vertex 10.225000000000003 -6.359587158515781e-16 59.512212356943685
    vertex 9.392925705603695 4.0000000000000036 59.16755589930268
    vertex 9.3929257056037 -3.1616178931109587e-16 59.16755589930269
  endloop
endfacet
facet normal -0.38268343236511493 1.665001148899808e-15 0.9238795325112763
  outer loop
    vertex 10.225000000000003 -6.359587158515781e-16 59.512212356943685
    vertex 10.224999999999993 4.0000000000000036 59.51221235694368
    vertex 9.392925705603695 4.0000000000000036 59.16755589930268
  endloop
endfacet
facet normal -0.6087614290086933 7.447564533763519e-16 0.7933533402912563
  outer loop
    vertex 10.939518395093597 -5.83942303506097e-16 60.06048160490638
    vertex 10.224999999999993 4.0000000000000036 59.51221235694368
    vertex 10.225000000000003 -6.359587158515781e-16 59.512212356943685
  endloop
endfacet
facet normal -0.608761429008694 5.264657687660435e-16 0.7933533402912557
  outer loop
    vertex 10.939518395093597 -5.83942303506097e-16 60.06048160490638
    vertex 10.939518395093586 4.0000000000000036 60.060481604906364
    vertex 10.224999999999993 4.0000000000000036 59.51221235694368
  endloop
endfacet
facet normal -0.7933533402912344 -5.211260139505813e-16 0.6087614290087215
  outer loop
    vertex 11.070834743854878 4.0000000000000036 60.231616402480945
    vertex 10.939518395093597 -5.83942303506097e-16 60.06048160490638
    vertex 11.070834743854888 -5.677060870296527e-16 60.23161640248095
  endloop
endfacet
facet normal -0.7933533402912344 -5.211260139505813e-16 0.6087614290087215
  outer loop
    vertex 10.939518395093586 4.0000000000000036 60.060481604906364
    vertex 10.939518395093597 -5.83942303506097e-16 60.06048160490638
    vertex 11.070834743854878 4.0000000000000036 60.231616402480945
  endloop
endfacet
facet normal -0.7933533402912426 4.440481406149311e-17 0.608761429008711
  outer loop
    vertex 11.487787643056308 4.0000000000000036 60.77499999999996
    vertex 11.070834743854888 -5.677060870296527e-16 60.23161640248095
    vertex 11.487787643056317 -5.161531951332922e-16 60.77499999999997
  endloop
endfacet
facet normal -0.7933533402912406 -5.217565652225428e-16 0.6087614290087134
  outer loop
    vertex 11.070834743854878 4.0000000000000036 60.231616402480945
    vertex 11.070834743854888 -5.677060870296527e-16 60.23161640248095
    vertex 11.487787643056308 4.0000000000000036 60.77499999999996
  endloop
endfacet
facet normal -0.9238795325112862 -5.513248837416701e-16 0.3826834323650913
  outer loop
    vertex 11.83244410069728 4.0000000000000036 61.607074294396256
    vertex 11.487787643056317 -5.161531951332922e-16 60.77499999999997
    vertex 11.832444100697288 -4.372111064419759e-16 61.60707429439627
  endloop
endfacet
facet normal -0.9238795325112855 -8.71093316311838e-16 0.3826834323650926
  outer loop
    vertex 11.487787643056308 4.0000000000000036 60.77499999999996
    vertex 11.487787643056317 -5.161531951332922e-16 60.77499999999997
    vertex 11.83244410069728 4.0000000000000036 61.607074294396256
  endloop
endfacet
facet normal -0.9914448613738116 1.0840188384866303e-15 0.13052619222004294
  outer loop
    vertex 11.949999999999996 4.0000000000000036 62.49999999999995
    vertex 11.832444100697288 -4.372111064419759e-16 61.60707429439627
    vertex 11.949999999999996 -3.524958103184884e-16 62.49999999999998
  endloop
endfacet
facet normal -0.9914448613738103 -1.37685805077926e-15 0.13052619222005382
  outer loop
    vertex 11.83244410069728 4.0000000000000036 61.607074294396256
    vertex 11.832444100697288 -4.372111064419759e-16 61.60707429439627
    vertex 11.949999999999996 4.0000000000000036 62.49999999999995
  endloop
endfacet
facet normal -0.9914448613738112 -2.1166623765711557e-15 -0.13052619222004613
  outer loop
    vertex 11.83244410069728 4.0000000000000036 63.39292570560365
    vertex 11.949999999999996 -3.524958103184884e-16 62.49999999999998
    vertex 11.832444100697288 -2.6778051419500244e-16 63.39292570560366
  endloop
endfacet
facet normal -0.9914448613738103 -3.853147530165839e-16 -0.13052619222005382
  outer loop
    vertex 11.949999999999996 4.0000000000000036 62.49999999999995
    vertex 11.949999999999996 -3.524958103184884e-16 62.49999999999998
    vertex 11.83244410069728 4.0000000000000036 63.39292570560365
  endloop
endfacet
facet normal -0.9238795325112897 -2.3927499954387274e-15 -0.3826834323650824
  outer loop
    vertex 11.487787643056311 4.0000000000000036 64.22499999999997
    vertex 11.832444100697288 -2.6778051419500244e-16 63.39292570560366
    vertex 11.487787643056317 -1.888384255036845e-16 64.22499999999998
  endloop
endfacet
facet normal -0.9238795325112903 -2.7014919303340488e-15 -0.3826834323650811
  outer loop
    vertex 11.83244410069728 4.0000000000000036 63.39292570560365
    vertex 11.832444100697288 -2.6778051419500244e-16 63.39292570560366
    vertex 11.487787643056311 4.0000000000000036 64.22499999999997
  endloop
endfacet
facet normal -3.061143132850161e-17 -1.0 4.6898117409921645e-17
  outer loop
    vertex 20.0 0.0 55.0
    vertex 10.225000000000003 -6.359587158515781e-16 59.512212356943685
    vertex 0.0 0.0 55.0
  endloop
endfacet
facet normal -3.061143132850161e-17 -1.0 4.6898117409921645e-17
  outer loop
    vertex 10.225000000000003 -6.359587158515781e-16 59.512212356943685
    vertex 20.0 0.0 55.0
    vertex 10.939518395093597 -5.83942303506097e-16 60.06048160490638
  endloop
endfacet
facet normal -3.061143132850161e-17 -1.0 4.6898117409921645e-17
  outer loop
    vertex 10.939518395093597 -5.83942303506097e-16 60.06048160490638
    vertex 20.0 0.0 55.0
    vertex 20.0 0.0 70.0
  endloop
endfacet
facet normal -3.061143132850161e-17 -1.0 4.6898117409921645e-17
  outer loop
    vertex 0.0 0.0 55.0
    vertex 10.225000000000003 -6.359587158515781e-16 59.512212356943685
    vertex 9.3929257056037 -3.1616178931109587e-16 59.16755589930269
  endloop
endfacet
facet normal -3.061143132850161e-17 -1.0 4.6898117409921645e-17
  outer loop
    vertex 0.0 0.0 55.0
    vertex 9.3929257056037 -3.1616178931109587e-16 59.16755589930269
    vertex 8.499999999999998 -3.273147696296084e-16 59.04999999999998
  endloop
endfacet
facet normal -3.061143132850161e-17 -1.0 4.6898117409921645e-17
  outer loop
    vertex 10.939518395093597 -5.83942303506097e-16 60.06048160490638
    vertex 20.0 0.0 70.0
    vertex 11.070834743854888 -5.677060870296527e-16 60.23161640248095
  endloop
endfacet
facet normal -3.061143132850161e-17 -1.0 4.6898117409921645e-17
  outer loop
    vertex 11.070834743854888 -5.677060870296527e-16 60.23161640248095
    vertex 20.0 0.0 70.0
    vertex 11.487787643056317 -5.161531951332922e-16 60.77499999999997
  endloop
endfacet
facet normal -3.061143132850161e-17 -1.0 4.6898117409921645e-17
  outer loop
    vertex 11.487787643056317 -5.161531951332922e-16 60.77499999999997
    vertex 20.0 0.0 70.0
    vertex 11.832444100697288 -4.372111064419759e-16 61.60707429439627
  endloop
endfacet
facet normal -3.061143132850161e-17 -1.0 4.6898117409921645e-17
  outer loop
    vertex 11.832444100697288 -4.372111064419759e-16 61.60707429439627
    vertex 20.0 0.0 70.0
    vertex 11.949999999999996 -3.524958103184884e-16 62.49999999999998
  endloop
endfacet
facet normal -3.061143132850161e-17 -1.0 4.6898117409921645e-17
  outer loop
    vertex 11.949999999999996 -3.524958103184884e-16 62.49999999999998
    vertex 20.0 0.0 70.0
    vertex 11.832444100697288 -2.6778051419500244e-16 63.39292570560366
  endloop
endfacet
facet normal -3.061143132850161e-17 -1.0 4.6898117409921645e-17
  outer loop
    vertex 11.832444100697288 -2.6778051419500244e-16 63.39292570560366
    vertex 20.0 0.0 70.0
    vertex 11.487787643056317 -1.888384255036845e-16 64.22499999999998
  endloop
endfacet
facet normal -3.061143132850161e-17 -1.0 4.6898117409921645e-17
  outer loop
    vertex 11.487787643056317 -1.888384255036845e-16 64.22499999999998
    vertex 20.0 0.0 70.0
    vertex 11.070834743854888 2.1521027671116264e-16 64.76838359751899
  endloop
endfacet
facet normal -3.061143132850161e-17 -1.0 4.6898117409921645e-17
  outer loop
    vertex 11.070834743854888 2.1521027671116264e-16 64.76838359751899
    vertex 20.0 0.0 70.0
    vertex 10.939518395093597 -1.210493171308802e-16 64.93951839509356
  endloop
endfacet
facet normal -3.061143132850161e-17 -1.0 4.6898117409921645e-17
  outer loop
    vertex 10.939518395093597 -1.210493171308802e-16 64.93951839509356
    vertex 20.0 0.0 70.0
    vertex 10.225000000000003 2.834629055330906e-16 65.48778764305631
  endloop
endfacet
facet normal -3.061143132850161e-17 -1.0 4.6898117409921645e-17
  outer loop
    vertex 10.225000000000003 2.834629055330906e-16 65.48778764305631
    vertex 20.0 0.0 70.0
    vertex 9.3929257056037 3.161617893110933e-16 65.83244410069724
  endloop
endfacet
facet normal -3.061143132850161e-17 -1.0 4.6898117409921645e-17
  outer loop
    vertex 9.3929257056037 3.161617893110933e-16 65.83244410069724
    vertex 20.0 0.0 70.0
    vertex 8.499999999999998 3.2731476962960616e-16 65.94999999999997
  endloop
endfacet
facet normal -3.061143132850161e-17 -1.0 4.6898117409921645e-17
  outer loop
    vertex 0.0 0.0 55.0
    vertex 5.512212356943689 1.8883842550368245e-16 60.77499999999997
    vertex 0.0 0.0 70.0
  endloop
endfacet
facet normal -3.061143132850161e-17 -1.0 4.6898117409921645e-17
  outer loop
    vertex 5.512212356943689 1.8883842550368245e-16 60.77499999999997
    vertex 0.0 0.0 55.0
    vertex 5.9291652561451205 -2.1521027671116537e-16 60.23161640248095
  endloop
endfacet
facet normal -3.061143132850161e-17 -1.0 4.6898117409921645e-17
  outer loop
    vertex 5.9291652561451205 -2.1521027671116537e-16 60.23161640248095
    vertex 0.0 0.0 55.0
    vertex 6.0604816049064105 1.2104931713087915e-16 60.0604816049064
  endloop
endfacet
facet normal -3.061143132850161e-17 -1.0 4.6898117409921645e-17
  outer loop
    vertex 6.0604816049064105 1.2104931713087915e-16 60.0604816049064
    vertex 0.0 0.0 55.0
    vertex 6.775000000000003 -2.834629055330909e-16 59.512212356943685
  endloop
endfacet
facet normal -3.061143132850161e-17 -1.0 4.6898117409921645e-17
  outer loop
    vertex 6.775000000000003 -2.834629055330909e-16 59.512212356943685
    vertex 0.0 0.0 55.0
    vertex 7.6070742943963 -3.1616178931109587e-16 59.16755589930269
  endloop
endfacet
facet normal -3.061143132850161e-17 -1.0 4.6898117409921645e-17
  outer loop
    vertex 7.6070742943963 -3.1616178931109587e-16 59.16755589930269
    vertex 0.0 0.0 55.0
    vertex 8.499999999999998 -3.273147696296084e-16 59.04999999999998
  endloop
endfacet
facet normal -3.061143132850161e-17 -1.0 4.6898117409921645e-17
  outer loop
    vertex 0.0 0.0 70.0
    vertex 5.512212356943689 1.8883842550368245e-16 60.77499999999997
    vertex 5.167555899302715 2.6778051419499983e-16 61.60707429439628
  endloop
endfacet
facet normal -3.061143132850161e-17 -1.0 4.6898117409921645e-17
  outer loop
    vertex 0.0 0.0 70.0
    vertex 5.167555899302715 2.6778051419499983e-16 61.60707429439628
    vertex 5.049999999999998 3.524958103184856e-16 62.49999999999998
  endloop
endfacet
facet normal -3.061143132850161e-17 -1.0 4.6898117409921645e-17
  outer loop
    vertex 0.0 0.0 70.0
    vertex 5.049999999999998 3.524958103184856e-16 62.49999999999998
    vertex 5.167555899302715 4.3721110644197335e-16 63.39292570560367
  endloop
endfacet
facet normal -3.061143132850161e-17 -1.0 4.6898117409921645e-17
  outer loop
    vertex 0.0 0.0 70.0
    vertex 5.167555899302715 4.3721110644197335e-16 63.39292570560367
    vertex 5.512212356943689 5.161531951332895e-16 64.22499999999998
  endloop
endfacet
facet normal -3.061143132850161e-17 -1.0 4.6898117409921645e-17
  outer loop
    vertex 0.0 0.0 70.0
    vertex 5.512212356943689 5.161531951332895e-16 64.22499999999998
    vertex 5.929165256145116 2.1521027671116264e-16 64.76838359751899
  endloop
endfacet
facet normal -3.061143132850161e-17 -1.0 4.6898117409921645e-17
  outer loop
    vertex 0.0 0.0 70.0
    vertex 5.929165256145116 2.1521027671116264e-16 64.76838359751899
    vertex 6.0604816049064105 5.83942303506094e-16 64.93951839509356
  endloop
endfacet
facet normal -3.061143132850161e-17 -1.0 4.6898117409921645e-17
  outer loop
    vertex 0.0 0.0 70.0
    vertex 6.0604816049064105 5.83942303506094e-16 64.93951839509356
    vertex 6.775000000000008 6.359587158515777e-16 65.48778764305631
  endloop
endfacet
facet normal -3.061143132850161e-17 -1.0 4.6898117409921645e-17
  outer loop
    vertex 0.0 0.0 70.0
    vertex 6.775000000000008 6.359587158515777e-16 65.48778764305631
    vertex 7.6070742943963 3.161617893110933e-16 65.83244410069724
  endloop
endfacet
facet normal -3.061143132850161e-17 -1.0 4.6898117409921645e-17
  outer loop
    vertex 0.0 0.0 70.0
    vertex 7.6070742943963 3.161617893110933e-16 65.83244410069724
    vertex 8.499999999999998 3.2731476962960616e-16 65.94999999999997
  endloop
endfacet
facet normal -3.061143132850161e-17 -1.0 4.6898117409921645e-17
  outer loop
    vertex 0.0 0.0 70.0
    vertex 8.499999999999998 3.2731476962960616e-16 65.94999999999997
    vertex 20.0 0.0 70.0
  endloop
endfacet
facet normal -0.9459514862813723 1.76076675304693e-15 -0.324308164562755
  outer loop
    vertex 11.589571704729353 3.9999999999999996 9.035267625313498
    vertex 11.881653602530474 -2.8766712115048133e-16 8.183314651161977
    vertex 11.589571704729346 -2.068390656520279e-16 9.035267625313502
  endloop
endfacet
facet normal -0.9459514862813718 1.997689496576194e-15 -0.324308164562756
  outer loop
    vertex 11.881653602530482 3.9999999999999996 8.183314651161977
    vertex 11.881653602530474 -2.8766712115048133e-16 8.183314651161977
    vertex 11.589571704729353 3.9999999999999996 9.035267625313498
  endloop
endfacet
facet normal 0.9459514862813706 -7.699989164700782e-16 0.32430816456275946
  outer loop
    vertex 5.410428295270648 4.000000000000001 5.964732374686493
    vertex 5.118346397469516 9.926587417874557e-16 6.81668534883801
    vertex 5.410428295270645 9.118306862890028e-16 5.964732374686494
  endloop
endfacet
facet normal 0.9459514862813714 -1.276152050373481e-15 0.3243081645627572
  outer loop
    vertex 5.11834639746952 4.000000000000001 6.816685348838011
    vertex 5.118346397469516 9.926587417874557e-16 6.81668534883801
    vertex 5.410428295270648 4.000000000000001 5.964732374686493
  endloop
endfacet
facet normal 0.9976561004867901 -1.2546875958040012e-15 0.06842737143491642
  outer loop
    vertex 5.11834639746952 4.000000000000001 6.816685348838011
    vertex 5.056718604234031 1.0779047653182343e-15 7.715205087235361
    vertex 5.118346397469516 9.926587417874557e-16 6.81668534883801
  endloop
endfacet
facet normal 0.9976561004867901 -1.2802153190146587e-15 0.06842737143491631
  outer loop
    vertex 5.056718604234036 4.000000000000001 7.715205087235364
    vertex 5.056718604234031 1.0779047653182343e-15 7.715205087235361
    vertex 5.11834639746952 4.000000000000001 6.816685348838011
  endloop
endfacet
facet normal -0.7538348523067357 1.9883853111195053e-15 0.6570639355859382
  outer loop
    vertex 11.374366617493983 3.9999999999999996 5.591986229547538
    vertex 11.064856093020815 1.3778601972508453e-16 5.23689168262869
    vertex 11.374366617493973 -1.8102060513790304e-16 5.591986229547539
  endloop
endfacet
facet normal -0.7538348523067362 2.0563115173999636e-15 0.6570639355859379
  outer loop
    vertex 11.064856093020824 3.9999999999999996 5.236891682628688
    vertex 11.064856093020815 1.3778601972508453e-16 5.23689168262869
    vertex 11.374366617493983 3.9999999999999996 5.591986229547538
  endloop
endfacet
facet normal 0.9813721001486935 -6.799242471499135e-16 -0.1921166339746322
  outer loop
    vertex 5.229744747828446 4.0 8.599058954580856
    vertex 5.229744747828443 8.092635709349433e-16 8.599058954580856
    vertex 5.056718604234031 1.0779047653182343e-15 7.715205087235361
  endloop
endfacet
facet normal 0.9813721001486939 -1.0743841157254428e-15 -0.1921166339746304
  outer loop
    vertex 5.056718604234036 4.000000000000001 7.715205087235364
    vertex 5.229744747828446 4.0 8.599058954580856
    vertex 5.056718604234031 1.0779047653182343e-15 7.715205087235361
  endloop
endfacet
facet normal 0.8982092129795399 -6.237895863701808e-16 -0.4395682082665616
  outer loop
    vertex 5.229744747828446 4.0 8.599058954580856
    vertex 5.625633382506014 8.860122257748778e-16 9.408013770452456
    vertex 5.229744747828443 8.092635709349433e-16 8.599058954580856
  endloop
endfacet
facet normal 0.898209212979539 -1.1114796266232305e-15 -0.4395682082665637
  outer loop
    vertex 5.625633382506019 4.0 9.408013770452456
    vertex 5.625633382506014 8.860122257748778e-16 9.408013770452456
    vertex 5.229744747828446 4.0 8.599058954580856
  endloop
endfacet
facet normal -0.9976561004867899 2.109866323361133e-15 -0.06842737143491923
  outer loop
    vertex 11.881653602530482 3.9999999999999996 8.183314651161977
    vertex 11.943281395765961 -3.7291314468125977e-16 7.284794912764621
    vertex 11.881653602530474 -2.8766712115048133e-16 8.183314651161977
  endloop
endfacet
facet normal -0.9976561004867901 1.4065775489074222e-15 -0.06842737143491609
  outer loop
    vertex 11.943281395765966 3.9999999999999996 7.284794912764621
    vertex 11.943281395765961 -3.7291314468125977e-16 7.284794912764621
    vertex 11.881653602530482 3.9999999999999996 8.183314651161977
  endloop
endfacet
facet normal 0.7538348523067354 -9.324415589411271e-16 -0.6570639355859385
  outer loop
    vertex 5.625633382506019 4.0 9.408013770452456
    vertex 5.9351439069791745 9.197014112303776e-16 9.763108317371307
    vertex 5.625633382506014 8.860122257748778e-16 9.408013770452456
  endloop
endfacet
facet normal 0.7538348523067371 -6.977873917903756e-16 -0.6570639355859369
  outer loop
    vertex 5.93514390697918 4.0 9.763108317371307
    vertex 5.9351439069791745 9.197014112303776e-16 9.763108317371307
    vertex 5.625633382506019 4.0 9.408013770452456
  endloop
endfacet
facet normal 0.7538348523067367 -8.018924991019313e-16 -0.6570639355859371
  outer loop
    vertex 6.217405352050381 3.9999999999999996 10.086940601009566
    vertex 6.217405352050377 5.979288152068716e-16 10.086940601009566
    vertex 5.9351439069791745 9.197014112303776e-16 9.763108317371307
  endloop
endfacet
facet normal 0.7538348523067362 -7.053684019878155e-16 -0.6570639355859379
  outer loop
    vertex 5.93514390697918 4.0 9.763108317371307
    vertex 6.217405352050381 3.9999999999999996 10.086940601009566
    vertex 5.9351439069791745 9.197014112303776e-16 9.763108317371307
  endloop
endfacet
facet normal -0.7538348523067439 2.0567057615855105e-15 0.657063935585929
  outer loop
    vertex 11.064856093020824 3.9999999999999996 5.236891682628688
    vertex 10.782594647949617 1.0706280543010323e-16 4.91305939899043
    vertex 11.064856093020815 1.3778601972508453e-16 5.23689168262869
  endloop
endfacet
facet normal -0.7538348523067433 1.9750315255658935e-15 0.6570639355859297
  outer loop
    vertex 10.782594647949628 3.9999999999999996 4.91305939899043
    vertex 10.782594647949617 1.0706280543010323e-16 4.91305939899043
    vertex 11.064856093020824 3.9999999999999996 5.236891682628688
  endloop
endfacet
facet normal 0.5580878922202247 -6.015685031222425e-16 -0.8297818415446236
  outer loop
    vertex 6.964732374686502 3.9999999999999996 10.589571704729348
    vertex 6.217405352050377 5.979288152068716e-16 10.086940601009566
    vertex 6.217405352050381 3.9999999999999996 10.086940601009566
  endloop
endfacet
facet normal 0.5580878922202269 -1.178583189790541e-15 -0.8297818415446222
  outer loop
    vertex 6.964732374686502 3.9999999999999996 10.589571704729348
    vertex 6.9647323746864895 6.456153612714266e-16 10.589571704729346
    vertex 6.217405352050377 5.979288152068716e-16 10.086940601009566
  endloop
endfacet
facet normal -0.5580878922202255 6.997837689381286e-16 0.8297818415446232
  outer loop
    vertex 10.782594647949617 1.0706280543010323e-16 4.91305939899043
    vertex 10.035267625313505 3.9999999999999996 4.4104282952706475
    vertex 10.035267625313502 5.937625936554783e-17 4.410428295270649
  endloop
endfacet
facet normal -0.5580878922202223 1.5223366201460795e-15 0.8297818415446252
  outer loop
    vertex 10.782594647949628 3.9999999999999996 4.91305939899043
    vertex 10.035267625313505 3.9999999999999996 4.4104282952706475
    vertex 10.782594647949617 1.0706280543010323e-16 4.91305939899043
  endloop
endfacet
facet normal 0.3243081645627575 -3.607687231013646e-16 -0.9459514862813714
  outer loop
    vertex 7.8166853488380195 3.9999999999999996 10.881653602530477
    vertex 6.9647323746864895 6.456153612714266e-16 10.589571704729346
    vertex 6.964732374686502 3.9999999999999996 10.589571704729348
  endloop
endfacet
facet normal 0.32430816456275746 -3.499995074863949e-16 -0.9459514862813714
  outer loop
    vertex 7.8166853488380195 3.9999999999999996 10.881653602530477
    vertex 7.816685348838011 3.2083048402301356e-16 10.881653602530475
    vertex 6.9647323746864895 6.456153612714266e-16 10.589571704729346
  endloop
endfacet
facet normal -0.324308164562757 4.523070558285749e-16 0.9459514862813716
  outer loop
    vertex 10.035267625313502 5.937625936554783e-17 4.410428295270649
    vertex 9.183314651161986 4.0 4.118346397469519
    vertex 9.183314651161984 3.8416113661396115e-16 4.118346397469521
  endloop
endfacet
facet normal -0.3243081645627565 5.65383819785717e-16 0.9459514862813716
  outer loop
    vertex 10.035267625313505 3.9999999999999996 4.4104282952706475
    vertex 9.183314651161986 4.0 4.118346397469519
    vertex 10.035267625313502 5.937625936554783e-17 4.410428295270649
  endloop
endfacet
facet normal -0.06842737143491733 5.24594711979079e-16 0.9976561004867901
  outer loop
    vertex 9.183314651161984 3.8416113661396115e-16 4.118346397469521
    vertex 8.284794912764633 4.0 4.0567186042340335
    vertex 8.284794912764623 3.78314270832612e-16 4.056718604234035
  endloop
endfacet
facet normal -0.068427371434918 3.7398114503618757e-16 0.9976561004867899
  outer loop
    vertex 9.183314651161986 4.0 4.118346397469519
    vertex 8.284794912764633 4.0 4.0567186042340335
    vertex 9.183314651161984 3.8416113661396115e-16 4.118346397469521
  endloop
endfacet
facet normal -0.9813721001486926 1.3909900628716171e-15 0.19211663397463702
  outer loop
    vertex 11.943281395765966 3.9999999999999996 7.284794912764621
    vertex 11.770255252171546 -1.0427195029796828e-16 6.400941045419139
    vertex 11.943281395765961 -3.7291314468125977e-16 7.284794912764621
  endloop
endfacet
facet normal -0.9813721001486932 2.1383877085936756e-15 0.19211663397463377
  outer loop
    vertex 11.770255252171555 3.9999999999999996 6.400941045419138
    vertex 11.770255252171546 -1.0427195029796828e-16 6.400941045419139
    vertex 11.943281395765966 3.9999999999999996 7.284794912764621
  endloop
endfacet
facet normal 0.06842737143491623 2.042217856852889e-16 -0.9976561004867901
  outer loop
    vertex 8.715205087235374 3.9999999999999996 10.943281395765961
    vertex 7.816685348838011 3.2083048402301356e-16 10.881653602530475
    vertex 7.8166853488380195 3.9999999999999996 10.881653602530477
  endloop
endfacet
facet normal 0.06842737143491578 3.0250352004633034e-16 -0.9976561004867901
  outer loop
    vertex 8.715205087235374 3.9999999999999996 10.943281395765961
    vertex 8.71520508723537 3.2667734980436254e-16 10.94328139576596
    vertex 7.816685348838011 3.2083048402301356e-16 10.881653602530475
  endloop
endfacet
facet normal -0.19211663397463408 4.826943128621583e-16 -0.981372100148693
  outer loop
    vertex 9.599058954580862 3.9999999999999996 10.770255252171548
    vertex 8.71520508723537 3.2667734980436254e-16 10.94328139576596
    vertex 8.715205087235374 3.9999999999999996 10.943281395765961
  endloop
endfacet
facet normal -0.19211663397463144 -1.4532732000151294e-16 -0.9813721001486937
  outer loop
    vertex 9.599058954580862 3.9999999999999996 10.770255252171548
    vertex 9.599058954580851 -4.2234116262096704e-17 10.770255252171552
    vertex 8.71520508723537 3.2667734980436254e-16 10.94328139576596
  endloop
endfacet
facet normal 0.1921166339746341 4.67123528576282e-17 0.981372100148693
  outer loop
    vertex 8.284794912764623 3.78314270832612e-16 4.056718604234035
    vertex 7.400941045419144 4.000000000000001 4.229744747828446
    vertex 7.400941045419135 7.472257368990716e-16 4.229744747828447
  endloop
endfacet
facet normal 0.1921166339746333 -1.2975653571563393e-16 0.9813721001486932
  outer loop
    vertex 8.284794912764633 4.0 4.0567186042340335
    vertex 7.400941045419144 4.000000000000001 4.229744747828446
    vertex 8.284794912764623 3.78314270832612e-16 4.056718604234035
  endloop
endfacet
facet normal -0.43956820826656245 6.011063286839923e-16 -0.8982092129795398
  outer loop
    vertex 10.408013770452463 3.9999999999999996 10.374366617493976
    vertex 9.599058954580851 -4.2234116262096704e-17 10.770255252171552
    vertex 9.599058954580862 3.9999999999999996 10.770255252171548
  endloop
endfacet
facet normal -0.43956820826656556 1.4063619765436624e-15 -0.898209212979538
  outer loop
    vertex 10.408013770452463 3.9999999999999996 10.374366617493976
    vertex 10.408013770452456 -7.979359372832011e-17 10.374366617493974
    vertex 9.599058954580851 -4.2234116262096704e-17 10.770255252171552
  endloop
endfacet
facet normal 0.8297818415446223 -1.0558141075206882e-15 0.5580878922202268
  outer loop
    vertex 5.913059398990432 4.000000000000001 5.217405352050379
    vertex 5.410428295270645 9.118306862890028e-16 5.964732374686494
    vertex 5.913059398990427 8.40928897230417e-16 5.21740535205038
  endloop
endfacet
facet normal 0.8297818415446212 -6.629530442571752e-16 0.5580878922202281
  outer loop
    vertex 5.410428295270648 4.000000000000001 5.964732374686493
    vertex 5.410428295270645 9.118306862890028e-16 5.964732374686494
    vertex 5.913059398990432 4.000000000000001 5.217405352050379
  endloop
endfacet
facet normal -0.6570639355859365 1.6892220301782523e-15 -0.7538348523067373
  outer loop
    vertex 11.086940601009571 3.9999999999999996 9.782594647949617
    vertex 10.408013770452456 -7.979359372832011e-17 10.374366617493974
    vertex 10.408013770452463 3.9999999999999996 10.374366617493976
  endloop
endfacet
facet normal -0.6570639355859347 1.1892123092454865e-15 -0.7538348523067387
  outer loop
    vertex 11.086940601009571 3.9999999999999996 9.782594647949617
    vertex 11.086940601009564 -1.3593727659344203e-16 9.782594647949615
    vertex 10.408013770452456 -7.979359372832011e-17 10.374366617493974
  endloop
endfacet
facet normal -0.898209212979539 2.0528348206000476e-15 0.4395682082665637
  outer loop
    vertex 11.770255252171555 3.9999999999999996 6.400941045419138
    vertex 11.374366617493973 -1.8102060513790304e-16 5.591986229547539
    vertex 11.770255252171546 -1.0427195029796828e-16 6.400941045419139
  endloop
endfacet
facet normal -0.8982092129795394 2.2910090263050306e-15 0.43956820826656273
  outer loop
    vertex 11.374366617493983 3.9999999999999996 5.591986229547538
    vertex 11.374366617493973 -1.8102060513790304e-16 5.591986229547539
    vertex 11.770255252171555 3.9999999999999996 6.400941045419138
  endloop
endfacet
facet normal -0.8297818415446231 1.3627368131953035e-15 -0.5580878922202255
  outer loop
    vertex 11.086940601009571 3.9999999999999996 9.782594647949617
    vertex 11.589571704729346 -2.068390656520279e-16 9.035267625313502
    vertex 11.086940601009564 -1.3593727659344203e-16 9.782594647949615
  endloop
endfacet
facet normal -0.8297818415446231 1.3750137214222728e-15 -0.5580878922202255
  outer loop
    vertex 11.589571704729353 3.9999999999999996 9.035267625313498
    vertex 11.589571704729346 -2.068390656520279e-16 9.035267625313502
    vertex 11.086940601009571 3.9999999999999996 9.782594647949617
  endloop
endfacet
facet normal 0.6570639355859341 -7.973127982441271e-16 0.7538348523067394
  outer loop
    vertex 6.591986229547538 7.84785214365295e-16 4.625633382506021
    vertex 5.913059398990432 4.000000000000001 5.217405352050379
    vertex 5.913059398990427 8.40928897230417e-16 5.21740535205038
  endloop
endfacet
facet normal 0.6570639355859346 -6.486612595884417e-16 0.7538348523067389
  outer loop
    vertex 6.591986229547544 4.000000000000001 4.625633382506019
    vertex 5.913059398990432 4.000000000000001 5.217405352050379
    vertex 6.591986229547538 7.84785214365295e-16 4.625633382506021
  endloop
endfacet
facet normal 0.43956820826656556 -3.0622397876354573e-16 0.898209212979538
  outer loop
    vertex 7.400941045419135 7.472257368990716e-16 4.229744747828447
    vertex 6.591986229547544 4.000000000000001 4.625633382506019
    vertex 6.591986229547538 7.84785214365295e-16 4.625633382506021
  endloop
endfacet
facet normal 0.43956820826656423 -6.237895863701796e-16 0.8982092129795387
  outer loop
    vertex 7.400941045419144 4.000000000000001 4.229744747828446
    vertex 6.591986229547544 4.000000000000001 4.625633382506019
    vertex 7.400941045419135 7.472257368990716e-16 4.229744747828447
  endloop
endfacet
facet normal -5.085734885841009e-17 -1.0 -9.051010336816878e-18
  outer loop
    vertex 20.0 0.0 0.0
    vertex 10.035267625313502 5.937625936554783e-17 4.410428295270649
    vertex 0.0 0.0 0.0
  endloop
endfacet
facet normal -5.085734885841009e-17 -1.0 -9.051010336816878e-18
  outer loop
    vertex 10.035267625313502 5.937625936554783e-17 4.410428295270649
    vertex 20.0 0.0 0.0
    vertex 10.782594647949617 1.0706280543010323e-16 4.91305939899043
  endloop
endfacet
facet normal -5.085734885841009e-17 -1.0 -9.051010336816878e-18
  outer loop
    vertex 10.782594647949617 1.0706280543010323e-16 4.91305939899043
    vertex 20.0 0.0 0.0
    vertex 20.0 0.0 15.0
  endloop
endfacet
facet normal -5.085734885841009e-17 -1.0 -9.051010336816878e-18
  outer loop
    vertex 0.0 0.0 0.0
    vertex 10.035267625313502 5.937625936554783e-17 4.410428295270649
    vertex 9.183314651161984 3.8416113661396115e-16 4.118346397469521
  endloop
endfacet
facet normal -5.085734885841009e-17 -1.0 -9.051010336816878e-18
  outer loop
    vertex 0.0 0.0 0.0
    vertex 9.183314651161984 3.8416113661396115e-16 4.118346397469521
    vertex 8.284794912764623 3.78314270832612e-16 4.056718604234035
  endloop
endfacet
facet normal -5.085734885841009e-17 -1.0 -9.051010336816878e-18
  outer loop
    vertex 10.782594647949617 1.0706280543010323e-16 4.91305939899043
    vertex 20.0 0.0 15.0
    vertex 11.064856093020815 1.3778601972508453e-16 5.23689168262869
  endloop
endfacet
facet normal -5.085734885841009e-17 -1.0 -9.051010336816878e-18
  outer loop
    vertex 11.064856093020815 1.3778601972508453e-16 5.23689168262869
    vertex 20.0 0.0 15.0
    vertex 11.374366617493973 -1.8102060513790304e-16 5.591986229547539
  endloop
endfacet
facet normal -5.085734885841009e-17 -1.0 -9.051010336816878e-18
  outer loop
    vertex 11.374366617493973 -1.8102060513790304e-16 5.591986229547539
    vertex 20.0 0.0 15.0
    vertex 11.770255252171546 -1.0427195029796828e-16 6.400941045419139
  endloop
endfacet
facet normal -5.085734885841009e-17 -1.0 -9.051010336816878e-18
  outer loop
    vertex 11.770255252171546 -1.0427195029796828e-16 6.400941045419139
    vertex 20.0 0.0 15.0
    vertex 11.943281395765961 -3.7291314468125977e-16 7.284794912764621
  endloop
endfacet
facet normal -5.085734885841009e-17 -1.0 -9.051010336816878e-18
  outer loop
    vertex 11.943281395765961 -3.7291314468125977e-16 7.284794912764621
    vertex 20.0 0.0 15.0
    vertex 11.881653602530474 -2.8766712115048133e-16 8.183314651161977
  endloop
endfacet
facet normal -5.085734885841009e-17 -1.0 -9.051010336816878e-18
  outer loop
    vertex 11.881653602530474 -2.8766712115048133e-16 8.183314651161977
    vertex 20.0 0.0 15.0
    vertex 11.589571704729346 -2.068390656520279e-16 9.035267625313502
  endloop
endfacet
facet normal -5.085734885841009e-17 -1.0 -9.051010336816878e-18
  outer loop
    vertex 11.589571704729346 -2.068390656520279e-16 9.035267625313502
    vertex 20.0 0.0 15.0
    vertex 11.086940601009564 -1.3593727659344203e-16 9.782594647949615
  endloop
endfacet
facet normal -5.085734885841009e-17 -1.0 -9.051010336816878e-18
  outer loop
    vertex 11.086940601009564 -1.3593727659344203e-16 9.782594647949615
    vertex 20.0 0.0 15.0
    vertex 10.408013770452456 -7.979359372832011e-17 10.374366617493974
  endloop
endfacet
facet normal -5.085734885841009e-17 -1.0 -9.051010336816878e-18
  outer loop
    vertex 10.408013770452456 -7.979359372832011e-17 10.374366617493974
    vertex 20.0 0.0 15.0
    vertex 9.599058954580851 -4.2234116262096704e-17 10.770255252171552
  endloop
endfacet
facet normal -5.085734885841009e-17 -1.0 -9.051010336816878e-18
  outer loop
    vertex 9.599058954580851 -4.2234116262096704e-17 10.770255252171552
    vertex 20.0 0.0 15.0
    vertex 8.71520508723537 3.2667734980436254e-16 10.94328139576596
  endloop
endfacet
facet normal -5.085734885841009e-17 -1.0 -9.051010336816878e-18
  outer loop
    vertex 0.0 0.0 0.0
    vertex 5.410428295270645 9.118306862890028e-16 5.964732374686494
    vertex 0.0 0.0 15.0
  endloop
endfacet
facet normal -5.085734885841009e-17 -1.0 -9.051010336816878e-18
  outer loop
    vertex 5.410428295270645 9.118306862890028e-16 5.964732374686494
    vertex 0.0 0.0 0.0
    vertex 5.913059398990427 8.40928897230417e-16 5.21740535205038
  endloop
endfacet
facet normal -5.085734885841009e-17 -1.0 -9.051010336816878e-18
  outer loop
    vertex 5.913059398990427 8.40928897230417e-16 5.21740535205038
    vertex 0.0 0.0 0.0
    vertex 6.591986229547538 7.84785214365295e-16 4.625633382506021
  endloop
endfacet
facet normal -5.085734885841009e-17 -1.0 -9.051010336816878e-18
  outer loop
    vertex 6.591986229547538 7.84785214365295e-16 4.625633382506021
    vertex 0.0 0.0 0.0
    vertex 7.400941045419135 7.472257368990716e-16 4.229744747828447
  endloop
endfacet
facet normal -5.085734885841009e-17 -1.0 -9.051010336816878e-18
  outer loop
    vertex 7.400941045419135 7.472257368990716e-16 4.229744747828447
    vertex 0.0 0.0 0.0
    vertex 8.284794912764623 3.78314270832612e-16 4.056718604234035
  endloop
endfacet
facet normal -5.085734885841009e-17 -1.0 -9.051010336816878e-18
  outer loop
    vertex 0.0 0.0 15.0
    vertex 5.410428295270645 9.118306862890028e-16 5.964732374686494
    vertex 5.118346397469516 9.926587417874557e-16 6.81668534883801
  endloop
endfacet
facet normal -5.085734885841009e-17 -1.0 -9.051010336816878e-18
  outer loop
    vertex 0.0 0.0 15.0
    vertex 5.118346397469516 9.926587417874557e-16 6.81668534883801
    vertex 5.056718604234031 1.0779047653182343e-15 7.715205087235361
  endloop
endfacet
facet normal -5.085734885841009e-17 -1.0 -9.051010336816878e-18
  outer loop
    vertex 0.0 0.0 15.0
    vertex 5.056718604234031 1.0779047653182343e-15 7.715205087235361
    vertex 5.229744747828443 8.092635709349433e-16 8.599058954580856
  endloop
endfacet
facet normal -5.085734885841009e-17 -1.0 -9.051010336816878e-18
  outer loop
    vertex 0.0 0.0 15.0
    vertex 5.229744747828443 8.092635709349433e-16 8.599058954580856
    vertex 5.625633382506014 8.860122257748778e-16 9.408013770452456
  endloop
endfacet
facet normal -5.085734885841009e-17 -1.0 -9.051010336816878e-18
  outer loop
    vertex 0.0 0.0 15.0
    vertex 5.625633382506014 8.860122257748778e-16 9.408013770452456
    vertex 5.9351439069791745 9.197014112303776e-16 9.763108317371307
  endloop
endfacet
facet normal -5.085734885841009e-17 -1.0 -9.051010336816878e-18
  outer loop
    vertex 0.0 0.0 15.0
    vertex 5.9351439069791745 9.197014112303776e-16 9.763108317371307
    vertex 6.217405352050377 5.979288152068716e-16 10.086940601009566
  endloop
endfacet
facet normal -5.085734885841009e-17 -1.0 -9.051010336816878e-18
  outer loop
    vertex 0.0 0.0 15.0
    vertex 6.217405352050377 5.979288152068716e-16 10.086940601009566
    vertex 6.9647323746864895 6.456153612714266e-16 10.589571704729346
  endloop
endfacet
facet normal -5.085734885841009e-17 -1.0 -9.051010336816878e-18
  outer loop
    vertex 0.0 0.0 15.0
    vertex 6.9647323746864895 6.456153612714266e-16 10.589571704729346
    vertex 7.816685348838011 3.2083048402301356e-16 10.881653602530475
  endloop
endfacet
facet normal -5.085734885841009e-17 -1.0 -9.051010336816878e-18
  outer loop
    vertex 0.0 0.0 15.0
    vertex 7.816685348838011 3.2083048402301356e-16 10.881653602530475
    vertex 8.71520508723537 3.2667734980436254e-16 10.94328139576596
  endloop
endfacet
facet normal -5.085734885841009e-17 -1.0 -9.051010336816878e-18
  outer loop
    vertex 0.0 0.0 15.0
    vertex 8.71520508723537 3.2667734980436254e-16 10.94328139576596
    vertex 20.0 0.0 15.0
  endloop
endfacet
facet normal 9.789482436461486e-17 1.0 1.5019103392342868e-17
  outer loop
    vertex 8.294019066317345e-17 3.9999999999999996 -4.699944137579828e-17
    vertex 7.400941045419144 4.000000000000001 4.229744747828446
    vertex 17.0 3.9999999999999996 -4.699944137579828e-17
  endloop
endfacet
facet normal 9.789482436461486e-17 1.0 1.5019103392342868e-17
  outer loop
    vertex 7.400941045419144 4.000000000000001 4.229744747828446
    vertex 8.294019066317345e-17 3.9999999999999996 -4.699944137579828e-17
    vertex 6.591986229547544 4.000000000000001 4.625633382506019
  endloop
endfacet
facet normal 9.789482436461486e-17 1.0 1.5019103392342868e-17
  outer loop
    vertex 6.591986229547544 4.000000000000001 4.625633382506019
    vertex 8.294019066317345e-17 3.9999999999999996 -4.699944137579828e-17
    vertex 5.913059398990432 4.000000000000001 5.217405352050379
  endloop
endfacet
facet normal 9.789482436461486e-17 1.0 1.5019103392342868e-17
  outer loop
    vertex 5.913059398990432 4.000000000000001 5.217405352050379
    vertex 8.294019066317345e-17 3.9999999999999996 -4.699944137579828e-17
    vertex 5.410428295270648 4.000000000000001 5.964732374686493
  endloop
endfacet
facet normal 9.789482436461486e-17 1.0 1.5019103392342868e-17
  outer loop
    vertex 5.410428295270648 4.000000000000001 5.964732374686493
    vertex 8.294019066317345e-17 3.9999999999999996 -4.699944137579828e-17
    vertex 8.294019066317345e-17 4.000000000000001 15.0
  endloop
endfacet
facet normal 9.789482436461486e-17 1.0 1.5019103392342868e-17
  outer loop
    vertex 17.0 3.9999999999999996 -4.699944137579828e-17
    vertex 7.400941045419144 4.000000000000001 4.229744747828446
    vertex 8.284794912764633 4.0 4.0567186042340335
  endloop
endfacet
facet normal 9.789482436461486e-17 1.0 1.5019103392342868e-17
  outer loop
    vertex 5.410428295270648 4.000000000000001 5.964732374686493
    vertex 8.294019066317345e-17 4.000000000000001 15.0
    vertex 5.11834639746952 4.000000000000001 6.816685348838011
  endloop
endfacet
facet normal 9.789482436461486e-17 1.0 1.5019103392342868e-17
  outer loop
    vertex 5.11834639746952 4.000000000000001 6.816685348838011
    vertex 8.294019066317345e-17 4.000000000000001 15.0
    vertex 5.056718604234036 4.000000000000001 7.715205087235364
  endloop
endfacet
facet normal 9.789482436461486e-17 1.0 1.5019103392342868e-17
  outer loop
    vertex 5.056718604234036 4.000000000000001 7.715205087235364
    vertex 8.294019066317345e-17 4.000000000000001 15.0
    vertex 5.229744747828446 4.0 8.599058954580856
  endloop
endfacet
facet normal 9.789482436461486e-17 1.0 1.5019103392342868e-17
  outer loop
    vertex 5.229744747828446 4.0 8.599058954580856
    vertex 8.294019066317345e-17 4.000000000000001 15.0
    vertex 5.625633382506019 4.0 9.408013770452456
  endloop
endfacet
facet normal 9.789482436461486e-17 1.0 1.5019103392342868e-17
  outer loop
    vertex 5.625633382506019 4.0 9.408013770452456
    vertex 8.294019066317345e-17 4.000000000000001 15.0
    vertex 5.93514390697918 4.0 9.763108317371307
  endloop
endfacet
facet normal 9.789482436461486e-17 1.0 1.5019103392342868e-17
  outer loop
    vertex 5.93514390697918 4.0 9.763108317371307
    vertex 8.294019066317345e-17 4.000000000000001 15.0
    vertex 6.217405352050381 3.9999999999999996 10.086940601009566
  endloop
endfacet
facet normal 9.789482436461486e-17 1.0 1.5019103392342868e-17
  outer loop
    vertex 6.217405352050381 3.9999999999999996 10.086940601009566
    vertex 8.294019066317345e-17 4.000000000000001 15.0
    vertex 6.964732374686502 3.9999999999999996 10.589571704729348
  endloop
endfacet
facet normal 9.789482436461486e-17 1.0 1.5019103392342868e-17
  outer loop
    vertex 6.964732374686502 3.9999999999999996 10.589571704729348
    vertex 8.294019066317345e-17 4.000000000000001 15.0
    vertex 7.8166853488380195 3.9999999999999996 10.881653602530477
  endloop
endfacet
facet normal 9.789482436461486e-17 1.0 1.5019103392342868e-17
  outer loop
    vertex 7.8166853488380195 3.9999999999999996 10.881653602530477
    vertex 8.294019066317345e-17 4.000000000000001 15.0
    vertex 8.715205087235374 3.9999999999999996 10.943281395765961
  endloop
endfacet
facet normal 9.789482436461486e-17 1.0 1.5019103392342868e-17
  outer loop
    vertex 17.0 3.9999999999999996 -4.699944137579828e-17
    vertex 11.374366617493983 3.9999999999999996 5.591986229547538
    vertex 17.0 3.9999999999999996 15.0
  endloop
endfacet
facet normal 9.789482436461486e-17 1.0 1.5019103392342868e-17
  outer loop
    vertex 11.374366617493983 3.9999999999999996 5.591986229547538
    vertex 17.0 3.9999999999999996 -4.699944137579828e-17
    vertex 10.782594647949628 3.9999999999999996 4.91305939899043
  endloop
endfacet
facet normal 9.789482436461486e-17 1.0 1.5019103392342868e-17
  outer loop
    vertex 10.782594647949628 3.9999999999999996 4.91305939899043
    vertex 17.0 3.9999999999999996 -4.699944137579828e-17
    vertex 10.035267625313505 3.9999999999999996 4.4104282952706475
  endloop
endfacet
facet normal 9.789482436461486e-17 1.0 1.5019103392342868e-17
  outer loop
    vertex 10.035267625313505 3.9999999999999996 4.4104282952706475
    vertex 17.0 3.9999999999999996 -4.699944137579828e-17
    vertex 9.183314651161986 4.0 4.118346397469519
  endloop
endfacet
facet normal 9.789482436461486e-17 1.0 1.5019103392342868e-17
  outer loop
    vertex 9.183314651161986 4.0 4.118346397469519
    vertex 17.0 3.9999999999999996 -4.699944137579828e-17
    vertex 8.284794912764633 4.0 4.0567186042340335
  endloop
endfacet
facet normal 9.789482436461486e-17 1.0 1.5019103392342868e-17
  outer loop
    vertex 11.374366617493983 3.9999999999999996 5.591986229547538
    vertex 10.782594647949628 3.9999999999999996 4.91305939899043
    vertex 11.064856093020824 3.9999999999999996 5.236891682628688
  endloop
endfacet
facet normal 9.789482436461486e-17 1.0 1.5019103392342868e-17
  outer loop
    vertex 17.0 3.9999999999999996 15.0
    vertex 11.374366617493983 3.9999999999999996 5.591986229547538
    vertex 11.770255252171555 3.9999999999999996 6.400941045419138
  endloop
endfacet
facet normal 9.789482436461486e-17 1.0 1.5019103392342868e-17
  outer loop
    vertex 17.0 3.9999999999999996 15.0
    vertex 11.770255252171555 3.9999999999999996 6.400941045419138
    vertex 11.943281395765966 3.9999999999999996 7.284794912764621
  endloop
endfacet
facet normal 9.789482436461486e-17 1.0 1.5019103392342868e-17
  outer loop
    vertex 17.0 3.9999999999999996 15.0
    vertex 11.943281395765966 3.9999999999999996 7.284794912764621
    vertex 11.881653602530482 3.9999999999999996 8.183314651161977
  endloop
endfacet
facet normal 9.789482436461486e-17 1.0 1.5019103392342868e-17
  outer loop
    vertex 17.0 3.9999999999999996 15.0
    vertex 11.881653602530482 3.9999999999999996 8.183314651161977
    vertex 11.589571704729353 3.9999999999999996 9.035267625313498
  endloop
endfacet
facet normal 9.789482436461486e-17 1.0 1.5019103392342868e-17
  outer loop
    vertex 17.0 3.9999999999999996 15.0
    vertex 11.589571704729353 3.9999999999999996 9.035267625313498
    vertex 11.086940601009571 3.9999999999999996 9.782594647949617
  endloop
endfacet
facet normal 9.789482436461486e-17 1.0 1.5019103392342868e-17
  outer loop
    vertex 17.0 3.9999999999999996 15.0
    vertex 11.086940601009571 3.9999999999999996 9.782594647949617
    vertex 10.408013770452463 3.9999999999999996 10.374366617493976
  endloop
endfacet
facet normal 9.789482436461486e-17 1.0 1.5019103392342868e-17
  outer loop
    vertex 17.0 3.9999999999999996 15.0
    vertex 10.408013770452463 3.9999999999999996 10.374366617493976
    vertex 9.599058954580862 3.9999999999999996 10.770255252171548
  endloop
endfacet
facet normal 9.789482436461486e-17 1.0 1.5019103392342868e-17
  outer loop
    vertex 17.0 3.9999999999999996 15.0
    vertex 9.599058954580862 3.9999999999999996 10.770255252171548
    vertex 8.715205087235374 3.9999999999999996 10.943281395765961
  endloop
endfacet
facet normal 9.789482436461486e-17 1.0 1.5019103392342868e-17
  outer loop
    vertex 17.0 3.9999999999999996 15.0
    vertex 8.715205087235374 3.9999999999999996 10.943281395765961
    vertex 8.294019066317345e-17 4.000000000000001 15.0
  endloop
endfacet
facet normal 6.522551969872899e-17 1.0 -6.096284726098721e-17
  outer loop
    vertex 4.1470095331586724e-17 3.9999999999999996 55.0
    vertex 6.774999999999998 4.0000000000000036 59.51221235694368
    vertex 17.0 3.999999999999999 55.0
  endloop
endfacet
facet normal 6.522551969872899e-17 1.0 -6.096284726098721e-17
  outer loop
    vertex 6.774999999999998 4.0000000000000036 59.51221235694368
    vertex 4.1470095331586724e-17 3.9999999999999996 55.0
    vertex 6.060481604906405 4.0000000000000036 60.06048160490638
  endloop
endfacet
facet normal 6.522551969872899e-17 1.0 -6.096284726098721e-17
  outer loop
    vertex 6.060481604906405 4.0000000000000036 60.06048160490638
    vertex 4.1470095331586724e-17 3.9999999999999996 55.0
    vertex 5.929165256145117 4.0000000000000036 60.231616402480945
  endloop
endfacet
facet normal 6.522551969872899e-17 1.0 -6.096284726098721e-17
  outer loop
    vertex 5.929165256145117 4.0000000000000036 60.231616402480945
    vertex 4.1470095331586724e-17 3.9999999999999996 55.0
    vertex 5.5122123569436825 4.0000000000000036 60.77499999999996
  endloop
endfacet
facet normal 6.522551969872899e-17 1.0 -6.096284726098721e-17
  outer loop
    vertex 5.5122123569436825 4.0000000000000036 60.77499999999996
    vertex 4.1470095331586724e-17 3.9999999999999996 55.0
    vertex 4.1470095331586724e-17 3.9999999999999996 70.0
  endloop
endfacet
facet normal 6.522551969872899e-17 1.0 -6.096284726098721e-17
  outer loop
    vertex 17.0 3.999999999999999 55.0
    vertex 6.774999999999998 4.0000000000000036 59.51221235694368
    vertex 7.607074294396297 4.0000000000000036 59.16755589930268
  endloop
endfacet
facet normal 6.522551969872899e-17 1.0 -6.096284726098721e-17
  outer loop
    vertex 17.0 3.999999999999999 55.0
    vertex 7.607074294396297 4.0000000000000036 59.16755589930268
    vertex 8.499999999999998 4.0000000000000036 59.04999999999998
  endloop
endfacet
facet normal 6.522551969872899e-17 1.0 -6.096284726098721e-17
  outer loop
    vertex 5.5122123569436825 4.0000000000000036 60.77499999999996
    vertex 4.1470095331586724e-17 3.9999999999999996 70.0
    vertex 5.16755589930271 4.0000000000000036 61.60707429439627
  endloop
endfacet
facet normal 6.522551969872899e-17 1.0 -6.096284726098721e-17
  outer loop
    vertex 5.16755589930271 4.0000000000000036 61.60707429439627
    vertex 4.1470095331586724e-17 3.9999999999999996 70.0
    vertex 5.049999999999995 4.0000000000000036 62.49999999999995
  endloop
endfacet
facet normal 6.522551969872899e-17 1.0 -6.096284726098721e-17
  outer loop
    vertex 5.049999999999995 4.0000000000000036 62.49999999999995
    vertex 4.1470095331586724e-17 3.9999999999999996 70.0
    vertex 5.16755589930271 4.0000000000000036 63.39292570560366
  endloop
endfacet
facet normal 6.522551969872899e-17 1.0 -6.096284726098721e-17
  outer loop
    vertex 5.16755589930271 4.0000000000000036 63.39292570560366
    vertex 4.1470095331586724e-17 3.9999999999999996 70.0
    vertex 5.5122123569436825 4.0000000000000036 64.22499999999997
  endloop
endfacet
facet normal 6.522551969872899e-17 1.0 -6.096284726098721e-17
  outer loop
    vertex 5.5122123569436825 4.0000000000000036 64.22499999999997
    vertex 4.1470095331586724e-17 3.9999999999999996 70.0
    vertex 5.929165256145113 4.0000000000000036 64.76838359751898
  endloop
endfacet
facet normal 6.522551969872899e-17 1.0 -6.096284726098721e-17
  outer loop
    vertex 5.929165256145113 4.0000000000000036 64.76838359751898
    vertex 4.1470095331586724e-17 3.9999999999999996 70.0
    vertex 6.060481604906405 4.0000000000000036 64.93951839509356
  endloop
endfacet
facet normal 6.522551969872899e-17 1.0 -6.096284726098721e-17
  outer loop
    vertex 6.060481604906405 4.0000000000000036 64.93951839509356
    vertex 4.1470095331586724e-17 3.9999999999999996 70.0
    vertex 6.775 4.0000000000000036 65.48778764305631
  endloop
endfacet
facet normal 6.522551969872899e-17 1.0 -6.096284726098721e-17
  outer loop
    vertex 6.775 4.0000000000000036 65.48778764305631
    vertex 4.1470095331586724e-17 3.9999999999999996 70.0
    vertex 7.607074294396303 4.0000000000000036 65.83244410069724
  endloop
endfacet
facet normal 6.522551969872899e-17 1.0 -6.096284726098721e-17
  outer loop
    vertex 7.607074294396303 4.0000000000000036 65.83244410069724
    vertex 4.1470095331586724e-17 3.9999999999999996 70.0
    vertex 8.499999999999998 4.0000000000000036 65.94999999999997
  endloop
endfacet
facet normal 6.522551969872899e-17 1.0 -6.096284726098721e-17
  outer loop
    vertex 17.0 3.999999999999999 55.0
    vertex 11.487787643056308 4.0000000000000036 60.77499999999996
    vertex 17.0 3.9999999999999996 70.0
  endloop
endfacet
facet normal 6.522551969872899e-17 1.0 -6.096284726098721e-17
  outer loop
    vertex 11.487787643056308 4.0000000000000036 60.77499999999996
    vertex 17.0 3.999999999999999 55.0
    vertex 11.070834743854878 4.0000000000000036 60.231616402480945
  endloop
endfacet
facet normal 6.522551969872899e-17 1.0 -6.096284726098721e-17
  outer loop
    vertex 11.070834743854878 4.0000000000000036 60.231616402480945
    vertex 17.0 3.999999999999999 55.0
    vertex 10.939518395093586 4.0000000000000036 60.060481604906364
  endloop
endfacet
facet normal 6.522551969872899e-17 1.0 -6.096284726098721e-17
  outer loop
    vertex 10.939518395093586 4.0000000000000036 60.060481604906364
    vertex 17.0 3.999999999999999 55.0
    vertex 10.224999999999993 4.0000000000000036 59.51221235694368
  endloop
endfacet
facet normal 6.522551969872899e-17 1.0 -6.096284726098721e-17
  outer loop
    vertex 10.224999999999993 4.0000000000000036 59.51221235694368
    vertex 17.0 3.999999999999999 55.0
    vertex 9.392925705603695 4.0000000000000036 59.16755589930268
  endloop
endfacet
facet normal 6.522551969872899e-17 1.0 -6.096284726098721e-17
  outer loop
    vertex 9.392925705603695 4.0000000000000036 59.16755589930268
    vertex 17.0 3.999999999999999 55.0
    vertex 8.499999999999998 4.0000000000000036 59.04999999999998
  endloop
endfacet
facet normal 6.522551969872899e-17 1.0 -6.096284726098721e-17
  outer loop
    vertex 17.0 3.9999999999999996 70.0
    vertex 11.487787643056308 4.0000000000000036 60.77499999999996
    vertex 11.83244410069728 4.0000000000000036 61.607074294396256
  endloop
endfacet
facet normal 6.522551969872899e-17 1.0 -6.096284726098721e-17
  outer loop
    vertex 17.0 3.9999999999999996 70.0
    vertex 11.83244410069728 4.0000000000000036 61.607074294396256
    vertex 11.949999999999996 4.0000000000000036 62.49999999999995
  endloop
endfacet
facet normal 6.522551969872899e-17 1.0 -6.096284726098721e-17
  outer loop
    vertex 17.0 3.9999999999999996 70.0
    vertex 11.949999999999996 4.0000000000000036 62.49999999999995
    vertex 11.83244410069728 4.0000000000000036 63.39292570560365
  endloop
endfacet
facet normal 6.522551969872899e-17 1.0 -6.096284726098721e-17
  outer loop
    vertex 17.0 3.9999999999999996 70.0
    vertex 11.83244410069728 4.0000000000000036 63.39292570560365
    vertex 11.487787643056311 4.0000000000000036 64.22499999999997
  endloop
endfacet
facet normal 6.522551969872899e-17 1.0 -6.096284726098721e-17
  outer loop
    vertex 17.0 3.9999999999999996 70.0
    vertex 11.487787643056311 4.0000000000000036 64.22499999999997
    vertex 11.07083474385488 4.0000000000000036 64.76838359751898
  endloop
endfacet
facet normal 6.522551969872899e-17 1.0 -6.096284726098721e-17
  outer loop
    vertex 17.0 3.9999999999999996 70.0
    vertex 11.07083474385488 4.0000000000000036 64.76838359751898
    vertex 10.939518395093586 4.0000000000000036 64.93951839509356
  endloop
endfacet
facet normal 6.522551969872899e-17 1.0 -6.096284726098721e-17
  outer loop
    vertex 17.0 3.9999999999999996 70.0
    vertex 10.939518395093586 4.0000000000000036 64.93951839509356
    vertex 10.224999999999998 4.0000000000000036 65.48778764305631
  endloop
endfacet
facet normal 6.522551969872899e-17 1.0 -6.096284726098721e-17
  outer loop
    vertex 17.0 3.9999999999999996 70.0
    vertex 10.224999999999998 4.0000000000000036 65.48778764305631
    vertex 9.392925705603695 4.0000000000000036 65.83244410069724
  endloop
endfacet
facet normal 6.522551969872899e-17 1.0 -6.096284726098721e-17
  outer loop
    vertex 17.0 3.9999999999999996 70.0
    vertex 9.392925705603695 4.0000000000000036 65.83244410069724
    vertex 8.499999999999998 4.0000000000000036 65.94999999999997
  endloop
endfacet
facet normal 6.522551969872899e-17 1.0 -6.096284726098721e-17
  outer loop
    vertex 17.0 3.9999999999999996 70.0
    vertex 8.499999999999998 4.0000000000000036 65.94999999999997
    vertex 4.1470095331586724e-17 3.9999999999999996 70.0
  endloop
endfacet
endsolid holder_metalplate_base_right_y-axis
