solid holder_2xlimitswitches_z-axis_part1
facet normal 0.9914448613738103 -0.1305261922200539 0.0
  outer loop
    vertex 6.667555899302716 23.892925705603687 -136.00000000000003
    vertex 6.550000000000001 23.000000000000004 -132.00000000000003
    vertex 6.550000000000001 23.000000000000004 -136.00000000000003
  endloop
endfacet
facet normal 0.9914448613738103 -0.1305261922200539 0.0
  outer loop
    vertex 6.550000000000001 23.000000000000004 -132.00000000000003
    vertex 6.667555899302716 23.892925705603687 -136.00000000000003
    vertex 6.667555899302716 23.892925705603687 -132.00000000000003
  endloop
endfacet
facet normal 0.9914448613738105 0.13052619222005227 0.0
  outer loop
    vertex 6.550000000000001 23.000000000000004 -136.00000000000003
    vertex 6.667555899302716 22.107074294396305 -132.00000000000003
    vertex 6.667555899302716 22.107074294396305 -136.00000000000003
  endloop
endfacet
facet normal 0.9914448613738105 0.13052619222005227 0.0
  outer loop
    vertex 6.667555899302716 22.107074294396305 -132.00000000000003
    vertex 6.550000000000001 23.000000000000004 -136.00000000000003
    vertex 6.550000000000001 23.000000000000004 -132.00000000000003
  endloop
endfacet
facet normal 0.9238795325112888 0.3826834323650852 0.0
  outer loop
    vertex 6.667555899302716 22.107074294396305 -136.00000000000003
    vertex 7.012212356943689 21.274999999999988 -132.00000000000003
    vertex 7.012212356943689 21.274999999999988 -136.00000000000003
  endloop
endfacet
facet normal 0.9238795325112888 0.3826834323650852 0.0
  outer loop
    vertex 7.012212356943689 21.274999999999988 -132.00000000000003
    vertex 6.667555899302716 22.107074294396305 -136.00000000000003
    vertex 6.667555899302716 22.107074294396305 -132.00000000000003
  endloop
endfacet
facet normal 0.7933533402912301 0.6087614290087275 0.0
  outer loop
    vertex 7.012212356943689 21.274999999999988 -136.00000000000003
    vertex 7.560481604906411 20.560481604906414 -132.00000000000003
    vertex 7.560481604906411 20.560481604906414 -136.00000000000003
  endloop
endfacet
facet normal 0.7933533402912301 0.6087614290087275 0.0
  outer loop
    vertex 7.560481604906411 20.560481604906414 -132.00000000000003
    vertex 7.012212356943689 21.274999999999988 -136.00000000000003
    vertex 7.012212356943689 21.274999999999988 -132.00000000000003
  endloop
endfacet
facet normal 0.608761429008728 0.7933533402912297 0.0
  outer loop
    vertex 7.560481604906411 20.560481604906414 -132.00000000000003
    vertex 8.275 20.01221235694368 -136.00000000000003
    vertex 7.560481604906411 20.560481604906414 -136.00000000000003
  endloop
endfacet
facet normal 0.608761429008728 0.7933533402912297 0.0
  outer loop
    vertex 8.275 20.01221235694368 -136.00000000000003
    vertex 7.560481604906411 20.560481604906414 -132.00000000000003
    vertex 8.275 20.01221235694368 -132.00000000000003
  endloop
endfacet
facet normal 0.38268343236508073 0.9238795325112905 0.0
  outer loop
    vertex 8.275 20.01221235694368 -132.00000000000003
    vertex 9.107074294396304 19.667555899302716 -136.00000000000003
    vertex 8.275 20.01221235694368 -136.00000000000003
  endloop
endfacet
facet normal 0.38268343236508073 0.9238795325112905 0.0
  outer loop
    vertex 9.107074294396304 19.667555899302716 -136.00000000000003
    vertex 8.275 20.01221235694368 -132.00000000000003
    vertex 9.107074294396304 19.667555899302716 -132.00000000000003
  endloop
endfacet
facet normal 0.1305261922200571 0.9914448613738098 0.0
  outer loop
    vertex 9.107074294396304 19.667555899302716 -132.00000000000003
    vertex 10.0 19.549999999999997 -136.00000000000003
    vertex 9.107074294396304 19.667555899302716 -136.00000000000003
  endloop
endfacet
facet normal 0.1305261922200571 0.9914448613738098 0.0
  outer loop
    vertex 10.0 19.549999999999997 -136.00000000000003
    vertex 9.107074294396304 19.667555899302716 -132.00000000000003
    vertex 10.0 19.549999999999997 -132.00000000000003
  endloop
endfacet
facet normal -0.1305261922200571 0.9914448613738098 0.0
  outer loop
    vertex 10.0 19.549999999999997 -132.00000000000003
    vertex 10.892925705603696 19.667555899302716 -136.00000000000003
    vertex 10.0 19.549999999999997 -136.00000000000003
  endloop
endfacet
facet normal -0.1305261922200571 0.9914448613738098 0.0
  outer loop
    vertex 10.892925705603696 19.667555899302716 -136.00000000000003
    vertex 10.0 19.549999999999997 -132.00000000000003
    vertex 10.892925705603696 19.667555899302716 -132.00000000000003
  endloop
endfacet
facet normal -0.38268343236509206 0.923879532511286 0.0
  outer loop
    vertex 10.892925705603696 19.667555899302716 -132.00000000000003
    vertex 11.724999999999998 20.012212356943692 -136.00000000000003
    vertex 10.892925705603696 19.667555899302716 -136.00000000000003
  endloop
endfacet
facet normal -0.38268343236509206 0.923879532511286 0.0
  outer loop
    vertex 11.724999999999998 20.012212356943692 -136.00000000000003
    vertex 10.892925705603696 19.667555899302716 -132.00000000000003
    vertex 11.724999999999998 20.012212356943692 -132.00000000000003
  endloop
endfacet
facet normal -0.6087614290087201 0.7933533402912357 0.0
  outer loop
    vertex 11.724999999999998 20.012212356943692 -132.00000000000003
    vertex 12.439518395093588 20.560481604906414 -136.00000000000003
    vertex 11.724999999999998 20.012212356943692 -136.00000000000003
  endloop
endfacet
facet normal -0.6087614290087201 0.7933533402912357 0.0
  outer loop
    vertex 12.439518395093588 20.560481604906414 -136.00000000000003
    vertex 11.724999999999998 20.012212356943692 -132.00000000000003
    vertex 12.439518395093588 20.560481604906414 -132.00000000000003
  endloop
endfacet
facet normal -0.7933533402912345 0.6087614290087217 0.0
  outer loop
    vertex 12.98778764305631 21.275000000000002 -132.00000000000003
    vertex 12.439518395093588 20.560481604906414 -136.00000000000003
    vertex 12.439518395093588 20.560481604906414 -132.00000000000003
  endloop
endfacet
facet normal -0.7933533402912345 0.6087614290087217 0.0
  outer loop
    vertex 12.439518395093588 20.560481604906414 -136.00000000000003
    vertex 12.98778764305631 21.275000000000002 -132.00000000000003
    vertex 12.98778764305631 21.275000000000002 -136.00000000000003
  endloop
endfacet
facet normal -0.9238795325112863 0.38268343236509084 0.0
  outer loop
    vertex 13.332444100697284 22.107074294396305 -132.00000000000003
    vertex 12.98778764305631 21.275000000000002 -136.00000000000003
    vertex 12.98778764305631 21.275000000000002 -132.00000000000003
  endloop
endfacet
facet normal -0.9238795325112863 0.38268343236509084 0.0
  outer loop
    vertex 12.98778764305631 21.275000000000002 -136.00000000000003
    vertex 13.332444100697284 22.107074294396305 -132.00000000000003
    vertex 13.332444100697284 22.107074294396305 -136.00000000000003
  endloop
endfacet
facet normal -0.9914448613738105 0.1305261922200507 0.0
  outer loop
    vertex 13.449999999999998 23.000000000000004 -132.00000000000003
    vertex 13.332444100697284 22.107074294396305 -136.00000000000003
    vertex 13.332444100697284 22.107074294396305 -132.00000000000003
  endloop
endfacet
facet normal -0.9914448613738105 0.1305261922200507 0.0
  outer loop
    vertex 13.332444100697284 22.107074294396305 -136.00000000000003
    vertex 13.449999999999998 23.000000000000004 -132.00000000000003
    vertex 13.449999999999998 23.000000000000004 -136.00000000000003
  endloop
endfacet
facet normal -0.9914448613738105 -0.1305261922200507 0.0
  outer loop
    vertex 13.332444100697284 23.8929257056037 -132.00000000000003
    vertex 13.449999999999998 23.000000000000004 -136.00000000000003
    vertex 13.449999999999998 23.000000000000004 -132.00000000000003
  endloop
endfacet
facet normal -0.9914448613738105 -0.1305261922200507 0.0
  outer loop
    vertex 13.449999999999998 23.000000000000004 -136.00000000000003
    vertex 13.332444100697284 23.8929257056037 -132.00000000000003
    vertex 13.332444100697284 23.8929257056037 -136.00000000000003
  endloop
endfacet
facet normal -0.9238795325112844 -0.3826834323650954 0.0
  outer loop
    vertex 12.98778764305631 24.724999999999994 -132.00000000000003
    vertex 13.332444100697284 23.8929257056037 -136.00000000000003
    vertex 13.332444100697284 23.8929257056037 -132.00000000000003
  endloop
endfacet
facet normal -0.9238795325112844 -0.3826834323650954 0.0
  outer loop
    vertex 13.332444100697284 23.8929257056037 -136.00000000000003
    vertex 12.98778764305631 24.724999999999994 -132.00000000000003
    vertex 12.98778764305631 24.724999999999994 -136.00000000000003
  endloop
endfacet
facet normal -0.7933533402912392 -0.6087614290087155 0.0
  outer loop
    vertex 12.439518395093588 25.43951839509359 -132.00000000000003
    vertex 12.98778764305631 24.724999999999994 -136.00000000000003
    vertex 12.98778764305631 24.724999999999994 -132.00000000000003
  endloop
endfacet
facet normal -0.7933533402912392 -0.6087614290087155 0.0
  outer loop
    vertex 12.98778764305631 24.724999999999994 -136.00000000000003
    vertex 12.439518395093588 25.43951839509359 -132.00000000000003
    vertex 12.439518395093588 25.43951839509359 -136.00000000000003
  endloop
endfacet
facet normal -0.6087614290087193 -0.7933533402912363 0.0
  outer loop
    vertex 12.439518395093588 25.43951839509359 -132.00000000000003
    vertex 11.724999999999996 25.987787643056315 -136.00000000000003
    vertex 12.439518395093588 25.43951839509359 -136.00000000000003
  endloop
endfacet
facet normal -0.6087614290087193 -0.7933533402912363 0.0
  outer loop
    vertex 11.724999999999996 25.987787643056315 -136.00000000000003
    vertex 12.439518395093588 25.43951839509359 -132.00000000000003
    vertex 11.724999999999996 25.987787643056315 -132.00000000000003
  endloop
endfacet
facet normal -0.3826834323650915 -0.9238795325112862 0.0
  outer loop
    vertex 11.724999999999996 25.987787643056315 -132.00000000000003
    vertex 10.892925705603693 26.332444100697288 -136.00000000000003
    vertex 11.724999999999996 25.987787643056315 -136.00000000000003
  endloop
endfacet
facet normal -0.3826834323650915 -0.9238795325112862 0.0
  outer loop
    vertex 10.892925705603693 26.332444100697288 -136.00000000000003
    vertex 11.724999999999996 25.987787643056315 -132.00000000000003
    vertex 10.892925705603693 26.332444100697288 -132.00000000000003
  endloop
endfacet
facet normal -0.13052619222004497 -0.9914448613738114 0.0
  outer loop
    vertex 10.892925705603693 26.332444100697288 -132.00000000000003
    vertex 9.999999999999998 26.449999999999996 -136.00000000000003
    vertex 10.892925705603693 26.332444100697288 -136.00000000000003
  endloop
endfacet
facet normal -0.13052619222004497 -0.9914448613738114 0.0
  outer loop
    vertex 9.999999999999998 26.449999999999996 -136.00000000000003
    vertex 10.892925705603693 26.332444100697288 -132.00000000000003
    vertex 9.999999999999998 26.449999999999996 -132.00000000000003
  endloop
endfacet
facet normal 0.13052619222004436 -0.9914448613738114 0.0
  outer loop
    vertex 9.999999999999998 26.449999999999996 -132.00000000000003
    vertex 9.1070742943963 26.332444100697288 -136.00000000000003
    vertex 9.999999999999998 26.449999999999996 -136.00000000000003
  endloop
endfacet
facet normal 0.13052619222004436 -0.9914448613738114 0.0
  outer loop
    vertex 9.1070742943963 26.332444100697288 -136.00000000000003
    vertex 9.999999999999998 26.449999999999996 -132.00000000000003
    vertex 9.1070742943963 26.332444100697288 -132.00000000000003
  endloop
endfacet
facet normal 0.38268343236509267 -0.9238795325112857 0.0
  outer loop
    vertex 9.1070742943963 26.332444100697288 -132.00000000000003
    vertex 8.274999999999999 25.987787643056315 -136.00000000000003
    vertex 9.1070742943963 26.332444100697288 -136.00000000000003
  endloop
endfacet
facet normal 0.38268343236509267 -0.9238795325112857 0.0
  outer loop
    vertex 8.274999999999999 25.987787643056315 -136.00000000000003
    vertex 9.1070742943963 26.332444100697288 -132.00000000000003
    vertex 8.274999999999999 25.987787643056315 -132.00000000000003
  endloop
endfacet
facet normal 0.60876142900872 -0.7933533402912357 0.0
  outer loop
    vertex 8.274999999999999 25.987787643056315 -132.00000000000003
    vertex 7.5604816049064105 25.43951839509359 -136.00000000000003
    vertex 8.274999999999999 25.987787643056315 -136.00000000000003
  endloop
endfacet
facet normal 0.60876142900872 -0.7933533402912357 0.0
  outer loop
    vertex 7.5604816049064105 25.43951839509359 -136.00000000000003
    vertex 8.274999999999999 25.987787643056315 -132.00000000000003
    vertex 7.5604816049064105 25.43951839509359 -132.00000000000003
  endloop
endfacet
facet normal 0.7933533402912392 -0.6087614290087155 0.0
  outer loop
    vertex 7.5604816049064105 25.43951839509359 -136.00000000000003
    vertex 7.012212356943687 24.724999999999994 -132.00000000000003
    vertex 7.012212356943687 24.724999999999994 -136.00000000000003
  endloop
endfacet
facet normal 0.7933533402912392 -0.6087614290087155 0.0
  outer loop
    vertex 7.012212356943687 24.724999999999994 -132.00000000000003
    vertex 7.5604816049064105 25.43951839509359 -136.00000000000003
    vertex 7.5604816049064105 25.43951839509359 -132.00000000000003
  endloop
endfacet
facet normal 0.9238795325112875 -0.3826834323650882 0.0
  outer loop
    vertex 7.012212356943687 24.724999999999994 -136.00000000000003
    vertex 6.667555899302716 23.892925705603687 -132.00000000000003
    vertex 6.667555899302716 23.892925705603687 -136.00000000000003
  endloop
endfacet
facet normal 0.9238795325112875 -0.3826834323650882 0.0
  outer loop
    vertex 6.667555899302716 23.892925705603687 -132.00000000000003
    vertex 7.012212356943687 24.724999999999994 -136.00000000000003
    vertex 7.012212356943687 24.724999999999994 -132.00000000000003
  endloop
endfacet
facet normal 0.0 0.0 -1.0
  outer loop
    vertex 0.0 33.00000000000001 -136.00000000000003
    vertex 7.012212356943687 24.724999999999994 -136.00000000000003
    vertex 0.0 12.999999999999998 -136.00000000000003
  endloop
endfacet
facet normal 0.0 0.0 -1.0
  outer loop
    vertex 7.012212356943687 24.724999999999994 -136.00000000000003
    vertex 0.0 33.00000000000001 -136.00000000000003
    vertex 7.5604816049064105 25.43951839509359 -136.00000000000003
  endloop
endfacet
facet normal 0.0 0.0 -1.0
  outer loop
    vertex 7.5604816049064105 25.43951839509359 -136.00000000000003
    vertex 0.0 33.00000000000001 -136.00000000000003
    vertex 8.274999999999999 25.987787643056315 -136.00000000000003
  endloop
endfacet
facet normal 0.0 0.0 -1.0
  outer loop
    vertex 8.274999999999999 25.987787643056315 -136.00000000000003
    vertex 0.0 33.00000000000001 -136.00000000000003
    vertex 9.1070742943963 26.332444100697288 -136.00000000000003
  endloop
endfacet
facet normal 0.0 0.0 -1.0
  outer loop
    vertex 9.1070742943963 26.332444100697288 -136.00000000000003
    vertex 0.0 33.00000000000001 -136.00000000000003
    vertex 31.999999999999996 33.00000000000001 -136.00000000000003
  endloop
endfacet
facet normal 0.0 0.0 -1.0
  outer loop
    vertex 0.0 12.999999999999998 -136.00000000000003
    vertex 7.012212356943687 24.724999999999994 -136.00000000000003
    vertex 6.667555899302716 23.892925705603687 -136.00000000000003
  endloop
endfacet
facet normal 0.0 0.0 -1.0
  outer loop
    vertex 0.0 12.999999999999998 -136.00000000000003
    vertex 6.667555899302716 23.892925705603687 -136.00000000000003
    vertex 6.550000000000001 23.000000000000004 -136.00000000000003
  endloop
endfacet
facet normal 0.0 0.0 -1.0
  outer loop
    vertex 9.1070742943963 26.332444100697288 -136.00000000000003
    vertex 31.999999999999996 33.00000000000001 -136.00000000000003
    vertex 9.999999999999998 26.449999999999996 -136.00000000000003
  endloop
endfacet
facet normal 0.0 0.0 -1.0
  outer loop
    vertex 9.999999999999998 26.449999999999996 -136.00000000000003
    vertex 31.999999999999996 33.00000000000001 -136.00000000000003
    vertex 10.892925705603693 26.332444100697288 -136.00000000000003
  endloop
endfacet
facet normal 0.0 0.0 -1.0
  outer loop
    vertex 10.892925705603693 26.332444100697288 -136.00000000000003
    vertex 31.999999999999996 33.00000000000001 -136.00000000000003
    vertex 11.724999999999996 25.987787643056315 -136.00000000000003
  endloop
endfacet
facet normal 0.0 0.0 -1.0
  outer loop
    vertex 11.724999999999996 25.987787643056315 -136.00000000000003
    vertex 31.999999999999996 33.00000000000001 -136.00000000000003
    vertex 12.439518395093588 25.43951839509359 -136.00000000000003
  endloop
endfacet
facet normal 0.0 0.0 -1.0
  outer loop
    vertex 12.439518395093588 25.43951839509359 -136.00000000000003
    vertex 31.999999999999996 33.00000000000001 -136.00000000000003
    vertex 12.98778764305631 24.724999999999994 -136.00000000000003
  endloop
endfacet
facet normal 0.0 0.0 -1.0
  outer loop
    vertex 12.98778764305631 24.724999999999994 -136.00000000000003
    vertex 31.999999999999996 33.00000000000001 -136.00000000000003
    vertex 13.332444100697284 23.8929257056037 -136.00000000000003
  endloop
endfacet
facet normal 0.0 0.0 -1.0
  outer loop
    vertex 13.332444100697284 23.8929257056037 -136.00000000000003
    vertex 31.999999999999996 33.00000000000001 -136.00000000000003
    vertex 13.449999999999998 23.000000000000004 -136.00000000000003
  endloop
endfacet
facet normal 0.0 0.0 -1.0
  outer loop
    vertex 0.0 12.999999999999998 -136.00000000000003
    vertex 7.012212356943689 21.274999999999988 -136.00000000000003
    vertex 12.0 12.999999999999998 -136.00000000000003
  endloop
endfacet
facet normal 0.0 0.0 -1.0
  outer loop
    vertex 7.012212356943689 21.274999999999988 -136.00000000000003
    vertex 0.0 12.999999999999998 -136.00000000000003
    vertex 6.667555899302716 22.107074294396305 -136.00000000000003
  endloop
endfacet
facet normal 0.0 0.0 -1.0
  outer loop
    vertex 6.667555899302716 22.107074294396305 -136.00000000000003
    vertex 0.0 12.999999999999998 -136.00000000000003
    vertex 6.550000000000001 23.000000000000004 -136.00000000000003
  endloop
endfacet
facet normal 0.0 0.0 -1.0
  outer loop
    vertex 12.0 12.999999999999998 -136.00000000000003
    vertex 7.012212356943689 21.274999999999988 -136.00000000000003
    vertex 7.560481604906411 20.560481604906414 -136.00000000000003
  endloop
endfacet
facet normal 0.0 0.0 -1.0
  outer loop
    vertex 12.0 12.999999999999998 -136.00000000000003
    vertex 7.560481604906411 20.560481604906414 -136.00000000000003
    vertex 8.275 20.01221235694368 -136.00000000000003
  endloop
endfacet
facet normal 0.0 0.0 -1.0
  outer loop
    vertex 12.0 12.999999999999998 -136.00000000000003
    vertex 8.275 20.01221235694368 -136.00000000000003
    vertex 9.107074294396304 19.667555899302716 -136.00000000000003
  endloop
endfacet
facet normal 0.0 0.0 -1.0
  outer loop
    vertex 12.0 12.999999999999998 -136.00000000000003
    vertex 9.107074294396304 19.667555899302716 -136.00000000000003
    vertex 10.0 19.549999999999997 -136.00000000000003
  endloop
endfacet
facet normal 0.0 0.0 -1.0
  outer loop
    vertex 12.0 12.999999999999998 -136.00000000000003
    vertex 10.0 19.549999999999997 -136.00000000000003
    vertex 10.892925705603696 19.667555899302716 -136.00000000000003
  endloop
endfacet
facet normal 0.0 0.0 -1.0
  outer loop
    vertex 12.0 12.999999999999998 -136.00000000000003
    vertex 10.892925705603696 19.667555899302716 -136.00000000000003
    vertex 11.724999999999998 20.012212356943692 -136.00000000000003
  endloop
endfacet
facet normal 0.0 0.0 -1.0
  outer loop
    vertex 12.0 12.999999999999998 -136.00000000000003
    vertex 11.724999999999998 20.012212356943692 -136.00000000000003
    vertex 12.439518395093588 20.560481604906414 -136.00000000000003
  endloop
endfacet
facet normal 0.0 0.0 -1.0
  outer loop
    vertex 12.0 12.999999999999998 -136.00000000000003
    vertex 12.439518395093588 20.560481604906414 -136.00000000000003
    vertex 12.0 -43.0 -136.00000000000003
  endloop
endfacet
facet normal 0.0 0.0 -1.0
  outer loop
    vertex 12.0 -43.0 -136.00000000000003
    vertex 12.439518395093588 20.560481604906414 -136.00000000000003
    vertex 31.999999999999996 -43.0 -136.00000000000003
  endloop
endfacet
facet normal 0.0 0.0 -1.0
  outer loop
    vertex 31.999999999999996 -43.0 -136.00000000000003
    vertex 12.439518395093588 20.560481604906414 -136.00000000000003
    vertex 12.98778764305631 21.275000000000002 -136.00000000000003
  endloop
endfacet
facet normal 0.0 0.0 -1.0
  outer loop
    vertex 31.999999999999996 -43.0 -136.00000000000003
    vertex 12.98778764305631 21.275000000000002 -136.00000000000003
    vertex 13.332444100697284 22.107074294396305 -136.00000000000003
  endloop
endfacet
facet normal 0.0 0.0 -1.0
  outer loop
    vertex 31.999999999999996 -43.0 -136.00000000000003
    vertex 13.332444100697284 22.107074294396305 -136.00000000000003
    vertex 13.449999999999998 23.000000000000004 -136.00000000000003
  endloop
endfacet
facet normal 0.0 0.0 -1.0
  outer loop
    vertex 31.999999999999996 -43.0 -136.00000000000003
    vertex 13.449999999999998 23.000000000000004 -136.00000000000003
    vertex 31.999999999999996 33.00000000000001 -136.00000000000003
  endloop
endfacet
facet normal 0.9238795325112868 0.3826834323650895 0.0
  outer loop
    vertex 6.667555899302716 22.107074294396305 0.0
    vertex 7.012212356943689 21.274999999999988 3.9999999999999925
    vertex 7.012212356943689 21.274999999999988 0.0
  endloop
endfacet
facet normal 0.9238795325112868 0.3826834323650895 0.0
  outer loop
    vertex 7.012212356943689 21.274999999999988 3.9999999999999925
    vertex 6.667555899302716 22.107074294396305 0.0
    vertex 6.667555899302716 22.107074294396305 3.9999999999999925
  endloop
endfacet
facet normal 0.3826834323650888 0.9238795325112873 0.0
  outer loop
    vertex 8.275 20.01221235694368 3.9999999999999925
    vertex 9.107074294396304 19.667555899302716 0.0
    vertex 8.275 20.01221235694368 0.0
  endloop
endfacet
facet normal 0.3826834323650888 0.9238795325112873 0.0
  outer loop
    vertex 9.107074294396304 19.667555899302716 0.0
    vertex 8.275 20.01221235694368 3.9999999999999925
    vertex 9.107074294396304 19.667555899302716 3.9999999999999925
  endloop
endfacet
facet normal 0.0 0.0 1.0
  outer loop
    vertex 31.999999999999996 -43.0 3.9999999999999925
    vertex 12.0 12.999999999999998 3.9999999999999925
    vertex 12.0 -43.0 3.9999999999999925
  endloop
endfacet
facet normal 0.0 0.0 1.0
  outer loop
    vertex 12.0 12.999999999999998 3.9999999999999925
    vertex 31.999999999999996 -43.0 3.9999999999999925
    vertex 12.439518395093588 20.560481604906414 3.9999999999999925
  endloop
endfacet
facet normal 0.0 0.0 1.0
  outer loop
    vertex 12.439518395093588 20.560481604906414 3.9999999999999925
    vertex 31.999999999999996 -43.0 3.9999999999999925
    vertex 12.98778764305631 21.275000000000002 3.9999999999999925
  endloop
endfacet
facet normal 0.0 0.0 1.0
  outer loop
    vertex 12.98778764305631 21.275000000000002 3.9999999999999925
    vertex 31.999999999999996 -43.0 3.9999999999999925
    vertex 13.332444100697284 22.107074294396305 3.9999999999999925
  endloop
endfacet
facet normal 0.0 0.0 1.0
  outer loop
    vertex 13.332444100697284 22.107074294396305 3.9999999999999925
    vertex 31.999999999999996 -43.0 3.9999999999999925
    vertex 13.449999999999998 23.000000000000004 3.9999999999999925
  endloop
endfacet
facet normal 0.0 0.0 1.0
  outer loop
    vertex 0.0 33.00000000000001 3.9999999999999925
    vertex 9.1070742943963 26.332444100697288 3.9999999999999925
    vertex 31.999999999999996 33.00000000000001 3.9999999999999925
  endloop
endfacet
facet normal 0.0 0.0 1.0
  outer loop
    vertex 9.1070742943963 26.332444100697288 3.9999999999999925
    vertex 0.0 33.00000000000001 3.9999999999999925
    vertex 8.274999999999999 25.987787643056315 3.9999999999999925
  endloop
endfacet
facet normal 0.0 0.0 1.0
  outer loop
    vertex 8.274999999999999 25.987787643056315 3.9999999999999925
    vertex 0.0 33.00000000000001 3.9999999999999925
    vertex 7.5604816049064105 25.43951839509359 3.9999999999999925
  endloop
endfacet
facet normal 0.0 0.0 1.0
  outer loop
    vertex 7.5604816049064105 25.43951839509359 3.9999999999999925
    vertex 0.0 33.00000000000001 3.9999999999999925
    vertex 7.012212356943687 24.724999999999994 3.9999999999999925
  endloop
endfacet
facet normal 0.0 0.0 1.0
  outer loop
    vertex 7.012212356943687 24.724999999999994 3.9999999999999925
    vertex 0.0 33.00000000000001 3.9999999999999925
    vertex 6.667555899302716 23.892925705603687 3.9999999999999925
  endloop
endfacet
facet normal 0.0 0.0 1.0
  outer loop
    vertex 6.667555899302716 23.892925705603687 3.9999999999999925
    vertex 0.0 33.00000000000001 3.9999999999999925
    vertex 6.550000000000001 23.000000000000004 3.9999999999999925
  endloop
endfacet
facet normal 0.0 0.0 1.0
  outer loop
    vertex 31.999999999999996 33.00000000000001 3.9999999999999925
    vertex 9.1070742943963 26.332444100697288 3.9999999999999925
    vertex 9.999999999999998 26.449999999999996 3.9999999999999925
  endloop
endfacet
facet normal 0.0 0.0 1.0
  outer loop
    vertex 31.999999999999996 33.00000000000001 3.9999999999999925
    vertex 9.999999999999998 26.449999999999996 3.9999999999999925
    vertex 10.892925705603693 26.332444100697288 3.9999999999999925
  endloop
endfacet
facet normal 0.0 0.0 1.0
  outer loop
    vertex 31.999999999999996 33.00000000000001 3.9999999999999925
    vertex 10.892925705603693 26.332444100697288 3.9999999999999925
    vertex 11.724999999999996 25.987787643056315 3.9999999999999925
  endloop
endfacet
facet normal 0.0 0.0 1.0
  outer loop
    vertex 31.999999999999996 33.00000000000001 3.9999999999999925
    vertex 11.724999999999996 25.987787643056315 3.9999999999999925
    vertex 12.439518395093588 25.43951839509359 3.9999999999999925
  endloop
endfacet
facet normal 0.0 0.0 1.0
  outer loop
    vertex 31.999999999999996 33.00000000000001 3.9999999999999925
    vertex 12.439518395093588 25.43951839509359 3.9999999999999925
    vertex 12.98778764305631 24.724999999999994 3.9999999999999925
  endloop
endfacet
facet normal 0.0 0.0 1.0
  outer loop
    vertex 31.999999999999996 33.00000000000001 3.9999999999999925
    vertex 12.98778764305631 24.724999999999994 3.9999999999999925
    vertex 13.332444100697284 23.8929257056037 3.9999999999999925
  endloop
endfacet
facet normal 0.0 0.0 1.0
  outer loop
    vertex 31.999999999999996 33.00000000000001 3.9999999999999925
    vertex 13.332444100697284 23.8929257056037 3.9999999999999925
    vertex 13.449999999999998 23.000000000000004 3.9999999999999925
  endloop
endfacet
facet normal 0.0 0.0 1.0
  outer loop
    vertex 31.999999999999996 33.00000000000001 3.9999999999999925
    vertex 13.449999999999998 23.000000000000004 3.9999999999999925
    vertex 31.999999999999996 -43.0 3.9999999999999925
  endloop
endfacet
facet normal 0.0 0.0 1.0
  outer loop
    vertex 0.0 12.999999999999998 3.9999999999999925
    vertex 7.012212356943689 21.274999999999988 3.9999999999999925
    vertex 0.0 33.00000000000001 3.9999999999999925
  endloop
endfacet
facet normal 0.0 0.0 1.0
  outer loop
    vertex 7.012212356943689 21.274999999999988 3.9999999999999925
    vertex 0.0 12.999999999999998 3.9999999999999925
    vertex 12.0 12.999999999999998 3.9999999999999925
  endloop
endfacet
facet normal 0.0 0.0 1.0
  outer loop
    vertex 0.0 33.00000000000001 3.9999999999999925
    vertex 7.012212356943689 21.274999999999988 3.9999999999999925
    vertex 6.667555899302716 22.107074294396305 3.9999999999999925
  endloop
endfacet
facet normal 0.0 0.0 1.0
  outer loop
    vertex 0.0 33.00000000000001 3.9999999999999925
    vertex 6.667555899302716 22.107074294396305 3.9999999999999925
    vertex 6.550000000000001 23.000000000000004 3.9999999999999925
  endloop
endfacet
facet normal 0.0 0.0 1.0
  outer loop
    vertex 7.012212356943689 21.274999999999988 3.9999999999999925
    vertex 12.0 12.999999999999998 3.9999999999999925
    vertex 7.560481604906411 20.560481604906414 3.9999999999999925
  endloop
endfacet
facet normal 0.0 0.0 1.0
  outer loop
    vertex 7.560481604906411 20.560481604906414 3.9999999999999925
    vertex 12.0 12.999999999999998 3.9999999999999925
    vertex 8.275 20.01221235694368 3.9999999999999925
  endloop
endfacet
facet normal 0.0 0.0 1.0
  outer loop
    vertex 8.275 20.01221235694368 3.9999999999999925
    vertex 12.0 12.999999999999998 3.9999999999999925
    vertex 9.107074294396304 19.667555899302716 3.9999999999999925
  endloop
endfacet
facet normal 0.0 0.0 1.0
  outer loop
    vertex 9.107074294396304 19.667555899302716 3.9999999999999925
    vertex 12.0 12.999999999999998 3.9999999999999925
    vertex 10.0 19.549999999999997 3.9999999999999925
  endloop
endfacet
facet normal 0.0 0.0 1.0
  outer loop
    vertex 10.0 19.549999999999997 3.9999999999999925
    vertex 12.0 12.999999999999998 3.9999999999999925
    vertex 10.892925705603696 19.667555899302716 3.9999999999999925
  endloop
endfacet
facet normal 0.0 0.0 1.0
  outer loop
    vertex 10.892925705603696 19.667555899302716 3.9999999999999925
    vertex 12.0 12.999999999999998 3.9999999999999925
    vertex 11.724999999999998 20.012212356943692 3.9999999999999925
  endloop
endfacet
facet normal 0.0 0.0 1.0
  outer loop
    vertex 11.724999999999998 20.012212356943692 3.9999999999999925
    vertex 12.0 12.999999999999998 3.9999999999999925
    vertex 12.439518395093588 20.560481604906414 3.9999999999999925
  endloop
endfacet
facet normal 0.9914448613738103 0.13052619222005224 0.0
  outer loop
    vertex 6.550000000000001 23.000000000000004 0.0
    vertex 6.667555899302716 22.107074294396305 3.9999999999999925
    vertex 6.667555899302716 22.107074294396305 0.0
  endloop
endfacet
facet normal 0.9914448613738103 0.13052619222005224 0.0
  outer loop
    vertex 6.667555899302716 22.107074294396305 3.9999999999999925
    vertex 6.550000000000001 23.000000000000004 0.0
    vertex 6.550000000000001 23.000000000000004 3.9999999999999925
  endloop
endfacet
facet normal 0.9914448613738103 -0.13052619222005263 0.0
  outer loop
    vertex 6.667555899302716 23.892925705603687 0.0
    vertex 6.550000000000001 23.000000000000004 3.9999999999999925
    vertex 6.550000000000001 23.000000000000004 0.0
  endloop
endfacet
facet normal 0.9914448613738103 -0.13052619222005263 0.0
  outer loop
    vertex 6.550000000000001 23.000000000000004 3.9999999999999925
    vertex 6.667555899302716 23.892925705603687 0.0
    vertex 6.667555899302716 23.892925705603687 3.9999999999999925
  endloop
endfacet
facet normal 0.7933533402912345 0.6087614290087217 0.0
  outer loop
    vertex 7.012212356943689 21.274999999999988 0.0
    vertex 7.560481604906411 20.560481604906414 3.9999999999999925
    vertex 7.560481604906411 20.560481604906414 0.0
  endloop
endfacet
facet normal 0.7933533402912345 0.6087614290087217 0.0
  outer loop
    vertex 7.560481604906411 20.560481604906414 3.9999999999999925
    vertex 7.012212356943689 21.274999999999988 0.0
    vertex 7.012212356943689 21.274999999999988 3.9999999999999925
  endloop
endfacet
facet normal 0.608761429008722 0.7933533402912342 0.0
  outer loop
    vertex 7.560481604906411 20.560481604906414 3.9999999999999925
    vertex 8.275 20.01221235694368 0.0
    vertex 7.560481604906411 20.560481604906414 0.0
  endloop
endfacet
facet normal 0.608761429008722 0.7933533402912342 0.0
  outer loop
    vertex 8.275 20.01221235694368 0.0
    vertex 7.560481604906411 20.560481604906414 3.9999999999999925
    vertex 8.275 20.01221235694368 3.9999999999999925
  endloop
endfacet
facet normal 0.1305261922200509 0.9914448613738105 0.0
  outer loop
    vertex 9.107074294396304 19.667555899302716 3.9999999999999925
    vertex 10.0 19.549999999999997 0.0
    vertex 9.107074294396304 19.667555899302716 0.0
  endloop
endfacet
facet normal 0.1305261922200509 0.9914448613738105 0.0
  outer loop
    vertex 10.0 19.549999999999997 0.0
    vertex 9.107074294396304 19.667555899302716 3.9999999999999925
    vertex 10.0 19.549999999999997 3.9999999999999925
  endloop
endfacet
facet normal -0.1305261922200509 0.9914448613738105 0.0
  outer loop
    vertex 10.0 19.549999999999997 3.9999999999999925
    vertex 10.892925705603696 19.667555899302716 0.0
    vertex 10.0 19.549999999999997 0.0
  endloop
endfacet
facet normal -0.1305261922200509 0.9914448613738105 0.0
  outer loop
    vertex 10.892925705603696 19.667555899302716 0.0
    vertex 10.0 19.549999999999997 3.9999999999999925
    vertex 10.892925705603696 19.667555899302716 3.9999999999999925
  endloop
endfacet
facet normal -0.38268343236509206 0.923879532511286 0.0
  outer loop
    vertex 10.892925705603696 19.667555899302716 3.9999999999999925
    vertex 11.724999999999998 20.012212356943692 0.0
    vertex 10.892925705603696 19.667555899302716 0.0
  endloop
endfacet
facet normal -0.38268343236509206 0.923879532511286 0.0
  outer loop
    vertex 11.724999999999998 20.012212356943692 0.0
    vertex 10.892925705603696 19.667555899302716 3.9999999999999925
    vertex 11.724999999999998 20.012212356943692 3.9999999999999925
  endloop
endfacet
facet normal -0.6087614290087201 0.7933533402912357 0.0
  outer loop
    vertex 11.724999999999998 20.012212356943692 3.9999999999999925
    vertex 12.439518395093588 20.560481604906414 0.0
    vertex 11.724999999999998 20.012212356943692 0.0
  endloop
endfacet
facet normal -0.6087614290087201 0.7933533402912357 0.0
  outer loop
    vertex 12.439518395093588 20.560481604906414 0.0
    vertex 11.724999999999998 20.012212356943692 3.9999999999999925
    vertex 12.439518395093588 20.560481604906414 3.9999999999999925
  endloop
endfacet
facet normal -0.7933533402912357 0.6087614290087201 0.0
  outer loop
    vertex 12.98778764305631 21.275000000000002 3.9999999999999925
    vertex 12.439518395093588 20.560481604906414 0.0
    vertex 12.439518395093588 20.560481604906414 3.9999999999999925
  endloop
endfacet
facet normal -0.7933533402912357 0.6087614290087201 0.0
  outer loop
    vertex 12.439518395093588 20.560481604906414 0.0
    vertex 12.98778764305631 21.275000000000002 3.9999999999999925
    vertex 12.98778764305631 21.275000000000002 0.0
  endloop
endfacet
facet normal -0.923879532511286 0.38268343236509195 0.0
  outer loop
    vertex 13.332444100697284 22.107074294396305 3.9999999999999925
    vertex 12.98778764305631 21.275000000000002 0.0
    vertex 12.98778764305631 21.275000000000002 3.9999999999999925
  endloop
endfacet
facet normal -0.923879532511286 0.38268343236509195 0.0
  outer loop
    vertex 12.98778764305631 21.275000000000002 0.0
    vertex 13.332444100697284 22.107074294396305 3.9999999999999925
    vertex 13.332444100697284 22.107074294396305 0.0
  endloop
endfacet
facet normal -0.9914448613738105 0.1305261922200507 0.0
  outer loop
    vertex 13.449999999999998 23.000000000000004 3.9999999999999925
    vertex 13.332444100697284 22.107074294396305 0.0
    vertex 13.332444100697284 22.107074294396305 3.9999999999999925
  endloop
endfacet
facet normal -0.9914448613738105 0.1305261922200507 0.0
  outer loop
    vertex 13.332444100697284 22.107074294396305 0.0
    vertex 13.449999999999998 23.000000000000004 3.9999999999999925
    vertex 13.449999999999998 23.000000000000004 0.0
  endloop
endfacet
facet normal -0.9914448613738105 -0.1305261922200507 0.0
  outer loop
    vertex 13.332444100697284 23.8929257056037 3.9999999999999925
    vertex 13.449999999999998 23.000000000000004 0.0
    vertex 13.449999999999998 23.000000000000004 3.9999999999999925
  endloop
endfacet
facet normal -0.9914448613738105 -0.1305261922200507 0.0
  outer loop
    vertex 13.449999999999998 23.000000000000004 0.0
    vertex 13.332444100697284 23.8929257056037 3.9999999999999925
    vertex 13.332444100697284 23.8929257056037 0.0
  endloop
endfacet
facet normal -0.9238795325112863 -0.38268343236509084 0.0
  outer loop
    vertex 12.98778764305631 24.724999999999994 3.9999999999999925
    vertex 13.332444100697284 23.8929257056037 0.0
    vertex 13.332444100697284 23.8929257056037 3.9999999999999925
  endloop
endfacet
facet normal -0.9238795325112863 -0.38268343236509084 0.0
  outer loop
    vertex 13.332444100697284 23.8929257056037 0.0
    vertex 12.98778764305631 24.724999999999994 3.9999999999999925
    vertex 12.98778764305631 24.724999999999994 0.0
  endloop
endfacet
facet normal -0.7933533402912345 -0.6087614290087217 0.0
  outer loop
    vertex 12.439518395093588 25.43951839509359 3.9999999999999925
    vertex 12.98778764305631 24.724999999999994 0.0
    vertex 12.98778764305631 24.724999999999994 3.9999999999999925
  endloop
endfacet
facet normal -0.7933533402912345 -0.6087614290087217 0.0
  outer loop
    vertex 12.98778764305631 24.724999999999994 0.0
    vertex 12.439518395093588 25.43951839509359 3.9999999999999925
    vertex 12.439518395093588 25.43951839509359 0.0
  endloop
endfacet
facet normal -0.6087614290087193 -0.7933533402912363 0.0
  outer loop
    vertex 12.439518395093588 25.43951839509359 3.9999999999999925
    vertex 11.724999999999996 25.987787643056315 0.0
    vertex 12.439518395093588 25.43951839509359 0.0
  endloop
endfacet
facet normal -0.6087614290087193 -0.7933533402912363 0.0
  outer loop
    vertex 11.724999999999996 25.987787643056315 0.0
    vertex 12.439518395093588 25.43951839509359 3.9999999999999925
    vertex 11.724999999999996 25.987787643056315 3.9999999999999925
  endloop
endfacet
facet normal -0.3826834323650915 -0.9238795325112862 0.0
  outer loop
    vertex 11.724999999999996 25.987787643056315 3.9999999999999925
    vertex 10.892925705603693 26.332444100697288 0.0
    vertex 11.724999999999996 25.987787643056315 0.0
  endloop
endfacet
facet normal -0.3826834323650915 -0.9238795325112862 0.0
  outer loop
    vertex 10.892925705603693 26.332444100697288 0.0
    vertex 11.724999999999996 25.987787643056315 3.9999999999999925
    vertex 10.892925705603693 26.332444100697288 3.9999999999999925
  endloop
endfacet
facet normal -0.13052619222005113 -0.9914448613738105 0.0
  outer loop
    vertex 10.892925705603693 26.332444100697288 3.9999999999999925
    vertex 9.999999999999998 26.449999999999996 0.0
    vertex 10.892925705603693 26.332444100697288 0.0
  endloop
endfacet
facet normal -0.13052619222005113 -0.9914448613738105 0.0
  outer loop
    vertex 9.999999999999998 26.449999999999996 0.0
    vertex 10.892925705603693 26.332444100697288 3.9999999999999925
    vertex 9.999999999999998 26.449999999999996 3.9999999999999925
  endloop
endfacet
facet normal 0.1305261922200505 -0.9914448613738105 0.0
  outer loop
    vertex 9.999999999999998 26.449999999999996 3.9999999999999925
    vertex 9.1070742943963 26.332444100697288 0.0
    vertex 9.999999999999998 26.449999999999996 0.0
  endloop
endfacet
facet normal 0.1305261922200505 -0.9914448613738105 0.0
  outer loop
    vertex 9.1070742943963 26.332444100697288 0.0
    vertex 9.999999999999998 26.449999999999996 3.9999999999999925
    vertex 9.1070742943963 26.332444100697288 3.9999999999999925
  endloop
endfacet
facet normal 0.38268343236509267 -0.9238795325112857 0.0
  outer loop
    vertex 9.1070742943963 26.332444100697288 3.9999999999999925
    vertex 8.274999999999999 25.987787643056315 0.0
    vertex 9.1070742943963 26.332444100697288 0.0
  endloop
endfacet
facet normal 0.38268343236509267 -0.9238795325112857 0.0
  outer loop
    vertex 8.274999999999999 25.987787643056315 0.0
    vertex 9.1070742943963 26.332444100697288 3.9999999999999925
    vertex 8.274999999999999 25.987787643056315 3.9999999999999925
  endloop
endfacet
facet normal 0.60876142900872 -0.7933533402912357 0.0
  outer loop
    vertex 8.274999999999999 25.987787643056315 3.9999999999999925
    vertex 7.5604816049064105 25.43951839509359 0.0
    vertex 8.274999999999999 25.987787643056315 0.0
  endloop
endfacet
facet normal 0.60876142900872 -0.7933533402912357 0.0
  outer loop
    vertex 7.5604816049064105 25.43951839509359 0.0
    vertex 8.274999999999999 25.987787643056315 3.9999999999999925
    vertex 7.5604816049064105 25.43951839509359 3.9999999999999925
  endloop
endfacet
facet normal 0.7933533402912368 -0.6087614290087184 0.0
  outer loop
    vertex 7.5604816049064105 25.43951839509359 0.0
    vertex 7.012212356943687 24.724999999999994 3.9999999999999925
    vertex 7.012212356943687 24.724999999999994 0.0
  endloop
endfacet
facet normal 0.7933533402912368 -0.6087614290087184 0.0
  outer loop
    vertex 7.012212356943687 24.724999999999994 3.9999999999999925
    vertex 7.5604816049064105 25.43951839509359 0.0
    vertex 7.5604816049064105 25.43951839509359 3.9999999999999925
  endloop
endfacet
facet normal 0.9238795325112871 -0.3826834323650892 0.0
  outer loop
    vertex 7.012212356943687 24.724999999999994 0.0
    vertex 6.667555899302716 23.892925705603687 3.9999999999999925
    vertex 6.667555899302716 23.892925705603687 0.0
  endloop
endfacet
facet normal 0.9238795325112871 -0.3826834323650892 0.0
  outer loop
    vertex 6.667555899302716 23.892925705603687 3.9999999999999925
    vertex 7.012212356943687 24.724999999999994 0.0
    vertex 7.012212356943687 24.724999999999994 3.9999999999999925
  endloop
endfacet
facet normal 0.0 0.0 -1.0
  outer loop
    vertex 0.0 33.00000000000001 0.0
    vertex 7.012212356943687 24.724999999999994 0.0
    vertex 0.0 12.999999999999998 0.0
  endloop
endfacet
facet normal 0.0 0.0 -1.0
  outer loop
    vertex 7.012212356943687 24.724999999999994 0.0
    vertex 0.0 33.00000000000001 0.0
    vertex 7.5604816049064105 25.43951839509359 0.0
  endloop
endfacet
facet normal 0.0 0.0 -1.0
  outer loop
    vertex 7.5604816049064105 25.43951839509359 0.0
    vertex 0.0 33.00000000000001 0.0
    vertex 8.274999999999999 25.987787643056315 0.0
  endloop
endfacet
facet normal 0.0 0.0 -1.0
  outer loop
    vertex 8.274999999999999 25.987787643056315 0.0
    vertex 0.0 33.00000000000001 0.0
    vertex 9.1070742943963 26.332444100697288 0.0
  endloop
endfacet
facet normal 0.0 0.0 -1.0
  outer loop
    vertex 9.1070742943963 26.332444100697288 0.0
    vertex 0.0 33.00000000000001 0.0
    vertex 31.999999999999996 33.00000000000001 0.0
  endloop
endfacet
facet normal 0.0 0.0 -1.0
  outer loop
    vertex 0.0 12.999999999999998 0.0
    vertex 7.012212356943687 24.724999999999994 0.0
    vertex 6.667555899302716 23.892925705603687 0.0
  endloop
endfacet
facet normal 0.0 0.0 -1.0
  outer loop
    vertex 0.0 12.999999999999998 0.0
    vertex 6.667555899302716 23.892925705603687 0.0
    vertex 6.550000000000001 23.000000000000004 0.0
  endloop
endfacet
facet normal 0.0 0.0 -1.0
  outer loop
    vertex 9.1070742943963 26.332444100697288 0.0
    vertex 31.999999999999996 33.00000000000001 0.0
    vertex 9.999999999999998 26.449999999999996 0.0
  endloop
endfacet
facet normal 0.0 0.0 -1.0
  outer loop
    vertex 9.999999999999998 26.449999999999996 0.0
    vertex 31.999999999999996 33.00000000000001 0.0
    vertex 10.892925705603693 26.332444100697288 0.0
  endloop
endfacet
facet normal 0.0 0.0 -1.0
  outer loop
    vertex 10.892925705603693 26.332444100697288 0.0
    vertex 31.999999999999996 33.00000000000001 0.0
    vertex 11.724999999999996 25.987787643056315 0.0
  endloop
endfacet
facet normal 0.0 0.0 -1.0
  outer loop
    vertex 11.724999999999996 25.987787643056315 0.0
    vertex 31.999999999999996 33.00000000000001 0.0
    vertex 12.439518395093588 25.43951839509359 0.0
  endloop
endfacet
facet normal 0.0 0.0 -1.0
  outer loop
    vertex 12.439518395093588 25.43951839509359 0.0
    vertex 31.999999999999996 33.00000000000001 0.0
    vertex 12.98778764305631 24.724999999999994 0.0
  endloop
endfacet
facet normal 0.0 0.0 -1.0
  outer loop
    vertex 12.98778764305631 24.724999999999994 0.0
    vertex 31.999999999999996 33.00000000000001 0.0
    vertex 13.332444100697284 23.8929257056037 0.0
  endloop
endfacet
facet normal 0.0 0.0 -1.0
  outer loop
    vertex 13.332444100697284 23.8929257056037 0.0
    vertex 31.999999999999996 33.00000000000001 0.0
    vertex 13.449999999999998 23.000000000000004 0.0
  endloop
endfacet
facet normal 0.0 0.0 -1.0
  outer loop
    vertex 0.0 12.999999999999998 0.0
    vertex 7.012212356943689 21.274999999999988 0.0
    vertex 12.0 12.999999999999998 0.0
  endloop
endfacet
facet normal 0.0 0.0 -1.0
  outer loop
    vertex 7.012212356943689 21.274999999999988 0.0
    vertex 0.0 12.999999999999998 0.0
    vertex 6.667555899302716 22.107074294396305 0.0
  endloop
endfacet
facet normal 0.0 0.0 -1.0
  outer loop
    vertex 6.667555899302716 22.107074294396305 0.0
    vertex 0.0 12.999999999999998 0.0
    vertex 6.550000000000001 23.000000000000004 0.0
  endloop
endfacet
facet normal 0.0 0.0 -1.0
  outer loop
    vertex 12.0 12.999999999999998 0.0
    vertex 7.012212356943689 21.274999999999988 0.0
    vertex 7.560481604906411 20.560481604906414 0.0
  endloop
endfacet
facet normal 0.0 0.0 -1.0
  outer loop
    vertex 12.0 12.999999999999998 0.0
    vertex 7.560481604906411 20.560481604906414 0.0
    vertex 8.275 20.01221235694368 0.0
  endloop
endfacet
facet normal 0.0 0.0 -1.0
  outer loop
    vertex 12.0 12.999999999999998 0.0
    vertex 8.275 20.01221235694368 0.0
    vertex 9.107074294396304 19.667555899302716 0.0
  endloop
endfacet
facet normal 0.0 0.0 -1.0
  outer loop
    vertex 12.0 12.999999999999998 0.0
    vertex 9.107074294396304 19.667555899302716 0.0
    vertex 10.0 19.549999999999997 0.0
  endloop
endfacet
facet normal 0.0 0.0 -1.0
  outer loop
    vertex 12.0 12.999999999999998 0.0
    vertex 10.0 19.549999999999997 0.0
    vertex 10.892925705603696 19.667555899302716 0.0
  endloop
endfacet
facet normal 0.0 0.0 -1.0
  outer loop
    vertex 12.0 12.999999999999998 0.0
    vertex 10.892925705603696 19.667555899302716 0.0
    vertex 11.724999999999998 20.012212356943692 0.0
  endloop
endfacet
facet normal 0.0 0.0 -1.0
  outer loop
    vertex 12.0 12.999999999999998 0.0
    vertex 11.724999999999998 20.012212356943692 0.0
    vertex 12.439518395093588 20.560481604906414 0.0
  endloop
endfacet
facet normal 0.0 0.0 -1.0
  outer loop
    vertex 12.0 12.999999999999998 0.0
    vertex 12.439518395093588 20.560481604906414 0.0
    vertex 12.0 -38.0 0.0
  endloop
endfacet
facet normal 0.0 0.0 -1.0
  outer loop
    vertex 12.0 -38.0 0.0
    vertex 12.439518395093588 20.560481604906414 0.0
    vertex 31.999999999999996 -38.0 0.0
  endloop
endfacet
facet normal 0.0 0.0 -1.0
  outer loop
    vertex 31.999999999999996 -38.0 0.0
    vertex 12.439518395093588 20.560481604906414 0.0
    vertex 12.98778764305631 21.275000000000002 0.0
  endloop
endfacet
facet normal 0.0 0.0 -1.0
  outer loop
    vertex 31.999999999999996 -38.0 0.0
    vertex 12.98778764305631 21.275000000000002 0.0
    vertex 13.332444100697284 22.107074294396305 0.0
  endloop
endfacet
facet normal 0.0 0.0 -1.0
  outer loop
    vertex 31.999999999999996 -38.0 0.0
    vertex 13.332444100697284 22.107074294396305 0.0
    vertex 13.449999999999998 23.000000000000004 0.0
  endloop
endfacet
facet normal 0.0 0.0 -1.0
  outer loop
    vertex 31.999999999999996 -38.0 0.0
    vertex 13.449999999999998 23.000000000000004 0.0
    vertex 31.999999999999996 33.00000000000001 0.0
  endloop
endfacet
facet normal 0.0 1.0 0.0
  outer loop
    vertex 0.0 33.00000000000001 3.9999999999999925
    vertex 31.999999999999996 33.00000000000001 0.0
    vertex 0.0 33.00000000000001 0.0
  endloop
endfacet
facet normal 0.0 1.0 0.0
  outer loop
    vertex 31.999999999999996 33.00000000000001 0.0
    vertex 0.0 33.00000000000001 3.9999999999999925
    vertex 31.999999999999996 33.00000000000001 3.9999999999999925
  endloop
endfacet
facet normal -1.0 0.0 0.0
  outer loop
    vertex 0.0 33.00000000000001 3.9999999999999925
    vertex 0.0 12.999999999999998 0.0
    vertex 0.0 12.999999999999998 3.9999999999999925
  endloop
endfacet
facet normal -1.0 0.0 0.0
  outer loop
    vertex 0.0 12.999999999999998 0.0
    vertex 0.0 33.00000000000001 3.9999999999999925
    vertex 0.0 33.00000000000001 0.0
  endloop
endfacet
facet normal 0.0 -1.0 0.0
  outer loop
    vertex 12.0 12.999999999999998 3.9999999999999925
    vertex 0.0 12.999999999999998 0.0
    vertex 12.0 12.999999999999998 0.0
  endloop
endfacet
facet normal 0.0 -1.0 0.0
  outer loop
    vertex 0.0 12.999999999999998 0.0
    vertex 12.0 12.999999999999998 3.9999999999999925
    vertex 0.0 12.999999999999998 3.9999999999999925
  endloop
endfacet
facet normal 0.0 1.0 0.0
  outer loop
    vertex 0.0 33.00000000000001 -132.00000000000003
    vertex 31.999999999999996 33.00000000000001 -136.00000000000003
    vertex 0.0 33.00000000000001 -136.00000000000003
  endloop
endfacet
facet normal 0.0 1.0 0.0
  outer loop
    vertex 31.999999999999996 33.00000000000001 -136.00000000000003
    vertex 0.0 33.00000000000001 -132.00000000000003
    vertex 31.999999999999996 33.00000000000001 -132.00000000000003
  endloop
endfacet
facet normal -1.0 0.0 0.0
  outer loop
    vertex 0.0 33.00000000000001 -132.00000000000003
    vertex 0.0 12.999999999999998 -136.00000000000003
    vertex 0.0 12.999999999999998 -132.00000000000003
  endloop
endfacet
facet normal -1.0 0.0 0.0
  outer loop
    vertex 0.0 12.999999999999998 -136.00000000000003
    vertex 0.0 33.00000000000001 -132.00000000000003
    vertex 0.0 33.00000000000001 -136.00000000000003
  endloop
endfacet
facet normal 0.0 -1.0 0.0
  outer loop
    vertex 12.0 12.999999999999998 -132.00000000000003
    vertex 0.0 12.999999999999998 -136.00000000000003
    vertex 12.0 12.999999999999998 -136.00000000000003
  endloop
endfacet
facet normal 0.0 -1.0 0.0
  outer loop
    vertex 0.0 12.999999999999998 -136.00000000000003
    vertex 12.0 12.999999999999998 -132.00000000000003
    vertex 0.0 12.999999999999998 -132.00000000000003
  endloop
endfacet
facet normal 0.0 0.0 1.0
  outer loop
    vertex 31.999999999999993 -38.0 -132.00000000000003
    vertex 12.0 12.999999999999998 -132.00000000000003
    vertex 12.0 -38.0 -132.00000000000003
  endloop
endfacet
facet normal 0.0 0.0 1.0
  outer loop
    vertex 12.0 12.999999999999998 -132.00000000000003
    vertex 31.999999999999993 -38.0 -132.00000000000003
    vertex 12.439518395093588 20.560481604906414 -132.00000000000003
  endloop
endfacet
facet normal 0.0 0.0 1.0
  outer loop
    vertex 12.439518395093588 20.560481604906414 -132.00000000000003
    vertex 31.999999999999993 -38.0 -132.00000000000003
    vertex 12.98778764305631 21.275000000000002 -132.00000000000003
  endloop
endfacet
facet normal 0.0 0.0 1.0
  outer loop
    vertex 12.98778764305631 21.275000000000002 -132.00000000000003
    vertex 31.999999999999993 -38.0 -132.00000000000003
    vertex 13.332444100697284 22.107074294396305 -132.00000000000003
  endloop
endfacet
facet normal 0.0 0.0 1.0
  outer loop
    vertex 13.332444100697284 22.107074294396305 -132.00000000000003
    vertex 31.999999999999993 -38.0 -132.00000000000003
    vertex 13.449999999999998 23.000000000000004 -132.00000000000003
  endloop
endfacet
facet normal 0.0 0.0 1.0
  outer loop
    vertex 0.0 33.00000000000001 -132.00000000000003
    vertex 9.1070742943963 26.332444100697288 -132.00000000000003
    vertex 31.999999999999996 33.00000000000001 -132.00000000000003
  endloop
endfacet
facet normal 0.0 0.0 1.0
  outer loop
    vertex 9.1070742943963 26.332444100697288 -132.00000000000003
    vertex 0.0 33.00000000000001 -132.00000000000003
    vertex 8.274999999999999 25.987787643056315 -132.00000000000003
  endloop
endfacet
facet normal 0.0 0.0 1.0
  outer loop
    vertex 8.274999999999999 25.987787643056315 -132.00000000000003
    vertex 0.0 33.00000000000001 -132.00000000000003
    vertex 7.5604816049064105 25.43951839509359 -132.00000000000003
  endloop
endfacet
facet normal 0.0 0.0 1.0
  outer loop
    vertex 7.5604816049064105 25.43951839509359 -132.00000000000003
    vertex 0.0 33.00000000000001 -132.00000000000003
    vertex 7.012212356943687 24.724999999999994 -132.00000000000003
  endloop
endfacet
facet normal 0.0 0.0 1.0
  outer loop
    vertex 7.012212356943687 24.724999999999994 -132.00000000000003
    vertex 0.0 33.00000000000001 -132.00000000000003
    vertex 6.667555899302716 23.892925705603687 -132.00000000000003
  endloop
endfacet
facet normal 0.0 0.0 1.0
  outer loop
    vertex 6.667555899302716 23.892925705603687 -132.00000000000003
    vertex 0.0 33.00000000000001 -132.00000000000003
    vertex 6.550000000000001 23.000000000000004 -132.00000000000003
  endloop
endfacet
facet normal 0.0 0.0 1.0
  outer loop
    vertex 31.999999999999996 33.00000000000001 -132.00000000000003
    vertex 9.1070742943963 26.332444100697288 -132.00000000000003
    vertex 9.999999999999998 26.449999999999996 -132.00000000000003
  endloop
endfacet
facet normal 0.0 0.0 1.0
  outer loop
    vertex 31.999999999999996 33.00000000000001 -132.00000000000003
    vertex 9.999999999999998 26.449999999999996 -132.00000000000003
    vertex 10.892925705603693 26.332444100697288 -132.00000000000003
  endloop
endfacet
facet normal 0.0 0.0 1.0
  outer loop
    vertex 31.999999999999996 33.00000000000001 -132.00000000000003
    vertex 10.892925705603693 26.332444100697288 -132.00000000000003
    vertex 11.724999999999996 25.987787643056315 -132.00000000000003
  endloop
endfacet
facet normal 0.0 0.0 1.0
  outer loop
    vertex 31.999999999999996 33.00000000000001 -132.00000000000003
    vertex 11.724999999999996 25.987787643056315 -132.00000000000003
    vertex 12.439518395093588 25.43951839509359 -132.00000000000003
  endloop
endfacet
facet normal 0.0 0.0 1.0
  outer loop
    vertex 31.999999999999996 33.00000000000001 -132.00000000000003
    vertex 12.439518395093588 25.43951839509359 -132.00000000000003
    vertex 12.98778764305631 24.724999999999994 -132.00000000000003
  endloop
endfacet
facet normal 0.0 0.0 1.0
  outer loop
    vertex 31.999999999999996 33.00000000000001 -132.00000000000003
    vertex 12.98778764305631 24.724999999999994 -132.00000000000003
    vertex 13.332444100697284 23.8929257056037 -132.00000000000003
  endloop
endfacet
facet normal 0.0 0.0 1.0
  outer loop
    vertex 31.999999999999996 33.00000000000001 -132.00000000000003
    vertex 13.332444100697284 23.8929257056037 -132.00000000000003
    vertex 13.449999999999998 23.000000000000004 -132.00000000000003
  endloop
endfacet
facet normal 0.0 0.0 1.0
  outer loop
    vertex 31.999999999999996 33.00000000000001 -132.00000000000003
    vertex 13.449999999999998 23.000000000000004 -132.00000000000003
    vertex 31.999999999999993 -38.0 -132.00000000000003
  endloop
endfacet
facet normal 0.0 0.0 1.0
  outer loop
    vertex 0.0 12.999999999999998 -132.00000000000003
    vertex 7.012212356943689 21.274999999999988 -132.00000000000003
    vertex 0.0 33.00000000000001 -132.00000000000003
  endloop
endfacet
facet normal 0.0 0.0 1.0
  outer loop
    vertex 7.012212356943689 21.274999999999988 -132.00000000000003
    vertex 0.0 12.999999999999998 -132.00000000000003
    vertex 12.0 12.999999999999998 -132.00000000000003
  endloop
endfacet
facet normal 0.0 0.0 1.0
  outer loop
    vertex 0.0 33.00000000000001 -132.00000000000003
    vertex 7.012212356943689 21.274999999999988 -132.00000000000003
    vertex 6.667555899302716 22.107074294396305 -132.00000000000003
  endloop
endfacet
facet normal 0.0 0.0 1.0
  outer loop
    vertex 0.0 33.00000000000001 -132.00000000000003
    vertex 6.667555899302716 22.107074294396305 -132.00000000000003
    vertex 6.550000000000001 23.000000000000004 -132.00000000000003
  endloop
endfacet
facet normal 0.0 0.0 1.0
  outer loop
    vertex 7.012212356943689 21.274999999999988 -132.00000000000003
    vertex 12.0 12.999999999999998 -132.00000000000003
    vertex 7.560481604906411 20.560481604906414 -132.00000000000003
  endloop
endfacet
facet normal 0.0 0.0 1.0
  outer loop
    vertex 7.560481604906411 20.560481604906414 -132.00000000000003
    vertex 12.0 12.999999999999998 -132.00000000000003
    vertex 8.275 20.01221235694368 -132.00000000000003
  endloop
endfacet
facet normal 0.0 0.0 1.0
  outer loop
    vertex 8.275 20.01221235694368 -132.00000000000003
    vertex 12.0 12.999999999999998 -132.00000000000003
    vertex 9.107074294396304 19.667555899302716 -132.00000000000003
  endloop
endfacet
facet normal 0.0 0.0 1.0
  outer loop
    vertex 9.107074294396304 19.667555899302716 -132.00000000000003
    vertex 12.0 12.999999999999998 -132.00000000000003
    vertex 10.0 19.549999999999997 -132.00000000000003
  endloop
endfacet
facet normal 0.0 0.0 1.0
  outer loop
    vertex 10.0 19.549999999999997 -132.00000000000003
    vertex 12.0 12.999999999999998 -132.00000000000003
    vertex 10.892925705603696 19.667555899302716 -132.00000000000003
  endloop
endfacet
facet normal 0.0 0.0 1.0
  outer loop
    vertex 10.892925705603696 19.667555899302716 -132.00000000000003
    vertex 12.0 12.999999999999998 -132.00000000000003
    vertex 11.724999999999998 20.012212356943692 -132.00000000000003
  endloop
endfacet
facet normal 0.0 0.0 1.0
  outer loop
    vertex 11.724999999999998 20.012212356943692 -132.00000000000003
    vertex 12.0 12.999999999999998 -132.00000000000003
    vertex 12.439518395093588 20.560481604906414 -132.00000000000003
  endloop
endfacet
facet normal 1.0 -3.219802628646173e-17 -8.27485215281324e-17
  outer loop
    vertex 31.999999999999996 -38.0 -107.0
    vertex 31.999999999999996 -40.00000000000001 -107.0
    vertex 31.999999999999993 -38.0 -132.00000000000003
  endloop
endfacet
facet normal 1.0 -3.219802628646173e-17 -8.27485215281324e-17
  outer loop
    vertex 31.999999999999996 -43.0 -136.00000000000003
    vertex 31.999999999999993 -38.0 -132.00000000000003
    vertex 31.999999999999996 -43.0 -107.0
  endloop
endfacet
facet normal 1.0 -3.219802628646173e-17 -8.27485215281324e-17
  outer loop
    vertex 31.999999999999993 -38.0 -132.00000000000003
    vertex 31.999999999999996 -43.0 -136.00000000000003
    vertex 31.999999999999996 33.00000000000001 -136.00000000000003
  endloop
endfacet
facet normal 1.0 -3.219802628646173e-17 -8.27485215281324e-17
  outer loop
    vertex 31.999999999999996 -43.0 -107.0
    vertex 31.999999999999993 -38.0 -132.00000000000003
    vertex 31.999999999999996 -40.00000000000001 -107.0
  endloop
endfacet
facet normal 1.0 -3.219802628646173e-17 -8.27485215281324e-17
  outer loop
    vertex 31.999999999999993 -38.0 -132.00000000000003
    vertex 31.999999999999996 33.00000000000001 -136.00000000000003
    vertex 31.999999999999996 33.00000000000001 -132.00000000000003
  endloop
endfacet
facet normal 0.0 0.0 1.0
  outer loop
    vertex 12.0 -67.0 -16.000000000000025
    vertex 16.20444504226559 -59.55291427061512 -16.000000000000025
    vertex 12.0 -43.0 -16.000000000000025
  endloop
endfacet
facet normal 0.0 0.0 1.0
  outer loop
    vertex 16.20444504226559 -59.55291427061512 -16.000000000000025
    vertex 12.0 -67.0 -16.000000000000025
    vertex 16.803847577293368 -61.0 -16.000000000000025
  endloop
endfacet
facet normal 0.0 0.0 1.0
  outer loop
    vertex 16.803847577293368 -61.0 -16.000000000000025
    vertex 12.0 -67.0 -16.000000000000025
    vertex 17.757359312880716 -62.24264068711928 -16.000000000000025
  endloop
endfacet
facet normal 0.0 0.0 1.0
  outer loop
    vertex 17.757359312880716 -62.24264068711928 -16.000000000000025
    vertex 12.0 -67.0 -16.000000000000025
    vertex 19.0 -63.19615242270663 -16.000000000000025
  endloop
endfacet
facet normal 0.0 0.0 1.0
  outer loop
    vertex 19.0 -63.19615242270663 -16.000000000000025
    vertex 12.0 -67.0 -16.000000000000025
    vertex 20.447085729384874 -63.79555495773442 -16.000000000000025
  endloop
endfacet
facet normal 0.0 0.0 1.0
  outer loop
    vertex 20.447085729384874 -63.79555495773442 -16.000000000000025
    vertex 12.0 -67.0 -16.000000000000025
    vertex 31.999999999999996 -67.0 -16.000000000000025
  endloop
endfacet
facet normal 0.0 0.0 1.0
  outer loop
    vertex 12.0 -43.0 -16.000000000000025
    vertex 16.20444504226559 -59.55291427061512 -16.000000000000025
    vertex 15.999999999999998 -58.00000000000001 -16.000000000000025
  endloop
endfacet
facet normal 0.0 0.0 1.0
  outer loop
    vertex 20.447085729384874 -63.79555495773442 -16.000000000000025
    vertex 31.999999999999996 -67.0 -16.000000000000025
    vertex 22.0 -63.99999999999999 -16.000000000000025
  endloop
endfacet
facet normal 0.0 0.0 1.0
  outer loop
    vertex 22.0 -63.99999999999999 -16.000000000000025
    vertex 31.999999999999996 -67.0 -16.000000000000025
    vertex 23.55291427061513 -63.79555495773442 -16.000000000000025
  endloop
endfacet
facet normal 0.0 0.0 1.0
  outer loop
    vertex 23.55291427061513 -63.79555495773442 -16.000000000000025
    vertex 31.999999999999996 -67.0 -16.000000000000025
    vertex 25.000000000000004 -63.19615242270663 -16.000000000000025
  endloop
endfacet
facet normal 0.0 0.0 1.0
  outer loop
    vertex 25.000000000000004 -63.19615242270663 -16.000000000000025
    vertex 31.999999999999996 -67.0 -16.000000000000025
    vertex 26.24264068711929 -62.24264068711928 -16.000000000000025
  endloop
endfacet
facet normal 0.0 0.0 1.0
  outer loop
    vertex 26.24264068711929 -62.24264068711928 -16.000000000000025
    vertex 31.999999999999996 -67.0 -16.000000000000025
    vertex 27.196152422706636 -61.0 -16.000000000000025
  endloop
endfacet
facet normal 0.0 0.0 1.0
  outer loop
    vertex 27.196152422706636 -61.0 -16.000000000000025
    vertex 31.999999999999996 -67.0 -16.000000000000025
    vertex 27.795554957734403 -59.55291427061512 -16.000000000000025
  endloop
endfacet
facet normal 0.0 0.0 1.0
  outer loop
    vertex 27.795554957734403 -59.55291427061512 -16.000000000000025
    vertex 31.999999999999996 -67.0 -16.000000000000025
    vertex 27.999999999999993 -58.00000000000001 -16.000000000000025
  endloop
endfacet
facet normal 0.0 0.0 1.0
  outer loop
    vertex 27.999999999999993 -58.00000000000001 -16.000000000000025
    vertex 31.999999999999996 -67.0 -16.000000000000025
    vertex 31.999999999999993 -43.0 -16.000000000000025
  endloop
endfacet
facet normal 0.0 0.0 1.0
  outer loop
    vertex 12.0 -43.0 -16.000000000000025
    vertex 18.999999999999996 -52.80384757729337 -16.000000000000025
    vertex 31.999999999999993 -43.0 -16.000000000000025
  endloop
endfacet
facet normal 0.0 0.0 1.0
  outer loop
    vertex 18.999999999999996 -52.80384757729337 -16.000000000000025
    vertex 12.0 -43.0 -16.000000000000025
    vertex 17.757359312880713 -53.75735931288071 -16.000000000000025
  endloop
endfacet
facet normal 0.0 0.0 1.0
  outer loop
    vertex 17.757359312880713 -53.75735931288071 -16.000000000000025
    vertex 12.0 -43.0 -16.000000000000025
    vertex 16.803847577293368 -55.0 -16.000000000000025
  endloop
endfacet
facet normal 0.0 0.0 1.0
  outer loop
    vertex 16.803847577293368 -55.0 -16.000000000000025
    vertex 12.0 -43.0 -16.000000000000025
    vertex 16.20444504226559 -56.44708572938487 -16.000000000000025
  endloop
endfacet
facet normal 0.0 0.0 1.0
  outer loop
    vertex 16.20444504226559 -56.44708572938487 -16.000000000000025
    vertex 12.0 -43.0 -16.000000000000025
    vertex 15.999999999999998 -58.00000000000001 -16.000000000000025
  endloop
endfacet
facet normal 0.0 0.0 1.0
  outer loop
    vertex 31.999999999999993 -43.0 -16.000000000000025
    vertex 18.999999999999996 -52.80384757729337 -16.000000000000025
    vertex 20.447085729384874 -52.2044450422656 -16.000000000000025
  endloop
endfacet
facet normal 0.0 0.0 1.0
  outer loop
    vertex 31.999999999999993 -43.0 -16.000000000000025
    vertex 20.447085729384874 -52.2044450422656 -16.000000000000025
    vertex 22.0 -51.99999999999999 -16.000000000000025
  endloop
endfacet
facet normal 0.0 0.0 1.0
  outer loop
    vertex 31.999999999999993 -43.0 -16.000000000000025
    vertex 22.0 -51.99999999999999 -16.000000000000025
    vertex 23.552914270615123 -52.2044450422656 -16.000000000000025
  endloop
endfacet
facet normal 0.0 0.0 1.0
  outer loop
    vertex 31.999999999999993 -43.0 -16.000000000000025
    vertex 23.552914270615123 -52.2044450422656 -16.000000000000025
    vertex 24.999999999999996 -52.80384757729336 -16.000000000000025
  endloop
endfacet
facet normal 0.0 0.0 1.0
  outer loop
    vertex 31.999999999999993 -43.0 -16.000000000000025
    vertex 24.999999999999996 -52.80384757729336 -16.000000000000025
    vertex 26.242640687119284 -53.75735931288071 -16.000000000000025
  endloop
endfacet
facet normal 0.0 0.0 1.0
  outer loop
    vertex 31.999999999999993 -43.0 -16.000000000000025
    vertex 26.242640687119284 -53.75735931288071 -16.000000000000025
    vertex 27.19615242270663 -55.0 -16.000000000000025
  endloop
endfacet
facet normal 0.0 0.0 1.0
  outer loop
    vertex 31.999999999999993 -43.0 -16.000000000000025
    vertex 27.19615242270663 -55.0 -16.000000000000025
    vertex 27.795554957734403 -56.44708572938487 -16.000000000000025
  endloop
endfacet
facet normal 0.0 0.0 1.0
  outer loop
    vertex 31.999999999999993 -43.0 -16.000000000000025
    vertex 27.795554957734403 -56.44708572938487 -16.000000000000025
    vertex 27.999999999999993 -58.00000000000001 -16.000000000000025
  endloop
endfacet
facet normal -1.0 -7.375246924006324e-18 2.0114748274115986e-18
  outer loop
    vertex 12.0 -43.0 -16.000000000000025
    vertex 12.0 -67.0 -20.00000000000002
    vertex 12.0 -67.0 -16.000000000000025
  endloop
endfacet
facet normal -1.0 -7.375246924006324e-18 2.0114748274115986e-18
  outer loop
    vertex 12.0 -67.0 -20.00000000000002
    vertex 12.0 -43.0 -16.000000000000025
    vertex 12.000000000000005 -43.0 -20.00000000000002
  endloop
endfacet
facet normal -1.0 -7.375246924006324e-18 2.0114748274115986e-18
  outer loop
    vertex 12.0 -43.0 3.9999999999999925
    vertex 12.0 -38.0 0.0
    vertex 12.0 -43.0 -16.000000000000025
  endloop
endfacet
facet normal -1.0 -7.375246924006324e-18 2.0114748274115986e-18
  outer loop
    vertex 12.0 -38.0 0.0
    vertex 12.0 -43.0 3.9999999999999925
    vertex 12.0 12.999999999999998 3.9999999999999925
  endloop
endfacet
facet normal -1.0 -7.375246924006324e-18 2.0114748274115986e-18
  outer loop
    vertex 12.0 -43.0 -16.000000000000025
    vertex 12.0 -38.0 0.0
    vertex 12.000000000000005 -43.0 -20.00000000000002
  endloop
endfacet
facet normal -1.0 -7.375246924006324e-18 2.0114748274115986e-18
  outer loop
    vertex 12.000000000000005 -43.0 -20.00000000000002
    vertex 12.0 -38.0 0.0
    vertex 12.0 -43.0 -136.00000000000003
  endloop
endfacet
facet normal -1.0 -7.375246924006324e-18 2.0114748274115986e-18
  outer loop
    vertex 12.0 -38.0 0.0
    vertex 12.0 12.999999999999998 3.9999999999999925
    vertex 12.0 12.999999999999998 0.0
  endloop
endfacet
facet normal -1.0 -7.375246924006324e-18 2.0114748274115986e-18
  outer loop
    vertex 12.0 -43.0 -136.00000000000003
    vertex 12.0 -38.0 -132.00000000000003
    vertex 12.0 12.999999999999998 -136.00000000000003
  endloop
endfacet
facet normal -1.0 -7.375246924006324e-18 2.0114748274115986e-18
  outer loop
    vertex 12.0 -38.0 -132.00000000000003
    vertex 12.0 -43.0 -136.00000000000003
    vertex 12.0 -38.0 0.0
  endloop
endfacet
facet normal -1.0 -7.375246924006324e-18 2.0114748274115986e-18
  outer loop
    vertex 12.0 12.999999999999998 -136.00000000000003
    vertex 12.0 -38.0 -132.00000000000003
    vertex 12.0 12.999999999999998 -132.00000000000003
  endloop
endfacet
facet normal 0.0 0.0 -1.0
  outer loop
    vertex 12.000000000000005 -43.0 -20.00000000000002
    vertex 16.20444504226559 -56.44708572938487 -20.00000000000002
    vertex 15.999999999999998 -58.00000000000001 -20.00000000000002
  endloop
endfacet
facet normal 0.0 0.0 -1.0
  outer loop
    vertex 16.20444504226559 -56.44708572938487 -20.00000000000002
    vertex 12.000000000000005 -43.0 -20.00000000000002
    vertex 16.803847577293368 -55.0 -20.00000000000002
  endloop
endfacet
facet normal 0.0 0.0 -1.0
  outer loop
    vertex 16.803847577293368 -55.0 -20.00000000000002
    vertex 12.000000000000005 -43.0 -20.00000000000002
    vertex 17.757359312880713 -53.75735931288071 -20.00000000000002
  endloop
endfacet
facet normal 0.0 0.0 -1.0
  outer loop
    vertex 17.757359312880713 -53.75735931288071 -20.00000000000002
    vertex 12.000000000000005 -43.0 -20.00000000000002
    vertex 18.999999999999996 -52.80384757729337 -20.00000000000002
  endloop
endfacet
facet normal 0.0 0.0 -1.0
  outer loop
    vertex 18.999999999999996 -52.80384757729337 -20.00000000000002
    vertex 12.000000000000005 -43.0 -20.00000000000002
    vertex 31.999999999999996 -43.0 -20.00000000000002
  endloop
endfacet
facet normal 0.0 0.0 -1.0
  outer loop
    vertex 18.999999999999996 -52.80384757729337 -20.00000000000002
    vertex 31.999999999999996 -43.0 -20.00000000000002
    vertex 20.447085729384874 -52.2044450422656 -20.00000000000002
  endloop
endfacet
facet normal 0.0 0.0 -1.0
  outer loop
    vertex 20.447085729384874 -52.2044450422656 -20.00000000000002
    vertex 31.999999999999996 -43.0 -20.00000000000002
    vertex 22.0 -51.99999999999999 -20.00000000000002
  endloop
endfacet
facet normal 0.0 0.0 -1.0
  outer loop
    vertex 22.0 -51.99999999999999 -20.00000000000002
    vertex 31.999999999999996 -43.0 -20.00000000000002
    vertex 23.552914270615123 -52.2044450422656 -20.00000000000002
  endloop
endfacet
facet normal 0.0 0.0 -1.0
  outer loop
    vertex 23.552914270615123 -52.2044450422656 -20.00000000000002
    vertex 31.999999999999996 -43.0 -20.00000000000002
    vertex 24.999999999999996 -52.80384757729336 -20.00000000000002
  endloop
endfacet
facet normal 0.0 0.0 -1.0
  outer loop
    vertex 24.999999999999996 -52.80384757729336 -20.00000000000002
    vertex 31.999999999999996 -43.0 -20.00000000000002
    vertex 26.242640687119284 -53.75735931288071 -20.00000000000002
  endloop
endfacet
facet normal 0.0 0.0 -1.0
  outer loop
    vertex 26.242640687119284 -53.75735931288071 -20.00000000000002
    vertex 31.999999999999996 -43.0 -20.00000000000002
    vertex 27.19615242270663 -55.0 -20.00000000000002
  endloop
endfacet
facet normal 0.0 0.0 -1.0
  outer loop
    vertex 27.19615242270663 -55.0 -20.00000000000002
    vertex 31.999999999999996 -43.0 -20.00000000000002
    vertex 27.795554957734403 -56.44708572938487 -20.00000000000002
  endloop
endfacet
facet normal 0.0 0.0 -1.0
  outer loop
    vertex 27.795554957734403 -56.44708572938487 -20.00000000000002
    vertex 31.999999999999996 -43.0 -20.00000000000002
    vertex 27.999999999999993 -58.00000000000001 -20.00000000000002
  endloop
endfacet
facet normal 0.0 0.0 -1.0
  outer loop
    vertex 12.0 -67.0 -20.00000000000002
    vertex 20.447085729384874 -63.79555495773442 -20.00000000000002
    vertex 31.999999999999996 -67.0 -20.00000000000002
  endloop
endfacet
facet normal 0.0 0.0 -1.0
  outer loop
    vertex 20.447085729384874 -63.79555495773442 -20.00000000000002
    vertex 12.0 -67.0 -20.00000000000002
    vertex 19.0 -63.19615242270663 -20.00000000000002
  endloop
endfacet
facet normal 0.0 0.0 -1.0
  outer loop
    vertex 19.0 -63.19615242270663 -20.00000000000002
    vertex 12.0 -67.0 -20.00000000000002
    vertex 17.757359312880716 -62.24264068711928 -20.00000000000002
  endloop
endfacet
facet normal 0.0 0.0 -1.0
  outer loop
    vertex 17.757359312880716 -62.24264068711928 -20.00000000000002
    vertex 12.0 -67.0 -20.00000000000002
    vertex 16.803847577293368 -61.0 -20.00000000000002
  endloop
endfacet
facet normal 0.0 0.0 -1.0
  outer loop
    vertex 16.803847577293368 -61.0 -20.00000000000002
    vertex 12.0 -67.0 -20.00000000000002
    vertex 16.20444504226559 -59.55291427061512 -20.00000000000002
  endloop
endfacet
facet normal 0.0 0.0 -1.0
  outer loop
    vertex 16.20444504226559 -59.55291427061512 -20.00000000000002
    vertex 12.0 -67.0 -20.00000000000002
    vertex 12.000000000000005 -43.0 -20.00000000000002
  endloop
endfacet
facet normal 0.0 0.0 -1.0
  outer loop
    vertex 16.20444504226559 -59.55291427061512 -20.00000000000002
    vertex 12.000000000000005 -43.0 -20.00000000000002
    vertex 15.999999999999998 -58.00000000000001 -20.00000000000002
  endloop
endfacet
facet normal 0.0 0.0 -1.0
  outer loop
    vertex 31.999999999999996 -67.0 -20.00000000000002
    vertex 20.447085729384874 -63.79555495773442 -20.00000000000002
    vertex 22.0 -63.99999999999999 -20.00000000000002
  endloop
endfacet
facet normal 0.0 0.0 -1.0
  outer loop
    vertex 31.999999999999996 -67.0 -20.00000000000002
    vertex 22.0 -63.99999999999999 -20.00000000000002
    vertex 23.55291427061513 -63.79555495773442 -20.00000000000002
  endloop
endfacet
facet normal 0.0 0.0 -1.0
  outer loop
    vertex 31.999999999999996 -67.0 -20.00000000000002
    vertex 23.55291427061513 -63.79555495773442 -20.00000000000002
    vertex 25.000000000000004 -63.19615242270663 -20.00000000000002
  endloop
endfacet
facet normal 0.0 0.0 -1.0
  outer loop
    vertex 31.999999999999996 -67.0 -20.00000000000002
    vertex 25.000000000000004 -63.19615242270663 -20.00000000000002
    vertex 26.24264068711929 -62.24264068711928 -20.00000000000002
  endloop
endfacet
facet normal 0.0 0.0 -1.0
  outer loop
    vertex 31.999999999999996 -67.0 -20.00000000000002
    vertex 26.24264068711929 -62.24264068711928 -20.00000000000002
    vertex 27.196152422706636 -61.0 -20.00000000000002
  endloop
endfacet
facet normal 0.0 0.0 -1.0
  outer loop
    vertex 31.999999999999996 -67.0 -20.00000000000002
    vertex 27.196152422706636 -61.0 -20.00000000000002
    vertex 27.795554957734403 -59.55291427061512 -20.00000000000002
  endloop
endfacet
facet normal 0.0 0.0 -1.0
  outer loop
    vertex 31.999999999999996 -67.0 -20.00000000000002
    vertex 27.795554957734403 -59.55291427061512 -20.00000000000002
    vertex 27.999999999999993 -58.00000000000001 -20.00000000000002
  endloop
endfacet
facet normal 0.0 0.0 -1.0
  outer loop
    vertex 31.999999999999996 -67.0 -20.00000000000002
    vertex 27.999999999999993 -58.00000000000001 -20.00000000000002
    vertex 31.999999999999996 -43.0 -20.00000000000002
  endloop
endfacet
facet normal -0.0 -1.0 -0.0
  outer loop
    vertex 31.999999999999996 -67.0 -16.000000000000025
    vertex 12.0 -67.0 -20.00000000000002
    vertex 31.999999999999996 -67.0 -20.00000000000002
  endloop
endfacet
facet normal -0.0 -1.0 -0.0
  outer loop
    vertex 12.0 -67.0 -20.00000000000002
    vertex 31.999999999999996 -67.0 -16.000000000000025
    vertex 12.0 -67.0 -16.000000000000025
  endloop
endfacet
facet normal -0.9238795325112892 0.38268343236508395 0.0
  outer loop
    vertex 27.795554957734403 -59.55291427061512 -16.000000000000025
    vertex 27.196152422706636 -61.0 -20.00000000000002
    vertex 27.196152422706636 -61.0 -16.000000000000025
  endloop
endfacet
facet normal -0.9238795325112892 0.38268343236508395 0.0
  outer loop
    vertex 27.196152422706636 -61.0 -20.00000000000002
    vertex 27.795554957734403 -59.55291427061512 -16.000000000000025
    vertex 27.795554957734403 -59.55291427061512 -20.00000000000002
  endloop
endfacet
facet normal -0.9914448613738103 0.13052619222005263 0.0
  outer loop
    vertex 27.999999999999993 -58.00000000000001 -16.000000000000025
    vertex 27.795554957734403 -59.55291427061512 -20.00000000000002
    vertex 27.795554957734403 -59.55291427061512 -16.000000000000025
  endloop
endfacet
facet normal -0.9914448613738103 0.13052619222005263 0.0
  outer loop
    vertex 27.795554957734403 -59.55291427061512 -20.00000000000002
    vertex 27.999999999999993 -58.00000000000001 -16.000000000000025
    vertex 27.999999999999993 -58.00000000000001 -20.00000000000002
  endloop
endfacet
facet normal -0.9914448613738105 -0.13052619222005077 0.0
  outer loop
    vertex 27.795554957734403 -56.44708572938487 -16.000000000000025
    vertex 27.999999999999993 -58.00000000000001 -20.00000000000002
    vertex 27.999999999999993 -58.00000000000001 -16.000000000000025
  endloop
endfacet
facet normal -0.9914448613738105 -0.13052619222005077 0.0
  outer loop
    vertex 27.999999999999993 -58.00000000000001 -20.00000000000002
    vertex 27.795554957734403 -56.44708572938487 -16.000000000000025
    vertex 27.795554957734403 -56.44708572938487 -20.00000000000002
  endloop
endfacet
facet normal -0.9238795325112868 -0.3826834323650896 0.0
  outer loop
    vertex 27.19615242270663 -55.0 -16.000000000000025
    vertex 27.795554957734403 -56.44708572938487 -20.00000000000002
    vertex 27.795554957734403 -56.44708572938487 -16.000000000000025
  endloop
endfacet
facet normal -0.9238795325112868 -0.3826834323650896 0.0
  outer loop
    vertex 27.795554957734403 -56.44708572938487 -20.00000000000002
    vertex 27.19615242270663 -55.0 -16.000000000000025
    vertex 27.19615242270663 -55.0 -20.00000000000002
  endloop
endfacet
facet normal -0.7933533402912368 -0.6087614290087185 0.0
  outer loop
    vertex 26.242640687119284 -53.75735931288071 -16.000000000000025
    vertex 27.19615242270663 -55.0 -20.00000000000002
    vertex 27.19615242270663 -55.0 -16.000000000000025
  endloop
endfacet
facet normal -0.7933533402912368 -0.6087614290087185 0.0
  outer loop
    vertex 27.19615242270663 -55.0 -20.00000000000002
    vertex 26.242640687119284 -53.75735931288071 -16.000000000000025
    vertex 26.242640687119284 -53.75735931288071 -20.00000000000002
  endloop
endfacet
facet normal -0.6087614290087217 -0.7933533402912345 0.0
  outer loop
    vertex 26.242640687119284 -53.75735931288071 -16.000000000000025
    vertex 24.999999999999996 -52.80384757729336 -20.00000000000002
    vertex 26.242640687119284 -53.75735931288071 -20.00000000000002
  endloop
endfacet
facet normal -0.6087614290087217 -0.7933533402912345 0.0
  outer loop
    vertex 24.999999999999996 -52.80384757729336 -20.00000000000002
    vertex 26.242640687119284 -53.75735931288071 -16.000000000000025
    vertex 24.999999999999996 -52.80384757729336 -16.000000000000025
  endloop
endfacet
facet normal -0.3826834323650821 -0.92387953251129 0.0
  outer loop
    vertex 24.999999999999996 -52.80384757729336 -16.000000000000025
    vertex 23.552914270615123 -52.2044450422656 -20.00000000000002
    vertex 24.999999999999996 -52.80384757729336 -20.00000000000002
  endloop
endfacet
facet normal -0.3826834323650821 -0.92387953251129 0.0
  outer loop
    vertex 23.552914270615123 -52.2044450422656 -20.00000000000002
    vertex 24.999999999999996 -52.80384757729336 -16.000000000000025
    vertex 23.552914270615123 -52.2044450422656 -16.000000000000025
  endloop
endfacet
facet normal -0.130526192220059 -0.9914448613738096 0.0
  outer loop
    vertex 23.552914270615123 -52.2044450422656 -16.000000000000025
    vertex 22.0 -51.99999999999999 -20.00000000000002
    vertex 23.552914270615123 -52.2044450422656 -20.00000000000002
  endloop
endfacet
facet normal -0.130526192220059 -0.9914448613738096 0.0
  outer loop
    vertex 22.0 -51.99999999999999 -20.00000000000002
    vertex 23.552914270615123 -52.2044450422656 -16.000000000000025
    vertex 22.0 -51.99999999999999 -16.000000000000025
  endloop
endfacet
facet normal 0.1305261922200588 -0.9914448613738096 0.0
  outer loop
    vertex 22.0 -51.99999999999999 -16.000000000000025
    vertex 20.447085729384874 -52.2044450422656 -20.00000000000002
    vertex 22.0 -51.99999999999999 -20.00000000000002
  endloop
endfacet
facet normal 0.1305261922200588 -0.9914448613738096 0.0
  outer loop
    vertex 20.447085729384874 -52.2044450422656 -20.00000000000002
    vertex 22.0 -51.99999999999999 -16.000000000000025
    vertex 20.447085729384874 -52.2044450422656 -16.000000000000025
  endloop
endfacet
facet normal 0.38268343236508756 -0.9238795325112876 0.0
  outer loop
    vertex 20.447085729384874 -52.2044450422656 -16.000000000000025
    vertex 18.999999999999996 -52.80384757729337 -20.00000000000002
    vertex 20.447085729384874 -52.2044450422656 -20.00000000000002
  endloop
endfacet
facet normal 0.38268343236508756 -0.9238795325112876 0.0
  outer loop
    vertex 18.999999999999996 -52.80384757729337 -20.00000000000002
    vertex 20.447085729384874 -52.2044450422656 -16.000000000000025
    vertex 18.999999999999996 -52.80384757729337 -16.000000000000025
  endloop
endfacet
facet normal 0.6087614290087179 -0.7933533402912374 0.0
  outer loop
    vertex 18.999999999999996 -52.80384757729337 -16.000000000000025
    vertex 17.757359312880713 -53.75735931288071 -20.00000000000002
    vertex 18.999999999999996 -52.80384757729337 -20.00000000000002
  endloop
endfacet
facet normal 0.6087614290087179 -0.7933533402912374 0.0
  outer loop
    vertex 17.757359312880713 -53.75735931288071 -20.00000000000002
    vertex 18.999999999999996 -52.80384757729337 -16.000000000000025
    vertex 17.757359312880713 -53.75735931288071 -16.000000000000025
  endloop
endfacet
facet normal 0.7933533402912368 -0.6087614290087185 0.0
  outer loop
    vertex 17.757359312880713 -53.75735931288071 -20.00000000000002
    vertex 16.803847577293368 -55.0 -16.000000000000025
    vertex 16.803847577293368 -55.0 -20.00000000000002
  endloop
endfacet
facet normal 0.7933533402912368 -0.6087614290087185 0.0
  outer loop
    vertex 16.803847577293368 -55.0 -16.000000000000025
    vertex 17.757359312880713 -53.75735931288071 -20.00000000000002
    vertex 17.757359312880713 -53.75735931288071 -16.000000000000025
  endloop
endfacet
facet normal 0.9238795325112864 -0.3826834323650911 0.0
  outer loop
    vertex 16.803847577293368 -55.0 -20.00000000000002
    vertex 16.20444504226559 -56.44708572938487 -16.000000000000025
    vertex 16.20444504226559 -56.44708572938487 -20.00000000000002
  endloop
endfacet
facet normal 0.9238795325112864 -0.3826834323650911 0.0
  outer loop
    vertex 16.20444504226559 -56.44708572938487 -16.000000000000025
    vertex 16.803847577293368 -55.0 -20.00000000000002
    vertex 16.803847577293368 -55.0 -16.000000000000025
  endloop
endfacet
facet normal 0.9914448613738105 -0.13052619222005077 0.0
  outer loop
    vertex 16.20444504226559 -56.44708572938487 -20.00000000000002
    vertex 15.999999999999998 -58.00000000000001 -16.000000000000025
    vertex 15.999999999999998 -58.00000000000001 -20.00000000000002
  endloop
endfacet
facet normal 0.9914448613738105 -0.13052619222005077 0.0
  outer loop
    vertex 15.999999999999998 -58.00000000000001 -16.000000000000025
    vertex 16.20444504226559 -56.44708572938487 -20.00000000000002
    vertex 16.20444504226559 -56.44708572938487 -16.000000000000025
  endloop
endfacet
facet normal 0.9914448613738103 0.13052619222005263 0.0
  outer loop
    vertex 15.999999999999998 -58.00000000000001 -20.00000000000002
    vertex 16.20444504226559 -59.55291427061512 -16.000000000000025
    vertex 16.20444504226559 -59.55291427061512 -20.00000000000002
  endloop
endfacet
facet normal 0.9914448613738103 0.13052619222005263 0.0
  outer loop
    vertex 16.20444504226559 -59.55291427061512 -16.000000000000025
    vertex 15.999999999999998 -58.00000000000001 -20.00000000000002
    vertex 15.999999999999998 -58.00000000000001 -16.000000000000025
  endloop
endfacet
facet normal 0.9238795325112873 0.3826834323650885 0.0
  outer loop
    vertex 16.20444504226559 -59.55291427061512 -20.00000000000002
    vertex 16.803847577293368 -61.0 -16.000000000000025
    vertex 16.803847577293368 -61.0 -20.00000000000002
  endloop
endfacet
facet normal 0.9238795325112873 0.3826834323650885 0.0
  outer loop
    vertex 16.803847577293368 -61.0 -16.000000000000025
    vertex 16.20444504226559 -59.55291427061512 -20.00000000000002
    vertex 16.20444504226559 -59.55291427061512 -16.000000000000025
  endloop
endfacet
facet normal 0.7933533402912333 0.6087614290087231 0.0
  outer loop
    vertex 16.803847577293368 -61.0 -20.00000000000002
    vertex 17.757359312880716 -62.24264068711928 -16.000000000000025
    vertex 17.757359312880716 -62.24264068711928 -20.00000000000002
  endloop
endfacet
facet normal 0.7933533402912333 0.6087614290087231 0.0
  outer loop
    vertex 17.757359312880716 -62.24264068711928 -16.000000000000025
    vertex 16.803847577293368 -61.0 -20.00000000000002
    vertex 16.803847577293368 -61.0 -16.000000000000025
  endloop
endfacet
facet normal 0.6087614290087224 0.7933533402912338 0.0
  outer loop
    vertex 17.757359312880716 -62.24264068711928 -16.000000000000025
    vertex 19.0 -63.19615242270663 -20.00000000000002
    vertex 17.757359312880716 -62.24264068711928 -20.00000000000002
  endloop
endfacet
facet normal 0.6087614290087224 0.7933533402912338 0.0
  outer loop
    vertex 19.0 -63.19615242270663 -20.00000000000002
    vertex 17.757359312880716 -62.24264068711928 -16.000000000000025
    vertex 19.0 -63.19615242270663 -16.000000000000025
  endloop
endfacet
facet normal 0.3826834323650944 0.9238795325112849 0.0
  outer loop
    vertex 19.0 -63.19615242270663 -16.000000000000025
    vertex 20.447085729384874 -63.79555495773442 -20.00000000000002
    vertex 19.0 -63.19615242270663 -20.00000000000002
  endloop
endfacet
facet normal 0.3826834323650944 0.9238795325112849 0.0
  outer loop
    vertex 20.447085729384874 -63.79555495773442 -20.00000000000002
    vertex 19.0 -63.19615242270663 -16.000000000000025
    vertex 20.447085729384874 -63.79555495773442 -16.000000000000025
  endloop
endfacet
facet normal 0.1305261922200446 0.9914448613738114 0.0
  outer loop
    vertex 20.447085729384874 -63.79555495773442 -16.000000000000025
    vertex 22.0 -63.99999999999999 -20.00000000000002
    vertex 20.447085729384874 -63.79555495773442 -20.00000000000002
  endloop
endfacet
facet normal 0.1305261922200446 0.9914448613738114 0.0
  outer loop
    vertex 22.0 -63.99999999999999 -20.00000000000002
    vertex 20.447085729384874 -63.79555495773442 -16.000000000000025
    vertex 22.0 -63.99999999999999 -16.000000000000025
  endloop
endfacet
facet normal -0.13052619222004413 0.9914448613738114 0.0
  outer loop
    vertex 22.0 -63.99999999999999 -16.000000000000025
    vertex 23.55291427061513 -63.79555495773442 -20.00000000000002
    vertex 22.0 -63.99999999999999 -20.00000000000002
  endloop
endfacet
facet normal -0.13052619222004413 0.9914448613738114 0.0
  outer loop
    vertex 23.55291427061513 -63.79555495773442 -20.00000000000002
    vertex 22.0 -63.99999999999999 -16.000000000000025
    vertex 23.55291427061513 -63.79555495773442 -16.000000000000025
  endloop
endfacet
facet normal -0.38268343236509506 0.9238795325112846 0.0
  outer loop
    vertex 23.55291427061513 -63.79555495773442 -16.000000000000025
    vertex 25.000000000000004 -63.19615242270663 -20.00000000000002
    vertex 23.55291427061513 -63.79555495773442 -20.00000000000002
  endloop
endfacet
facet normal -0.38268343236509506 0.9238795325112846 0.0
  outer loop
    vertex 25.000000000000004 -63.19615242270663 -20.00000000000002
    vertex 23.55291427061513 -63.79555495773442 -16.000000000000025
    vertex 25.000000000000004 -63.19615242270663 -16.000000000000025
  endloop
endfacet
facet normal -0.6087614290087217 0.7933533402912345 0.0
  outer loop
    vertex 25.000000000000004 -63.19615242270663 -16.000000000000025
    vertex 26.24264068711929 -62.24264068711928 -20.00000000000002
    vertex 25.000000000000004 -63.19615242270663 -20.00000000000002
  endloop
endfacet
facet normal -0.6087614290087217 0.7933533402912345 0.0
  outer loop
    vertex 26.24264068711929 -62.24264068711928 -20.00000000000002
    vertex 25.000000000000004 -63.19615242270663 -16.000000000000025
    vertex 26.24264068711929 -62.24264068711928 -16.000000000000025
  endloop
endfacet
facet normal -0.7933533402912342 0.608761429008722 0.0
  outer loop
    vertex 27.196152422706636 -61.0 -16.000000000000025
    vertex 26.24264068711929 -62.24264068711928 -20.00000000000002
    vertex 26.24264068711929 -62.24264068711928 -16.000000000000025
  endloop
endfacet
facet normal -0.7933533402912342 0.608761429008722 0.0
  outer loop
    vertex 26.24264068711929 -62.24264068711928 -20.00000000000002
    vertex 27.196152422706636 -61.0 -16.000000000000025
    vertex 27.196152422706636 -61.0 -20.00000000000002
  endloop
endfacet
facet normal 0.0 -1.0 0.0
  outer loop
    vertex 31.999999999999996 -43.0 3.9999999999999925
    vertex 12.0 -43.0 -16.000000000000025
    vertex 31.999999999999993 -43.0 -16.000000000000025
  endloop
endfacet
facet normal 0.0 -1.0 0.0
  outer loop
    vertex 12.0 -43.0 -16.000000000000025
    vertex 31.999999999999996 -43.0 3.9999999999999925
    vertex 12.0 -43.0 3.9999999999999925
  endloop
endfacet
facet normal 1.0 -6.9263393388233055e-18 3.0899395070923564e-18
  outer loop
    vertex 31.999999999999996 -40.00000000000001 -88.0
    vertex 31.999999999999996 -43.0 -20.00000000000002
    vertex 31.999999999999996 -43.0 -88.0
  endloop
endfacet
facet normal 1.0 -6.9263393388233055e-18 3.0899395070923564e-18
  outer loop
    vertex 31.999999999999996 -43.0 -20.00000000000002
    vertex 31.999999999999996 -40.00000000000001 -88.0
    vertex 31.999999999999993 -43.0 -16.000000000000025
  endloop
endfacet
facet normal 1.0 -6.9263393388233055e-18 3.0899395070923564e-18
  outer loop
    vertex 31.999999999999993 -43.0 -16.000000000000025
    vertex 31.999999999999996 -40.00000000000001 -88.0
    vertex 31.999999999999996 -43.0 3.9999999999999925
  endloop
endfacet
facet normal 1.0 -6.9263393388233055e-18 3.0899395070923564e-18
  outer loop
    vertex 31.999999999999996 -43.0 3.9999999999999925
    vertex 31.999999999999996 -40.00000000000001 -88.0
    vertex 31.999999999999996 -38.0 0.0
  endloop
endfacet
facet normal 1.0 -6.9263393388233055e-18 3.0899395070923564e-18
  outer loop
    vertex 31.999999999999996 -43.0 3.9999999999999925
    vertex 31.999999999999996 -38.0 0.0
    vertex 31.999999999999996 33.00000000000001 3.9999999999999925
  endloop
endfacet
facet normal 1.0 -6.9263393388233055e-18 3.0899395070923564e-18
  outer loop
    vertex 31.999999999999996 -38.0 0.0
    vertex 31.999999999999996 -40.00000000000001 -88.0
    vertex 31.999999999999996 -38.0 -88.0
  endloop
endfacet
facet normal 1.0 -6.9263393388233055e-18 3.0899395070923564e-18
  outer loop
    vertex 31.999999999999996 33.00000000000001 3.9999999999999925
    vertex 31.999999999999996 -38.0 0.0
    vertex 31.999999999999996 33.00000000000001 0.0
  endloop
endfacet
facet normal 1.0 -6.9263393388233055e-18 3.0899395070923564e-18
  outer loop
    vertex 31.999999999999996 -43.0 -20.00000000000002
    vertex 31.999999999999996 -67.0 -16.000000000000025
    vertex 31.999999999999996 -67.0 -20.00000000000002
  endloop
endfacet
facet normal 1.0 -6.9263393388233055e-18 3.0899395070923564e-18
  outer loop
    vertex 31.999999999999996 -67.0 -16.000000000000025
    vertex 31.999999999999996 -43.0 -20.00000000000002
    vertex 31.999999999999993 -43.0 -16.000000000000025
  endloop
endfacet
facet normal -0.0 1.0 -0.0
  outer loop
    vertex 12.0 -38.0 0.0
    vertex 31.999999999999993 -38.0 -132.00000000000003
    vertex 12.0 -38.0 -132.00000000000003
  endloop
endfacet
facet normal -0.0 1.0 -0.0
  outer loop
    vertex 31.999999999999993 -38.0 -132.00000000000003
    vertex 12.0 -38.0 0.0
    vertex 31.999999999999996 -38.0 -107.0
  endloop
endfacet
facet normal -0.0 1.0 -0.0
  outer loop
    vertex 31.999999999999996 -38.0 -107.0
    vertex 12.0 -38.0 0.0
    vertex 31.999999999999996 -38.0 -88.0
  endloop
endfacet
facet normal -0.0 1.0 -0.0
  outer loop
    vertex 31.999999999999996 -38.0 -88.0
    vertex 12.0 -38.0 0.0
    vertex 31.999999999999996 -38.0 0.0
  endloop
endfacet
facet normal 0.0 -1.0 0.0
  outer loop
    vertex 31.999999999999996 -43.0 -20.00000000000002
    vertex 19.413417829713733 -43.0 -88.0
    vertex 31.999999999999996 -43.0 -88.0
  endloop
endfacet
facet normal 0.0 -1.0 0.0
  outer loop
    vertex 31.999999999999996 -43.0 -107.0
    vertex 12.0 -43.0 -136.00000000000003
    vertex 31.999999999999996 -43.0 -136.00000000000003
  endloop
endfacet
facet normal 0.0 -1.0 0.0
  outer loop
    vertex 12.0 -43.0 -136.00000000000003
    vertex 31.999999999999996 -43.0 -107.0
    vertex 19.413417829713733 -43.0 -107.0
  endloop
endfacet
facet normal 0.0 -1.0 0.0
  outer loop
    vertex 12.0 -43.0 -136.00000000000003
    vertex 19.413417829713733 -43.0 -107.0
    vertex 12.000000000000005 -43.0 -20.00000000000002
  endloop
endfacet
facet normal 0.0 -1.0 0.0
  outer loop
    vertex 12.000000000000005 -43.0 -20.00000000000002
    vertex 19.413417829713733 -43.0 -107.0
    vertex 19.413417829713733 -43.0 -88.0
  endloop
endfacet
facet normal 0.0 -1.0 0.0
  outer loop
    vertex 12.000000000000005 -43.0 -20.00000000000002
    vertex 19.413417829713733 -43.0 -88.0
    vertex 31.999999999999996 -43.0 -20.00000000000002
  endloop
endfacet
facet normal 1.0 -0.0 -0.0
  outer loop
    vertex 31.999999999999996 -38.0 -107.0
    vertex 31.999999999999996 -40.00000000000001 -88.0
    vertex 31.999999999999996 -40.00000000000001 -107.0
  endloop
endfacet
facet normal 1.0 -0.0 -0.0
  outer loop
    vertex 31.999999999999996 -40.00000000000001 -88.0
    vertex 31.999999999999996 -38.0 -107.0
    vertex 31.999999999999996 -38.0 -88.0
  endloop
endfacet
facet normal 0.0 -1.0 0.0
  outer loop
    vertex 31.999999999999996 -40.00000000000001 -88.0
    vertex 19.413417829713733 -40.00000000000001 -107.0
    vertex 31.999999999999996 -40.00000000000001 -107.0
  endloop
endfacet
facet normal 0.0 -1.0 0.0
  outer loop
    vertex 19.413417829713733 -40.00000000000001 -107.0
    vertex 31.999999999999996 -40.00000000000001 -88.0
    vertex 19.413417829713733 -40.00000000000001 -88.0
  endloop
endfacet
facet normal -0.0 -0.0 -1.0
  outer loop
    vertex 31.999999999999996 -40.00000000000001 -88.0
    vertex 19.413417829713733 -43.0 -88.0
    vertex 19.413417829713733 -40.00000000000001 -88.0
  endloop
endfacet
facet normal -0.0 -0.0 -1.0
  outer loop
    vertex 19.413417829713733 -43.0 -88.0
    vertex 31.999999999999996 -40.00000000000001 -88.0
    vertex 31.999999999999996 -43.0 -88.0
  endloop
endfacet
facet normal 1.0 0.0 0.0
  outer loop
    vertex 19.413417829713733 -40.00000000000001 -107.0
    vertex 19.413417829713733 -43.0 -88.0
    vertex 19.413417829713733 -43.0 -107.0
  endloop
endfacet
facet normal 1.0 0.0 0.0
  outer loop
    vertex 19.413417829713733 -43.0 -88.0
    vertex 19.413417829713733 -40.00000000000001 -107.0
    vertex 19.413417829713733 -40.00000000000001 -88.0
  endloop
endfacet
facet normal -0.0 -0.0 1.0
  outer loop
    vertex 31.999999999999996 -43.0 -107.0
    vertex 19.413417829713733 -40.00000000000001 -107.0
    vertex 19.413417829713733 -43.0 -107.0
  endloop
endfacet
facet normal -0.0 -0.0 1.0
  outer loop
    vertex 19.413417829713733 -40.00000000000001 -107.0
    vertex 31.999999999999996 -43.0 -107.0
    vertex 31.999999999999996 -40.00000000000001 -107.0
  endloop
endfacet
endsolid holder_2xlimitswitches_z-axis_part1
