%TF.GenerationSoftware,KiCad,Pcbnew,(6.0.11-0)*%
%TF.CreationDate,2023-09-03T14:24:56+02:00*%
%TF.ProjectId,Endstop_Levelshifter,456e6473-746f-4705-9f4c-6576656c7368,0.1*%
%TF.SameCoordinates,Original*%
%TF.FileFunction,Drillmap*%
%TF.FilePolarity,Positive*%
%FSLAX45Y45*%
G04 Gerber Fmt 4.5, Leading zero omitted, Abs format (unit mm)*
G04 Created by KiCad (PCBNEW (6.0.11-0)) date 2023-09-03 14:24:56*
%MOMM*%
%LPD*%
G01*
G04 APERTURE LIST*
%ADD10C,0.100000*%
%ADD11C,0.200000*%
G04 APERTURE END LIST*
D10*
X8737600Y-6934200D02*
X11379200Y-6934200D01*
X11379200Y-6934200D02*
X11379200Y-9118600D01*
X11379200Y-9118600D02*
X8737600Y-9118600D01*
X8737600Y-9118600D02*
X8737600Y-6934200D01*
D11*
X8990219Y-9434076D02*
X8990219Y-9234076D01*
X9037838Y-9234076D01*
X9066410Y-9243600D01*
X9085457Y-9262648D01*
X9094981Y-9281695D01*
X9104505Y-9319790D01*
X9104505Y-9348362D01*
X9094981Y-9386457D01*
X9085457Y-9405505D01*
X9066410Y-9424552D01*
X9037838Y-9434076D01*
X8990219Y-9434076D01*
X9190219Y-9434076D02*
X9190219Y-9300743D01*
X9190219Y-9338838D02*
X9199743Y-9319790D01*
X9209267Y-9310267D01*
X9228314Y-9300743D01*
X9247362Y-9300743D01*
X9314029Y-9434076D02*
X9314029Y-9300743D01*
X9314029Y-9234076D02*
X9304505Y-9243600D01*
X9314029Y-9253124D01*
X9323552Y-9243600D01*
X9314029Y-9234076D01*
X9314029Y-9253124D01*
X9437838Y-9434076D02*
X9418790Y-9424552D01*
X9409267Y-9405505D01*
X9409267Y-9234076D01*
X9542600Y-9434076D02*
X9523552Y-9424552D01*
X9514029Y-9405505D01*
X9514029Y-9234076D01*
X9771171Y-9434076D02*
X9771171Y-9234076D01*
X9837838Y-9376933D01*
X9904505Y-9234076D01*
X9904505Y-9434076D01*
X10085457Y-9434076D02*
X10085457Y-9329314D01*
X10075933Y-9310267D01*
X10056886Y-9300743D01*
X10018790Y-9300743D01*
X9999743Y-9310267D01*
X10085457Y-9424552D02*
X10066410Y-9434076D01*
X10018790Y-9434076D01*
X9999743Y-9424552D01*
X9990219Y-9405505D01*
X9990219Y-9386457D01*
X9999743Y-9367410D01*
X10018790Y-9357886D01*
X10066410Y-9357886D01*
X10085457Y-9348362D01*
X10180695Y-9300743D02*
X10180695Y-9500743D01*
X10180695Y-9310267D02*
X10199743Y-9300743D01*
X10237838Y-9300743D01*
X10256886Y-9310267D01*
X10266410Y-9319790D01*
X10275933Y-9338838D01*
X10275933Y-9395981D01*
X10266410Y-9415029D01*
X10256886Y-9424552D01*
X10237838Y-9434076D01*
X10199743Y-9434076D01*
X10180695Y-9424552D01*
X10361648Y-9415029D02*
X10371171Y-9424552D01*
X10361648Y-9434076D01*
X10352124Y-9424552D01*
X10361648Y-9415029D01*
X10361648Y-9434076D01*
X10361648Y-9310267D02*
X10371171Y-9319790D01*
X10361648Y-9329314D01*
X10352124Y-9319790D01*
X10361648Y-9310267D01*
X10361648Y-9329314D01*
M02*
