M48
; DRILL file {KiCad (6.0.11-0)} date 2023 September 03, Sunday 14:24:48
; FORMAT={-:-/ absolute / metric / decimal}
; #@! TF.CreationDate,2023-09-03T14:24:48+02:00
; #@! TF.GenerationSoftware,Kicad,Pcbnew,(6.0.11-0)
; #@! TF.FileFunction,Plated,1,2,PTH
FMAT,2
METRIC
; #@! TA.AperFunction,Plated,PTH,ViaDrill
T1C0.300
; #@! TA.AperFunction,Plated,PTH,ViaDrill
T2C0.400
; #@! TA.AperFunction,Plated,PTH,ComponentDrill
T3C1.000
; #@! TA.AperFunction,Plated,PTH,ComponentDrill
T4C1.300
%
G90
G05
T1
X94.996Y-82.804
X109.728Y-82.042
X111.506Y-83.058
T2
X93.472Y-76.2
X93.472Y-79.248
X99.06Y-76.2
X99.06Y-84.328
X103.886Y-77.47
X104.394Y-73.152
X108.204Y-76.962
X108.966Y-75.946
X110.871Y-77.851
X111.977Y-76.2
T3
X96.774Y-88.9
X99.314Y-88.9
X101.854Y-76.2
X101.854Y-78.74
X101.854Y-81.28
X101.854Y-83.82
X101.854Y-86.36
X101.854Y-88.9
X106.877Y-86.096
X106.877Y-88.636
T4
X90.932Y-71.354
X90.932Y-73.894
X90.932Y-76.434
X90.932Y-78.974
X90.932Y-81.514
X90.932Y-84.054
X90.932Y-86.594
X90.932Y-89.134
T0
M30
