%TF.GenerationSoftware,KiCad,Pcbnew,(6.0.11-0)*%
%TF.CreationDate,2023-09-03T14:24:23+02:00*%
%TF.ProjectId,Endstop_Levelshifter,456e6473-746f-4705-9f4c-6576656c7368,0.1*%
%TF.SameCoordinates,Original*%
%TF.FileFunction,Copper,L1,Top*%
%TF.FilePolarity,Positive*%
%FSLAX46Y46*%
G04 Gerber Fmt 4.6, Leading zero omitted, Abs format (unit mm)*
G04 Created by KiCad (PCBNEW (6.0.11-0)) date 2023-09-03 14:24:23*
%MOMM*%
%LPD*%
G01*
G04 APERTURE LIST*
G04 Aperture macros list*
%AMRoundRect*
0 Rectangle with rounded corners*
0 $1 Rounding radius*
0 $2 $3 $4 $5 $6 $7 $8 $9 X,Y pos of 4 corners*
0 Add a 4 corners polygon primitive as box body*
4,1,4,$2,$3,$4,$5,$6,$7,$8,$9,$2,$3,0*
0 Add four circle primitives for the rounded corners*
1,1,$1+$1,$2,$3*
1,1,$1+$1,$4,$5*
1,1,$1+$1,$6,$7*
1,1,$1+$1,$8,$9*
0 Add four rect primitives between the rounded corners*
20,1,$1+$1,$2,$3,$4,$5,0*
20,1,$1+$1,$4,$5,$6,$7,0*
20,1,$1+$1,$6,$7,$8,$9,0*
20,1,$1+$1,$8,$9,$2,$3,0*%
G04 Aperture macros list end*
%TA.AperFunction,ComponentPad*%
%ADD10R,2.000000X2.000000*%
%TD*%
%TA.AperFunction,ComponentPad*%
%ADD11C,2.000000*%
%TD*%
%TA.AperFunction,SMDPad,CuDef*%
%ADD12RoundRect,0.250000X0.475000X-0.337500X0.475000X0.337500X-0.475000X0.337500X-0.475000X-0.337500X0*%
%TD*%
%TA.AperFunction,ComponentPad*%
%ADD13R,1.700000X1.700000*%
%TD*%
%TA.AperFunction,ComponentPad*%
%ADD14O,1.700000X1.700000*%
%TD*%
%TA.AperFunction,SMDPad,CuDef*%
%ADD15RoundRect,0.100000X0.100000X-0.637500X0.100000X0.637500X-0.100000X0.637500X-0.100000X-0.637500X0*%
%TD*%
%TA.AperFunction,ViaPad*%
%ADD16C,0.800000*%
%TD*%
%TA.AperFunction,Conductor*%
%ADD17C,0.250000*%
%TD*%
%TA.AperFunction,Conductor*%
%ADD18C,0.350000*%
%TD*%
G04 APERTURE END LIST*
D10*
%TO.P,J1,1,Pin_1*%
%TO.N,/X-_12V*%
X90932000Y-71354000D03*
D11*
%TO.P,J1,2,Pin_2*%
%TO.N,/X+_12V*%
X90932000Y-73894000D03*
%TO.P,J1,3,Pin_3*%
%TO.N,/Y-_12V*%
X90932000Y-76434000D03*
%TO.P,J1,4,Pin_4*%
%TO.N,/Y+_12V*%
X90932000Y-78974000D03*
%TO.P,J1,5,Pin_5*%
%TO.N,/Z-_12V*%
X90932000Y-81514000D03*
%TO.P,J1,6,Pin_6*%
%TO.N,/Z+_12V*%
X90932000Y-84054000D03*
%TO.P,J1,7,Pin_7*%
%TO.N,+12V*%
X90932000Y-86594000D03*
%TO.P,J1,8,Pin_8*%
%TO.N,GND*%
X90932000Y-89134000D03*
%TD*%
D12*
%TO.P,C1,1*%
%TO.N,+3.3V*%
X105664000Y-80031500D03*
%TO.P,C1,2*%
%TO.N,GND*%
X105664000Y-77956500D03*
%TD*%
D13*
%TO.P,J4,1,Pin_1*%
%TO.N,+12V*%
X106877000Y-86096000D03*
D14*
%TO.P,J4,2,Pin_2*%
%TO.N,GND*%
X106877000Y-88636000D03*
%TD*%
D13*
%TO.P,J3,1,Pin_1*%
%TO.N,+3.3V*%
X96774000Y-88900000D03*
D14*
%TO.P,J3,2,Pin_2*%
%TO.N,GND*%
X99314000Y-88900000D03*
%TO.P,J3,3,Pin_3*%
%TO.N,/Z+_Rumba*%
X101854000Y-88900000D03*
%TD*%
D13*
%TO.P,J2,1,Pin_1*%
%TO.N,/X-_Rumba*%
X101854000Y-76200000D03*
D14*
%TO.P,J2,2,Pin_2*%
%TO.N,/X+_Rumba*%
X101854000Y-78740000D03*
%TO.P,J2,3,Pin_3*%
%TO.N,/Y-_Rumba*%
X101854000Y-81280000D03*
%TO.P,J2,4,Pin_4*%
%TO.N,/Y+_Rumba*%
X101854000Y-83820000D03*
%TO.P,J2,5,Pin_5*%
%TO.N,/Z-_Rumba*%
X101854000Y-86360000D03*
%TD*%
D15*
%TO.P,IC1,16,n.c.*%
%TO.N,unconnected-(IC1-Pad16)*%
X107707000Y-74099500D03*
%TO.P,IC1,15,6Y*%
%TO.N,/X-_Rumba*%
X108357000Y-74099500D03*
%TO.P,IC1,14,6A*%
%TO.N,/X-_12V*%
X109007000Y-74099500D03*
%TO.P,IC1,13,n.c.*%
%TO.N,unconnected-(IC1-Pad13)*%
X109657000Y-74099500D03*
%TO.P,IC1,12,5Y*%
%TO.N,/X+_Rumba*%
X110307000Y-74099500D03*
%TO.P,IC1,11,5A*%
%TO.N,/X+_12V*%
X110957000Y-74099500D03*
%TO.P,IC1,10,4Y*%
%TO.N,/Y-_Rumba*%
X111607000Y-74099500D03*
%TO.P,IC1,9,4A*%
%TO.N,/Y-_12V*%
X112257000Y-74099500D03*
%TO.P,IC1,8,GND*%
%TO.N,GND*%
X112257000Y-79824500D03*
%TO.P,IC1,7,3A*%
%TO.N,/Z+_12V*%
X111607000Y-79824500D03*
%TO.P,IC1,6,3Y*%
%TO.N,/Z+_Rumba*%
X110957000Y-79824500D03*
%TO.P,IC1,5,2A*%
%TO.N,/Z-_12V*%
X110307000Y-79824500D03*
%TO.P,IC1,4,2Y*%
%TO.N,/Z-_Rumba*%
X109657000Y-79824500D03*
%TO.P,IC1,3,1A*%
%TO.N,/Y+_12V*%
X109007000Y-79824500D03*
%TO.P,IC1,2,1Y*%
%TO.N,/Y+_Rumba*%
X108357000Y-79824500D03*
%TO.P,IC1,1,Vcc*%
%TO.N,+3.3V*%
X107707000Y-79824500D03*
%TD*%
D16*
%TO.N,GND*%
X93472000Y-79248000D03*
X93472000Y-76200000D03*
X108204000Y-76962000D03*
X103886000Y-77470000D03*
X108966000Y-75946000D03*
X99060000Y-76200000D03*
%TO.N,/X-_12V*%
X104394000Y-73152000D03*
%TO.N,/Y-_12V*%
X111976500Y-76200000D03*
%TO.N,/Z-_12V*%
X94996000Y-82804000D03*
X109728000Y-82042000D03*
%TO.N,/Z+_12V*%
X111506000Y-83058000D03*
%TO.N,/Y+_12V*%
X99060000Y-84328000D03*
%TO.N,/Y-_Rumba*%
X110871000Y-77851000D03*
%TD*%
D17*
%TO.N,/X-_12V*%
X104394000Y-73152000D02*
X104902000Y-72644000D01*
X108712000Y-72644000D02*
X109007000Y-72939000D01*
X104902000Y-72644000D02*
X108712000Y-72644000D01*
X109007000Y-72939000D02*
X109007000Y-74099500D01*
%TO.N,/Y+_12V*%
X102616000Y-85090000D02*
X105410000Y-82296000D01*
X99060000Y-84328000D02*
X99822000Y-85090000D01*
X99822000Y-85090000D02*
X102616000Y-85090000D01*
X105410000Y-82296000D02*
X107442000Y-82296000D01*
X107442000Y-82296000D02*
X109007000Y-80731000D01*
X109007000Y-80731000D02*
X109007000Y-79824500D01*
%TO.N,/Y-_12V*%
X111976500Y-76200000D02*
X112257000Y-75919500D01*
X112257000Y-75919500D02*
X112257000Y-74099500D01*
%TO.N,/Y-_Rumba*%
X110871000Y-77851000D02*
X111252000Y-77470000D01*
X111252000Y-77470000D02*
X111252000Y-75143041D01*
X111252000Y-75143041D02*
X111607000Y-74788041D01*
X111607000Y-74788041D02*
X111607000Y-74099500D01*
%TO.N,/Z-_12V*%
X94996000Y-82804000D02*
X93706000Y-81514000D01*
X93706000Y-81514000D02*
X90932000Y-81514000D01*
%TO.N,/X+_12V*%
X90932000Y-73894000D02*
X92690000Y-72136000D01*
X92690000Y-72136000D02*
X110236000Y-72136000D01*
X110236000Y-72136000D02*
X110957000Y-72857000D01*
X110957000Y-72857000D02*
X110957000Y-74099500D01*
D18*
%TO.N,+3.3V*%
X105664000Y-80031500D02*
X96774000Y-80031500D01*
X96774000Y-80031500D02*
X96774000Y-88900000D01*
D17*
%TO.N,/Z-_12V*%
X110307000Y-79824500D02*
X110307000Y-81463000D01*
X110307000Y-81463000D02*
X109728000Y-82042000D01*
%TO.N,/Z-_Rumba*%
X101854000Y-86360000D02*
X102616000Y-86360000D01*
X102616000Y-86360000D02*
X106172000Y-82804000D01*
X106172000Y-82804000D02*
X107696000Y-82804000D01*
X109657000Y-80843000D02*
X109657000Y-79824500D01*
X107696000Y-82804000D02*
X109657000Y-80843000D01*
%TO.N,/Z+_Rumba*%
X101854000Y-88900000D02*
X103886000Y-86868000D01*
X103886000Y-86868000D02*
X103886000Y-85852000D01*
X106426000Y-83312000D02*
X109982000Y-83312000D01*
X109982000Y-83312000D02*
X110957000Y-82337000D01*
X103886000Y-85852000D02*
X106426000Y-83312000D01*
X110957000Y-82337000D02*
X110957000Y-79824500D01*
%TO.N,/Z+_12V*%
X111506000Y-83058000D02*
X111607000Y-82957000D01*
X111607000Y-82957000D02*
X111607000Y-79824500D01*
%TO.N,/X-_Rumba*%
X101854000Y-76200000D02*
X106945041Y-76200000D01*
X106945041Y-76200000D02*
X108357000Y-74788041D01*
X108357000Y-74788041D02*
X108357000Y-74099500D01*
%TO.N,/X+_Rumba*%
X110307000Y-74099500D02*
X110236000Y-74170500D01*
X104648000Y-78994000D02*
X104394000Y-78740000D01*
X110236000Y-74170500D02*
X110236000Y-77216000D01*
X110236000Y-77216000D02*
X108966000Y-78486000D01*
X108966000Y-78486000D02*
X107442000Y-78486000D01*
X107442000Y-78486000D02*
X106934000Y-78994000D01*
X106934000Y-78994000D02*
X104648000Y-78994000D01*
X104394000Y-78740000D02*
X101854000Y-78740000D01*
%TO.N,+3.3V*%
X105664000Y-80031500D02*
X107500000Y-80031500D01*
X107500000Y-80031500D02*
X107707000Y-79824500D01*
%TO.N,/Y+_Rumba*%
X103886000Y-81788000D02*
X107188000Y-81788000D01*
X107188000Y-81788000D02*
X108357000Y-80619000D01*
X101854000Y-83820000D02*
X103886000Y-81788000D01*
X108357000Y-80619000D02*
X108357000Y-79824500D01*
%TD*%
%TA.AperFunction,Conductor*%
%TO.N,GND*%
G36*
X113433621Y-69662502D02*
G01*
X113480114Y-69716158D01*
X113491500Y-69768500D01*
X113491500Y-90759500D01*
X113471498Y-90827621D01*
X113417842Y-90874114D01*
X113365500Y-90885500D01*
X91104211Y-90885500D01*
X91036090Y-90865498D01*
X90989597Y-90811842D01*
X90979493Y-90741568D01*
X91008987Y-90676988D01*
X91068713Y-90638604D01*
X91094325Y-90633888D01*
X91163699Y-90628428D01*
X91173446Y-90626885D01*
X91394627Y-90573783D01*
X91404012Y-90570734D01*
X91614163Y-90483687D01*
X91622958Y-90479205D01*
X91790445Y-90376568D01*
X91799907Y-90366110D01*
X91796124Y-90357334D01*
X90944812Y-89506022D01*
X90930868Y-89498408D01*
X90929035Y-89498539D01*
X90922420Y-89502790D01*
X90070920Y-90354290D01*
X90064160Y-90366670D01*
X90069887Y-90374320D01*
X90241042Y-90479205D01*
X90249837Y-90483687D01*
X90459988Y-90570734D01*
X90469373Y-90573783D01*
X90690554Y-90626885D01*
X90700301Y-90628428D01*
X90769675Y-90633888D01*
X90836016Y-90659173D01*
X90878156Y-90716311D01*
X90882715Y-90787161D01*
X90848246Y-90849229D01*
X90785693Y-90882809D01*
X90759789Y-90885500D01*
X87802500Y-90885500D01*
X87734379Y-90865498D01*
X87687886Y-90811842D01*
X87676500Y-90759500D01*
X87676500Y-89138930D01*
X89419725Y-89138930D01*
X89437572Y-89365699D01*
X89439115Y-89375446D01*
X89492217Y-89596627D01*
X89495266Y-89606012D01*
X89582313Y-89816163D01*
X89586795Y-89824958D01*
X89689432Y-89992445D01*
X89699890Y-90001907D01*
X89708666Y-89998124D01*
X90559978Y-89146812D01*
X90566356Y-89135132D01*
X91296408Y-89135132D01*
X91296539Y-89136965D01*
X91300790Y-89143580D01*
X92152290Y-89995080D01*
X92164670Y-90001840D01*
X92172320Y-89996113D01*
X92277205Y-89824958D01*
X92281687Y-89816163D01*
X92368734Y-89606012D01*
X92371783Y-89596627D01*
X92424885Y-89375446D01*
X92426428Y-89365699D01*
X92444275Y-89138930D01*
X92444275Y-89129070D01*
X92426428Y-88902301D01*
X92424885Y-88892554D01*
X92371783Y-88671373D01*
X92368734Y-88661988D01*
X92281687Y-88451837D01*
X92277205Y-88443042D01*
X92174568Y-88275555D01*
X92164110Y-88266093D01*
X92155334Y-88269876D01*
X91304022Y-89121188D01*
X91296408Y-89135132D01*
X90566356Y-89135132D01*
X90567592Y-89132868D01*
X90567461Y-89131035D01*
X90563210Y-89124420D01*
X89711710Y-88272920D01*
X89699330Y-88266160D01*
X89691680Y-88271887D01*
X89586795Y-88443042D01*
X89582313Y-88451837D01*
X89495266Y-88661988D01*
X89492217Y-88671373D01*
X89439115Y-88892554D01*
X89437572Y-88902301D01*
X89419725Y-89129070D01*
X89419725Y-89138930D01*
X87676500Y-89138930D01*
X87676500Y-86594000D01*
X89626532Y-86594000D01*
X89646365Y-86820692D01*
X89647789Y-86826005D01*
X89647789Y-86826007D01*
X89700440Y-87022502D01*
X89705261Y-87040496D01*
X89707583Y-87045476D01*
X89707584Y-87045478D01*
X89781013Y-87202945D01*
X89801432Y-87246734D01*
X89931953Y-87433139D01*
X90092861Y-87594047D01*
X90134925Y-87623500D01*
X90152917Y-87636098D01*
X90197245Y-87691555D01*
X90204554Y-87762174D01*
X90172523Y-87825535D01*
X90146481Y-87846744D01*
X90073552Y-87891435D01*
X90064093Y-87901890D01*
X90067876Y-87910666D01*
X90919188Y-88761978D01*
X90933132Y-88769592D01*
X90934965Y-88769461D01*
X90941580Y-88765210D01*
X91793080Y-87913710D01*
X91799840Y-87901330D01*
X91794115Y-87893682D01*
X91717519Y-87846744D01*
X91669888Y-87794096D01*
X91658281Y-87724055D01*
X91686384Y-87658857D01*
X91711083Y-87636098D01*
X91729075Y-87623500D01*
X91771139Y-87594047D01*
X91932047Y-87433139D01*
X92062568Y-87246734D01*
X92082988Y-87202945D01*
X92156416Y-87045478D01*
X92156417Y-87045476D01*
X92158739Y-87040496D01*
X92163561Y-87022502D01*
X92216211Y-86826007D01*
X92216211Y-86826005D01*
X92217635Y-86820692D01*
X92237468Y-86594000D01*
X92217635Y-86367308D01*
X92211907Y-86345929D01*
X92160162Y-86152814D01*
X92160161Y-86152812D01*
X92158739Y-86147504D01*
X92143235Y-86114256D01*
X92064891Y-85946247D01*
X92064889Y-85946244D01*
X92062568Y-85941266D01*
X91932047Y-85754861D01*
X91771139Y-85593953D01*
X91584734Y-85463432D01*
X91579756Y-85461111D01*
X91579753Y-85461109D01*
X91540984Y-85443031D01*
X91530613Y-85438195D01*
X91477328Y-85391278D01*
X91457867Y-85323000D01*
X91478409Y-85255041D01*
X91530613Y-85209805D01*
X91579753Y-85186891D01*
X91579756Y-85186889D01*
X91584734Y-85184568D01*
X91771139Y-85054047D01*
X91932047Y-84893139D01*
X92062568Y-84706734D01*
X92089791Y-84648356D01*
X92156416Y-84505478D01*
X92156417Y-84505476D01*
X92158739Y-84500496D01*
X92180132Y-84420658D01*
X92216211Y-84286007D01*
X92216211Y-84286005D01*
X92217635Y-84280692D01*
X92237468Y-84054000D01*
X92217635Y-83827308D01*
X92211429Y-83804148D01*
X92160162Y-83612814D01*
X92160161Y-83612812D01*
X92158739Y-83607504D01*
X92119890Y-83524193D01*
X92064891Y-83406247D01*
X92064889Y-83406244D01*
X92062568Y-83401266D01*
X91932047Y-83214861D01*
X91771139Y-83053953D01*
X91584734Y-82923432D01*
X91579756Y-82921111D01*
X91579753Y-82921109D01*
X91530613Y-82898195D01*
X91477328Y-82851278D01*
X91457867Y-82783000D01*
X91478409Y-82715041D01*
X91530613Y-82669805D01*
X91579753Y-82646891D01*
X91579756Y-82646889D01*
X91584734Y-82644568D01*
X91771139Y-82514047D01*
X91932047Y-82353139D01*
X92062568Y-82166734D01*
X92064891Y-82161753D01*
X92134606Y-82012250D01*
X92181524Y-81958965D01*
X92248801Y-81939500D01*
X93477562Y-81939500D01*
X93545683Y-81959502D01*
X93566657Y-81976405D01*
X94257680Y-82667428D01*
X94291706Y-82729740D01*
X94293507Y-82772967D01*
X94290394Y-82796611D01*
X94308999Y-82965135D01*
X94332438Y-83029185D01*
X94355025Y-83090905D01*
X94367266Y-83124356D01*
X94371502Y-83130659D01*
X94371502Y-83130660D01*
X94384574Y-83150113D01*
X94461830Y-83265083D01*
X94467442Y-83270190D01*
X94467445Y-83270193D01*
X94581612Y-83374077D01*
X94581616Y-83374080D01*
X94587233Y-83379191D01*
X94593906Y-83382814D01*
X94593910Y-83382817D01*
X94729558Y-83456467D01*
X94729560Y-83456468D01*
X94736235Y-83460092D01*
X94743584Y-83462020D01*
X94892883Y-83501188D01*
X94892885Y-83501188D01*
X94900233Y-83503116D01*
X94986609Y-83504473D01*
X95062161Y-83505660D01*
X95062164Y-83505660D01*
X95069760Y-83505779D01*
X95077165Y-83504083D01*
X95077166Y-83504083D01*
X95137586Y-83490245D01*
X95235029Y-83467928D01*
X95386498Y-83391747D01*
X95515423Y-83281634D01*
X95614361Y-83143947D01*
X95622237Y-83124356D01*
X95674766Y-82993687D01*
X95674767Y-82993685D01*
X95677601Y-82986634D01*
X95686926Y-82921109D01*
X95700909Y-82822862D01*
X95700909Y-82822859D01*
X95701490Y-82818778D01*
X95701645Y-82804000D01*
X95681276Y-82635680D01*
X95621345Y-82477077D01*
X95571349Y-82404333D01*
X95529614Y-82343608D01*
X95529613Y-82343607D01*
X95525312Y-82337349D01*
X95519641Y-82332296D01*
X95404392Y-82229612D01*
X95404388Y-82229610D01*
X95398721Y-82224560D01*
X95377833Y-82213500D01*
X95310665Y-82177937D01*
X95248881Y-82145224D01*
X95084441Y-82103919D01*
X95076843Y-82103879D01*
X95076841Y-82103879D01*
X94979216Y-82103368D01*
X94948487Y-82103207D01*
X94880472Y-82082849D01*
X94860052Y-82066304D01*
X93959220Y-81165472D01*
X93937837Y-81154577D01*
X93920991Y-81144253D01*
X93909604Y-81135980D01*
X93901581Y-81130151D01*
X93892150Y-81127087D01*
X93892147Y-81127085D01*
X93878763Y-81122736D01*
X93860502Y-81115172D01*
X93847964Y-81108784D01*
X93847963Y-81108784D01*
X93839126Y-81104281D01*
X93815429Y-81100528D01*
X93796210Y-81095914D01*
X93773393Y-81088500D01*
X92248801Y-81088500D01*
X92180680Y-81068498D01*
X92134606Y-81015750D01*
X92064891Y-80866247D01*
X92064889Y-80866244D01*
X92062568Y-80861266D01*
X91932047Y-80674861D01*
X91771139Y-80513953D01*
X91584734Y-80383432D01*
X91579756Y-80381111D01*
X91579753Y-80381109D01*
X91530613Y-80358195D01*
X91477328Y-80311278D01*
X91457867Y-80243000D01*
X91478409Y-80175041D01*
X91530613Y-80129805D01*
X91579753Y-80106891D01*
X91579756Y-80106889D01*
X91584734Y-80104568D01*
X91771139Y-79974047D01*
X91932047Y-79813139D01*
X92062568Y-79626734D01*
X92065697Y-79620025D01*
X92156416Y-79425478D01*
X92156417Y-79425476D01*
X92158739Y-79420496D01*
X92163235Y-79403719D01*
X92216211Y-79206007D01*
X92216211Y-79206005D01*
X92217635Y-79200692D01*
X92237468Y-78974000D01*
X92217635Y-78747308D01*
X92210575Y-78720960D01*
X92160162Y-78532814D01*
X92160161Y-78532812D01*
X92158739Y-78527504D01*
X92117351Y-78438747D01*
X92064891Y-78326247D01*
X92064889Y-78326244D01*
X92062568Y-78321266D01*
X91932047Y-78134861D01*
X91771139Y-77973953D01*
X91584734Y-77843432D01*
X91579756Y-77841111D01*
X91579753Y-77841109D01*
X91530613Y-77818195D01*
X91477328Y-77771278D01*
X91457867Y-77703000D01*
X91478409Y-77635041D01*
X91530613Y-77589805D01*
X91579753Y-77566891D01*
X91579756Y-77566889D01*
X91584734Y-77564568D01*
X91771139Y-77434047D01*
X91932047Y-77273139D01*
X92062568Y-77086734D01*
X92077048Y-77055683D01*
X92156416Y-76885478D01*
X92156417Y-76885476D01*
X92158739Y-76880496D01*
X92160910Y-76872396D01*
X92216211Y-76666007D01*
X92216211Y-76666005D01*
X92217635Y-76660692D01*
X92237468Y-76434000D01*
X92217635Y-76207308D01*
X92158739Y-75987504D01*
X92062568Y-75781266D01*
X91932047Y-75594861D01*
X91771139Y-75433953D01*
X91584734Y-75303432D01*
X91579756Y-75301111D01*
X91579753Y-75301109D01*
X91530613Y-75278195D01*
X91477328Y-75231278D01*
X91457867Y-75163000D01*
X91478409Y-75095041D01*
X91530613Y-75049805D01*
X91531268Y-75049500D01*
X91550326Y-75040613D01*
X91579753Y-75026891D01*
X91579756Y-75026889D01*
X91584734Y-75024568D01*
X91771139Y-74894047D01*
X91932047Y-74733139D01*
X92062568Y-74546734D01*
X92158739Y-74340496D01*
X92217635Y-74120692D01*
X92237468Y-73894000D01*
X92217635Y-73667308D01*
X92203106Y-73613083D01*
X92160162Y-73452814D01*
X92160161Y-73452812D01*
X92158739Y-73447504D01*
X92156416Y-73442522D01*
X92156414Y-73442516D01*
X92139261Y-73405731D01*
X92128600Y-73335539D01*
X92157581Y-73270726D01*
X92164361Y-73263387D01*
X92829343Y-72598405D01*
X92891655Y-72564379D01*
X92918438Y-72561500D01*
X103710208Y-72561500D01*
X103778329Y-72581502D01*
X103824822Y-72635158D01*
X103834926Y-72705432D01*
X103813295Y-72759951D01*
X103772113Y-72818547D01*
X103710524Y-72976513D01*
X103709532Y-72984046D01*
X103709532Y-72984047D01*
X103689798Y-73133950D01*
X103688394Y-73144611D01*
X103706999Y-73313135D01*
X103712387Y-73327858D01*
X103758115Y-73452814D01*
X103765266Y-73472356D01*
X103769502Y-73478659D01*
X103769502Y-73478660D01*
X103782574Y-73498113D01*
X103859830Y-73613083D01*
X103865442Y-73618190D01*
X103865445Y-73618193D01*
X103979612Y-73722077D01*
X103979616Y-73722080D01*
X103985233Y-73727191D01*
X103991906Y-73730814D01*
X103991910Y-73730817D01*
X104127558Y-73804467D01*
X104127560Y-73804468D01*
X104134235Y-73808092D01*
X104141584Y-73810020D01*
X104290883Y-73849188D01*
X104290885Y-73849188D01*
X104298233Y-73851116D01*
X104384609Y-73852473D01*
X104460161Y-73853660D01*
X104460164Y-73853660D01*
X104467760Y-73853779D01*
X104475165Y-73852083D01*
X104475166Y-73852083D01*
X104535586Y-73838245D01*
X104633029Y-73815928D01*
X104784498Y-73739747D01*
X104913423Y-73629634D01*
X105012361Y-73491947D01*
X105020237Y-73472356D01*
X105072766Y-73341687D01*
X105072767Y-73341685D01*
X105075601Y-73334634D01*
X105097929Y-73177747D01*
X105127330Y-73113124D01*
X105187001Y-73074655D01*
X105222672Y-73069500D01*
X107151884Y-73069500D01*
X107220005Y-73089502D01*
X107266498Y-73143158D01*
X107276602Y-73213432D01*
X107264151Y-73252702D01*
X107221354Y-73336696D01*
X107206500Y-73430481D01*
X107206501Y-74768518D01*
X107221354Y-74862304D01*
X107278950Y-74975342D01*
X107334356Y-75030748D01*
X107368382Y-75093060D01*
X107363317Y-75163875D01*
X107334360Y-75208933D01*
X106805696Y-75737597D01*
X106743386Y-75771621D01*
X106716603Y-75774500D01*
X103130500Y-75774500D01*
X103062379Y-75754498D01*
X103015886Y-75700842D01*
X103004500Y-75648500D01*
X103004500Y-75305354D01*
X103001382Y-75279154D01*
X102971179Y-75211156D01*
X102960663Y-75187482D01*
X102955939Y-75176847D01*
X102944072Y-75165000D01*
X102899733Y-75120739D01*
X102876713Y-75097759D01*
X102866076Y-75093056D01*
X102866074Y-75093055D01*
X102802728Y-75065050D01*
X102774327Y-75052494D01*
X102748646Y-75049500D01*
X100959354Y-75049500D01*
X100955650Y-75049941D01*
X100955647Y-75049941D01*
X100948254Y-75050821D01*
X100933154Y-75052618D01*
X100924514Y-75056456D01*
X100924513Y-75056456D01*
X100889861Y-75071848D01*
X100830847Y-75098061D01*
X100822628Y-75106294D01*
X100822627Y-75106295D01*
X100794953Y-75134018D01*
X100751759Y-75177287D01*
X100747056Y-75187924D01*
X100747055Y-75187926D01*
X100727146Y-75232959D01*
X100706494Y-75279673D01*
X100703500Y-75305354D01*
X100703500Y-77094646D01*
X100706618Y-77120846D01*
X100710456Y-77129486D01*
X100710456Y-77129487D01*
X100720563Y-77152240D01*
X100752061Y-77223153D01*
X100831287Y-77302241D01*
X100841924Y-77306944D01*
X100841926Y-77306945D01*
X100901462Y-77333265D01*
X100933673Y-77347506D01*
X100959354Y-77350500D01*
X101668988Y-77350500D01*
X101737109Y-77370502D01*
X101783602Y-77424158D01*
X101793706Y-77494432D01*
X101764212Y-77559012D01*
X101704486Y-77597396D01*
X101690326Y-77600680D01*
X101560650Y-77622962D01*
X101560649Y-77622962D01*
X101554953Y-77623941D01*
X101356575Y-77697127D01*
X101351614Y-77700079D01*
X101351613Y-77700079D01*
X101334089Y-77710505D01*
X101174856Y-77805238D01*
X101015881Y-77944655D01*
X100884976Y-78110708D01*
X100882287Y-78115819D01*
X100882285Y-78115822D01*
X100868792Y-78141469D01*
X100786523Y-78297836D01*
X100723820Y-78499773D01*
X100698967Y-78709754D01*
X100712796Y-78920749D01*
X100714217Y-78926345D01*
X100714218Y-78926350D01*
X100738168Y-79020652D01*
X100764845Y-79125690D01*
X100767262Y-79130933D01*
X100803692Y-79209955D01*
X100853369Y-79317714D01*
X100856700Y-79322427D01*
X100856705Y-79322436D01*
X100881331Y-79357281D01*
X100904312Y-79424455D01*
X100887327Y-79493390D01*
X100835769Y-79542199D01*
X100778434Y-79556000D01*
X96782095Y-79556000D01*
X96781325Y-79555998D01*
X96780437Y-79555993D01*
X96708804Y-79555555D01*
X96700174Y-79558021D01*
X96700170Y-79558022D01*
X96682753Y-79563000D01*
X96665992Y-79566578D01*
X96648059Y-79569146D01*
X96648058Y-79569146D01*
X96639171Y-79570419D01*
X96630998Y-79574135D01*
X96617867Y-79580105D01*
X96600343Y-79586553D01*
X96577842Y-79592984D01*
X96558401Y-79605250D01*
X96554932Y-79607439D01*
X96539849Y-79615577D01*
X96523357Y-79623075D01*
X96523351Y-79623079D01*
X96515180Y-79626794D01*
X96508376Y-79632656D01*
X96508377Y-79632656D01*
X96497449Y-79642072D01*
X96482442Y-79653177D01*
X96462650Y-79665665D01*
X96456708Y-79672393D01*
X96456707Y-79672394D01*
X96444711Y-79685977D01*
X96432524Y-79698016D01*
X96411996Y-79715704D01*
X96407112Y-79723239D01*
X96399267Y-79735342D01*
X96387976Y-79750217D01*
X96372487Y-79767755D01*
X96368672Y-79775881D01*
X96360974Y-79792277D01*
X96352652Y-79807260D01*
X96337913Y-79829999D01*
X96335341Y-79838600D01*
X96331209Y-79852417D01*
X96324548Y-79869861D01*
X96314601Y-79891048D01*
X96313221Y-79899914D01*
X96310432Y-79917823D01*
X96306649Y-79934538D01*
X96298887Y-79960494D01*
X96298832Y-79969470D01*
X96298832Y-79969471D01*
X96298690Y-79992746D01*
X96298662Y-79993416D01*
X96298500Y-79994456D01*
X96298500Y-80023405D01*
X96298498Y-80024175D01*
X96298055Y-80096696D01*
X96298419Y-80097969D01*
X96298500Y-80099160D01*
X96298500Y-87623500D01*
X96278498Y-87691621D01*
X96224842Y-87738114D01*
X96172500Y-87749500D01*
X95879354Y-87749500D01*
X95875650Y-87749941D01*
X95875647Y-87749941D01*
X95868254Y-87750821D01*
X95853154Y-87752618D01*
X95844514Y-87756456D01*
X95844513Y-87756456D01*
X95782041Y-87784205D01*
X95750847Y-87798061D01*
X95742628Y-87806294D01*
X95742627Y-87806295D01*
X95723421Y-87825535D01*
X95671759Y-87877287D01*
X95667056Y-87887924D01*
X95667055Y-87887926D01*
X95657002Y-87910666D01*
X95626494Y-87979673D01*
X95623500Y-88005354D01*
X95623500Y-89794646D01*
X95626618Y-89820846D01*
X95630456Y-89829486D01*
X95630456Y-89829487D01*
X95664527Y-89906191D01*
X95672061Y-89923153D01*
X95680294Y-89931372D01*
X95680295Y-89931373D01*
X95706363Y-89957395D01*
X95751287Y-90002241D01*
X95761924Y-90006944D01*
X95761926Y-90006945D01*
X95799382Y-90023504D01*
X95853673Y-90047506D01*
X95879354Y-90050500D01*
X97668646Y-90050500D01*
X97672350Y-90050059D01*
X97672353Y-90050059D01*
X97679746Y-90049179D01*
X97694846Y-90047382D01*
X97797153Y-90001939D01*
X97806631Y-89992445D01*
X97868023Y-89930945D01*
X97876241Y-89922713D01*
X97883546Y-89906191D01*
X97907265Y-89852538D01*
X97921506Y-89820327D01*
X97924500Y-89794646D01*
X97924500Y-89678493D01*
X97944502Y-89610372D01*
X97998158Y-89563879D01*
X98068432Y-89553775D01*
X98133012Y-89583269D01*
X98157933Y-89612658D01*
X98211694Y-89700388D01*
X98217777Y-89708699D01*
X98357213Y-89869667D01*
X98364580Y-89876883D01*
X98528434Y-90012916D01*
X98536881Y-90018831D01*
X98720756Y-90126279D01*
X98730042Y-90130729D01*
X98929001Y-90206703D01*
X98938899Y-90209579D01*
X99042250Y-90230606D01*
X99056299Y-90229410D01*
X99060000Y-90219065D01*
X99060000Y-87583102D01*
X99056082Y-87569758D01*
X99041806Y-87567771D01*
X99003324Y-87573660D01*
X98993288Y-87576051D01*
X98790868Y-87642212D01*
X98781359Y-87646209D01*
X98592463Y-87744542D01*
X98583738Y-87750036D01*
X98413433Y-87877905D01*
X98405726Y-87884748D01*
X98258590Y-88038717D01*
X98252104Y-88046727D01*
X98154588Y-88189680D01*
X98099677Y-88234683D01*
X98029152Y-88242854D01*
X97965405Y-88211600D01*
X97928675Y-88150843D01*
X97924500Y-88118676D01*
X97924500Y-88005354D01*
X97921382Y-87979154D01*
X97875939Y-87876847D01*
X97845784Y-87846744D01*
X97804945Y-87805977D01*
X97796713Y-87797759D01*
X97786076Y-87793056D01*
X97786074Y-87793055D01*
X97716222Y-87762174D01*
X97694327Y-87752494D01*
X97668646Y-87749500D01*
X97375500Y-87749500D01*
X97307379Y-87729498D01*
X97260886Y-87675842D01*
X97249500Y-87623500D01*
X97249500Y-80633000D01*
X97269502Y-80564879D01*
X97323158Y-80518386D01*
X97375500Y-80507000D01*
X100751918Y-80507000D01*
X100820039Y-80527002D01*
X100866532Y-80580658D01*
X100876636Y-80650932D01*
X100863426Y-80691667D01*
X100786523Y-80837836D01*
X100723820Y-81039773D01*
X100698967Y-81249754D01*
X100712796Y-81460749D01*
X100714217Y-81466345D01*
X100714218Y-81466350D01*
X100736784Y-81555200D01*
X100764845Y-81665690D01*
X100767262Y-81670933D01*
X100803692Y-81749955D01*
X100853369Y-81857714D01*
X100975405Y-82030391D01*
X101126865Y-82177937D01*
X101131661Y-82181142D01*
X101131664Y-82181144D01*
X101217471Y-82238478D01*
X101302677Y-82295411D01*
X101307985Y-82297692D01*
X101307986Y-82297692D01*
X101491650Y-82376600D01*
X101491653Y-82376601D01*
X101496953Y-82378878D01*
X101502582Y-82380152D01*
X101502583Y-82380152D01*
X101697550Y-82424269D01*
X101697553Y-82424269D01*
X101703186Y-82425544D01*
X101708958Y-82425771D01*
X101714687Y-82426525D01*
X101714327Y-82429257D01*
X101770604Y-82448216D01*
X101814950Y-82503659D01*
X101822282Y-82574276D01*
X101790271Y-82637647D01*
X101729081Y-82673651D01*
X101719704Y-82675632D01*
X101560650Y-82702962D01*
X101560649Y-82702962D01*
X101554953Y-82703941D01*
X101356575Y-82777127D01*
X101351614Y-82780079D01*
X101351613Y-82780079D01*
X101186266Y-82878450D01*
X101174856Y-82885238D01*
X101015881Y-83024655D01*
X100884976Y-83190708D01*
X100882287Y-83195819D01*
X100882285Y-83195822D01*
X100854998Y-83247687D01*
X100786523Y-83377836D01*
X100723820Y-83579773D01*
X100698967Y-83789754D01*
X100703705Y-83862045D01*
X100712390Y-83994547D01*
X100712796Y-84000749D01*
X100714217Y-84006345D01*
X100714218Y-84006350D01*
X100751356Y-84152577D01*
X100764845Y-84205690D01*
X100767262Y-84210933D01*
X100821305Y-84328161D01*
X100853369Y-84397714D01*
X100856702Y-84402430D01*
X100901473Y-84465780D01*
X100924454Y-84532954D01*
X100907469Y-84601889D01*
X100855912Y-84650699D01*
X100798576Y-84664500D01*
X100050438Y-84664500D01*
X99982317Y-84644498D01*
X99961343Y-84627595D01*
X99798925Y-84465177D01*
X99764899Y-84402865D01*
X99763277Y-84358329D01*
X99764909Y-84346863D01*
X99764909Y-84346857D01*
X99765490Y-84342778D01*
X99765645Y-84328000D01*
X99763840Y-84313080D01*
X99750844Y-84205690D01*
X99745276Y-84159680D01*
X99685345Y-84001077D01*
X99589312Y-83861349D01*
X99557256Y-83832788D01*
X99468392Y-83753612D01*
X99468388Y-83753610D01*
X99462721Y-83748560D01*
X99441833Y-83737500D01*
X99382955Y-83706326D01*
X99312881Y-83669224D01*
X99148441Y-83627919D01*
X99140843Y-83627879D01*
X99140841Y-83627879D01*
X99063668Y-83627475D01*
X98978895Y-83627031D01*
X98971508Y-83628805D01*
X98971504Y-83628805D01*
X98839373Y-83660528D01*
X98814032Y-83666612D01*
X98807288Y-83670093D01*
X98807285Y-83670094D01*
X98682627Y-83734435D01*
X98663369Y-83744375D01*
X98657647Y-83749367D01*
X98657645Y-83749368D01*
X98648627Y-83757235D01*
X98535604Y-83855831D01*
X98438113Y-83994547D01*
X98376524Y-84152513D01*
X98375532Y-84160046D01*
X98375532Y-84160047D01*
X98358950Y-84286007D01*
X98354394Y-84320611D01*
X98372999Y-84489135D01*
X98375609Y-84496266D01*
X98423669Y-84627595D01*
X98431266Y-84648356D01*
X98525830Y-84789083D01*
X98531442Y-84794190D01*
X98531445Y-84794193D01*
X98645612Y-84898077D01*
X98645616Y-84898080D01*
X98651233Y-84903191D01*
X98657906Y-84906814D01*
X98657910Y-84906817D01*
X98793558Y-84980467D01*
X98793560Y-84980468D01*
X98800235Y-84984092D01*
X98807584Y-84986020D01*
X98956883Y-85025188D01*
X98956885Y-85025188D01*
X98964233Y-85027116D01*
X99049172Y-85028450D01*
X99109422Y-85029397D01*
X99177220Y-85050466D01*
X99196538Y-85066286D01*
X99568780Y-85438528D01*
X99590156Y-85449419D01*
X99607011Y-85459749D01*
X99616423Y-85466587D01*
X99626419Y-85473850D01*
X99649237Y-85481264D01*
X99667498Y-85488827D01*
X99688874Y-85499719D01*
X99698665Y-85501270D01*
X99698672Y-85501272D01*
X99712569Y-85503473D01*
X99731788Y-85508087D01*
X99745173Y-85512436D01*
X99745180Y-85512437D01*
X99754607Y-85515500D01*
X100794857Y-85515500D01*
X100862978Y-85535502D01*
X100909471Y-85589158D01*
X100919575Y-85659432D01*
X100893807Y-85719506D01*
X100884976Y-85730708D01*
X100882287Y-85735819D01*
X100882285Y-85735822D01*
X100832400Y-85830638D01*
X100786523Y-85917836D01*
X100723820Y-86119773D01*
X100698967Y-86329754D01*
X100712796Y-86540749D01*
X100714217Y-86546345D01*
X100714218Y-86546350D01*
X100751146Y-86691752D01*
X100764845Y-86745690D01*
X100767262Y-86750933D01*
X100803692Y-86829955D01*
X100853369Y-86937714D01*
X100975405Y-87110391D01*
X100993721Y-87128234D01*
X101115125Y-87246500D01*
X101126865Y-87257937D01*
X101131661Y-87261142D01*
X101131664Y-87261144D01*
X101218885Y-87319423D01*
X101302677Y-87375411D01*
X101307985Y-87377692D01*
X101307986Y-87377692D01*
X101491650Y-87456600D01*
X101491653Y-87456601D01*
X101496953Y-87458878D01*
X101502582Y-87460152D01*
X101502583Y-87460152D01*
X101697550Y-87504269D01*
X101697553Y-87504269D01*
X101703186Y-87505544D01*
X101708958Y-87505771D01*
X101714687Y-87506525D01*
X101714327Y-87509257D01*
X101770604Y-87528216D01*
X101814950Y-87583659D01*
X101822282Y-87654276D01*
X101790271Y-87717647D01*
X101729081Y-87753651D01*
X101719705Y-87755632D01*
X101681631Y-87762174D01*
X101560650Y-87782962D01*
X101560649Y-87782962D01*
X101554953Y-87783941D01*
X101356575Y-87857127D01*
X101351614Y-87860079D01*
X101351613Y-87860079D01*
X101266584Y-87910666D01*
X101174856Y-87965238D01*
X101015881Y-88104655D01*
X100884976Y-88270708D01*
X100882287Y-88275819D01*
X100882285Y-88275822D01*
X100808155Y-88416720D01*
X100758736Y-88467692D01*
X100689603Y-88483855D01*
X100622707Y-88460076D01*
X100581097Y-88408294D01*
X100516971Y-88260814D01*
X100512105Y-88251739D01*
X100396426Y-88072926D01*
X100390136Y-88064757D01*
X100246806Y-87907240D01*
X100239273Y-87900215D01*
X100072139Y-87768222D01*
X100063552Y-87762517D01*
X99877117Y-87659599D01*
X99867705Y-87655369D01*
X99666959Y-87584280D01*
X99656988Y-87581646D01*
X99585837Y-87568972D01*
X99572540Y-87570432D01*
X99568000Y-87584989D01*
X99568000Y-90218517D01*
X99572064Y-90232359D01*
X99585478Y-90234393D01*
X99592184Y-90233534D01*
X99602262Y-90231392D01*
X99806255Y-90170191D01*
X99815842Y-90166433D01*
X100007095Y-90072739D01*
X100015945Y-90067464D01*
X100189328Y-89943792D01*
X100197200Y-89937139D01*
X100348052Y-89786812D01*
X100354730Y-89778965D01*
X100479003Y-89606020D01*
X100484313Y-89597183D01*
X100578670Y-89406267D01*
X100582019Y-89397809D01*
X100625693Y-89341836D01*
X100692696Y-89318359D01*
X100761755Y-89334835D01*
X100813597Y-89391442D01*
X100838149Y-89444699D01*
X100853369Y-89477714D01*
X100975405Y-89650391D01*
X101005586Y-89679792D01*
X101119727Y-89790983D01*
X101126865Y-89797937D01*
X101131661Y-89801142D01*
X101131664Y-89801144D01*
X101223159Y-89862279D01*
X101302677Y-89915411D01*
X101307985Y-89917692D01*
X101307986Y-89917692D01*
X101491650Y-89996600D01*
X101491653Y-89996601D01*
X101496953Y-89998878D01*
X101502582Y-90000152D01*
X101502583Y-90000152D01*
X101697550Y-90044269D01*
X101697553Y-90044269D01*
X101703186Y-90045544D01*
X101708957Y-90045771D01*
X101708959Y-90045771D01*
X101770989Y-90048208D01*
X101914470Y-90053846D01*
X101920179Y-90053018D01*
X101920183Y-90053018D01*
X102118015Y-90024333D01*
X102118019Y-90024332D01*
X102123730Y-90023504D01*
X102196276Y-89998878D01*
X102318483Y-89957395D01*
X102318488Y-89957393D01*
X102323955Y-89955537D01*
X102328998Y-89952713D01*
X102503395Y-89855046D01*
X102503399Y-89855043D01*
X102508442Y-89852219D01*
X102671012Y-89717012D01*
X102806219Y-89554442D01*
X102809043Y-89549399D01*
X102809046Y-89549395D01*
X102906713Y-89374998D01*
X102906714Y-89374996D01*
X102909537Y-89369955D01*
X102911393Y-89364488D01*
X102911395Y-89364483D01*
X102975647Y-89175200D01*
X102977504Y-89169730D01*
X102982878Y-89132672D01*
X103007314Y-88964140D01*
X103007314Y-88964138D01*
X103007846Y-88960470D01*
X103009325Y-88903966D01*
X105545257Y-88903966D01*
X105575565Y-89038446D01*
X105578645Y-89048275D01*
X105658770Y-89245603D01*
X105663413Y-89254794D01*
X105774694Y-89436388D01*
X105780777Y-89444699D01*
X105920213Y-89605667D01*
X105927580Y-89612883D01*
X106091434Y-89748916D01*
X106099881Y-89754831D01*
X106283756Y-89862279D01*
X106293042Y-89866729D01*
X106492001Y-89942703D01*
X106501899Y-89945579D01*
X106605250Y-89966606D01*
X106619299Y-89965410D01*
X106623000Y-89955065D01*
X106623000Y-89954517D01*
X107131000Y-89954517D01*
X107135064Y-89968359D01*
X107148478Y-89970393D01*
X107155184Y-89969534D01*
X107165262Y-89967392D01*
X107369255Y-89906191D01*
X107378842Y-89902433D01*
X107570095Y-89808739D01*
X107578945Y-89803464D01*
X107752328Y-89679792D01*
X107760200Y-89673139D01*
X107911052Y-89522812D01*
X107917730Y-89514965D01*
X108042003Y-89342020D01*
X108047313Y-89333183D01*
X108141670Y-89142267D01*
X108145469Y-89132672D01*
X108207377Y-88928910D01*
X108209555Y-88918837D01*
X108210986Y-88907962D01*
X108208775Y-88893778D01*
X108195617Y-88890000D01*
X107149115Y-88890000D01*
X107133876Y-88894475D01*
X107132671Y-88895865D01*
X107131000Y-88903548D01*
X107131000Y-89954517D01*
X106623000Y-89954517D01*
X106623000Y-88908115D01*
X106618525Y-88892876D01*
X106617135Y-88891671D01*
X106609452Y-88890000D01*
X105560225Y-88890000D01*
X105546694Y-88893973D01*
X105545257Y-88903966D01*
X103009325Y-88903966D01*
X103009429Y-88900000D01*
X102990081Y-88689440D01*
X102938901Y-88507968D01*
X102939661Y-88436977D01*
X102971075Y-88384673D01*
X102985565Y-88370183D01*
X105541389Y-88370183D01*
X105542912Y-88378607D01*
X105555292Y-88382000D01*
X108195344Y-88382000D01*
X108208875Y-88378027D01*
X108210180Y-88368947D01*
X108168214Y-88201875D01*
X108164894Y-88192124D01*
X108079972Y-87996814D01*
X108075105Y-87987739D01*
X107959426Y-87808926D01*
X107953136Y-87800757D01*
X107809806Y-87643240D01*
X107802273Y-87636215D01*
X107635139Y-87504222D01*
X107626552Y-87498517D01*
X107598096Y-87482808D01*
X107548125Y-87432375D01*
X107533354Y-87362932D01*
X107558471Y-87296527D01*
X107615502Y-87254243D01*
X107658990Y-87246500D01*
X107771646Y-87246500D01*
X107775350Y-87246059D01*
X107775353Y-87246059D01*
X107782746Y-87245179D01*
X107797846Y-87243382D01*
X107900153Y-87197939D01*
X107979241Y-87118713D01*
X108024506Y-87016327D01*
X108027500Y-86990646D01*
X108027500Y-85201354D01*
X108024382Y-85175154D01*
X107978939Y-85072847D01*
X107956205Y-85050152D01*
X107907945Y-85001977D01*
X107899713Y-84993759D01*
X107889076Y-84989056D01*
X107889074Y-84989055D01*
X107829538Y-84962735D01*
X107797327Y-84948494D01*
X107771646Y-84945500D01*
X105982354Y-84945500D01*
X105978650Y-84945941D01*
X105978647Y-84945941D01*
X105971254Y-84946821D01*
X105956154Y-84948618D01*
X105947514Y-84952456D01*
X105947513Y-84952456D01*
X105876290Y-84984092D01*
X105853847Y-84994061D01*
X105774759Y-85073287D01*
X105729494Y-85175673D01*
X105726500Y-85201354D01*
X105726500Y-86990646D01*
X105729618Y-87016846D01*
X105733456Y-87025486D01*
X105733456Y-87025487D01*
X105758998Y-87082991D01*
X105775061Y-87119153D01*
X105854287Y-87198241D01*
X105864924Y-87202944D01*
X105864926Y-87202945D01*
X105924462Y-87229265D01*
X105956673Y-87243506D01*
X105982354Y-87246500D01*
X106090579Y-87246500D01*
X106158700Y-87266502D01*
X106205193Y-87320158D01*
X106215297Y-87390432D01*
X106185803Y-87455012D01*
X106157719Y-87479122D01*
X106146735Y-87486039D01*
X105976433Y-87613905D01*
X105968726Y-87620748D01*
X105821590Y-87774717D01*
X105815104Y-87782727D01*
X105695098Y-87958649D01*
X105690000Y-87967623D01*
X105600338Y-88160783D01*
X105596775Y-88170470D01*
X105541389Y-88370183D01*
X102985565Y-88370183D01*
X104234528Y-87121220D01*
X104245423Y-87099837D01*
X104255747Y-87082991D01*
X104264020Y-87071604D01*
X104269849Y-87063581D01*
X104272913Y-87054150D01*
X104272915Y-87054147D01*
X104277264Y-87040763D01*
X104284828Y-87022502D01*
X104291216Y-87009964D01*
X104291216Y-87009963D01*
X104295719Y-87001126D01*
X104299472Y-86977429D01*
X104304086Y-86958210D01*
X104311500Y-86935393D01*
X104311500Y-86080438D01*
X104331502Y-86012317D01*
X104348405Y-85991343D01*
X106565343Y-83774405D01*
X106627655Y-83740379D01*
X106654438Y-83737500D01*
X110049393Y-83737500D01*
X110072210Y-83730086D01*
X110091429Y-83725472D01*
X110115126Y-83721719D01*
X110126311Y-83716020D01*
X110136502Y-83710828D01*
X110154763Y-83703264D01*
X110168147Y-83698915D01*
X110168150Y-83698913D01*
X110177581Y-83695849D01*
X110196991Y-83681747D01*
X110213837Y-83671423D01*
X110235220Y-83660528D01*
X110641270Y-83254478D01*
X110703582Y-83220452D01*
X110774397Y-83225517D01*
X110831233Y-83268064D01*
X110848690Y-83300270D01*
X110877266Y-83378356D01*
X110881502Y-83384659D01*
X110881502Y-83384660D01*
X110892661Y-83401266D01*
X110971830Y-83519083D01*
X110977442Y-83524190D01*
X110977445Y-83524193D01*
X111091612Y-83628077D01*
X111091616Y-83628080D01*
X111097233Y-83633191D01*
X111103906Y-83636814D01*
X111103910Y-83636817D01*
X111239558Y-83710467D01*
X111239560Y-83710468D01*
X111246235Y-83714092D01*
X111253584Y-83716020D01*
X111402883Y-83755188D01*
X111402885Y-83755188D01*
X111410233Y-83757116D01*
X111496609Y-83758473D01*
X111572161Y-83759660D01*
X111572164Y-83759660D01*
X111579760Y-83759779D01*
X111587165Y-83758083D01*
X111587166Y-83758083D01*
X111677037Y-83737500D01*
X111745029Y-83721928D01*
X111896498Y-83645747D01*
X112025423Y-83535634D01*
X112124361Y-83397947D01*
X112129702Y-83384660D01*
X112184766Y-83247687D01*
X112184767Y-83247685D01*
X112187601Y-83240634D01*
X112211490Y-83072778D01*
X112211645Y-83058000D01*
X112191276Y-82889680D01*
X112131345Y-82731077D01*
X112114070Y-82705942D01*
X112054660Y-82619500D01*
X112032500Y-82548133D01*
X112032500Y-81133642D01*
X112043984Y-81094529D01*
X112042695Y-81094159D01*
X112057000Y-81044347D01*
X112057000Y-81043965D01*
X112457000Y-81043965D01*
X112461044Y-81057736D01*
X112474583Y-81059765D01*
X112507533Y-81055428D01*
X112523348Y-81051190D01*
X112655993Y-80996247D01*
X112670176Y-80988059D01*
X112784080Y-80900656D01*
X112795656Y-80889080D01*
X112883059Y-80775176D01*
X112891247Y-80760993D01*
X112946190Y-80628350D01*
X112950428Y-80612532D01*
X112964462Y-80505934D01*
X112965000Y-80497725D01*
X112965000Y-80042615D01*
X112960525Y-80027376D01*
X112959135Y-80026171D01*
X112951452Y-80024500D01*
X112475115Y-80024500D01*
X112459876Y-80028975D01*
X112458671Y-80030365D01*
X112457000Y-80038048D01*
X112457000Y-81043965D01*
X112057000Y-81043965D01*
X112057000Y-80687514D01*
X112070733Y-80630312D01*
X112088144Y-80596140D01*
X112088144Y-80596139D01*
X112092646Y-80587304D01*
X112107500Y-80493519D01*
X112107499Y-79606385D01*
X112457000Y-79606385D01*
X112461475Y-79621624D01*
X112462865Y-79622829D01*
X112470548Y-79624500D01*
X112946884Y-79624500D01*
X112962123Y-79620025D01*
X112963328Y-79618635D01*
X112964999Y-79610952D01*
X112964999Y-79151277D01*
X112964461Y-79143065D01*
X112950428Y-79036467D01*
X112946190Y-79020652D01*
X112891247Y-78888007D01*
X112883059Y-78873824D01*
X112795656Y-78759920D01*
X112784080Y-78748344D01*
X112670176Y-78660941D01*
X112655993Y-78652753D01*
X112523351Y-78597811D01*
X112507531Y-78593572D01*
X112474960Y-78589284D01*
X112460778Y-78591495D01*
X112457000Y-78604652D01*
X112457000Y-79606385D01*
X112107499Y-79606385D01*
X112107499Y-79155482D01*
X112092646Y-79061696D01*
X112088143Y-79052859D01*
X112088142Y-79052855D01*
X112070733Y-79018688D01*
X112057000Y-78961486D01*
X112057000Y-78605035D01*
X112052956Y-78591264D01*
X112039417Y-78589235D01*
X112006467Y-78593572D01*
X111990652Y-78597810D01*
X111858007Y-78652753D01*
X111843824Y-78660941D01*
X111729921Y-78748343D01*
X111728662Y-78749602D01*
X111727340Y-78750324D01*
X111723370Y-78753370D01*
X111722895Y-78752751D01*
X111666348Y-78783622D01*
X111639574Y-78786500D01*
X111488026Y-78786501D01*
X111475482Y-78786501D01*
X111470589Y-78787276D01*
X111470588Y-78787276D01*
X111391494Y-78799802D01*
X111391492Y-78799803D01*
X111381696Y-78801354D01*
X111372859Y-78805857D01*
X111372855Y-78805858D01*
X111339202Y-78823005D01*
X111269425Y-78836109D01*
X111224798Y-78823005D01*
X111191140Y-78805856D01*
X111191139Y-78805856D01*
X111182304Y-78801354D01*
X111172515Y-78799804D01*
X111172513Y-78799803D01*
X111145151Y-78795470D01*
X111088519Y-78786500D01*
X111038815Y-78786500D01*
X110970694Y-78766498D01*
X110924201Y-78712842D01*
X110914097Y-78642568D01*
X110943591Y-78577988D01*
X111003317Y-78539604D01*
X111010680Y-78537682D01*
X111110029Y-78514928D01*
X111261498Y-78438747D01*
X111390423Y-78328634D01*
X111489361Y-78190947D01*
X111500104Y-78164224D01*
X111549766Y-78040687D01*
X111549767Y-78040685D01*
X111552601Y-78033634D01*
X111562103Y-77966867D01*
X111575909Y-77869862D01*
X111575909Y-77869859D01*
X111576490Y-77865778D01*
X111576645Y-77851000D01*
X111572473Y-77816528D01*
X111584145Y-77746498D01*
X111594437Y-77729311D01*
X111600528Y-77723220D01*
X111611423Y-77701837D01*
X111621747Y-77684991D01*
X111630020Y-77673604D01*
X111635849Y-77665581D01*
X111638913Y-77656150D01*
X111638915Y-77656147D01*
X111643264Y-77642763D01*
X111650828Y-77624502D01*
X111657216Y-77611964D01*
X111657216Y-77611963D01*
X111661719Y-77603126D01*
X111665472Y-77579429D01*
X111670086Y-77560210D01*
X111677500Y-77537393D01*
X111677500Y-77009118D01*
X111697502Y-76940997D01*
X111751158Y-76894504D01*
X111821432Y-76884400D01*
X111835465Y-76887240D01*
X111880733Y-76899116D01*
X111967109Y-76900473D01*
X112042661Y-76901660D01*
X112042664Y-76901660D01*
X112050260Y-76901779D01*
X112057665Y-76900083D01*
X112057666Y-76900083D01*
X112166373Y-76875186D01*
X112215529Y-76863928D01*
X112366998Y-76787747D01*
X112495923Y-76677634D01*
X112594861Y-76539947D01*
X112658101Y-76382634D01*
X112681990Y-76214778D01*
X112682145Y-76200000D01*
X112667468Y-76078715D01*
X112668106Y-76043869D01*
X112670472Y-76028930D01*
X112675086Y-76009710D01*
X112682500Y-75986893D01*
X112682500Y-75010597D01*
X112696233Y-74953394D01*
X112726472Y-74894047D01*
X112742646Y-74862304D01*
X112757500Y-74768519D01*
X112757499Y-73430482D01*
X112742646Y-73336696D01*
X112737081Y-73325773D01*
X112699849Y-73252703D01*
X112685050Y-73223658D01*
X112595342Y-73133950D01*
X112482304Y-73076354D01*
X112472515Y-73074804D01*
X112472513Y-73074803D01*
X112439029Y-73069500D01*
X112388519Y-73061500D01*
X112257027Y-73061500D01*
X112125482Y-73061501D01*
X112120589Y-73062276D01*
X112120588Y-73062276D01*
X112041494Y-73074802D01*
X112041492Y-73074803D01*
X112031696Y-73076354D01*
X112022859Y-73080857D01*
X112022855Y-73080858D01*
X111989202Y-73098005D01*
X111919425Y-73111109D01*
X111874798Y-73098005D01*
X111841140Y-73080856D01*
X111841139Y-73080856D01*
X111832304Y-73076354D01*
X111822515Y-73074804D01*
X111822513Y-73074803D01*
X111789029Y-73069500D01*
X111738519Y-73061500D01*
X111704209Y-73061500D01*
X111508501Y-73061501D01*
X111440380Y-73041499D01*
X111393887Y-72987844D01*
X111382500Y-72935501D01*
X111382500Y-72789607D01*
X111375086Y-72766790D01*
X111370472Y-72747570D01*
X111368270Y-72733668D01*
X111366719Y-72723874D01*
X111362216Y-72715036D01*
X111355828Y-72702498D01*
X111348264Y-72684237D01*
X111343915Y-72670853D01*
X111343913Y-72670850D01*
X111340849Y-72661419D01*
X111326747Y-72642009D01*
X111316423Y-72625163D01*
X111305528Y-72603780D01*
X110489220Y-71787472D01*
X110467837Y-71776577D01*
X110450991Y-71766253D01*
X110439604Y-71757980D01*
X110431581Y-71752151D01*
X110422150Y-71749087D01*
X110422147Y-71749085D01*
X110408763Y-71744736D01*
X110390502Y-71737172D01*
X110377964Y-71730784D01*
X110377963Y-71730784D01*
X110369126Y-71726281D01*
X110345429Y-71722528D01*
X110326210Y-71717914D01*
X110303393Y-71710500D01*
X92622607Y-71710500D01*
X92599790Y-71717914D01*
X92580571Y-71722528D01*
X92556874Y-71726281D01*
X92548037Y-71730784D01*
X92548036Y-71730784D01*
X92535498Y-71737172D01*
X92517237Y-71744736D01*
X92503853Y-71749085D01*
X92503850Y-71749087D01*
X92494419Y-71752151D01*
X92486396Y-71757980D01*
X92475009Y-71766253D01*
X92458163Y-71776577D01*
X92436780Y-71787472D01*
X92431372Y-71792880D01*
X92365692Y-71816314D01*
X92296541Y-71800232D01*
X92247061Y-71749318D01*
X92232500Y-71690519D01*
X92232500Y-70309354D01*
X92229382Y-70283154D01*
X92183939Y-70180847D01*
X92104713Y-70101759D01*
X92094076Y-70097056D01*
X92094074Y-70097055D01*
X92034538Y-70070735D01*
X92002327Y-70056494D01*
X91976646Y-70053500D01*
X89887354Y-70053500D01*
X89883650Y-70053941D01*
X89883647Y-70053941D01*
X89876254Y-70054821D01*
X89861154Y-70056618D01*
X89758847Y-70102061D01*
X89679759Y-70181287D01*
X89634494Y-70283673D01*
X89631500Y-70309354D01*
X89631500Y-72398646D01*
X89634618Y-72424846D01*
X89680061Y-72527153D01*
X89759287Y-72606241D01*
X89769924Y-72610944D01*
X89769926Y-72610945D01*
X89822053Y-72633990D01*
X89861673Y-72651506D01*
X89887354Y-72654500D01*
X90035215Y-72654500D01*
X90103336Y-72674502D01*
X90149829Y-72728158D01*
X90159933Y-72798432D01*
X90130439Y-72863012D01*
X90107488Y-72883711D01*
X90092861Y-72893953D01*
X89931953Y-73054861D01*
X89801432Y-73241266D01*
X89799111Y-73246244D01*
X89799109Y-73246247D01*
X89710889Y-73435434D01*
X89705261Y-73447504D01*
X89703839Y-73452812D01*
X89703838Y-73452814D01*
X89660894Y-73613083D01*
X89646365Y-73667308D01*
X89626532Y-73894000D01*
X89646365Y-74120692D01*
X89705261Y-74340496D01*
X89801432Y-74546734D01*
X89931953Y-74733139D01*
X90092861Y-74894047D01*
X90279266Y-75024568D01*
X90284244Y-75026889D01*
X90284247Y-75026891D01*
X90313674Y-75040613D01*
X90332733Y-75049500D01*
X90333387Y-75049805D01*
X90386672Y-75096722D01*
X90406133Y-75165000D01*
X90385591Y-75232959D01*
X90333387Y-75278195D01*
X90284247Y-75301109D01*
X90284244Y-75301111D01*
X90279266Y-75303432D01*
X90092861Y-75433953D01*
X89931953Y-75594861D01*
X89801432Y-75781266D01*
X89705261Y-75987504D01*
X89646365Y-76207308D01*
X89626532Y-76434000D01*
X89646365Y-76660692D01*
X89647789Y-76666005D01*
X89647789Y-76666007D01*
X89703091Y-76872396D01*
X89705261Y-76880496D01*
X89707583Y-76885476D01*
X89707584Y-76885478D01*
X89786953Y-77055683D01*
X89801432Y-77086734D01*
X89931953Y-77273139D01*
X90092861Y-77434047D01*
X90279266Y-77564568D01*
X90284244Y-77566889D01*
X90284247Y-77566891D01*
X90333387Y-77589805D01*
X90386672Y-77636722D01*
X90406133Y-77705000D01*
X90385591Y-77772959D01*
X90333387Y-77818195D01*
X90284247Y-77841109D01*
X90284244Y-77841111D01*
X90279266Y-77843432D01*
X90092861Y-77973953D01*
X89931953Y-78134861D01*
X89801432Y-78321266D01*
X89799111Y-78326244D01*
X89799109Y-78326247D01*
X89746649Y-78438747D01*
X89705261Y-78527504D01*
X89703839Y-78532812D01*
X89703838Y-78532814D01*
X89653425Y-78720960D01*
X89646365Y-78747308D01*
X89626532Y-78974000D01*
X89646365Y-79200692D01*
X89647789Y-79206005D01*
X89647789Y-79206007D01*
X89700766Y-79403719D01*
X89705261Y-79420496D01*
X89707583Y-79425476D01*
X89707584Y-79425478D01*
X89798304Y-79620025D01*
X89801432Y-79626734D01*
X89931953Y-79813139D01*
X90092861Y-79974047D01*
X90279266Y-80104568D01*
X90284244Y-80106889D01*
X90284247Y-80106891D01*
X90333387Y-80129805D01*
X90386672Y-80176722D01*
X90406133Y-80245000D01*
X90385591Y-80312959D01*
X90333387Y-80358195D01*
X90284247Y-80381109D01*
X90284244Y-80381111D01*
X90279266Y-80383432D01*
X90092861Y-80513953D01*
X89931953Y-80674861D01*
X89801432Y-80861266D01*
X89799111Y-80866244D01*
X89799109Y-80866247D01*
X89788462Y-80889080D01*
X89705261Y-81067504D01*
X89703839Y-81072812D01*
X89703838Y-81072814D01*
X89649313Y-81276305D01*
X89646365Y-81287308D01*
X89626532Y-81514000D01*
X89646365Y-81740692D01*
X89705261Y-81960496D01*
X89707583Y-81965476D01*
X89707584Y-81965478D01*
X89798643Y-82160752D01*
X89801432Y-82166734D01*
X89931953Y-82353139D01*
X90092861Y-82514047D01*
X90279266Y-82644568D01*
X90284244Y-82646889D01*
X90284247Y-82646891D01*
X90333387Y-82669805D01*
X90386672Y-82716722D01*
X90406133Y-82785000D01*
X90385591Y-82852959D01*
X90333387Y-82898195D01*
X90284247Y-82921109D01*
X90284244Y-82921111D01*
X90279266Y-82923432D01*
X90092861Y-83053953D01*
X89931953Y-83214861D01*
X89801432Y-83401266D01*
X89799111Y-83406244D01*
X89799109Y-83406247D01*
X89744110Y-83524193D01*
X89705261Y-83607504D01*
X89703839Y-83612812D01*
X89703838Y-83612814D01*
X89652571Y-83804148D01*
X89646365Y-83827308D01*
X89626532Y-84054000D01*
X89646365Y-84280692D01*
X89647789Y-84286005D01*
X89647789Y-84286007D01*
X89683869Y-84420658D01*
X89705261Y-84500496D01*
X89707583Y-84505476D01*
X89707584Y-84505478D01*
X89774210Y-84648356D01*
X89801432Y-84706734D01*
X89931953Y-84893139D01*
X90092861Y-85054047D01*
X90279266Y-85184568D01*
X90284244Y-85186889D01*
X90284247Y-85186891D01*
X90333387Y-85209805D01*
X90386672Y-85256722D01*
X90406133Y-85325000D01*
X90385591Y-85392959D01*
X90333388Y-85438195D01*
X90323016Y-85443031D01*
X90284247Y-85461109D01*
X90284244Y-85461111D01*
X90279266Y-85463432D01*
X90092861Y-85593953D01*
X89931953Y-85754861D01*
X89801432Y-85941266D01*
X89799111Y-85946244D01*
X89799109Y-85946247D01*
X89720765Y-86114256D01*
X89705261Y-86147504D01*
X89703839Y-86152812D01*
X89703838Y-86152814D01*
X89652093Y-86345929D01*
X89646365Y-86367308D01*
X89626532Y-86594000D01*
X87676500Y-86594000D01*
X87676500Y-69768500D01*
X87696502Y-69700379D01*
X87750158Y-69653886D01*
X87802500Y-69642500D01*
X113365500Y-69642500D01*
X113433621Y-69662502D01*
G37*
%TD.AperFunction*%
%TA.AperFunction,Conductor*%
G36*
X109389202Y-75100995D02*
G01*
X109422856Y-75118142D01*
X109431696Y-75122646D01*
X109441485Y-75124196D01*
X109441487Y-75124197D01*
X109468849Y-75128530D01*
X109525481Y-75137500D01*
X109537437Y-75137500D01*
X109684500Y-75137499D01*
X109752620Y-75157501D01*
X109799113Y-75211156D01*
X109810500Y-75263499D01*
X109810500Y-76987562D01*
X109790498Y-77055683D01*
X109773595Y-77076657D01*
X108826657Y-78023595D01*
X108764345Y-78057621D01*
X108737562Y-78060500D01*
X107374607Y-78060500D01*
X107351790Y-78067914D01*
X107332571Y-78072528D01*
X107308874Y-78076281D01*
X107300037Y-78080784D01*
X107300036Y-78080784D01*
X107287498Y-78087172D01*
X107269237Y-78094736D01*
X107255853Y-78099085D01*
X107255850Y-78099087D01*
X107246419Y-78102151D01*
X107238396Y-78107980D01*
X107227009Y-78116253D01*
X107210163Y-78126577D01*
X107188780Y-78137472D01*
X107092702Y-78233550D01*
X107030390Y-78267576D01*
X106959575Y-78262511D01*
X106922775Y-78234963D01*
X106920486Y-78237604D01*
X106891135Y-78212171D01*
X106883452Y-78210500D01*
X104449116Y-78210500D01*
X104433877Y-78214975D01*
X104431709Y-78217476D01*
X104398884Y-78277594D01*
X104336572Y-78311620D01*
X104309787Y-78314500D01*
X103005401Y-78314500D01*
X102937280Y-78294498D01*
X102892395Y-78244229D01*
X102841719Y-78141469D01*
X102839165Y-78136290D01*
X102712651Y-77966867D01*
X102607712Y-77869862D01*
X102561622Y-77827257D01*
X102561620Y-77827255D01*
X102557381Y-77823337D01*
X102552498Y-77820256D01*
X102383434Y-77713584D01*
X102383433Y-77713584D01*
X102378554Y-77710505D01*
X102182160Y-77632152D01*
X102176503Y-77631027D01*
X102176497Y-77631025D01*
X102020916Y-77600079D01*
X101958006Y-77567172D01*
X101922874Y-77505477D01*
X101926674Y-77434582D01*
X101968199Y-77376996D01*
X102034266Y-77351002D01*
X102045497Y-77350500D01*
X102748646Y-77350500D01*
X102752350Y-77350059D01*
X102752353Y-77350059D01*
X102759746Y-77349179D01*
X102774846Y-77347382D01*
X102877153Y-77301939D01*
X102956241Y-77222713D01*
X103001506Y-77120327D01*
X103004500Y-77094646D01*
X103004500Y-76751500D01*
X103024502Y-76683379D01*
X103078158Y-76636886D01*
X103130500Y-76625500D01*
X104997433Y-76625500D01*
X105065554Y-76645502D01*
X105112047Y-76699158D01*
X105122151Y-76769432D01*
X105092657Y-76834012D01*
X105032931Y-76872396D01*
X105027549Y-76873765D01*
X104872216Y-76925588D01*
X104859038Y-76931761D01*
X104721193Y-77017063D01*
X104709792Y-77026099D01*
X104595261Y-77140829D01*
X104586249Y-77152240D01*
X104501184Y-77290243D01*
X104495037Y-77303424D01*
X104443862Y-77457710D01*
X104440995Y-77471086D01*
X104431328Y-77565438D01*
X104431000Y-77571855D01*
X104431000Y-77684385D01*
X104435475Y-77699624D01*
X104436865Y-77700829D01*
X104444548Y-77702500D01*
X106878884Y-77702500D01*
X106894123Y-77698025D01*
X106895328Y-77696635D01*
X106896999Y-77688952D01*
X106896999Y-77571905D01*
X106896662Y-77565386D01*
X106886743Y-77469794D01*
X106883851Y-77456400D01*
X106832412Y-77302216D01*
X106826239Y-77289038D01*
X106740937Y-77151193D01*
X106731901Y-77139792D01*
X106617171Y-77025261D01*
X106605760Y-77016249D01*
X106467757Y-76931184D01*
X106454576Y-76925037D01*
X106293759Y-76871696D01*
X106294506Y-76869444D01*
X106241789Y-76840865D01*
X106207575Y-76778657D01*
X106212425Y-76707826D01*
X106254799Y-76650861D01*
X106321244Y-76625849D01*
X106330614Y-76625500D01*
X107012434Y-76625500D01*
X107035251Y-76618086D01*
X107054470Y-76613472D01*
X107078167Y-76609719D01*
X107087005Y-76605216D01*
X107099543Y-76598828D01*
X107117804Y-76591264D01*
X107131188Y-76586915D01*
X107131191Y-76586913D01*
X107140622Y-76583849D01*
X107160032Y-76569747D01*
X107176878Y-76559423D01*
X107198261Y-76548528D01*
X108612592Y-75134197D01*
X108674904Y-75100171D01*
X108745719Y-75105236D01*
X108758890Y-75111026D01*
X108781696Y-75122646D01*
X108791485Y-75124196D01*
X108791487Y-75124197D01*
X108818849Y-75128530D01*
X108875481Y-75137500D01*
X109006973Y-75137500D01*
X109138518Y-75137499D01*
X109159368Y-75134197D01*
X109222506Y-75124198D01*
X109222508Y-75124197D01*
X109232304Y-75122646D01*
X109241141Y-75118143D01*
X109241145Y-75118142D01*
X109274798Y-75100995D01*
X109344575Y-75087891D01*
X109389202Y-75100995D01*
G37*
%TD.AperFunction*%
%TD*%
M02*
