%TF.GenerationSoftware,KiCad,Pcbnew,(6.0.11-0)*%
%TF.CreationDate,2023-09-03T14:24:23+02:00*%
%TF.ProjectId,Endstop_Levelshifter,456e6473-746f-4705-9f4c-6576656c7368,0.1*%
%TF.SameCoordinates,Original*%
%TF.FileFunction,Legend,Bot*%
%TF.FilePolarity,Positive*%
%FSLAX46Y46*%
G04 Gerber Fmt 4.6, Leading zero omitted, Abs format (unit mm)*
G04 Created by KiCad (PCBNEW (6.0.11-0)) date 2023-09-03 14:24:23*
%MOMM*%
%LPD*%
G01*
G04 APERTURE LIST*
%ADD10C,0.120000*%
%ADD11R,2.000000X2.000000*%
%ADD12C,2.000000*%
%ADD13R,1.700000X1.700000*%
%ADD14O,1.700000X1.700000*%
G04 APERTURE END LIST*
D10*
%TO.C,J3*%
X95444000Y-88900000D02*
X95444000Y-90230000D01*
X98044000Y-90230000D02*
X103184000Y-90230000D01*
X98044000Y-87570000D02*
X103184000Y-87570000D01*
X98044000Y-87570000D02*
X98044000Y-90230000D01*
X95444000Y-90230000D02*
X96774000Y-90230000D01*
X103184000Y-87570000D02*
X103184000Y-90230000D01*
%TO.C,J2*%
X100524000Y-74870000D02*
X100524000Y-76200000D01*
X100524000Y-77470000D02*
X100524000Y-87690000D01*
X103184000Y-77470000D02*
X103184000Y-87690000D01*
X103184000Y-77470000D02*
X100524000Y-77470000D01*
X103184000Y-87690000D02*
X100524000Y-87690000D01*
X101854000Y-74870000D02*
X100524000Y-74870000D01*
%TD*%
%LPC*%
D11*
%TO.C,J1*%
X90932000Y-71354000D03*
D12*
X90932000Y-73894000D03*
X90932000Y-76434000D03*
X90932000Y-78974000D03*
X90932000Y-81514000D03*
X90932000Y-84054000D03*
X90932000Y-86594000D03*
X90932000Y-89134000D03*
%TD*%
D13*
%TO.C,J4*%
X106877000Y-86096000D03*
D14*
X106877000Y-88636000D03*
%TD*%
D13*
%TO.C,J3*%
X96774000Y-88900000D03*
D14*
X99314000Y-88900000D03*
X101854000Y-88900000D03*
%TD*%
D13*
%TO.C,J2*%
X101854000Y-76200000D03*
D14*
X101854000Y-78740000D03*
X101854000Y-81280000D03*
X101854000Y-83820000D03*
X101854000Y-86360000D03*
%TD*%
M02*
