M48
;DRILL file {KiCad (5.0.0)} date 08/10/18 09:51:49
;FORMAT={-:-/ absolute / metric / decimal}
FMAT,2
METRIC,TZ
T1C0.600
T2C0.699
T3C0.800
T4C0.998
T5C1.016
T6C1.118
T7C1.298
T8C1.321
%
G90
G05
M71
T2
X140.335Y-61.595
X140.335Y-64.135
X143.764Y-114.3
X143.764Y-121.92
X148.844Y-121.92
X151.384Y-114.3
X134.62Y-72.39
X134.62Y-74.93
T3
X80.264Y-139.319
X135.89Y-108.712
X141.605Y-138.176
X144.018Y-132.969
X149.098Y-67.31
X159.258Y-86.614
X159.258Y-95.758
X159.258Y-104.775
X159.258Y-113.792
X159.258Y-122.682
X159.258Y-131.318
X162.433Y-104.775
X162.433Y-113.792
X162.433Y-122.682
X162.433Y-131.318
X162.56Y-86.614
X162.56Y-95.758
X182.753Y-73.787
T4
X143.891Y-78.74
X143.891Y-109.22
T5
X74.295Y-129.032
X74.295Y-131.572
X76.835Y-129.032
X76.835Y-131.572
X177.419Y-112.903
X177.419Y-115.443
X177.419Y-117.983
X177.419Y-120.523
X177.419Y-123.063
X177.419Y-125.603
X87.63Y-112.776
X90.17Y-112.776
X92.71Y-112.776
X95.25Y-112.776
X97.79Y-112.776
X100.33Y-112.776
X102.87Y-112.776
X105.41Y-112.776
X107.95Y-112.776
X110.49Y-112.776
X113.03Y-112.776
X115.57Y-112.776
X118.11Y-112.776
X120.65Y-112.776
X123.19Y-112.776
X125.73Y-112.776
X128.27Y-112.776
X130.81Y-112.776
X133.35Y-112.776
X135.89Y-112.776
X87.63Y-138.176
X90.17Y-138.176
X92.71Y-138.176
X95.25Y-138.176
X97.79Y-138.176
X100.33Y-138.176
X102.87Y-138.176
X105.41Y-138.176
X107.95Y-138.176
X110.49Y-138.176
X113.03Y-138.176
X115.57Y-138.176
X118.11Y-138.176
X120.65Y-138.176
X123.19Y-138.176
X125.73Y-138.176
X128.27Y-138.176
X130.81Y-138.176
X133.35Y-138.176
X135.89Y-138.176
X177.419Y-87.439
X177.419Y-89.98
X177.419Y-92.519
X177.419Y-95.059
X177.419Y-97.599
X177.419Y-100.139
T6
X128.143Y-81.915
X128.143Y-92.075
X140.97Y-45.72
X151.13Y-45.72
T7
X86.421Y-42.941
X86.421Y-63.739
X131.42Y-55.738
X131.42Y-63.739
X140.97Y-49.53
X140.97Y-57.15
X151.13Y-57.15
X156.21Y-49.53
X158.75Y-57.15
T8
X80.645Y-75.26
X80.645Y-80.264
X80.645Y-85.268
X73.66Y-53.416
X73.66Y-58.42
X73.66Y-63.424
X175.768Y-68.478
X175.768Y-73.508
X175.768Y-43.078
X175.768Y-48.108
X175.768Y-55.778
X175.768Y-60.808
X80.645Y-93.04
X80.645Y-98.044
X80.645Y-103.048
T1
X93.157Y-83.605G85X93.157Y-81.505
G05
X93.157Y-90.204G85X93.157Y-88.104
G05
X93.157Y-96.803G85X93.157Y-94.703
G05
X97.155Y-83.605G85X97.155Y-81.505
G05
X97.155Y-90.204G85X97.155Y-88.104
G05
X97.155Y-96.803G85X97.155Y-94.703
G05
X103.505Y-83.605G85X103.505Y-81.505
G05
X103.505Y-90.204G85X103.505Y-88.104
G05
X103.505Y-96.803G85X103.505Y-94.703
G05
X109.855Y-83.605G85X109.855Y-81.505
G05
X109.855Y-96.803G85X109.855Y-94.703
G05
T0
M30
