G04 #@! TF.GenerationSoftware,KiCad,Pcbnew,(5.0.0)*
G04 #@! TF.CreationDate,2019-01-25T09:41:45+01:00*
G04 #@! TF.ProjectId,cosi_pwr,636F73695F7077722E6B696361645F70,0.1*
G04 #@! TF.SameCoordinates,Original*
G04 #@! TF.FileFunction,Legend,Bot*
G04 #@! TF.FilePolarity,Positive*
%FSLAX46Y46*%
G04 Gerber Fmt 4.6, Leading zero omitted, Abs format (unit mm)*
G04 Created by KiCad (PCBNEW (5.0.0)) date 01/25/19 09:41:45*
%MOMM*%
%LPD*%
G01*
G04 APERTURE LIST*
%ADD10C,0.150000*%
%ADD11C,0.127000*%
%ADD12C,0.203200*%
%ADD13C,0.066040*%
%ADD14C,0.152400*%
%ADD15C,0.101600*%
%ADD16C,0.254000*%
%ADD17C,0.076200*%
G04 APERTURE END LIST*
D10*
G04 #@! TO.C,R1*
X135798000Y-95363000D02*
X136998000Y-95363000D01*
X136998000Y-93613000D02*
X135798000Y-93613000D01*
G04 #@! TO.C,R2*
X136998000Y-97550000D02*
X135798000Y-97550000D01*
X135798000Y-99300000D02*
X136998000Y-99300000D01*
G04 #@! TO.C,R5*
X145450000Y-40880000D02*
X146650000Y-40880000D01*
X146650000Y-39130000D02*
X145450000Y-39130000D01*
G04 #@! TO.C,R6*
X146650000Y-42432000D02*
X145450000Y-42432000D01*
X145450000Y-44182000D02*
X146650000Y-44182000D01*
G04 #@! TO.C,R7*
X160133000Y-102327000D02*
X160133000Y-101127000D01*
X158383000Y-101127000D02*
X158383000Y-102327000D01*
G04 #@! TO.C,R8*
X165135000Y-105523000D02*
X166335000Y-105523000D01*
X166335000Y-103773000D02*
X165135000Y-103773000D01*
G04 #@! TO.C,R12*
X165008000Y-87489000D02*
X166208000Y-87489000D01*
X166208000Y-85739000D02*
X165008000Y-85739000D01*
G04 #@! TO.C,R13*
X160133000Y-93183000D02*
X160133000Y-91983000D01*
X158383000Y-91983000D02*
X158383000Y-93183000D01*
G04 #@! TO.C,R14*
X165135000Y-96506000D02*
X166335000Y-96506000D01*
X166335000Y-94756000D02*
X165135000Y-94756000D01*
G04 #@! TO.C,R15*
X160133000Y-111471000D02*
X160133000Y-110271000D01*
X158383000Y-110271000D02*
X158383000Y-111471000D01*
G04 #@! TO.C,R17*
X160133000Y-120107000D02*
X160133000Y-118907000D01*
X158383000Y-118907000D02*
X158383000Y-120107000D01*
G04 #@! TO.C,R19*
X160133000Y-128997000D02*
X160133000Y-127797000D01*
X158383000Y-127797000D02*
X158383000Y-128997000D01*
G04 #@! TO.C,R20*
X164754000Y-132193000D02*
X165954000Y-132193000D01*
X165954000Y-130443000D02*
X164754000Y-130443000D01*
G04 #@! TO.C,R21*
X73420000Y-137322000D02*
X73420000Y-138522000D01*
X75170000Y-138522000D02*
X75170000Y-137322000D01*
G04 #@! TO.C,R22*
X75960000Y-137322000D02*
X75960000Y-138522000D01*
X77710000Y-138522000D02*
X77710000Y-137322000D01*
G04 #@! TO.C,R9*
X75960000Y-121828000D02*
X75960000Y-123028000D01*
X77710000Y-123028000D02*
X77710000Y-121828000D01*
G04 #@! TO.C,R10*
X73420000Y-121828000D02*
X73420000Y-123028000D01*
X75170000Y-123028000D02*
X75170000Y-121828000D01*
G04 #@! TO.C,R18*
X164754000Y-123430000D02*
X165954000Y-123430000D01*
X165954000Y-121680000D02*
X164754000Y-121680000D01*
G04 #@! TO.C,R16*
X164881000Y-114540000D02*
X166081000Y-114540000D01*
X166081000Y-112790000D02*
X164881000Y-112790000D01*
D11*
G04 #@! TO.C,U1*
X83022440Y-66939160D02*
X83022440Y-39740840D01*
X83022440Y-39740840D02*
X135417560Y-39740840D01*
X135417560Y-39740840D02*
X135417560Y-66939160D01*
X135417560Y-66939160D02*
X83022440Y-66939160D01*
D12*
G04 #@! TO.C,K1*
X88806020Y-100302060D02*
X88806020Y-78005940D01*
X88806020Y-78005940D02*
X116603780Y-78005940D01*
X116603780Y-78005940D02*
X116603780Y-100302060D01*
X116603780Y-100302060D02*
X88806020Y-100302060D01*
D13*
G04 #@! TO.C,D1*
X126873000Y-85344000D02*
X126873000Y-85852000D01*
X126873000Y-85852000D02*
X129413000Y-85852000D01*
X129413000Y-85344000D02*
X129413000Y-85852000D01*
X126873000Y-85344000D02*
X129413000Y-85344000D01*
X127762000Y-89027000D02*
X127762000Y-90932000D01*
X127762000Y-90932000D02*
X128524000Y-90932000D01*
X128524000Y-89027000D02*
X128524000Y-90932000D01*
X127762000Y-89027000D02*
X128524000Y-89027000D01*
X127762000Y-83058000D02*
X127762000Y-84963000D01*
X127762000Y-84963000D02*
X128524000Y-84963000D01*
X128524000Y-83058000D02*
X128524000Y-84963000D01*
X127762000Y-83058000D02*
X128524000Y-83058000D01*
D14*
X126873000Y-89027000D02*
X126873000Y-84963000D01*
X126873000Y-89027000D02*
X129413000Y-89027000D01*
X129413000Y-84963000D02*
X129413000Y-89027000D01*
X129413000Y-84963000D02*
X126873000Y-84963000D01*
X128143000Y-86360000D02*
X128143000Y-86995000D01*
X128778000Y-88011000D02*
X127508000Y-88011000D01*
X127508000Y-88011000D02*
X128143000Y-86995000D01*
X128143000Y-86995000D02*
X128143000Y-88519000D01*
X128143000Y-86995000D02*
X128778000Y-88011000D01*
X128778000Y-86995000D02*
X128143000Y-86995000D01*
X128143000Y-86995000D02*
X127508000Y-86995000D01*
D12*
G04 #@! TO.C,C1*
X139065000Y-63500000D02*
X139065000Y-64770000D01*
D15*
X142630353Y-62865000D02*
G75*
G03X142630353Y-62865000I-2295353J0D01*
G01*
D12*
G04 #@! TO.C,C5*
X135890000Y-73025000D02*
X135890000Y-71755000D01*
D15*
X136915353Y-73660000D02*
G75*
G03X136915353Y-73660000I-2295353J0D01*
G01*
D14*
G04 #@! TO.C,IO1*
X132715000Y-111506000D02*
X133985000Y-111506000D01*
X133985000Y-111506000D02*
X134620000Y-112141000D01*
X134620000Y-112141000D02*
X134620000Y-113411000D01*
X134620000Y-113411000D02*
X133985000Y-114046000D01*
X129540000Y-112141000D02*
X130175000Y-111506000D01*
X130175000Y-111506000D02*
X131445000Y-111506000D01*
X131445000Y-111506000D02*
X132080000Y-112141000D01*
X132080000Y-112141000D02*
X132080000Y-113411000D01*
X132080000Y-113411000D02*
X131445000Y-114046000D01*
X131445000Y-114046000D02*
X130175000Y-114046000D01*
X130175000Y-114046000D02*
X129540000Y-113411000D01*
X132715000Y-111506000D02*
X132080000Y-112141000D01*
X132080000Y-113411000D02*
X132715000Y-114046000D01*
X133985000Y-114046000D02*
X132715000Y-114046000D01*
X125095000Y-111506000D02*
X126365000Y-111506000D01*
X126365000Y-111506000D02*
X127000000Y-112141000D01*
X127000000Y-112141000D02*
X127000000Y-113411000D01*
X127000000Y-113411000D02*
X126365000Y-114046000D01*
X127000000Y-112141000D02*
X127635000Y-111506000D01*
X127635000Y-111506000D02*
X128905000Y-111506000D01*
X128905000Y-111506000D02*
X129540000Y-112141000D01*
X129540000Y-112141000D02*
X129540000Y-113411000D01*
X129540000Y-113411000D02*
X128905000Y-114046000D01*
X128905000Y-114046000D02*
X127635000Y-114046000D01*
X127635000Y-114046000D02*
X127000000Y-113411000D01*
X121920000Y-112141000D02*
X122555000Y-111506000D01*
X122555000Y-111506000D02*
X123825000Y-111506000D01*
X123825000Y-111506000D02*
X124460000Y-112141000D01*
X124460000Y-112141000D02*
X124460000Y-113411000D01*
X124460000Y-113411000D02*
X123825000Y-114046000D01*
X123825000Y-114046000D02*
X122555000Y-114046000D01*
X122555000Y-114046000D02*
X121920000Y-113411000D01*
X125095000Y-111506000D02*
X124460000Y-112141000D01*
X124460000Y-113411000D02*
X125095000Y-114046000D01*
X126365000Y-114046000D02*
X125095000Y-114046000D01*
X117475000Y-111506000D02*
X118745000Y-111506000D01*
X118745000Y-111506000D02*
X119380000Y-112141000D01*
X119380000Y-112141000D02*
X119380000Y-113411000D01*
X119380000Y-113411000D02*
X118745000Y-114046000D01*
X119380000Y-112141000D02*
X120015000Y-111506000D01*
X120015000Y-111506000D02*
X121285000Y-111506000D01*
X121285000Y-111506000D02*
X121920000Y-112141000D01*
X121920000Y-112141000D02*
X121920000Y-113411000D01*
X121920000Y-113411000D02*
X121285000Y-114046000D01*
X121285000Y-114046000D02*
X120015000Y-114046000D01*
X120015000Y-114046000D02*
X119380000Y-113411000D01*
X114300000Y-112141000D02*
X114935000Y-111506000D01*
X114935000Y-111506000D02*
X116205000Y-111506000D01*
X116205000Y-111506000D02*
X116840000Y-112141000D01*
X116840000Y-112141000D02*
X116840000Y-113411000D01*
X116840000Y-113411000D02*
X116205000Y-114046000D01*
X116205000Y-114046000D02*
X114935000Y-114046000D01*
X114935000Y-114046000D02*
X114300000Y-113411000D01*
X117475000Y-111506000D02*
X116840000Y-112141000D01*
X116840000Y-113411000D02*
X117475000Y-114046000D01*
X118745000Y-114046000D02*
X117475000Y-114046000D01*
X109855000Y-111506000D02*
X111125000Y-111506000D01*
X111125000Y-111506000D02*
X111760000Y-112141000D01*
X111760000Y-112141000D02*
X111760000Y-113411000D01*
X111760000Y-113411000D02*
X111125000Y-114046000D01*
X111760000Y-112141000D02*
X112395000Y-111506000D01*
X112395000Y-111506000D02*
X113665000Y-111506000D01*
X113665000Y-111506000D02*
X114300000Y-112141000D01*
X114300000Y-112141000D02*
X114300000Y-113411000D01*
X114300000Y-113411000D02*
X113665000Y-114046000D01*
X113665000Y-114046000D02*
X112395000Y-114046000D01*
X112395000Y-114046000D02*
X111760000Y-113411000D01*
X106680000Y-112141000D02*
X107315000Y-111506000D01*
X107315000Y-111506000D02*
X108585000Y-111506000D01*
X108585000Y-111506000D02*
X109220000Y-112141000D01*
X109220000Y-112141000D02*
X109220000Y-113411000D01*
X109220000Y-113411000D02*
X108585000Y-114046000D01*
X108585000Y-114046000D02*
X107315000Y-114046000D01*
X107315000Y-114046000D02*
X106680000Y-113411000D01*
X109855000Y-111506000D02*
X109220000Y-112141000D01*
X109220000Y-113411000D02*
X109855000Y-114046000D01*
X111125000Y-114046000D02*
X109855000Y-114046000D01*
X102235000Y-111506000D02*
X103505000Y-111506000D01*
X103505000Y-111506000D02*
X104140000Y-112141000D01*
X104140000Y-112141000D02*
X104140000Y-113411000D01*
X104140000Y-113411000D02*
X103505000Y-114046000D01*
X104140000Y-112141000D02*
X104775000Y-111506000D01*
X104775000Y-111506000D02*
X106045000Y-111506000D01*
X106045000Y-111506000D02*
X106680000Y-112141000D01*
X106680000Y-112141000D02*
X106680000Y-113411000D01*
X106680000Y-113411000D02*
X106045000Y-114046000D01*
X106045000Y-114046000D02*
X104775000Y-114046000D01*
X104775000Y-114046000D02*
X104140000Y-113411000D01*
X99060000Y-112141000D02*
X99695000Y-111506000D01*
X99695000Y-111506000D02*
X100965000Y-111506000D01*
X100965000Y-111506000D02*
X101600000Y-112141000D01*
X101600000Y-112141000D02*
X101600000Y-113411000D01*
X101600000Y-113411000D02*
X100965000Y-114046000D01*
X100965000Y-114046000D02*
X99695000Y-114046000D01*
X99695000Y-114046000D02*
X99060000Y-113411000D01*
X102235000Y-111506000D02*
X101600000Y-112141000D01*
X101600000Y-113411000D02*
X102235000Y-114046000D01*
X103505000Y-114046000D02*
X102235000Y-114046000D01*
X94615000Y-111506000D02*
X95885000Y-111506000D01*
X95885000Y-111506000D02*
X96520000Y-112141000D01*
X96520000Y-112141000D02*
X96520000Y-113411000D01*
X96520000Y-113411000D02*
X95885000Y-114046000D01*
X96520000Y-112141000D02*
X97155000Y-111506000D01*
X97155000Y-111506000D02*
X98425000Y-111506000D01*
X98425000Y-111506000D02*
X99060000Y-112141000D01*
X99060000Y-112141000D02*
X99060000Y-113411000D01*
X99060000Y-113411000D02*
X98425000Y-114046000D01*
X98425000Y-114046000D02*
X97155000Y-114046000D01*
X97155000Y-114046000D02*
X96520000Y-113411000D01*
X91440000Y-112141000D02*
X92075000Y-111506000D01*
X92075000Y-111506000D02*
X93345000Y-111506000D01*
X93345000Y-111506000D02*
X93980000Y-112141000D01*
X93980000Y-112141000D02*
X93980000Y-113411000D01*
X93980000Y-113411000D02*
X93345000Y-114046000D01*
X93345000Y-114046000D02*
X92075000Y-114046000D01*
X92075000Y-114046000D02*
X91440000Y-113411000D01*
X94615000Y-111506000D02*
X93980000Y-112141000D01*
X93980000Y-113411000D02*
X94615000Y-114046000D01*
X95885000Y-114046000D02*
X94615000Y-114046000D01*
X86995000Y-111506000D02*
X88265000Y-111506000D01*
X88265000Y-111506000D02*
X88900000Y-112141000D01*
X88900000Y-112141000D02*
X88900000Y-113411000D01*
X88900000Y-113411000D02*
X88265000Y-114046000D01*
X88900000Y-112141000D02*
X89535000Y-111506000D01*
X89535000Y-111506000D02*
X90805000Y-111506000D01*
X90805000Y-111506000D02*
X91440000Y-112141000D01*
X91440000Y-112141000D02*
X91440000Y-113411000D01*
X91440000Y-113411000D02*
X90805000Y-114046000D01*
X90805000Y-114046000D02*
X89535000Y-114046000D01*
X89535000Y-114046000D02*
X88900000Y-113411000D01*
X86360000Y-112141000D02*
X86360000Y-113411000D01*
X86995000Y-111506000D02*
X86360000Y-112141000D01*
X86360000Y-113411000D02*
X86995000Y-114046000D01*
X88265000Y-114046000D02*
X86995000Y-114046000D01*
X135255000Y-111506000D02*
X136525000Y-111506000D01*
X136525000Y-111506000D02*
X137160000Y-112141000D01*
X137160000Y-112141000D02*
X137160000Y-113411000D01*
X137160000Y-113411000D02*
X136525000Y-114046000D01*
X135255000Y-111506000D02*
X134620000Y-112141000D01*
X134620000Y-113411000D02*
X135255000Y-114046000D01*
X136525000Y-114046000D02*
X135255000Y-114046000D01*
G04 #@! TO.C,IO2*
X132715000Y-136906000D02*
X133985000Y-136906000D01*
X133985000Y-136906000D02*
X134620000Y-137541000D01*
X134620000Y-137541000D02*
X134620000Y-138811000D01*
X134620000Y-138811000D02*
X133985000Y-139446000D01*
X129540000Y-137541000D02*
X130175000Y-136906000D01*
X130175000Y-136906000D02*
X131445000Y-136906000D01*
X131445000Y-136906000D02*
X132080000Y-137541000D01*
X132080000Y-137541000D02*
X132080000Y-138811000D01*
X132080000Y-138811000D02*
X131445000Y-139446000D01*
X131445000Y-139446000D02*
X130175000Y-139446000D01*
X130175000Y-139446000D02*
X129540000Y-138811000D01*
X132715000Y-136906000D02*
X132080000Y-137541000D01*
X132080000Y-138811000D02*
X132715000Y-139446000D01*
X133985000Y-139446000D02*
X132715000Y-139446000D01*
X125095000Y-136906000D02*
X126365000Y-136906000D01*
X126365000Y-136906000D02*
X127000000Y-137541000D01*
X127000000Y-137541000D02*
X127000000Y-138811000D01*
X127000000Y-138811000D02*
X126365000Y-139446000D01*
X127000000Y-137541000D02*
X127635000Y-136906000D01*
X127635000Y-136906000D02*
X128905000Y-136906000D01*
X128905000Y-136906000D02*
X129540000Y-137541000D01*
X129540000Y-137541000D02*
X129540000Y-138811000D01*
X129540000Y-138811000D02*
X128905000Y-139446000D01*
X128905000Y-139446000D02*
X127635000Y-139446000D01*
X127635000Y-139446000D02*
X127000000Y-138811000D01*
X121920000Y-137541000D02*
X122555000Y-136906000D01*
X122555000Y-136906000D02*
X123825000Y-136906000D01*
X123825000Y-136906000D02*
X124460000Y-137541000D01*
X124460000Y-137541000D02*
X124460000Y-138811000D01*
X124460000Y-138811000D02*
X123825000Y-139446000D01*
X123825000Y-139446000D02*
X122555000Y-139446000D01*
X122555000Y-139446000D02*
X121920000Y-138811000D01*
X125095000Y-136906000D02*
X124460000Y-137541000D01*
X124460000Y-138811000D02*
X125095000Y-139446000D01*
X126365000Y-139446000D02*
X125095000Y-139446000D01*
X117475000Y-136906000D02*
X118745000Y-136906000D01*
X118745000Y-136906000D02*
X119380000Y-137541000D01*
X119380000Y-137541000D02*
X119380000Y-138811000D01*
X119380000Y-138811000D02*
X118745000Y-139446000D01*
X119380000Y-137541000D02*
X120015000Y-136906000D01*
X120015000Y-136906000D02*
X121285000Y-136906000D01*
X121285000Y-136906000D02*
X121920000Y-137541000D01*
X121920000Y-137541000D02*
X121920000Y-138811000D01*
X121920000Y-138811000D02*
X121285000Y-139446000D01*
X121285000Y-139446000D02*
X120015000Y-139446000D01*
X120015000Y-139446000D02*
X119380000Y-138811000D01*
X114300000Y-137541000D02*
X114935000Y-136906000D01*
X114935000Y-136906000D02*
X116205000Y-136906000D01*
X116205000Y-136906000D02*
X116840000Y-137541000D01*
X116840000Y-137541000D02*
X116840000Y-138811000D01*
X116840000Y-138811000D02*
X116205000Y-139446000D01*
X116205000Y-139446000D02*
X114935000Y-139446000D01*
X114935000Y-139446000D02*
X114300000Y-138811000D01*
X117475000Y-136906000D02*
X116840000Y-137541000D01*
X116840000Y-138811000D02*
X117475000Y-139446000D01*
X118745000Y-139446000D02*
X117475000Y-139446000D01*
X109855000Y-136906000D02*
X111125000Y-136906000D01*
X111125000Y-136906000D02*
X111760000Y-137541000D01*
X111760000Y-137541000D02*
X111760000Y-138811000D01*
X111760000Y-138811000D02*
X111125000Y-139446000D01*
X111760000Y-137541000D02*
X112395000Y-136906000D01*
X112395000Y-136906000D02*
X113665000Y-136906000D01*
X113665000Y-136906000D02*
X114300000Y-137541000D01*
X114300000Y-137541000D02*
X114300000Y-138811000D01*
X114300000Y-138811000D02*
X113665000Y-139446000D01*
X113665000Y-139446000D02*
X112395000Y-139446000D01*
X112395000Y-139446000D02*
X111760000Y-138811000D01*
X106680000Y-137541000D02*
X107315000Y-136906000D01*
X107315000Y-136906000D02*
X108585000Y-136906000D01*
X108585000Y-136906000D02*
X109220000Y-137541000D01*
X109220000Y-137541000D02*
X109220000Y-138811000D01*
X109220000Y-138811000D02*
X108585000Y-139446000D01*
X108585000Y-139446000D02*
X107315000Y-139446000D01*
X107315000Y-139446000D02*
X106680000Y-138811000D01*
X109855000Y-136906000D02*
X109220000Y-137541000D01*
X109220000Y-138811000D02*
X109855000Y-139446000D01*
X111125000Y-139446000D02*
X109855000Y-139446000D01*
X102235000Y-136906000D02*
X103505000Y-136906000D01*
X103505000Y-136906000D02*
X104140000Y-137541000D01*
X104140000Y-137541000D02*
X104140000Y-138811000D01*
X104140000Y-138811000D02*
X103505000Y-139446000D01*
X104140000Y-137541000D02*
X104775000Y-136906000D01*
X104775000Y-136906000D02*
X106045000Y-136906000D01*
X106045000Y-136906000D02*
X106680000Y-137541000D01*
X106680000Y-137541000D02*
X106680000Y-138811000D01*
X106680000Y-138811000D02*
X106045000Y-139446000D01*
X106045000Y-139446000D02*
X104775000Y-139446000D01*
X104775000Y-139446000D02*
X104140000Y-138811000D01*
X99060000Y-137541000D02*
X99695000Y-136906000D01*
X99695000Y-136906000D02*
X100965000Y-136906000D01*
X100965000Y-136906000D02*
X101600000Y-137541000D01*
X101600000Y-137541000D02*
X101600000Y-138811000D01*
X101600000Y-138811000D02*
X100965000Y-139446000D01*
X100965000Y-139446000D02*
X99695000Y-139446000D01*
X99695000Y-139446000D02*
X99060000Y-138811000D01*
X102235000Y-136906000D02*
X101600000Y-137541000D01*
X101600000Y-138811000D02*
X102235000Y-139446000D01*
X103505000Y-139446000D02*
X102235000Y-139446000D01*
X94615000Y-136906000D02*
X95885000Y-136906000D01*
X95885000Y-136906000D02*
X96520000Y-137541000D01*
X96520000Y-137541000D02*
X96520000Y-138811000D01*
X96520000Y-138811000D02*
X95885000Y-139446000D01*
X96520000Y-137541000D02*
X97155000Y-136906000D01*
X97155000Y-136906000D02*
X98425000Y-136906000D01*
X98425000Y-136906000D02*
X99060000Y-137541000D01*
X99060000Y-137541000D02*
X99060000Y-138811000D01*
X99060000Y-138811000D02*
X98425000Y-139446000D01*
X98425000Y-139446000D02*
X97155000Y-139446000D01*
X97155000Y-139446000D02*
X96520000Y-138811000D01*
X91440000Y-137541000D02*
X92075000Y-136906000D01*
X92075000Y-136906000D02*
X93345000Y-136906000D01*
X93345000Y-136906000D02*
X93980000Y-137541000D01*
X93980000Y-137541000D02*
X93980000Y-138811000D01*
X93980000Y-138811000D02*
X93345000Y-139446000D01*
X93345000Y-139446000D02*
X92075000Y-139446000D01*
X92075000Y-139446000D02*
X91440000Y-138811000D01*
X94615000Y-136906000D02*
X93980000Y-137541000D01*
X93980000Y-138811000D02*
X94615000Y-139446000D01*
X95885000Y-139446000D02*
X94615000Y-139446000D01*
X86995000Y-136906000D02*
X88265000Y-136906000D01*
X88265000Y-136906000D02*
X88900000Y-137541000D01*
X88900000Y-137541000D02*
X88900000Y-138811000D01*
X88900000Y-138811000D02*
X88265000Y-139446000D01*
X88900000Y-137541000D02*
X89535000Y-136906000D01*
X89535000Y-136906000D02*
X90805000Y-136906000D01*
X90805000Y-136906000D02*
X91440000Y-137541000D01*
X91440000Y-137541000D02*
X91440000Y-138811000D01*
X91440000Y-138811000D02*
X90805000Y-139446000D01*
X90805000Y-139446000D02*
X89535000Y-139446000D01*
X89535000Y-139446000D02*
X88900000Y-138811000D01*
X86360000Y-137541000D02*
X86360000Y-138811000D01*
X86995000Y-136906000D02*
X86360000Y-137541000D01*
X86360000Y-138811000D02*
X86995000Y-139446000D01*
X88265000Y-139446000D02*
X86995000Y-139446000D01*
X135255000Y-136906000D02*
X136525000Y-136906000D01*
X136525000Y-136906000D02*
X137160000Y-137541000D01*
X137160000Y-137541000D02*
X137160000Y-138811000D01*
X137160000Y-138811000D02*
X136525000Y-139446000D01*
X135255000Y-136906000D02*
X134620000Y-137541000D01*
X134620000Y-138811000D02*
X135255000Y-139446000D01*
X136525000Y-139446000D02*
X135255000Y-139446000D01*
G04 #@! TO.C,JP1*
X78105000Y-128397000D02*
X77470000Y-127762000D01*
X76200000Y-127762000D02*
X75565000Y-128397000D01*
X75565000Y-128397000D02*
X74930000Y-127762000D01*
X73660000Y-127762000D02*
X73025000Y-128397000D01*
X78105000Y-128397000D02*
X78105000Y-132207000D01*
X78105000Y-132207000D02*
X77470000Y-132842000D01*
X77470000Y-132842000D02*
X76200000Y-132842000D01*
X76200000Y-132842000D02*
X75565000Y-132207000D01*
X75565000Y-132207000D02*
X74930000Y-132842000D01*
X74930000Y-132842000D02*
X73660000Y-132842000D01*
X73660000Y-132842000D02*
X73025000Y-132207000D01*
X75565000Y-132207000D02*
X75565000Y-128397000D01*
X73025000Y-132207000D02*
X73025000Y-128397000D01*
X74930000Y-127762000D02*
X73660000Y-127762000D01*
X77470000Y-127762000D02*
X76200000Y-127762000D01*
G04 #@! TO.C,JP2*
X178689000Y-94424500D02*
X178689000Y-95694500D01*
X178689000Y-95694500D02*
X178054000Y-96329500D01*
X178054000Y-96329500D02*
X176784000Y-96329500D01*
X176784000Y-96329500D02*
X176149000Y-95694500D01*
X178054000Y-96329500D02*
X178689000Y-96964500D01*
X178689000Y-96964500D02*
X178689000Y-98234500D01*
X178689000Y-98234500D02*
X178054000Y-98869500D01*
X178054000Y-98869500D02*
X176784000Y-98869500D01*
X176784000Y-98869500D02*
X176149000Y-98234500D01*
X176149000Y-98234500D02*
X176149000Y-96964500D01*
X176149000Y-96964500D02*
X176784000Y-96329500D01*
X178054000Y-91249500D02*
X178689000Y-91884500D01*
X178689000Y-91884500D02*
X178689000Y-93154500D01*
X178689000Y-93154500D02*
X178054000Y-93789500D01*
X178054000Y-93789500D02*
X176784000Y-93789500D01*
X176784000Y-93789500D02*
X176149000Y-93154500D01*
X176149000Y-93154500D02*
X176149000Y-91884500D01*
X176149000Y-91884500D02*
X176784000Y-91249500D01*
X178689000Y-94424500D02*
X178054000Y-93789500D01*
X176784000Y-93789500D02*
X176149000Y-94424500D01*
X176149000Y-95694500D02*
X176149000Y-94424500D01*
X178689000Y-86804500D02*
X178689000Y-88074500D01*
X178689000Y-88074500D02*
X178054000Y-88709500D01*
X178054000Y-88709500D02*
X176784000Y-88709500D01*
X176784000Y-88709500D02*
X176149000Y-88074500D01*
X178054000Y-88709500D02*
X178689000Y-89344500D01*
X178689000Y-89344500D02*
X178689000Y-90614500D01*
X178689000Y-90614500D02*
X178054000Y-91249500D01*
X178054000Y-91249500D02*
X176784000Y-91249500D01*
X176784000Y-91249500D02*
X176149000Y-90614500D01*
X176149000Y-90614500D02*
X176149000Y-89344500D01*
X176149000Y-89344500D02*
X176784000Y-88709500D01*
X178054000Y-86169500D02*
X176784000Y-86169500D01*
X178689000Y-86804500D02*
X178054000Y-86169500D01*
X176784000Y-86169500D02*
X176149000Y-86804500D01*
X176149000Y-88074500D02*
X176149000Y-86804500D01*
X178689000Y-99504500D02*
X178689000Y-100774500D01*
X178689000Y-100774500D02*
X178054000Y-101409500D01*
X178054000Y-101409500D02*
X176784000Y-101409500D01*
X176784000Y-101409500D02*
X176149000Y-100774500D01*
X178689000Y-99504500D02*
X178054000Y-98869500D01*
X176784000Y-98869500D02*
X176149000Y-99504500D01*
X176149000Y-100774500D02*
X176149000Y-99504500D01*
G04 #@! TO.C,JP3*
X178689000Y-119888000D02*
X178689000Y-121158000D01*
X178689000Y-121158000D02*
X178054000Y-121793000D01*
X178054000Y-121793000D02*
X176784000Y-121793000D01*
X176784000Y-121793000D02*
X176149000Y-121158000D01*
X178054000Y-121793000D02*
X178689000Y-122428000D01*
X178689000Y-122428000D02*
X178689000Y-123698000D01*
X178689000Y-123698000D02*
X178054000Y-124333000D01*
X178054000Y-124333000D02*
X176784000Y-124333000D01*
X176784000Y-124333000D02*
X176149000Y-123698000D01*
X176149000Y-123698000D02*
X176149000Y-122428000D01*
X176149000Y-122428000D02*
X176784000Y-121793000D01*
X178054000Y-116713000D02*
X178689000Y-117348000D01*
X178689000Y-117348000D02*
X178689000Y-118618000D01*
X178689000Y-118618000D02*
X178054000Y-119253000D01*
X178054000Y-119253000D02*
X176784000Y-119253000D01*
X176784000Y-119253000D02*
X176149000Y-118618000D01*
X176149000Y-118618000D02*
X176149000Y-117348000D01*
X176149000Y-117348000D02*
X176784000Y-116713000D01*
X178689000Y-119888000D02*
X178054000Y-119253000D01*
X176784000Y-119253000D02*
X176149000Y-119888000D01*
X176149000Y-121158000D02*
X176149000Y-119888000D01*
X178689000Y-112268000D02*
X178689000Y-113538000D01*
X178689000Y-113538000D02*
X178054000Y-114173000D01*
X178054000Y-114173000D02*
X176784000Y-114173000D01*
X176784000Y-114173000D02*
X176149000Y-113538000D01*
X178054000Y-114173000D02*
X178689000Y-114808000D01*
X178689000Y-114808000D02*
X178689000Y-116078000D01*
X178689000Y-116078000D02*
X178054000Y-116713000D01*
X178054000Y-116713000D02*
X176784000Y-116713000D01*
X176784000Y-116713000D02*
X176149000Y-116078000D01*
X176149000Y-116078000D02*
X176149000Y-114808000D01*
X176149000Y-114808000D02*
X176784000Y-114173000D01*
X178054000Y-111633000D02*
X176784000Y-111633000D01*
X178689000Y-112268000D02*
X178054000Y-111633000D01*
X176784000Y-111633000D02*
X176149000Y-112268000D01*
X176149000Y-113538000D02*
X176149000Y-112268000D01*
X178689000Y-124968000D02*
X178689000Y-126238000D01*
X178689000Y-126238000D02*
X178054000Y-126873000D01*
X178054000Y-126873000D02*
X176784000Y-126873000D01*
X176784000Y-126873000D02*
X176149000Y-126238000D01*
X178689000Y-124968000D02*
X178054000Y-124333000D01*
X176784000Y-124333000D02*
X176149000Y-124968000D01*
X176149000Y-126238000D02*
X176149000Y-124968000D01*
D11*
G04 #@! TO.C,L1*
X148971000Y-81280000D02*
X138811000Y-81280000D01*
X138811000Y-81280000D02*
X138811000Y-106680000D01*
X138811000Y-106680000D02*
X148971000Y-106680000D01*
X148971000Y-106680000D02*
X148971000Y-81280000D01*
D16*
G04 #@! TO.C,U2*
X152654000Y-113030000D02*
X142494000Y-113030000D01*
X142494000Y-113030000D02*
X142494000Y-123190000D01*
X142494000Y-123190000D02*
X152654000Y-123190000D01*
X152654000Y-123190000D02*
X152654000Y-113030000D01*
D13*
G04 #@! TO.C,X1*
X71755000Y-55524400D02*
X71755000Y-56286400D01*
X71755000Y-56286400D02*
X75565000Y-56286400D01*
X75565000Y-55524400D02*
X75565000Y-56286400D01*
X71755000Y-55524400D02*
X75565000Y-55524400D01*
X71755000Y-60553600D02*
X71755000Y-61315600D01*
X71755000Y-61315600D02*
X75565000Y-61315600D01*
X75565000Y-60553600D02*
X75565000Y-61315600D01*
X71755000Y-60553600D02*
X75565000Y-60553600D01*
D14*
X70104000Y-50901600D02*
X71501000Y-50901600D01*
X77597000Y-65938400D02*
X77597000Y-50901600D01*
X77597000Y-65938400D02*
X75819000Y-65938400D01*
X70104000Y-50901600D02*
X70104000Y-65938400D01*
X76708000Y-50901600D02*
X76835000Y-50393600D01*
X76708000Y-50901600D02*
X77597000Y-50901600D01*
X76835000Y-50393600D02*
X75692000Y-50393600D01*
X75692000Y-50393600D02*
X75819000Y-50901600D01*
X75819000Y-50901600D02*
X76708000Y-50901600D01*
X75819000Y-50901600D02*
X75819000Y-65938400D01*
X75819000Y-65938400D02*
X71501000Y-65938400D01*
X71501000Y-50901600D02*
X71501000Y-65938400D01*
X71501000Y-50901600D02*
X75819000Y-50901600D01*
X71501000Y-65938400D02*
X70104000Y-65938400D01*
D17*
X77067210Y-58420000D02*
G75*
G03X77067210Y-58420000I-359210J0D01*
G01*
X77067210Y-53416200D02*
G75*
G03X77067210Y-53416200I-359210J0D01*
G01*
X77067210Y-63423800D02*
G75*
G03X77067210Y-63423800I-359210J0D01*
G01*
D13*
G04 #@! TO.C,X2*
X82550000Y-100939600D02*
X82550000Y-100177600D01*
X82550000Y-100177600D02*
X78740000Y-100177600D01*
X78740000Y-100939600D02*
X78740000Y-100177600D01*
X82550000Y-100939600D02*
X78740000Y-100939600D01*
X82550000Y-95910400D02*
X82550000Y-95148400D01*
X82550000Y-95148400D02*
X78740000Y-95148400D01*
X78740000Y-95910400D02*
X78740000Y-95148400D01*
X82550000Y-95910400D02*
X78740000Y-95910400D01*
D14*
X84201000Y-105562400D02*
X82804000Y-105562400D01*
X76708000Y-90525600D02*
X76708000Y-105562400D01*
X76708000Y-90525600D02*
X78486000Y-90525600D01*
X84201000Y-105562400D02*
X84201000Y-90525600D01*
X77597000Y-105562400D02*
X77470000Y-106070400D01*
X77597000Y-105562400D02*
X76708000Y-105562400D01*
X77470000Y-106070400D02*
X78613000Y-106070400D01*
X78613000Y-106070400D02*
X78486000Y-105562400D01*
X78486000Y-105562400D02*
X77597000Y-105562400D01*
X78486000Y-105562400D02*
X78486000Y-90525600D01*
X78486000Y-90525600D02*
X82804000Y-90525600D01*
X82804000Y-105562400D02*
X82804000Y-90525600D01*
X82804000Y-105562400D02*
X78486000Y-105562400D01*
X82804000Y-90525600D02*
X84201000Y-90525600D01*
D17*
X77956210Y-98044000D02*
G75*
G03X77956210Y-98044000I-359210J0D01*
G01*
X77956210Y-103047800D02*
G75*
G03X77956210Y-103047800I-359210J0D01*
G01*
X77956210Y-93040200D02*
G75*
G03X77956210Y-93040200I-359210J0D01*
G01*
D13*
G04 #@! TO.C,X3*
X82550000Y-83159600D02*
X82550000Y-82397600D01*
X82550000Y-82397600D02*
X78740000Y-82397600D01*
X78740000Y-83159600D02*
X78740000Y-82397600D01*
X82550000Y-83159600D02*
X78740000Y-83159600D01*
X82550000Y-78130400D02*
X82550000Y-77368400D01*
X82550000Y-77368400D02*
X78740000Y-77368400D01*
X78740000Y-78130400D02*
X78740000Y-77368400D01*
X82550000Y-78130400D02*
X78740000Y-78130400D01*
D14*
X84201000Y-87782400D02*
X82804000Y-87782400D01*
X76708000Y-72745600D02*
X76708000Y-87782400D01*
X76708000Y-72745600D02*
X78486000Y-72745600D01*
X84201000Y-87782400D02*
X84201000Y-72745600D01*
X77597000Y-87782400D02*
X77470000Y-88290400D01*
X77597000Y-87782400D02*
X76708000Y-87782400D01*
X77470000Y-88290400D02*
X78613000Y-88290400D01*
X78613000Y-88290400D02*
X78486000Y-87782400D01*
X78486000Y-87782400D02*
X77597000Y-87782400D01*
X78486000Y-87782400D02*
X78486000Y-72745600D01*
X78486000Y-72745600D02*
X82804000Y-72745600D01*
X82804000Y-87782400D02*
X82804000Y-72745600D01*
X82804000Y-87782400D02*
X78486000Y-87782400D01*
X82804000Y-72745600D02*
X84201000Y-72745600D01*
D17*
X77956210Y-80264000D02*
G75*
G03X77956210Y-80264000I-359210J0D01*
G01*
X77956210Y-85267800D02*
G75*
G03X77956210Y-85267800I-359210J0D01*
G01*
X77956210Y-75260200D02*
G75*
G03X77956210Y-75260200I-359210J0D01*
G01*
D13*
G04 #@! TO.C,X4*
X173863000Y-45212000D02*
X173863000Y-45974000D01*
X173863000Y-45974000D02*
X177673000Y-45974000D01*
X177673000Y-45212000D02*
X177673000Y-45974000D01*
X173863000Y-45212000D02*
X177673000Y-45212000D01*
D14*
X172212000Y-40513000D02*
X173609000Y-40513000D01*
X179705000Y-50673000D02*
X179705000Y-40513000D01*
X179705000Y-50673000D02*
X177927000Y-50673000D01*
X172212000Y-40513000D02*
X172212000Y-50673000D01*
X178816000Y-40513000D02*
X178943000Y-40005000D01*
X178816000Y-40513000D02*
X179705000Y-40513000D01*
X178943000Y-40005000D02*
X177800000Y-40005000D01*
X177800000Y-40005000D02*
X177927000Y-40513000D01*
X177927000Y-40513000D02*
X178816000Y-40513000D01*
X177927000Y-40513000D02*
X177927000Y-50673000D01*
X177927000Y-50673000D02*
X173609000Y-50673000D01*
X173609000Y-40513000D02*
X173609000Y-50673000D01*
X173609000Y-40513000D02*
X177927000Y-40513000D01*
X173609000Y-50673000D02*
X172212000Y-50673000D01*
D17*
X179175210Y-48107600D02*
G75*
G03X179175210Y-48107600I-359210J0D01*
G01*
X179175210Y-43078400D02*
G75*
G03X179175210Y-43078400I-359210J0D01*
G01*
D13*
G04 #@! TO.C,X5*
X173863000Y-57912000D02*
X173863000Y-58674000D01*
X173863000Y-58674000D02*
X177673000Y-58674000D01*
X177673000Y-57912000D02*
X177673000Y-58674000D01*
X173863000Y-57912000D02*
X177673000Y-57912000D01*
D14*
X172212000Y-53213000D02*
X173609000Y-53213000D01*
X179705000Y-63373000D02*
X179705000Y-53213000D01*
X179705000Y-63373000D02*
X177927000Y-63373000D01*
X172212000Y-53213000D02*
X172212000Y-63373000D01*
X178816000Y-53213000D02*
X178943000Y-52705000D01*
X178816000Y-53213000D02*
X179705000Y-53213000D01*
X178943000Y-52705000D02*
X177800000Y-52705000D01*
X177800000Y-52705000D02*
X177927000Y-53213000D01*
X177927000Y-53213000D02*
X178816000Y-53213000D01*
X177927000Y-53213000D02*
X177927000Y-63373000D01*
X177927000Y-63373000D02*
X173609000Y-63373000D01*
X173609000Y-53213000D02*
X173609000Y-63373000D01*
X173609000Y-53213000D02*
X177927000Y-53213000D01*
X173609000Y-63373000D02*
X172212000Y-63373000D01*
D17*
X179175210Y-60807600D02*
G75*
G03X179175210Y-60807600I-359210J0D01*
G01*
X179175210Y-55778400D02*
G75*
G03X179175210Y-55778400I-359210J0D01*
G01*
D13*
G04 #@! TO.C,X6*
X173863000Y-70612000D02*
X173863000Y-71374000D01*
X173863000Y-71374000D02*
X177673000Y-71374000D01*
X177673000Y-70612000D02*
X177673000Y-71374000D01*
X173863000Y-70612000D02*
X177673000Y-70612000D01*
D14*
X172212000Y-65913000D02*
X173609000Y-65913000D01*
X179705000Y-76073000D02*
X179705000Y-65913000D01*
X179705000Y-76073000D02*
X177927000Y-76073000D01*
X172212000Y-65913000D02*
X172212000Y-76073000D01*
X178816000Y-65913000D02*
X178943000Y-65405000D01*
X178816000Y-65913000D02*
X179705000Y-65913000D01*
X178943000Y-65405000D02*
X177800000Y-65405000D01*
X177800000Y-65405000D02*
X177927000Y-65913000D01*
X177927000Y-65913000D02*
X178816000Y-65913000D01*
X177927000Y-65913000D02*
X177927000Y-76073000D01*
X177927000Y-76073000D02*
X173609000Y-76073000D01*
X173609000Y-65913000D02*
X173609000Y-76073000D01*
X173609000Y-65913000D02*
X177927000Y-65913000D01*
X173609000Y-76073000D02*
X172212000Y-76073000D01*
D17*
X179175210Y-73507600D02*
G75*
G03X179175210Y-73507600I-359210J0D01*
G01*
X179175210Y-68478400D02*
G75*
G03X179175210Y-68478400I-359210J0D01*
G01*
D13*
G04 #@! TO.C,K2*
X140616940Y-50815240D02*
X140266420Y-50815240D01*
X140266420Y-50815240D02*
X140266420Y-55887620D01*
X140616940Y-55887620D02*
X140266420Y-55887620D01*
X140616940Y-50815240D02*
X140616940Y-55887620D01*
D12*
X159839660Y-58239660D02*
X139890500Y-58239660D01*
X139890500Y-58239660D02*
X139890500Y-48440340D01*
X139890500Y-48440340D02*
X159839660Y-48440340D01*
X159839660Y-48440340D02*
X159839660Y-58239660D01*
D13*
G04 #@! TO.C,D2*
X147701000Y-44450000D02*
X147193000Y-44450000D01*
X147193000Y-44450000D02*
X147193000Y-46990000D01*
X147701000Y-46990000D02*
X147193000Y-46990000D01*
X147701000Y-44450000D02*
X147701000Y-46990000D01*
X144018000Y-45339000D02*
X142113000Y-45339000D01*
X142113000Y-45339000D02*
X142113000Y-46101000D01*
X144018000Y-46101000D02*
X142113000Y-46101000D01*
X144018000Y-45339000D02*
X144018000Y-46101000D01*
X149987000Y-45339000D02*
X148082000Y-45339000D01*
X148082000Y-45339000D02*
X148082000Y-46101000D01*
X149987000Y-46101000D02*
X148082000Y-46101000D01*
X149987000Y-45339000D02*
X149987000Y-46101000D01*
D14*
X144018000Y-44450000D02*
X148082000Y-44450000D01*
X144018000Y-44450000D02*
X144018000Y-46990000D01*
X148082000Y-46990000D02*
X144018000Y-46990000D01*
X148082000Y-46990000D02*
X148082000Y-44450000D01*
X146685000Y-45720000D02*
X146050000Y-45720000D01*
X145034000Y-46355000D02*
X145034000Y-45085000D01*
X145034000Y-45085000D02*
X146050000Y-45720000D01*
X146050000Y-45720000D02*
X144526000Y-45720000D01*
X146050000Y-45720000D02*
X145034000Y-46355000D01*
X146050000Y-46355000D02*
X146050000Y-45720000D01*
X146050000Y-45720000D02*
X146050000Y-45085000D01*
D10*
G04 #@! TO.C,C7*
X146931000Y-126326000D02*
X145931000Y-126326000D01*
X145931000Y-124626000D02*
X146931000Y-124626000D01*
G04 #@! TO.C,C6*
X146931000Y-128866000D02*
X145931000Y-128866000D01*
X145931000Y-127166000D02*
X146931000Y-127166000D01*
G04 #@! TO.C,C3*
X145200000Y-62222000D02*
X145200000Y-61222000D01*
X146900000Y-61222000D02*
X146900000Y-62222000D01*
G04 #@! TO.C,C2*
X148375000Y-62222000D02*
X148375000Y-61222000D01*
X150075000Y-61222000D02*
X150075000Y-62222000D01*
G04 #@! TO.C,U5*
X139496800Y-39902180D02*
X138795760Y-39902180D01*
X138795760Y-39902180D02*
X138795760Y-40151100D01*
X138795760Y-42701160D02*
X138795760Y-42901820D01*
X138795760Y-42901820D02*
X139496800Y-42901820D01*
G04 #@! TO.C,U11*
X165176200Y-129007820D02*
X165877240Y-129007820D01*
X165877240Y-129007820D02*
X165877240Y-128758900D01*
X165877240Y-126208840D02*
X165877240Y-126008180D01*
X165877240Y-126008180D02*
X165176200Y-126008180D01*
G04 #@! TO.C,U10*
X165176200Y-120117820D02*
X165877240Y-120117820D01*
X165877240Y-120117820D02*
X165877240Y-119868900D01*
X165877240Y-117318840D02*
X165877240Y-117118180D01*
X165877240Y-117118180D02*
X165176200Y-117118180D01*
G04 #@! TO.C,U9*
X165176200Y-111227820D02*
X165877240Y-111227820D01*
X165877240Y-111227820D02*
X165877240Y-110978900D01*
X165877240Y-108428840D02*
X165877240Y-108228180D01*
X165877240Y-108228180D02*
X165176200Y-108228180D01*
G04 #@! TO.C,U8*
X165430200Y-93320820D02*
X166131240Y-93320820D01*
X166131240Y-93320820D02*
X166131240Y-93071900D01*
X166131240Y-90521840D02*
X166131240Y-90321180D01*
X166131240Y-90321180D02*
X165430200Y-90321180D01*
G04 #@! TO.C,U7*
X165303200Y-84430820D02*
X166004240Y-84430820D01*
X166004240Y-84430820D02*
X166004240Y-84181900D01*
X166004240Y-81631840D02*
X166004240Y-81431180D01*
X166004240Y-81431180D02*
X165303200Y-81431180D01*
G04 #@! TO.C,U6*
X165430200Y-102337820D02*
X166131240Y-102337820D01*
X166131240Y-102337820D02*
X166131240Y-102088900D01*
X166131240Y-99538840D02*
X166131240Y-99338180D01*
X166131240Y-99338180D02*
X165430200Y-99338180D01*
G04 #@! TO.C,U3*
X130352800Y-95020180D02*
X129651760Y-95020180D01*
X129651760Y-95020180D02*
X129651760Y-95269100D01*
X129651760Y-97819160D02*
X129651760Y-98019820D01*
X129651760Y-98019820D02*
X130352800Y-98019820D01*
G04 #@! TO.C,R11*
X159679000Y-83939000D02*
X159679000Y-82939000D01*
X158329000Y-82939000D02*
X158329000Y-83939000D01*
G04 #@! TD*
M02*
