G04 #@! TF.GenerationSoftware,KiCad,Pcbnew,(5.0.0)*
G04 #@! TF.CreationDate,2019-01-25T09:41:45+01:00*
G04 #@! TF.ProjectId,cosi_pwr,636F73695F7077722E6B696361645F70,0.1*
G04 #@! TF.SameCoordinates,Original*
G04 #@! TF.FileFunction,Copper,L1,Top,Signal*
G04 #@! TF.FilePolarity,Positive*
%FSLAX46Y46*%
G04 Gerber Fmt 4.6, Leading zero omitted, Abs format (unit mm)*
G04 Created by KiCad (PCBNEW (5.0.0)) date 01/25/19 09:41:45*
%MOMM*%
%LPD*%
G01*
G04 APERTURE LIST*
G04 #@! TA.AperFunction,ComponentPad*
%ADD10C,2.540000*%
G04 #@! TD*
G04 #@! TA.AperFunction,ComponentPad*
%ADD11R,1.000000X2.700000*%
G04 #@! TD*
G04 #@! TA.AperFunction,ComponentPad*
%ADD12R,1.500000X3.200000*%
G04 #@! TD*
G04 #@! TA.AperFunction,ComponentPad*
%ADD13C,1.676400*%
G04 #@! TD*
G04 #@! TA.AperFunction,ComponentPad*
%ADD14R,1.651000X1.651000*%
G04 #@! TD*
G04 #@! TA.AperFunction,ComponentPad*
%ADD15C,1.651000*%
G04 #@! TD*
G04 #@! TA.AperFunction,ComponentPad*
%ADD16O,1.524000X3.048000*%
G04 #@! TD*
G04 #@! TA.AperFunction,ComponentPad*
%ADD17R,1.524000X2.000000*%
G04 #@! TD*
G04 #@! TA.AperFunction,ComponentPad*
%ADD18O,3.048000X1.524000*%
G04 #@! TD*
G04 #@! TA.AperFunction,ComponentPad*
%ADD19C,1.506220*%
G04 #@! TD*
G04 #@! TA.AperFunction,ComponentPad*
%ADD20O,1.206500X2.415540*%
G04 #@! TD*
G04 #@! TA.AperFunction,ComponentPad*
%ADD21O,3.962400X1.981200*%
G04 #@! TD*
G04 #@! TA.AperFunction,ComponentPad*
%ADD22C,1.930400*%
G04 #@! TD*
G04 #@! TA.AperFunction,ComponentPad*
%ADD23C,2.181860*%
G04 #@! TD*
G04 #@! TA.AperFunction,ViaPad*
%ADD24C,1.200000*%
G04 #@! TD*
G04 #@! TA.AperFunction,Conductor*
%ADD25C,2.000000*%
G04 #@! TD*
G04 #@! TA.AperFunction,Conductor*
%ADD26C,1.000000*%
G04 #@! TD*
G04 #@! TA.AperFunction,Conductor*
%ADD27C,0.500000*%
G04 #@! TD*
G04 #@! TA.AperFunction,Conductor*
%ADD28C,0.254000*%
G04 #@! TD*
G04 APERTURE END LIST*
D10*
G04 #@! TO.P,U1,AC/N*
G04 #@! TO.N,/AC_N*
X86420960Y-63738760D03*
G04 #@! TO.P,U1,AC/L*
G04 #@! TO.N,/AC_L*
X86420960Y-42941240D03*
G04 #@! TO.P,U1,V+*
G04 #@! TO.N,+12V*
X131419600Y-55737760D03*
G04 #@! TO.P,U1,V-*
G04 #@! TO.N,GND*
X131419600Y-63738760D03*
G04 #@! TD*
D11*
G04 #@! TO.P,K1,11*
G04 #@! TO.N,/AC_N*
X103505000Y-82555080D03*
G04 #@! TO.P,K1,12*
G04 #@! TO.N,Net-(K1-Pad12)*
X93157040Y-82555080D03*
G04 #@! TO.P,K1,14*
G04 #@! TO.N,Net-(K1-Pad14)*
X97155000Y-82555080D03*
G04 #@! TO.P,K1,21*
G04 #@! TO.N,Net-(K1-Pad21)*
X103505000Y-89154000D03*
G04 #@! TO.P,K1,22*
G04 #@! TO.N,Net-(K1-Pad22)*
X93157040Y-89154000D03*
G04 #@! TO.P,K1,24*
G04 #@! TO.N,Net-(K1-Pad24)*
X97155000Y-89154000D03*
G04 #@! TO.P,K1,31*
G04 #@! TO.N,/AC_L*
X103505000Y-95752920D03*
G04 #@! TO.P,K1,32*
G04 #@! TO.N,Net-(K1-Pad32)*
X93157040Y-95752920D03*
G04 #@! TO.P,K1,34*
G04 #@! TO.N,Net-(K1-Pad34)*
X97155000Y-95752920D03*
D12*
G04 #@! TO.P,K1,A1*
G04 #@! TO.N,VCC_+12V*
X109855000Y-82555080D03*
G04 #@! TO.P,K1,A2*
G04 #@! TO.N,/N$2*
X109855000Y-95752920D03*
G04 #@! TD*
D13*
G04 #@! TO.P,D1,A*
G04 #@! TO.N,/N$2*
X128143000Y-92075000D03*
G04 #@! TO.P,D1,C*
G04 #@! TO.N,VCC_+12V*
X128143000Y-81915000D03*
G04 #@! TD*
D14*
G04 #@! TO.P,C1,1*
G04 #@! TO.N,+12V*
X140335000Y-61595000D03*
D15*
G04 #@! TO.P,C1,2*
G04 #@! TO.N,GND*
X140335000Y-64135000D03*
G04 #@! TD*
D14*
G04 #@! TO.P,C5,1*
G04 #@! TO.N,+12V*
X134620000Y-74930000D03*
D15*
G04 #@! TO.P,C5,2*
G04 #@! TO.N,GND*
X134620000Y-72390000D03*
G04 #@! TD*
D16*
G04 #@! TO.P,IO1,1*
G04 #@! TO.N,/BANK2_0*
X87630000Y-112776000D03*
G04 #@! TO.P,IO1,2*
G04 #@! TO.N,/BANK2_1*
X90170000Y-112776000D03*
G04 #@! TO.P,IO1,3*
G04 #@! TO.N,/BANK2_2*
X92710000Y-112776000D03*
G04 #@! TO.P,IO1,4*
G04 #@! TO.N,/BANK2_3*
X95250000Y-112776000D03*
G04 #@! TO.P,IO1,5*
G04 #@! TO.N,/BANK2_4*
X97790000Y-112776000D03*
G04 #@! TO.P,IO1,6*
G04 #@! TO.N,/BANK2_5*
X100330000Y-112776000D03*
G04 #@! TO.P,IO1,7*
G04 #@! TO.N,/BANK2_6*
X102870000Y-112776000D03*
G04 #@! TO.P,IO1,8*
G04 #@! TO.N,/BANK2_7*
X105410000Y-112776000D03*
G04 #@! TO.P,IO1,9*
G04 #@! TO.N,/BANK2_8*
X107950000Y-112776000D03*
G04 #@! TO.P,IO1,10*
G04 #@! TO.N,/BANK2_9*
X110490000Y-112776000D03*
G04 #@! TO.P,IO1,11*
G04 #@! TO.N,/BANK2_10*
X113030000Y-112776000D03*
G04 #@! TO.P,IO1,12*
G04 #@! TO.N,/BANK2_11*
X115570000Y-112776000D03*
G04 #@! TO.P,IO1,13*
G04 #@! TO.N,/BANK2_12*
X118110000Y-112776000D03*
G04 #@! TO.P,IO1,14*
G04 #@! TO.N,/BANK2_13*
X120650000Y-112776000D03*
G04 #@! TO.P,IO1,15*
G04 #@! TO.N,/BANK2_14*
X123190000Y-112776000D03*
G04 #@! TO.P,IO1,16*
G04 #@! TO.N,/BANK2_15*
X125730000Y-112776000D03*
G04 #@! TO.P,IO1,17*
G04 #@! TO.N,/BANK2_16*
X128270000Y-112776000D03*
G04 #@! TO.P,IO1,18*
G04 #@! TO.N,/BANK2_VCC*
X130810000Y-112776000D03*
G04 #@! TO.P,IO1,19*
G04 #@! TO.N,+5V*
X133350000Y-112776000D03*
G04 #@! TO.P,IO1,20*
G04 #@! TO.N,GND*
X135890000Y-112776000D03*
G04 #@! TD*
G04 #@! TO.P,IO2,1*
G04 #@! TO.N,/BANK1_0*
X87630000Y-138176000D03*
G04 #@! TO.P,IO2,2*
G04 #@! TO.N,/BANK1_1*
X90170000Y-138176000D03*
G04 #@! TO.P,IO2,3*
G04 #@! TO.N,/BANK1_2*
X92710000Y-138176000D03*
G04 #@! TO.P,IO2,4*
G04 #@! TO.N,/BANK1_3*
X95250000Y-138176000D03*
G04 #@! TO.P,IO2,5*
G04 #@! TO.N,/BANK1_4*
X97790000Y-138176000D03*
G04 #@! TO.P,IO2,6*
G04 #@! TO.N,/BANK1_5*
X100330000Y-138176000D03*
G04 #@! TO.P,IO2,7*
G04 #@! TO.N,/BANK1_6*
X102870000Y-138176000D03*
G04 #@! TO.P,IO2,8*
G04 #@! TO.N,/BANK1_7*
X105410000Y-138176000D03*
G04 #@! TO.P,IO2,9*
G04 #@! TO.N,/BANK1_8*
X107950000Y-138176000D03*
G04 #@! TO.P,IO2,10*
G04 #@! TO.N,/BANK1_9*
X110490000Y-138176000D03*
G04 #@! TO.P,IO2,11*
G04 #@! TO.N,/BANK1_10*
X113030000Y-138176000D03*
G04 #@! TO.P,IO2,12*
G04 #@! TO.N,/BANK1_11*
X115570000Y-138176000D03*
G04 #@! TO.P,IO2,13*
G04 #@! TO.N,/BANK1_12*
X118110000Y-138176000D03*
G04 #@! TO.P,IO2,14*
G04 #@! TO.N,/BANK1_13*
X120650000Y-138176000D03*
G04 #@! TO.P,IO2,15*
G04 #@! TO.N,/BANK1_14*
X123190000Y-138176000D03*
G04 #@! TO.P,IO2,16*
G04 #@! TO.N,/BANK1_15*
X125730000Y-138176000D03*
G04 #@! TO.P,IO2,17*
G04 #@! TO.N,/BANK1_VCC*
X128270000Y-138176000D03*
G04 #@! TO.P,IO2,18*
G04 #@! TO.N,/+1.8V*
X130810000Y-138176000D03*
G04 #@! TO.P,IO2,19*
G04 #@! TO.N,+3V3*
X133350000Y-138176000D03*
G04 #@! TO.P,IO2,20*
G04 #@! TO.N,GND*
X135890000Y-138176000D03*
G04 #@! TD*
D17*
G04 #@! TO.P,JP1,1*
G04 #@! TO.N,/N$19*
X76835000Y-129032000D03*
G04 #@! TO.P,JP1,2*
G04 #@! TO.N,/BANK1_9*
X76835000Y-131572000D03*
G04 #@! TO.P,JP1,3*
G04 #@! TO.N,/N$20*
X74295000Y-129032000D03*
G04 #@! TO.P,JP1,4*
G04 #@! TO.N,/BANK1_4*
X74295000Y-131572000D03*
G04 #@! TD*
D18*
G04 #@! TO.P,JP2,1*
G04 #@! TO.N,/SW_X+_L*
X177419000Y-87439500D03*
G04 #@! TO.P,JP2,2*
G04 #@! TO.N,/SW_X-_L*
X177419000Y-89979500D03*
G04 #@! TO.P,JP2,3*
G04 #@! TO.N,/SW_Y+_L*
X177419000Y-92519500D03*
G04 #@! TO.P,JP2,4*
G04 #@! TO.N,/SW_Y-_L*
X177419000Y-95059500D03*
G04 #@! TO.P,JP2,5*
G04 #@! TO.N,/SW_Z+_L*
X177419000Y-97599500D03*
G04 #@! TO.P,JP2,6*
G04 #@! TO.N,/SW_Z-_L*
X177419000Y-100139500D03*
G04 #@! TD*
G04 #@! TO.P,JP3,1*
G04 #@! TO.N,/SW_X+_H*
X177419000Y-112903000D03*
G04 #@! TO.P,JP3,2*
G04 #@! TO.N,/SW_X-_H*
X177419000Y-115443000D03*
G04 #@! TO.P,JP3,3*
G04 #@! TO.N,/SW_Y+_H*
X177419000Y-117983000D03*
G04 #@! TO.P,JP3,4*
G04 #@! TO.N,/SW_Y-_H*
X177419000Y-120523000D03*
G04 #@! TO.P,JP3,5*
G04 #@! TO.N,/SW_Z+_H*
X177419000Y-123063000D03*
G04 #@! TO.P,JP3,6*
G04 #@! TO.N,/SW_Z-_H*
X177419000Y-125603000D03*
G04 #@! TD*
D19*
G04 #@! TO.P,L1,P$1*
G04 #@! TO.N,+12V*
X143891000Y-78740000D03*
G04 #@! TO.P,L1,P$2*
G04 #@! TO.N,/N$4*
X143891000Y-109220000D03*
G04 #@! TD*
D20*
G04 #@! TO.P,U2,1*
G04 #@! TO.N,GND*
X151384000Y-114300000D03*
G04 #@! TO.P,U2,4*
G04 #@! TO.N,/N$4*
X143764000Y-114300000D03*
G04 #@! TO.P,U2,5*
G04 #@! TO.N,+5V*
X143764000Y-121920000D03*
G04 #@! TO.P,U2,7*
G04 #@! TO.N,GND*
X148844000Y-121920000D03*
G04 #@! TD*
D21*
G04 #@! TO.P,X1,1*
G04 #@! TO.N,/AC_L*
X73660000Y-53416200D03*
G04 #@! TO.P,X1,2*
G04 #@! TO.N,PE*
X73660000Y-58420000D03*
G04 #@! TO.P,X1,3*
G04 #@! TO.N,/AC_N*
X73660000Y-63423800D03*
G04 #@! TD*
G04 #@! TO.P,X2,1*
G04 #@! TO.N,Net-(K1-Pad34)*
X80645000Y-103047800D03*
G04 #@! TO.P,X2,2*
G04 #@! TO.N,PE*
X80645000Y-98044000D03*
G04 #@! TO.P,X2,3*
G04 #@! TO.N,Net-(K1-Pad14)*
X80645000Y-93040200D03*
G04 #@! TD*
G04 #@! TO.P,X3,1*
G04 #@! TO.N,Net-(K1-Pad34)*
X80645000Y-85267800D03*
G04 #@! TO.P,X3,2*
G04 #@! TO.N,PE*
X80645000Y-80264000D03*
G04 #@! TO.P,X3,3*
G04 #@! TO.N,Net-(K1-Pad14)*
X80645000Y-75260200D03*
G04 #@! TD*
G04 #@! TO.P,X4,1*
G04 #@! TO.N,VCC_+12V*
X175768000Y-43078400D03*
G04 #@! TO.P,X4,2*
G04 #@! TO.N,GND*
X175768000Y-48107600D03*
G04 #@! TD*
G04 #@! TO.P,X5,1*
G04 #@! TO.N,VCC_+12V*
X175768000Y-55778400D03*
G04 #@! TO.P,X5,2*
G04 #@! TO.N,GND*
X175768000Y-60807600D03*
G04 #@! TD*
G04 #@! TO.P,X6,1*
G04 #@! TO.N,VCC_+12V*
X175768000Y-68478400D03*
G04 #@! TO.P,X6,2*
G04 #@! TO.N,GND*
X175768000Y-73507600D03*
G04 #@! TD*
D22*
G04 #@! TO.P,K2,1*
G04 #@! TO.N,+12V*
X140970000Y-57150000D03*
D23*
G04 #@! TO.P,K2,2*
X151130000Y-57150000D03*
G04 #@! TO.P,K2,3*
G04 #@! TO.N,VCC_+12V*
X158750000Y-57150000D03*
G04 #@! TO.P,K2,4*
G04 #@! TO.N,Net-(K2-Pad4)*
X156210000Y-49530000D03*
D22*
G04 #@! TO.P,K2,5*
G04 #@! TO.N,/N$15*
X140970000Y-49530000D03*
G04 #@! TD*
D13*
G04 #@! TO.P,D2,A*
G04 #@! TO.N,/N$15*
X140970000Y-45720000D03*
G04 #@! TO.P,D2,C*
G04 #@! TO.N,+12V*
X151130000Y-45720000D03*
G04 #@! TD*
D24*
G04 #@! TO.N,GND*
X135890000Y-108712000D03*
X80264000Y-139319000D03*
X141605000Y-138176000D03*
X149098000Y-67310000D03*
G04 #@! TO.N,+5V*
X159258000Y-86614000D03*
X159258000Y-95758000D03*
X159258000Y-122682000D03*
X159258000Y-131318000D03*
X144018000Y-132969000D03*
X159258000Y-113792000D03*
X159258000Y-104775000D03*
G04 #@! TO.N,VCC_+12V*
X162560000Y-86614000D03*
X162560000Y-95758000D03*
X162433000Y-113792000D03*
X162433000Y-122682000D03*
X162433000Y-131318000D03*
X162433000Y-104775000D03*
X182753000Y-73787000D03*
G04 #@! TD*
D25*
G04 #@! TO.N,GND*
X149098000Y-67310000D02*
X148717000Y-66929000D01*
X148717000Y-66929000D02*
X143129000Y-66929000D01*
X143129000Y-66929000D02*
X140335000Y-64135000D01*
D26*
G04 #@! TO.N,+5V*
X159258000Y-95758000D02*
X159258000Y-86614000D01*
X159258000Y-104775000D02*
X159258000Y-95758000D01*
X159258000Y-122682000D02*
X159258000Y-113792000D01*
X159258000Y-113792000D02*
X159258000Y-104775000D01*
X159258000Y-131318000D02*
X159258000Y-122682000D01*
X157480000Y-133096000D02*
X159258000Y-131318000D01*
X144145000Y-133096000D02*
X157480000Y-133096000D01*
X144018000Y-132969000D02*
X144145000Y-133096000D01*
D27*
X159258000Y-113792000D02*
X159258000Y-113919000D01*
X159258000Y-104775000D02*
X159512000Y-104775000D01*
D26*
G04 #@! TO.N,VCC_+12V*
X162560000Y-95758000D02*
X162560000Y-86614000D01*
X162560000Y-86614000D02*
X162560000Y-83947000D01*
X162560000Y-83947000D02*
X162560000Y-84074000D01*
X162560000Y-84074000D02*
X162560000Y-83947000D01*
X162433000Y-104775000D02*
X162433000Y-95885000D01*
X162433000Y-95885000D02*
X162560000Y-95758000D01*
X162433000Y-113792000D02*
X162433000Y-104775000D01*
X162433000Y-122682000D02*
X162433000Y-113792000D01*
X162433000Y-131318000D02*
X162433000Y-122682000D01*
X178308000Y-83947000D02*
X162560000Y-83947000D01*
X182753000Y-79502000D02*
X178308000Y-83947000D01*
X182753000Y-73787000D02*
X182753000Y-79502000D01*
X130683000Y-83947000D02*
X128651000Y-81915000D01*
X161925000Y-83947000D02*
X130683000Y-83947000D01*
X162560000Y-83947000D02*
X161925000Y-83947000D01*
X128651000Y-81915000D02*
X128143000Y-81915000D01*
D27*
X128143000Y-81915000D02*
X110495080Y-81915000D01*
X110495080Y-81915000D02*
X109855000Y-82555080D01*
G04 #@! TO.N,/N$2*
X128143000Y-92075000D02*
X112903000Y-92075000D01*
X112903000Y-92075000D02*
X109855000Y-95123000D01*
X109855000Y-95123000D02*
X109855000Y-95752920D01*
G04 #@! TD*
D28*
G04 #@! TO.N,GND*
G36*
X187198000Y-39369743D02*
X187198000Y-132713403D01*
X177166587Y-132588010D01*
X177116399Y-132597667D01*
X177075197Y-132625197D01*
X177047667Y-132666399D01*
X177038000Y-132715000D01*
X177038000Y-141657000D01*
X70994355Y-141657000D01*
X71012581Y-137227955D01*
X85741000Y-137227955D01*
X85741000Y-139124046D01*
X85850603Y-139675051D01*
X86268108Y-140299893D01*
X86892950Y-140717398D01*
X87630000Y-140864007D01*
X88367051Y-140717398D01*
X88900001Y-140361293D01*
X89432950Y-140717398D01*
X90170000Y-140864007D01*
X90907051Y-140717398D01*
X91440001Y-140361293D01*
X91972950Y-140717398D01*
X92710000Y-140864007D01*
X93447051Y-140717398D01*
X93980001Y-140361293D01*
X94512950Y-140717398D01*
X95250000Y-140864007D01*
X95987051Y-140717398D01*
X96520001Y-140361293D01*
X97052950Y-140717398D01*
X97790000Y-140864007D01*
X98527051Y-140717398D01*
X99060001Y-140361293D01*
X99592950Y-140717398D01*
X100330000Y-140864007D01*
X101067051Y-140717398D01*
X101600001Y-140361293D01*
X102132950Y-140717398D01*
X102870000Y-140864007D01*
X103607051Y-140717398D01*
X104140001Y-140361293D01*
X104672950Y-140717398D01*
X105410000Y-140864007D01*
X106147051Y-140717398D01*
X106680001Y-140361293D01*
X107212950Y-140717398D01*
X107950000Y-140864007D01*
X108687051Y-140717398D01*
X109220001Y-140361293D01*
X109752950Y-140717398D01*
X110490000Y-140864007D01*
X111227051Y-140717398D01*
X111760001Y-140361293D01*
X112292950Y-140717398D01*
X113030000Y-140864007D01*
X113767051Y-140717398D01*
X114300001Y-140361293D01*
X114832950Y-140717398D01*
X115570000Y-140864007D01*
X116307051Y-140717398D01*
X116840001Y-140361293D01*
X117372950Y-140717398D01*
X118110000Y-140864007D01*
X118847051Y-140717398D01*
X119380001Y-140361293D01*
X119912950Y-140717398D01*
X120650000Y-140864007D01*
X121387051Y-140717398D01*
X121920001Y-140361293D01*
X122452950Y-140717398D01*
X123190000Y-140864007D01*
X123927051Y-140717398D01*
X124460001Y-140361293D01*
X124992950Y-140717398D01*
X125730000Y-140864007D01*
X126467051Y-140717398D01*
X127000001Y-140361293D01*
X127532950Y-140717398D01*
X128270000Y-140864007D01*
X129007051Y-140717398D01*
X129540001Y-140361293D01*
X130072950Y-140717398D01*
X130810000Y-140864007D01*
X131547051Y-140717398D01*
X132080001Y-140361293D01*
X132612950Y-140717398D01*
X133350000Y-140864007D01*
X134087051Y-140717398D01*
X134711893Y-140299893D01*
X135129398Y-139675051D01*
X135239000Y-139124046D01*
X135239000Y-137227954D01*
X135129398Y-136676949D01*
X134711893Y-136052107D01*
X134087050Y-135634602D01*
X133350000Y-135487993D01*
X132612949Y-135634602D01*
X132080000Y-135990706D01*
X131547050Y-135634602D01*
X130810000Y-135487993D01*
X130072949Y-135634602D01*
X129540000Y-135990706D01*
X129007050Y-135634602D01*
X128270000Y-135487993D01*
X127532949Y-135634602D01*
X127000000Y-135990706D01*
X126467050Y-135634602D01*
X125730000Y-135487993D01*
X124992949Y-135634602D01*
X124460000Y-135990706D01*
X123927050Y-135634602D01*
X123190000Y-135487993D01*
X122452949Y-135634602D01*
X121920000Y-135990706D01*
X121387050Y-135634602D01*
X120650000Y-135487993D01*
X119912949Y-135634602D01*
X119380000Y-135990706D01*
X118847050Y-135634602D01*
X118110000Y-135487993D01*
X117372949Y-135634602D01*
X116840000Y-135990706D01*
X116307050Y-135634602D01*
X115570000Y-135487993D01*
X114832949Y-135634602D01*
X114300000Y-135990706D01*
X113767050Y-135634602D01*
X113030000Y-135487993D01*
X112292949Y-135634602D01*
X111760000Y-135990706D01*
X111227050Y-135634602D01*
X110490000Y-135487993D01*
X109752949Y-135634602D01*
X109220000Y-135990706D01*
X108687050Y-135634602D01*
X107950000Y-135487993D01*
X107212949Y-135634602D01*
X106680000Y-135990706D01*
X106147050Y-135634602D01*
X105410000Y-135487993D01*
X104672949Y-135634602D01*
X104140000Y-135990706D01*
X103607050Y-135634602D01*
X102870000Y-135487993D01*
X102132949Y-135634602D01*
X101600000Y-135990706D01*
X101067050Y-135634602D01*
X100330000Y-135487993D01*
X99592949Y-135634602D01*
X99060000Y-135990706D01*
X98527050Y-135634602D01*
X97790000Y-135487993D01*
X97052949Y-135634602D01*
X96520000Y-135990706D01*
X95987050Y-135634602D01*
X95250000Y-135487993D01*
X94512949Y-135634602D01*
X93980000Y-135990706D01*
X93447050Y-135634602D01*
X92710000Y-135487993D01*
X91972949Y-135634602D01*
X91440000Y-135990706D01*
X90907050Y-135634602D01*
X90170000Y-135487993D01*
X89432949Y-135634602D01*
X88900000Y-135990706D01*
X88367050Y-135634602D01*
X87630000Y-135487993D01*
X86892949Y-135634602D01*
X86268107Y-136052107D01*
X85850602Y-136676950D01*
X85741000Y-137227955D01*
X71012581Y-137227955D01*
X71050425Y-128032000D01*
X72383921Y-128032000D01*
X72383921Y-130032000D01*
X72437627Y-130302000D01*
X72383921Y-130572000D01*
X72383921Y-132572000D01*
X72471389Y-133011733D01*
X72720478Y-133384522D01*
X73093267Y-133633611D01*
X73533000Y-133721079D01*
X75057000Y-133721079D01*
X75496733Y-133633611D01*
X75565000Y-133587997D01*
X75633267Y-133633611D01*
X76073000Y-133721079D01*
X77597000Y-133721079D01*
X78036733Y-133633611D01*
X78409522Y-133384522D01*
X78658611Y-133011733D01*
X78746079Y-132572000D01*
X78746079Y-130572000D01*
X78692373Y-130302000D01*
X78746079Y-130032000D01*
X78746079Y-128032000D01*
X78658611Y-127592267D01*
X78409522Y-127219478D01*
X78036733Y-126970389D01*
X77597000Y-126882921D01*
X76073000Y-126882921D01*
X75633267Y-126970389D01*
X75565000Y-127016003D01*
X75496733Y-126970389D01*
X75057000Y-126882921D01*
X73533000Y-126882921D01*
X73093267Y-126970389D01*
X72720478Y-127219478D01*
X72471389Y-127592267D01*
X72383921Y-128032000D01*
X71050425Y-128032000D01*
X71078766Y-121145070D01*
X142033750Y-121145070D01*
X142033750Y-122694931D01*
X142134141Y-123199630D01*
X142516561Y-123771960D01*
X143088891Y-124154379D01*
X143764000Y-124288667D01*
X144439110Y-124154379D01*
X145011440Y-123771960D01*
X145393859Y-123199630D01*
X145494250Y-122694931D01*
X145494250Y-121145069D01*
X145393859Y-120640370D01*
X145011440Y-120068040D01*
X144439109Y-119685621D01*
X143764000Y-119551333D01*
X143088890Y-119685621D01*
X142516560Y-120068040D01*
X142134141Y-120640371D01*
X142033750Y-121145070D01*
X71078766Y-121145070D01*
X71119479Y-111252000D01*
X85867273Y-111252000D01*
X85850602Y-111276950D01*
X85741000Y-111827955D01*
X85741000Y-113724046D01*
X85850603Y-114275051D01*
X86268108Y-114899893D01*
X86892950Y-115317398D01*
X87630000Y-115464007D01*
X88367051Y-115317398D01*
X88900001Y-114961293D01*
X89432950Y-115317398D01*
X90170000Y-115464007D01*
X90907051Y-115317398D01*
X91440001Y-114961293D01*
X91972950Y-115317398D01*
X92710000Y-115464007D01*
X93447051Y-115317398D01*
X93980001Y-114961293D01*
X94512950Y-115317398D01*
X95250000Y-115464007D01*
X95987051Y-115317398D01*
X96520001Y-114961293D01*
X97052950Y-115317398D01*
X97790000Y-115464007D01*
X98527051Y-115317398D01*
X99060001Y-114961293D01*
X99592950Y-115317398D01*
X100330000Y-115464007D01*
X101067051Y-115317398D01*
X101600001Y-114961293D01*
X102132950Y-115317398D01*
X102870000Y-115464007D01*
X103607051Y-115317398D01*
X104140001Y-114961293D01*
X104672950Y-115317398D01*
X105410000Y-115464007D01*
X106147051Y-115317398D01*
X106680001Y-114961293D01*
X107212950Y-115317398D01*
X107950000Y-115464007D01*
X108687051Y-115317398D01*
X109220001Y-114961293D01*
X109752950Y-115317398D01*
X110490000Y-115464007D01*
X111227051Y-115317398D01*
X111760001Y-114961293D01*
X112292950Y-115317398D01*
X113030000Y-115464007D01*
X113767051Y-115317398D01*
X114300001Y-114961293D01*
X114832950Y-115317398D01*
X115570000Y-115464007D01*
X116307051Y-115317398D01*
X116840001Y-114961293D01*
X117372950Y-115317398D01*
X118110000Y-115464007D01*
X118847051Y-115317398D01*
X119380001Y-114961293D01*
X119912950Y-115317398D01*
X120650000Y-115464007D01*
X121387051Y-115317398D01*
X121920001Y-114961293D01*
X122452950Y-115317398D01*
X123190000Y-115464007D01*
X123927051Y-115317398D01*
X124460001Y-114961293D01*
X124992950Y-115317398D01*
X125730000Y-115464007D01*
X126467051Y-115317398D01*
X127000001Y-114961293D01*
X127532950Y-115317398D01*
X128270000Y-115464007D01*
X129007051Y-115317398D01*
X129540001Y-114961293D01*
X130072950Y-115317398D01*
X130810000Y-115464007D01*
X131547051Y-115317398D01*
X132080001Y-114961293D01*
X132612950Y-115317398D01*
X133350000Y-115464007D01*
X134087051Y-115317398D01*
X134711893Y-114899893D01*
X135129398Y-114275051D01*
X135239000Y-113724046D01*
X135239000Y-113525070D01*
X142033750Y-113525070D01*
X142033750Y-115074931D01*
X142134141Y-115579630D01*
X142516561Y-116151960D01*
X143088891Y-116534379D01*
X143764000Y-116668667D01*
X144439110Y-116534379D01*
X145011440Y-116151960D01*
X145393859Y-115579630D01*
X145494250Y-115074931D01*
X145494250Y-113525069D01*
X145393859Y-113020370D01*
X145011440Y-112448040D01*
X144439109Y-112065621D01*
X143764000Y-111931333D01*
X143088890Y-112065621D01*
X142516560Y-112448040D01*
X142134141Y-113020371D01*
X142033750Y-113525070D01*
X135239000Y-113525070D01*
X135239000Y-111827954D01*
X135129398Y-111276949D01*
X134711893Y-110652107D01*
X134087050Y-110234602D01*
X133350000Y-110087993D01*
X132612949Y-110234602D01*
X132080000Y-110590706D01*
X131547050Y-110234602D01*
X130810000Y-110087993D01*
X130072949Y-110234602D01*
X129540000Y-110590706D01*
X129007050Y-110234602D01*
X128270000Y-110087993D01*
X127532949Y-110234602D01*
X127000000Y-110590706D01*
X126467050Y-110234602D01*
X125730000Y-110087993D01*
X124992949Y-110234602D01*
X124588098Y-110505114D01*
X124591034Y-108846023D01*
X142010890Y-108846023D01*
X142010890Y-109593977D01*
X142297119Y-110284997D01*
X142826003Y-110813881D01*
X143517023Y-111100110D01*
X144264977Y-111100110D01*
X144955997Y-110813881D01*
X145484881Y-110284997D01*
X145771110Y-109593977D01*
X145771110Y-108846023D01*
X145484881Y-108155003D01*
X144955997Y-107626119D01*
X144264977Y-107339890D01*
X143517023Y-107339890D01*
X142826003Y-107626119D01*
X142297119Y-108155003D01*
X142010890Y-108846023D01*
X124591034Y-108846023D01*
X124618280Y-93452000D01*
X126740787Y-93452000D01*
X127029803Y-93741016D01*
X127752097Y-94040200D01*
X128533903Y-94040200D01*
X129256197Y-93741016D01*
X129809016Y-93188197D01*
X130108200Y-92465903D01*
X130108200Y-91684097D01*
X129809016Y-90961803D01*
X129256197Y-90408984D01*
X128533903Y-90109800D01*
X127752097Y-90109800D01*
X127029803Y-90408984D01*
X126740787Y-90698000D01*
X124623154Y-90698000D01*
X124636262Y-83292000D01*
X126740787Y-83292000D01*
X127029803Y-83581016D01*
X127752097Y-83880200D01*
X128315276Y-83880200D01*
X129419228Y-84984153D01*
X129509999Y-85120001D01*
X130048176Y-85479600D01*
X130522758Y-85574000D01*
X130522762Y-85574000D01*
X130683000Y-85605873D01*
X130843238Y-85574000D01*
X155067000Y-85574000D01*
X155067000Y-131469000D01*
X144909548Y-131469000D01*
X144361522Y-131242000D01*
X143674478Y-131242000D01*
X143039733Y-131504920D01*
X142553920Y-131990733D01*
X142291000Y-132625478D01*
X142291000Y-133312522D01*
X142553920Y-133947267D01*
X143039733Y-134433080D01*
X143507593Y-134626874D01*
X143510176Y-134628600D01*
X143513223Y-134629206D01*
X143674478Y-134696000D01*
X143849020Y-134696000D01*
X143984758Y-134723000D01*
X143984761Y-134723000D01*
X144144999Y-134754873D01*
X144305237Y-134723000D01*
X157319762Y-134723000D01*
X157480000Y-134754873D01*
X157640238Y-134723000D01*
X157640242Y-134723000D01*
X158114824Y-134628600D01*
X158653001Y-134269001D01*
X158743773Y-134133151D01*
X159994845Y-132882080D01*
X160020000Y-132871661D01*
X160020000Y-133223000D01*
X160029667Y-133271601D01*
X160057197Y-133312803D01*
X160098399Y-133340333D01*
X160147000Y-133350000D01*
X162179000Y-133350000D01*
X162227601Y-133340333D01*
X162268803Y-133312803D01*
X162296333Y-133271601D01*
X162306000Y-133223000D01*
X162306000Y-133045000D01*
X162776522Y-133045000D01*
X163411267Y-132782080D01*
X163732347Y-132461000D01*
X166243000Y-132461000D01*
X166291601Y-132451333D01*
X166332803Y-132423803D01*
X166360333Y-132382601D01*
X166370000Y-132334000D01*
X166370000Y-112903000D01*
X174730993Y-112903000D01*
X174877602Y-113640051D01*
X175233706Y-114173000D01*
X174877602Y-114705949D01*
X174730993Y-115443000D01*
X174877602Y-116180051D01*
X175233706Y-116713000D01*
X174877602Y-117245949D01*
X174730993Y-117983000D01*
X174877602Y-118720051D01*
X175233706Y-119253000D01*
X174877602Y-119785949D01*
X174730993Y-120523000D01*
X174877602Y-121260051D01*
X175233706Y-121793000D01*
X174877602Y-122325949D01*
X174730993Y-123063000D01*
X174877602Y-123800051D01*
X175233706Y-124333000D01*
X174877602Y-124865949D01*
X174730993Y-125603000D01*
X174877602Y-126340051D01*
X175295107Y-126964893D01*
X175919949Y-127382398D01*
X176470954Y-127492000D01*
X178367046Y-127492000D01*
X178918051Y-127382398D01*
X179542893Y-126964893D01*
X179960398Y-126340051D01*
X180107007Y-125603000D01*
X179960398Y-124865949D01*
X179604294Y-124333000D01*
X179960398Y-123800051D01*
X180107007Y-123063000D01*
X179960398Y-122325949D01*
X179604294Y-121793000D01*
X179960398Y-121260051D01*
X180107007Y-120523000D01*
X179960398Y-119785949D01*
X179604294Y-119253000D01*
X179960398Y-118720051D01*
X180107007Y-117983000D01*
X179960398Y-117245949D01*
X179604294Y-116713000D01*
X179960398Y-116180051D01*
X180107007Y-115443000D01*
X179960398Y-114705949D01*
X179604294Y-114173000D01*
X179960398Y-113640051D01*
X180107007Y-112903000D01*
X179960398Y-112165949D01*
X179542893Y-111541107D01*
X178918051Y-111123602D01*
X178367046Y-111014000D01*
X176470954Y-111014000D01*
X175919949Y-111123602D01*
X175295107Y-111541107D01*
X174877602Y-112165949D01*
X174730993Y-112903000D01*
X166370000Y-112903000D01*
X166370000Y-85574000D01*
X176352812Y-85574000D01*
X175919949Y-85660102D01*
X175295107Y-86077607D01*
X174877602Y-86702449D01*
X174730993Y-87439500D01*
X174877602Y-88176551D01*
X175233706Y-88709500D01*
X174877602Y-89242449D01*
X174730993Y-89979500D01*
X174877602Y-90716551D01*
X175233706Y-91249500D01*
X174877602Y-91782449D01*
X174730993Y-92519500D01*
X174877602Y-93256551D01*
X175233706Y-93789500D01*
X174877602Y-94322449D01*
X174730993Y-95059500D01*
X174877602Y-95796551D01*
X175233706Y-96329500D01*
X174877602Y-96862449D01*
X174730993Y-97599500D01*
X174877602Y-98336551D01*
X175233706Y-98869500D01*
X174877602Y-99402449D01*
X174730993Y-100139500D01*
X174877602Y-100876551D01*
X175295107Y-101501393D01*
X175919949Y-101918898D01*
X176470954Y-102028500D01*
X178367046Y-102028500D01*
X178918051Y-101918898D01*
X179542893Y-101501393D01*
X179960398Y-100876551D01*
X180107007Y-100139500D01*
X179960398Y-99402449D01*
X179604294Y-98869500D01*
X179960398Y-98336551D01*
X180107007Y-97599500D01*
X179960398Y-96862449D01*
X179604294Y-96329500D01*
X179960398Y-95796551D01*
X180107007Y-95059500D01*
X179960398Y-94322449D01*
X179604294Y-93789500D01*
X179960398Y-93256551D01*
X180107007Y-92519500D01*
X179960398Y-91782449D01*
X179604294Y-91249500D01*
X179960398Y-90716551D01*
X180107007Y-89979500D01*
X179960398Y-89242449D01*
X179604294Y-88709500D01*
X179960398Y-88176551D01*
X180107007Y-87439500D01*
X179960398Y-86702449D01*
X179542893Y-86077607D01*
X178918051Y-85660102D01*
X178476715Y-85572315D01*
X178942824Y-85479600D01*
X179481001Y-85120001D01*
X179571774Y-84984150D01*
X183790153Y-80765772D01*
X183926001Y-80675001D01*
X184285600Y-80136824D01*
X184380000Y-79662242D01*
X184380000Y-79662239D01*
X184411873Y-79502001D01*
X184380000Y-79341763D01*
X184380000Y-74371943D01*
X184480000Y-74130522D01*
X184480000Y-73443478D01*
X184217080Y-72808733D01*
X183731267Y-72322920D01*
X183096522Y-72060000D01*
X182409478Y-72060000D01*
X181774733Y-72322920D01*
X181288920Y-72808733D01*
X181026000Y-73443478D01*
X181026000Y-74130522D01*
X181126000Y-74371944D01*
X181126001Y-78828074D01*
X177634076Y-82320000D01*
X162720242Y-82320000D01*
X162560000Y-82288126D01*
X162399758Y-82320000D01*
X131356925Y-82320000D01*
X129914773Y-80877849D01*
X129824001Y-80741999D01*
X129598611Y-80591398D01*
X129256197Y-80248984D01*
X128533903Y-79949800D01*
X127752097Y-79949800D01*
X127029803Y-80248984D01*
X126740787Y-80538000D01*
X124641137Y-80538000D01*
X124644980Y-78366023D01*
X142010890Y-78366023D01*
X142010890Y-79113977D01*
X142297119Y-79804997D01*
X142826003Y-80333881D01*
X143517023Y-80620110D01*
X144264977Y-80620110D01*
X144955997Y-80333881D01*
X145484881Y-79804997D01*
X145771110Y-79113977D01*
X145771110Y-78366023D01*
X145484881Y-77675003D01*
X144955997Y-77146119D01*
X144264977Y-76859890D01*
X143517023Y-76859890D01*
X142826003Y-77146119D01*
X142297119Y-77675003D01*
X142010890Y-78366023D01*
X124644980Y-78366023D01*
X124652523Y-74104500D01*
X132645421Y-74104500D01*
X132645421Y-75755500D01*
X132732889Y-76195233D01*
X132981978Y-76568022D01*
X133354767Y-76817111D01*
X133794500Y-76904579D01*
X135445500Y-76904579D01*
X135885233Y-76817111D01*
X136258022Y-76568022D01*
X136507111Y-76195233D01*
X136594579Y-75755500D01*
X136594579Y-74104500D01*
X136507111Y-73664767D01*
X136258022Y-73291978D01*
X135926964Y-73070773D01*
X136092340Y-72612869D01*
X136065553Y-72032465D01*
X135894976Y-71620656D01*
X135646215Y-71543390D01*
X134799605Y-72390000D01*
X134813748Y-72404143D01*
X134634143Y-72583748D01*
X134620000Y-72569605D01*
X134605858Y-72583748D01*
X134426253Y-72404143D01*
X134440395Y-72390000D01*
X133593785Y-71543390D01*
X133345024Y-71620656D01*
X133147660Y-72167131D01*
X133174447Y-72747535D01*
X133309355Y-73073232D01*
X132981978Y-73291978D01*
X132732889Y-73664767D01*
X132645421Y-74104500D01*
X124652523Y-74104500D01*
X124657373Y-71363785D01*
X133773390Y-71363785D01*
X134620000Y-72210395D01*
X135466610Y-71363785D01*
X135389344Y-71115024D01*
X134842869Y-70917660D01*
X134262465Y-70944447D01*
X133850656Y-71115024D01*
X133773390Y-71363785D01*
X124657373Y-71363785D01*
X124662479Y-68478400D01*
X172618314Y-68478400D01*
X172782665Y-69304646D01*
X173250696Y-70005104D01*
X173951154Y-70473135D01*
X174568836Y-70596000D01*
X176967164Y-70596000D01*
X177584846Y-70473135D01*
X178285304Y-70005104D01*
X178753335Y-69304646D01*
X178917686Y-68478400D01*
X178753335Y-67652154D01*
X178285304Y-66951696D01*
X177584846Y-66483665D01*
X176967164Y-66360800D01*
X174568836Y-66360800D01*
X173951154Y-66483665D01*
X173250696Y-66951696D01*
X172782665Y-67652154D01*
X172618314Y-68478400D01*
X124662479Y-68478400D01*
X124668351Y-65161215D01*
X139488390Y-65161215D01*
X139565656Y-65409976D01*
X140112131Y-65607340D01*
X140692535Y-65580553D01*
X141104344Y-65409976D01*
X141181610Y-65161215D01*
X140335000Y-64314605D01*
X139488390Y-65161215D01*
X124668351Y-65161215D01*
X124676124Y-60769500D01*
X138360421Y-60769500D01*
X138360421Y-62420500D01*
X138447889Y-62860233D01*
X138696978Y-63233022D01*
X139028036Y-63454227D01*
X138862660Y-63912131D01*
X138889447Y-64492535D01*
X139060024Y-64904344D01*
X139308785Y-64981610D01*
X140155395Y-64135000D01*
X140141253Y-64120858D01*
X140320858Y-63941253D01*
X140335000Y-63955395D01*
X140349143Y-63941253D01*
X140528748Y-64120858D01*
X140514605Y-64135000D01*
X141361215Y-64981610D01*
X141609976Y-64904344D01*
X141807340Y-64357869D01*
X141780553Y-63777465D01*
X141645645Y-63451768D01*
X141973022Y-63233022D01*
X142222111Y-62860233D01*
X142309579Y-62420500D01*
X142309579Y-60769500D01*
X142222111Y-60329767D01*
X141973022Y-59956978D01*
X141600233Y-59707889D01*
X141160500Y-59620421D01*
X139509500Y-59620421D01*
X139069767Y-59707889D01*
X138696978Y-59956978D01*
X138447889Y-60329767D01*
X138360421Y-60769500D01*
X124676124Y-60769500D01*
X124685874Y-55260967D01*
X129022600Y-55260967D01*
X129022600Y-56214553D01*
X129387522Y-57095551D01*
X130061809Y-57769838D01*
X130942807Y-58134760D01*
X131896393Y-58134760D01*
X132777391Y-57769838D01*
X133451678Y-57095551D01*
X133601505Y-56733835D01*
X138877800Y-56733835D01*
X138877800Y-57566165D01*
X139196318Y-58335136D01*
X139784864Y-58923682D01*
X140553835Y-59242200D01*
X141386165Y-59242200D01*
X142155136Y-58923682D01*
X142743682Y-58335136D01*
X143062200Y-57566165D01*
X143062200Y-56733835D01*
X143051841Y-56708826D01*
X148912070Y-56708826D01*
X148912070Y-57591174D01*
X149249730Y-58406357D01*
X149873643Y-59030270D01*
X150688826Y-59367930D01*
X151571174Y-59367930D01*
X152386357Y-59030270D01*
X153010270Y-58406357D01*
X153347930Y-57591174D01*
X153347930Y-56708826D01*
X156532070Y-56708826D01*
X156532070Y-57591174D01*
X156869730Y-58406357D01*
X157493643Y-59030270D01*
X158308826Y-59367930D01*
X159191174Y-59367930D01*
X160006357Y-59030270D01*
X160630270Y-58406357D01*
X160967930Y-57591174D01*
X160967930Y-56708826D01*
X160630270Y-55893643D01*
X160515027Y-55778400D01*
X172618314Y-55778400D01*
X172782665Y-56604646D01*
X173250696Y-57305104D01*
X173951154Y-57773135D01*
X174568836Y-57896000D01*
X176967164Y-57896000D01*
X177584846Y-57773135D01*
X178285304Y-57305104D01*
X178753335Y-56604646D01*
X178917686Y-55778400D01*
X178753335Y-54952154D01*
X178285304Y-54251696D01*
X177584846Y-53783665D01*
X176967164Y-53660800D01*
X174568836Y-53660800D01*
X173951154Y-53783665D01*
X173250696Y-54251696D01*
X172782665Y-54952154D01*
X172618314Y-55778400D01*
X160515027Y-55778400D01*
X160006357Y-55269730D01*
X159191174Y-54932070D01*
X158308826Y-54932070D01*
X157493643Y-55269730D01*
X156869730Y-55893643D01*
X156532070Y-56708826D01*
X153347930Y-56708826D01*
X153010270Y-55893643D01*
X152386357Y-55269730D01*
X151571174Y-54932070D01*
X150688826Y-54932070D01*
X149873643Y-55269730D01*
X149249730Y-55893643D01*
X148912070Y-56708826D01*
X143051841Y-56708826D01*
X142743682Y-55964864D01*
X142155136Y-55376318D01*
X141386165Y-55057800D01*
X140553835Y-55057800D01*
X139784864Y-55376318D01*
X139196318Y-55964864D01*
X138877800Y-56733835D01*
X133601505Y-56733835D01*
X133816600Y-56214553D01*
X133816600Y-55260967D01*
X133451678Y-54379969D01*
X132777391Y-53705682D01*
X131896393Y-53340760D01*
X130942807Y-53340760D01*
X130061809Y-53705682D01*
X129387522Y-54379969D01*
X129022600Y-55260967D01*
X124685874Y-55260967D01*
X124696754Y-49113835D01*
X138877800Y-49113835D01*
X138877800Y-49946165D01*
X139196318Y-50715136D01*
X139784864Y-51303682D01*
X140553835Y-51622200D01*
X141386165Y-51622200D01*
X142155136Y-51303682D01*
X142743682Y-50715136D01*
X143062200Y-49946165D01*
X143062200Y-49113835D01*
X143051841Y-49088826D01*
X153992070Y-49088826D01*
X153992070Y-49971174D01*
X154329730Y-50786357D01*
X154953643Y-51410270D01*
X155768826Y-51747930D01*
X156651174Y-51747930D01*
X157466357Y-51410270D01*
X158090270Y-50786357D01*
X158427930Y-49971174D01*
X158427930Y-49088826D01*
X158090270Y-48273643D01*
X157466357Y-47649730D01*
X156651174Y-47312070D01*
X155768826Y-47312070D01*
X154953643Y-47649730D01*
X154329730Y-48273643D01*
X153992070Y-49088826D01*
X143051841Y-49088826D01*
X142743682Y-48344864D01*
X142155136Y-47756318D01*
X141672172Y-47556268D01*
X142083197Y-47386016D01*
X142636016Y-46833197D01*
X142935200Y-46110903D01*
X142935200Y-45329097D01*
X149164800Y-45329097D01*
X149164800Y-46110903D01*
X149463984Y-46833197D01*
X150016803Y-47386016D01*
X150739097Y-47685200D01*
X151520903Y-47685200D01*
X152243197Y-47386016D01*
X152796016Y-46833197D01*
X153095200Y-46110903D01*
X153095200Y-45329097D01*
X152796016Y-44606803D01*
X152243197Y-44053984D01*
X151520903Y-43754800D01*
X150739097Y-43754800D01*
X150016803Y-44053984D01*
X149463984Y-44606803D01*
X149164800Y-45329097D01*
X142935200Y-45329097D01*
X142636016Y-44606803D01*
X142083197Y-44053984D01*
X141360903Y-43754800D01*
X140579097Y-43754800D01*
X139856803Y-44053984D01*
X139303984Y-44606803D01*
X139004800Y-45329097D01*
X139004800Y-46110903D01*
X139303984Y-46833197D01*
X139856803Y-47386016D01*
X140267828Y-47556268D01*
X139784864Y-47756318D01*
X139196318Y-48344864D01*
X138877800Y-49113835D01*
X124696754Y-49113835D01*
X124707436Y-43078400D01*
X172618314Y-43078400D01*
X172782665Y-43904646D01*
X173250696Y-44605104D01*
X173951154Y-45073135D01*
X174568836Y-45196000D01*
X176967164Y-45196000D01*
X177584846Y-45073135D01*
X178285304Y-44605104D01*
X178753335Y-43904646D01*
X178917686Y-43078400D01*
X178753335Y-42252154D01*
X178285304Y-41551696D01*
X177584846Y-41083665D01*
X176967164Y-40960800D01*
X174568836Y-40960800D01*
X173951154Y-41083665D01*
X173250696Y-41551696D01*
X172782665Y-42252154D01*
X172618314Y-43078400D01*
X124707436Y-43078400D01*
X124714000Y-39370225D01*
X124714000Y-39243258D01*
X187198000Y-39369743D01*
X187198000Y-39369743D01*
G37*
X187198000Y-39369743D02*
X187198000Y-132713403D01*
X177166587Y-132588010D01*
X177116399Y-132597667D01*
X177075197Y-132625197D01*
X177047667Y-132666399D01*
X177038000Y-132715000D01*
X177038000Y-141657000D01*
X70994355Y-141657000D01*
X71012581Y-137227955D01*
X85741000Y-137227955D01*
X85741000Y-139124046D01*
X85850603Y-139675051D01*
X86268108Y-140299893D01*
X86892950Y-140717398D01*
X87630000Y-140864007D01*
X88367051Y-140717398D01*
X88900001Y-140361293D01*
X89432950Y-140717398D01*
X90170000Y-140864007D01*
X90907051Y-140717398D01*
X91440001Y-140361293D01*
X91972950Y-140717398D01*
X92710000Y-140864007D01*
X93447051Y-140717398D01*
X93980001Y-140361293D01*
X94512950Y-140717398D01*
X95250000Y-140864007D01*
X95987051Y-140717398D01*
X96520001Y-140361293D01*
X97052950Y-140717398D01*
X97790000Y-140864007D01*
X98527051Y-140717398D01*
X99060001Y-140361293D01*
X99592950Y-140717398D01*
X100330000Y-140864007D01*
X101067051Y-140717398D01*
X101600001Y-140361293D01*
X102132950Y-140717398D01*
X102870000Y-140864007D01*
X103607051Y-140717398D01*
X104140001Y-140361293D01*
X104672950Y-140717398D01*
X105410000Y-140864007D01*
X106147051Y-140717398D01*
X106680001Y-140361293D01*
X107212950Y-140717398D01*
X107950000Y-140864007D01*
X108687051Y-140717398D01*
X109220001Y-140361293D01*
X109752950Y-140717398D01*
X110490000Y-140864007D01*
X111227051Y-140717398D01*
X111760001Y-140361293D01*
X112292950Y-140717398D01*
X113030000Y-140864007D01*
X113767051Y-140717398D01*
X114300001Y-140361293D01*
X114832950Y-140717398D01*
X115570000Y-140864007D01*
X116307051Y-140717398D01*
X116840001Y-140361293D01*
X117372950Y-140717398D01*
X118110000Y-140864007D01*
X118847051Y-140717398D01*
X119380001Y-140361293D01*
X119912950Y-140717398D01*
X120650000Y-140864007D01*
X121387051Y-140717398D01*
X121920001Y-140361293D01*
X122452950Y-140717398D01*
X123190000Y-140864007D01*
X123927051Y-140717398D01*
X124460001Y-140361293D01*
X124992950Y-140717398D01*
X125730000Y-140864007D01*
X126467051Y-140717398D01*
X127000001Y-140361293D01*
X127532950Y-140717398D01*
X128270000Y-140864007D01*
X129007051Y-140717398D01*
X129540001Y-140361293D01*
X130072950Y-140717398D01*
X130810000Y-140864007D01*
X131547051Y-140717398D01*
X132080001Y-140361293D01*
X132612950Y-140717398D01*
X133350000Y-140864007D01*
X134087051Y-140717398D01*
X134711893Y-140299893D01*
X135129398Y-139675051D01*
X135239000Y-139124046D01*
X135239000Y-137227954D01*
X135129398Y-136676949D01*
X134711893Y-136052107D01*
X134087050Y-135634602D01*
X133350000Y-135487993D01*
X132612949Y-135634602D01*
X132080000Y-135990706D01*
X131547050Y-135634602D01*
X130810000Y-135487993D01*
X130072949Y-135634602D01*
X129540000Y-135990706D01*
X129007050Y-135634602D01*
X128270000Y-135487993D01*
X127532949Y-135634602D01*
X127000000Y-135990706D01*
X126467050Y-135634602D01*
X125730000Y-135487993D01*
X124992949Y-135634602D01*
X124460000Y-135990706D01*
X123927050Y-135634602D01*
X123190000Y-135487993D01*
X122452949Y-135634602D01*
X121920000Y-135990706D01*
X121387050Y-135634602D01*
X120650000Y-135487993D01*
X119912949Y-135634602D01*
X119380000Y-135990706D01*
X118847050Y-135634602D01*
X118110000Y-135487993D01*
X117372949Y-135634602D01*
X116840000Y-135990706D01*
X116307050Y-135634602D01*
X115570000Y-135487993D01*
X114832949Y-135634602D01*
X114300000Y-135990706D01*
X113767050Y-135634602D01*
X113030000Y-135487993D01*
X112292949Y-135634602D01*
X111760000Y-135990706D01*
X111227050Y-135634602D01*
X110490000Y-135487993D01*
X109752949Y-135634602D01*
X109220000Y-135990706D01*
X108687050Y-135634602D01*
X107950000Y-135487993D01*
X107212949Y-135634602D01*
X106680000Y-135990706D01*
X106147050Y-135634602D01*
X105410000Y-135487993D01*
X104672949Y-135634602D01*
X104140000Y-135990706D01*
X103607050Y-135634602D01*
X102870000Y-135487993D01*
X102132949Y-135634602D01*
X101600000Y-135990706D01*
X101067050Y-135634602D01*
X100330000Y-135487993D01*
X99592949Y-135634602D01*
X99060000Y-135990706D01*
X98527050Y-135634602D01*
X97790000Y-135487993D01*
X97052949Y-135634602D01*
X96520000Y-135990706D01*
X95987050Y-135634602D01*
X95250000Y-135487993D01*
X94512949Y-135634602D01*
X93980000Y-135990706D01*
X93447050Y-135634602D01*
X92710000Y-135487993D01*
X91972949Y-135634602D01*
X91440000Y-135990706D01*
X90907050Y-135634602D01*
X90170000Y-135487993D01*
X89432949Y-135634602D01*
X88900000Y-135990706D01*
X88367050Y-135634602D01*
X87630000Y-135487993D01*
X86892949Y-135634602D01*
X86268107Y-136052107D01*
X85850602Y-136676950D01*
X85741000Y-137227955D01*
X71012581Y-137227955D01*
X71050425Y-128032000D01*
X72383921Y-128032000D01*
X72383921Y-130032000D01*
X72437627Y-130302000D01*
X72383921Y-130572000D01*
X72383921Y-132572000D01*
X72471389Y-133011733D01*
X72720478Y-133384522D01*
X73093267Y-133633611D01*
X73533000Y-133721079D01*
X75057000Y-133721079D01*
X75496733Y-133633611D01*
X75565000Y-133587997D01*
X75633267Y-133633611D01*
X76073000Y-133721079D01*
X77597000Y-133721079D01*
X78036733Y-133633611D01*
X78409522Y-133384522D01*
X78658611Y-133011733D01*
X78746079Y-132572000D01*
X78746079Y-130572000D01*
X78692373Y-130302000D01*
X78746079Y-130032000D01*
X78746079Y-128032000D01*
X78658611Y-127592267D01*
X78409522Y-127219478D01*
X78036733Y-126970389D01*
X77597000Y-126882921D01*
X76073000Y-126882921D01*
X75633267Y-126970389D01*
X75565000Y-127016003D01*
X75496733Y-126970389D01*
X75057000Y-126882921D01*
X73533000Y-126882921D01*
X73093267Y-126970389D01*
X72720478Y-127219478D01*
X72471389Y-127592267D01*
X72383921Y-128032000D01*
X71050425Y-128032000D01*
X71078766Y-121145070D01*
X142033750Y-121145070D01*
X142033750Y-122694931D01*
X142134141Y-123199630D01*
X142516561Y-123771960D01*
X143088891Y-124154379D01*
X143764000Y-124288667D01*
X144439110Y-124154379D01*
X145011440Y-123771960D01*
X145393859Y-123199630D01*
X145494250Y-122694931D01*
X145494250Y-121145069D01*
X145393859Y-120640370D01*
X145011440Y-120068040D01*
X144439109Y-119685621D01*
X143764000Y-119551333D01*
X143088890Y-119685621D01*
X142516560Y-120068040D01*
X142134141Y-120640371D01*
X142033750Y-121145070D01*
X71078766Y-121145070D01*
X71119479Y-111252000D01*
X85867273Y-111252000D01*
X85850602Y-111276950D01*
X85741000Y-111827955D01*
X85741000Y-113724046D01*
X85850603Y-114275051D01*
X86268108Y-114899893D01*
X86892950Y-115317398D01*
X87630000Y-115464007D01*
X88367051Y-115317398D01*
X88900001Y-114961293D01*
X89432950Y-115317398D01*
X90170000Y-115464007D01*
X90907051Y-115317398D01*
X91440001Y-114961293D01*
X91972950Y-115317398D01*
X92710000Y-115464007D01*
X93447051Y-115317398D01*
X93980001Y-114961293D01*
X94512950Y-115317398D01*
X95250000Y-115464007D01*
X95987051Y-115317398D01*
X96520001Y-114961293D01*
X97052950Y-115317398D01*
X97790000Y-115464007D01*
X98527051Y-115317398D01*
X99060001Y-114961293D01*
X99592950Y-115317398D01*
X100330000Y-115464007D01*
X101067051Y-115317398D01*
X101600001Y-114961293D01*
X102132950Y-115317398D01*
X102870000Y-115464007D01*
X103607051Y-115317398D01*
X104140001Y-114961293D01*
X104672950Y-115317398D01*
X105410000Y-115464007D01*
X106147051Y-115317398D01*
X106680001Y-114961293D01*
X107212950Y-115317398D01*
X107950000Y-115464007D01*
X108687051Y-115317398D01*
X109220001Y-114961293D01*
X109752950Y-115317398D01*
X110490000Y-115464007D01*
X111227051Y-115317398D01*
X111760001Y-114961293D01*
X112292950Y-115317398D01*
X113030000Y-115464007D01*
X113767051Y-115317398D01*
X114300001Y-114961293D01*
X114832950Y-115317398D01*
X115570000Y-115464007D01*
X116307051Y-115317398D01*
X116840001Y-114961293D01*
X117372950Y-115317398D01*
X118110000Y-115464007D01*
X118847051Y-115317398D01*
X119380001Y-114961293D01*
X119912950Y-115317398D01*
X120650000Y-115464007D01*
X121387051Y-115317398D01*
X121920001Y-114961293D01*
X122452950Y-115317398D01*
X123190000Y-115464007D01*
X123927051Y-115317398D01*
X124460001Y-114961293D01*
X124992950Y-115317398D01*
X125730000Y-115464007D01*
X126467051Y-115317398D01*
X127000001Y-114961293D01*
X127532950Y-115317398D01*
X128270000Y-115464007D01*
X129007051Y-115317398D01*
X129540001Y-114961293D01*
X130072950Y-115317398D01*
X130810000Y-115464007D01*
X131547051Y-115317398D01*
X132080001Y-114961293D01*
X132612950Y-115317398D01*
X133350000Y-115464007D01*
X134087051Y-115317398D01*
X134711893Y-114899893D01*
X135129398Y-114275051D01*
X135239000Y-113724046D01*
X135239000Y-113525070D01*
X142033750Y-113525070D01*
X142033750Y-115074931D01*
X142134141Y-115579630D01*
X142516561Y-116151960D01*
X143088891Y-116534379D01*
X143764000Y-116668667D01*
X144439110Y-116534379D01*
X145011440Y-116151960D01*
X145393859Y-115579630D01*
X145494250Y-115074931D01*
X145494250Y-113525069D01*
X145393859Y-113020370D01*
X145011440Y-112448040D01*
X144439109Y-112065621D01*
X143764000Y-111931333D01*
X143088890Y-112065621D01*
X142516560Y-112448040D01*
X142134141Y-113020371D01*
X142033750Y-113525070D01*
X135239000Y-113525070D01*
X135239000Y-111827954D01*
X135129398Y-111276949D01*
X134711893Y-110652107D01*
X134087050Y-110234602D01*
X133350000Y-110087993D01*
X132612949Y-110234602D01*
X132080000Y-110590706D01*
X131547050Y-110234602D01*
X130810000Y-110087993D01*
X130072949Y-110234602D01*
X129540000Y-110590706D01*
X129007050Y-110234602D01*
X128270000Y-110087993D01*
X127532949Y-110234602D01*
X127000000Y-110590706D01*
X126467050Y-110234602D01*
X125730000Y-110087993D01*
X124992949Y-110234602D01*
X124588098Y-110505114D01*
X124591034Y-108846023D01*
X142010890Y-108846023D01*
X142010890Y-109593977D01*
X142297119Y-110284997D01*
X142826003Y-110813881D01*
X143517023Y-111100110D01*
X144264977Y-111100110D01*
X144955997Y-110813881D01*
X145484881Y-110284997D01*
X145771110Y-109593977D01*
X145771110Y-108846023D01*
X145484881Y-108155003D01*
X144955997Y-107626119D01*
X144264977Y-107339890D01*
X143517023Y-107339890D01*
X142826003Y-107626119D01*
X142297119Y-108155003D01*
X142010890Y-108846023D01*
X124591034Y-108846023D01*
X124618280Y-93452000D01*
X126740787Y-93452000D01*
X127029803Y-93741016D01*
X127752097Y-94040200D01*
X128533903Y-94040200D01*
X129256197Y-93741016D01*
X129809016Y-93188197D01*
X130108200Y-92465903D01*
X130108200Y-91684097D01*
X129809016Y-90961803D01*
X129256197Y-90408984D01*
X128533903Y-90109800D01*
X127752097Y-90109800D01*
X127029803Y-90408984D01*
X126740787Y-90698000D01*
X124623154Y-90698000D01*
X124636262Y-83292000D01*
X126740787Y-83292000D01*
X127029803Y-83581016D01*
X127752097Y-83880200D01*
X128315276Y-83880200D01*
X129419228Y-84984153D01*
X129509999Y-85120001D01*
X130048176Y-85479600D01*
X130522758Y-85574000D01*
X130522762Y-85574000D01*
X130683000Y-85605873D01*
X130843238Y-85574000D01*
X155067000Y-85574000D01*
X155067000Y-131469000D01*
X144909548Y-131469000D01*
X144361522Y-131242000D01*
X143674478Y-131242000D01*
X143039733Y-131504920D01*
X142553920Y-131990733D01*
X142291000Y-132625478D01*
X142291000Y-133312522D01*
X142553920Y-133947267D01*
X143039733Y-134433080D01*
X143507593Y-134626874D01*
X143510176Y-134628600D01*
X143513223Y-134629206D01*
X143674478Y-134696000D01*
X143849020Y-134696000D01*
X143984758Y-134723000D01*
X143984761Y-134723000D01*
X144144999Y-134754873D01*
X144305237Y-134723000D01*
X157319762Y-134723000D01*
X157480000Y-134754873D01*
X157640238Y-134723000D01*
X157640242Y-134723000D01*
X158114824Y-134628600D01*
X158653001Y-134269001D01*
X158743773Y-134133151D01*
X159994845Y-132882080D01*
X160020000Y-132871661D01*
X160020000Y-133223000D01*
X160029667Y-133271601D01*
X160057197Y-133312803D01*
X160098399Y-133340333D01*
X160147000Y-133350000D01*
X162179000Y-133350000D01*
X162227601Y-133340333D01*
X162268803Y-133312803D01*
X162296333Y-133271601D01*
X162306000Y-133223000D01*
X162306000Y-133045000D01*
X162776522Y-133045000D01*
X163411267Y-132782080D01*
X163732347Y-132461000D01*
X166243000Y-132461000D01*
X166291601Y-132451333D01*
X166332803Y-132423803D01*
X166360333Y-132382601D01*
X166370000Y-132334000D01*
X166370000Y-112903000D01*
X174730993Y-112903000D01*
X174877602Y-113640051D01*
X175233706Y-114173000D01*
X174877602Y-114705949D01*
X174730993Y-115443000D01*
X174877602Y-116180051D01*
X175233706Y-116713000D01*
X174877602Y-117245949D01*
X174730993Y-117983000D01*
X174877602Y-118720051D01*
X175233706Y-119253000D01*
X174877602Y-119785949D01*
X174730993Y-120523000D01*
X174877602Y-121260051D01*
X175233706Y-121793000D01*
X174877602Y-122325949D01*
X174730993Y-123063000D01*
X174877602Y-123800051D01*
X175233706Y-124333000D01*
X174877602Y-124865949D01*
X174730993Y-125603000D01*
X174877602Y-126340051D01*
X175295107Y-126964893D01*
X175919949Y-127382398D01*
X176470954Y-127492000D01*
X178367046Y-127492000D01*
X178918051Y-127382398D01*
X179542893Y-126964893D01*
X179960398Y-126340051D01*
X180107007Y-125603000D01*
X179960398Y-124865949D01*
X179604294Y-124333000D01*
X179960398Y-123800051D01*
X180107007Y-123063000D01*
X179960398Y-122325949D01*
X179604294Y-121793000D01*
X179960398Y-121260051D01*
X180107007Y-120523000D01*
X179960398Y-119785949D01*
X179604294Y-119253000D01*
X179960398Y-118720051D01*
X180107007Y-117983000D01*
X179960398Y-117245949D01*
X179604294Y-116713000D01*
X179960398Y-116180051D01*
X180107007Y-115443000D01*
X179960398Y-114705949D01*
X179604294Y-114173000D01*
X179960398Y-113640051D01*
X180107007Y-112903000D01*
X179960398Y-112165949D01*
X179542893Y-111541107D01*
X178918051Y-111123602D01*
X178367046Y-111014000D01*
X176470954Y-111014000D01*
X175919949Y-111123602D01*
X175295107Y-111541107D01*
X174877602Y-112165949D01*
X174730993Y-112903000D01*
X166370000Y-112903000D01*
X166370000Y-85574000D01*
X176352812Y-85574000D01*
X175919949Y-85660102D01*
X175295107Y-86077607D01*
X174877602Y-86702449D01*
X174730993Y-87439500D01*
X174877602Y-88176551D01*
X175233706Y-88709500D01*
X174877602Y-89242449D01*
X174730993Y-89979500D01*
X174877602Y-90716551D01*
X175233706Y-91249500D01*
X174877602Y-91782449D01*
X174730993Y-92519500D01*
X174877602Y-93256551D01*
X175233706Y-93789500D01*
X174877602Y-94322449D01*
X174730993Y-95059500D01*
X174877602Y-95796551D01*
X175233706Y-96329500D01*
X174877602Y-96862449D01*
X174730993Y-97599500D01*
X174877602Y-98336551D01*
X175233706Y-98869500D01*
X174877602Y-99402449D01*
X174730993Y-100139500D01*
X174877602Y-100876551D01*
X175295107Y-101501393D01*
X175919949Y-101918898D01*
X176470954Y-102028500D01*
X178367046Y-102028500D01*
X178918051Y-101918898D01*
X179542893Y-101501393D01*
X179960398Y-100876551D01*
X180107007Y-100139500D01*
X179960398Y-99402449D01*
X179604294Y-98869500D01*
X179960398Y-98336551D01*
X180107007Y-97599500D01*
X179960398Y-96862449D01*
X179604294Y-96329500D01*
X179960398Y-95796551D01*
X180107007Y-95059500D01*
X179960398Y-94322449D01*
X179604294Y-93789500D01*
X179960398Y-93256551D01*
X180107007Y-92519500D01*
X179960398Y-91782449D01*
X179604294Y-91249500D01*
X179960398Y-90716551D01*
X180107007Y-89979500D01*
X179960398Y-89242449D01*
X179604294Y-88709500D01*
X179960398Y-88176551D01*
X180107007Y-87439500D01*
X179960398Y-86702449D01*
X179542893Y-86077607D01*
X178918051Y-85660102D01*
X178476715Y-85572315D01*
X178942824Y-85479600D01*
X179481001Y-85120001D01*
X179571774Y-84984150D01*
X183790153Y-80765772D01*
X183926001Y-80675001D01*
X184285600Y-80136824D01*
X184380000Y-79662242D01*
X184380000Y-79662239D01*
X184411873Y-79502001D01*
X184380000Y-79341763D01*
X184380000Y-74371943D01*
X184480000Y-74130522D01*
X184480000Y-73443478D01*
X184217080Y-72808733D01*
X183731267Y-72322920D01*
X183096522Y-72060000D01*
X182409478Y-72060000D01*
X181774733Y-72322920D01*
X181288920Y-72808733D01*
X181026000Y-73443478D01*
X181026000Y-74130522D01*
X181126000Y-74371944D01*
X181126001Y-78828074D01*
X177634076Y-82320000D01*
X162720242Y-82320000D01*
X162560000Y-82288126D01*
X162399758Y-82320000D01*
X131356925Y-82320000D01*
X129914773Y-80877849D01*
X129824001Y-80741999D01*
X129598611Y-80591398D01*
X129256197Y-80248984D01*
X128533903Y-79949800D01*
X127752097Y-79949800D01*
X127029803Y-80248984D01*
X126740787Y-80538000D01*
X124641137Y-80538000D01*
X124644980Y-78366023D01*
X142010890Y-78366023D01*
X142010890Y-79113977D01*
X142297119Y-79804997D01*
X142826003Y-80333881D01*
X143517023Y-80620110D01*
X144264977Y-80620110D01*
X144955997Y-80333881D01*
X145484881Y-79804997D01*
X145771110Y-79113977D01*
X145771110Y-78366023D01*
X145484881Y-77675003D01*
X144955997Y-77146119D01*
X144264977Y-76859890D01*
X143517023Y-76859890D01*
X142826003Y-77146119D01*
X142297119Y-77675003D01*
X142010890Y-78366023D01*
X124644980Y-78366023D01*
X124652523Y-74104500D01*
X132645421Y-74104500D01*
X132645421Y-75755500D01*
X132732889Y-76195233D01*
X132981978Y-76568022D01*
X133354767Y-76817111D01*
X133794500Y-76904579D01*
X135445500Y-76904579D01*
X135885233Y-76817111D01*
X136258022Y-76568022D01*
X136507111Y-76195233D01*
X136594579Y-75755500D01*
X136594579Y-74104500D01*
X136507111Y-73664767D01*
X136258022Y-73291978D01*
X135926964Y-73070773D01*
X136092340Y-72612869D01*
X136065553Y-72032465D01*
X135894976Y-71620656D01*
X135646215Y-71543390D01*
X134799605Y-72390000D01*
X134813748Y-72404143D01*
X134634143Y-72583748D01*
X134620000Y-72569605D01*
X134605858Y-72583748D01*
X134426253Y-72404143D01*
X134440395Y-72390000D01*
X133593785Y-71543390D01*
X133345024Y-71620656D01*
X133147660Y-72167131D01*
X133174447Y-72747535D01*
X133309355Y-73073232D01*
X132981978Y-73291978D01*
X132732889Y-73664767D01*
X132645421Y-74104500D01*
X124652523Y-74104500D01*
X124657373Y-71363785D01*
X133773390Y-71363785D01*
X134620000Y-72210395D01*
X135466610Y-71363785D01*
X135389344Y-71115024D01*
X134842869Y-70917660D01*
X134262465Y-70944447D01*
X133850656Y-71115024D01*
X133773390Y-71363785D01*
X124657373Y-71363785D01*
X124662479Y-68478400D01*
X172618314Y-68478400D01*
X172782665Y-69304646D01*
X173250696Y-70005104D01*
X173951154Y-70473135D01*
X174568836Y-70596000D01*
X176967164Y-70596000D01*
X177584846Y-70473135D01*
X178285304Y-70005104D01*
X178753335Y-69304646D01*
X178917686Y-68478400D01*
X178753335Y-67652154D01*
X178285304Y-66951696D01*
X177584846Y-66483665D01*
X176967164Y-66360800D01*
X174568836Y-66360800D01*
X173951154Y-66483665D01*
X173250696Y-66951696D01*
X172782665Y-67652154D01*
X172618314Y-68478400D01*
X124662479Y-68478400D01*
X124668351Y-65161215D01*
X139488390Y-65161215D01*
X139565656Y-65409976D01*
X140112131Y-65607340D01*
X140692535Y-65580553D01*
X141104344Y-65409976D01*
X141181610Y-65161215D01*
X140335000Y-64314605D01*
X139488390Y-65161215D01*
X124668351Y-65161215D01*
X124676124Y-60769500D01*
X138360421Y-60769500D01*
X138360421Y-62420500D01*
X138447889Y-62860233D01*
X138696978Y-63233022D01*
X139028036Y-63454227D01*
X138862660Y-63912131D01*
X138889447Y-64492535D01*
X139060024Y-64904344D01*
X139308785Y-64981610D01*
X140155395Y-64135000D01*
X140141253Y-64120858D01*
X140320858Y-63941253D01*
X140335000Y-63955395D01*
X140349143Y-63941253D01*
X140528748Y-64120858D01*
X140514605Y-64135000D01*
X141361215Y-64981610D01*
X141609976Y-64904344D01*
X141807340Y-64357869D01*
X141780553Y-63777465D01*
X141645645Y-63451768D01*
X141973022Y-63233022D01*
X142222111Y-62860233D01*
X142309579Y-62420500D01*
X142309579Y-60769500D01*
X142222111Y-60329767D01*
X141973022Y-59956978D01*
X141600233Y-59707889D01*
X141160500Y-59620421D01*
X139509500Y-59620421D01*
X139069767Y-59707889D01*
X138696978Y-59956978D01*
X138447889Y-60329767D01*
X138360421Y-60769500D01*
X124676124Y-60769500D01*
X124685874Y-55260967D01*
X129022600Y-55260967D01*
X129022600Y-56214553D01*
X129387522Y-57095551D01*
X130061809Y-57769838D01*
X130942807Y-58134760D01*
X131896393Y-58134760D01*
X132777391Y-57769838D01*
X133451678Y-57095551D01*
X133601505Y-56733835D01*
X138877800Y-56733835D01*
X138877800Y-57566165D01*
X139196318Y-58335136D01*
X139784864Y-58923682D01*
X140553835Y-59242200D01*
X141386165Y-59242200D01*
X142155136Y-58923682D01*
X142743682Y-58335136D01*
X143062200Y-57566165D01*
X143062200Y-56733835D01*
X143051841Y-56708826D01*
X148912070Y-56708826D01*
X148912070Y-57591174D01*
X149249730Y-58406357D01*
X149873643Y-59030270D01*
X150688826Y-59367930D01*
X151571174Y-59367930D01*
X152386357Y-59030270D01*
X153010270Y-58406357D01*
X153347930Y-57591174D01*
X153347930Y-56708826D01*
X156532070Y-56708826D01*
X156532070Y-57591174D01*
X156869730Y-58406357D01*
X157493643Y-59030270D01*
X158308826Y-59367930D01*
X159191174Y-59367930D01*
X160006357Y-59030270D01*
X160630270Y-58406357D01*
X160967930Y-57591174D01*
X160967930Y-56708826D01*
X160630270Y-55893643D01*
X160515027Y-55778400D01*
X172618314Y-55778400D01*
X172782665Y-56604646D01*
X173250696Y-57305104D01*
X173951154Y-57773135D01*
X174568836Y-57896000D01*
X176967164Y-57896000D01*
X177584846Y-57773135D01*
X178285304Y-57305104D01*
X178753335Y-56604646D01*
X178917686Y-55778400D01*
X178753335Y-54952154D01*
X178285304Y-54251696D01*
X177584846Y-53783665D01*
X176967164Y-53660800D01*
X174568836Y-53660800D01*
X173951154Y-53783665D01*
X173250696Y-54251696D01*
X172782665Y-54952154D01*
X172618314Y-55778400D01*
X160515027Y-55778400D01*
X160006357Y-55269730D01*
X159191174Y-54932070D01*
X158308826Y-54932070D01*
X157493643Y-55269730D01*
X156869730Y-55893643D01*
X156532070Y-56708826D01*
X153347930Y-56708826D01*
X153010270Y-55893643D01*
X152386357Y-55269730D01*
X151571174Y-54932070D01*
X150688826Y-54932070D01*
X149873643Y-55269730D01*
X149249730Y-55893643D01*
X148912070Y-56708826D01*
X143051841Y-56708826D01*
X142743682Y-55964864D01*
X142155136Y-55376318D01*
X141386165Y-55057800D01*
X140553835Y-55057800D01*
X139784864Y-55376318D01*
X139196318Y-55964864D01*
X138877800Y-56733835D01*
X133601505Y-56733835D01*
X133816600Y-56214553D01*
X133816600Y-55260967D01*
X133451678Y-54379969D01*
X132777391Y-53705682D01*
X131896393Y-53340760D01*
X130942807Y-53340760D01*
X130061809Y-53705682D01*
X129387522Y-54379969D01*
X129022600Y-55260967D01*
X124685874Y-55260967D01*
X124696754Y-49113835D01*
X138877800Y-49113835D01*
X138877800Y-49946165D01*
X139196318Y-50715136D01*
X139784864Y-51303682D01*
X140553835Y-51622200D01*
X141386165Y-51622200D01*
X142155136Y-51303682D01*
X142743682Y-50715136D01*
X143062200Y-49946165D01*
X143062200Y-49113835D01*
X143051841Y-49088826D01*
X153992070Y-49088826D01*
X153992070Y-49971174D01*
X154329730Y-50786357D01*
X154953643Y-51410270D01*
X155768826Y-51747930D01*
X156651174Y-51747930D01*
X157466357Y-51410270D01*
X158090270Y-50786357D01*
X158427930Y-49971174D01*
X158427930Y-49088826D01*
X158090270Y-48273643D01*
X157466357Y-47649730D01*
X156651174Y-47312070D01*
X155768826Y-47312070D01*
X154953643Y-47649730D01*
X154329730Y-48273643D01*
X153992070Y-49088826D01*
X143051841Y-49088826D01*
X142743682Y-48344864D01*
X142155136Y-47756318D01*
X141672172Y-47556268D01*
X142083197Y-47386016D01*
X142636016Y-46833197D01*
X142935200Y-46110903D01*
X142935200Y-45329097D01*
X149164800Y-45329097D01*
X149164800Y-46110903D01*
X149463984Y-46833197D01*
X150016803Y-47386016D01*
X150739097Y-47685200D01*
X151520903Y-47685200D01*
X152243197Y-47386016D01*
X152796016Y-46833197D01*
X153095200Y-46110903D01*
X153095200Y-45329097D01*
X152796016Y-44606803D01*
X152243197Y-44053984D01*
X151520903Y-43754800D01*
X150739097Y-43754800D01*
X150016803Y-44053984D01*
X149463984Y-44606803D01*
X149164800Y-45329097D01*
X142935200Y-45329097D01*
X142636016Y-44606803D01*
X142083197Y-44053984D01*
X141360903Y-43754800D01*
X140579097Y-43754800D01*
X139856803Y-44053984D01*
X139303984Y-44606803D01*
X139004800Y-45329097D01*
X139004800Y-46110903D01*
X139303984Y-46833197D01*
X139856803Y-47386016D01*
X140267828Y-47556268D01*
X139784864Y-47756318D01*
X139196318Y-48344864D01*
X138877800Y-49113835D01*
X124696754Y-49113835D01*
X124707436Y-43078400D01*
X172618314Y-43078400D01*
X172782665Y-43904646D01*
X173250696Y-44605104D01*
X173951154Y-45073135D01*
X174568836Y-45196000D01*
X176967164Y-45196000D01*
X177584846Y-45073135D01*
X178285304Y-44605104D01*
X178753335Y-43904646D01*
X178917686Y-43078400D01*
X178753335Y-42252154D01*
X178285304Y-41551696D01*
X177584846Y-41083665D01*
X176967164Y-40960800D01*
X174568836Y-40960800D01*
X173951154Y-41083665D01*
X173250696Y-41551696D01*
X172782665Y-42252154D01*
X172618314Y-43078400D01*
X124707436Y-43078400D01*
X124714000Y-39370225D01*
X124714000Y-39243258D01*
X187198000Y-39369743D01*
G04 #@! TO.N,PE*
G36*
X120523000Y-80538000D02*
X111671117Y-80538000D01*
X111666611Y-80515347D01*
X111417522Y-80142558D01*
X111044733Y-79893469D01*
X110605000Y-79806001D01*
X109105000Y-79806001D01*
X108712000Y-79884173D01*
X108712000Y-77978000D01*
X108702333Y-77929399D01*
X108674803Y-77888197D01*
X108633601Y-77860667D01*
X108585000Y-77851000D01*
X88773000Y-77851000D01*
X88724399Y-77860667D01*
X88683197Y-77888197D01*
X88655667Y-77929399D01*
X88646000Y-77978000D01*
X88646000Y-100203000D01*
X88655667Y-100251601D01*
X88683197Y-100292803D01*
X88724399Y-100320333D01*
X88773000Y-100330000D01*
X108585000Y-100330000D01*
X108633601Y-100320333D01*
X108674803Y-100292803D01*
X108702333Y-100251601D01*
X108712000Y-100203000D01*
X108712000Y-97854033D01*
X108857235Y-97951077D01*
X109105000Y-98000360D01*
X110605000Y-98000360D01*
X110852765Y-97951077D01*
X111062809Y-97810729D01*
X111203157Y-97600685D01*
X111252440Y-97352920D01*
X111252440Y-95694500D01*
X120523000Y-95694500D01*
X120523000Y-107061000D01*
X84328000Y-107061000D01*
X84328000Y-99504500D01*
X84318333Y-99455899D01*
X84290803Y-99414697D01*
X84249601Y-99387167D01*
X84201000Y-99377500D01*
X76708000Y-99377500D01*
X76659399Y-99387167D01*
X76618197Y-99414697D01*
X76590667Y-99455899D01*
X76581000Y-99504500D01*
X76581000Y-107061000D01*
X70866000Y-107061000D01*
X70866000Y-81788000D01*
X76581000Y-81788000D01*
X76581000Y-87757000D01*
X76590667Y-87805601D01*
X76618197Y-87846803D01*
X76659399Y-87874333D01*
X76708000Y-87884000D01*
X76708000Y-96583500D01*
X76717667Y-96632101D01*
X76745197Y-96673303D01*
X76786399Y-96700833D01*
X76835000Y-96710500D01*
X84074000Y-96710500D01*
X84122601Y-96700833D01*
X84163803Y-96673303D01*
X84191333Y-96632101D01*
X84201000Y-96583500D01*
X84201000Y-81788000D01*
X84191333Y-81739399D01*
X84163803Y-81698197D01*
X84122601Y-81670667D01*
X84074000Y-81661000D01*
X76708000Y-81661000D01*
X76659399Y-81670667D01*
X76618197Y-81698197D01*
X76590667Y-81739399D01*
X76581000Y-81788000D01*
X70866000Y-81788000D01*
X70866000Y-71628000D01*
X76581000Y-71628000D01*
X76581000Y-78740000D01*
X76590667Y-78788601D01*
X76618197Y-78829803D01*
X76659399Y-78857333D01*
X76708000Y-78867000D01*
X84074000Y-78867000D01*
X84122601Y-78857333D01*
X84163803Y-78829803D01*
X84191333Y-78788601D01*
X84201000Y-78740000D01*
X84201000Y-71628000D01*
X84191333Y-71579399D01*
X84163803Y-71538197D01*
X84122601Y-71510667D01*
X84074000Y-71501000D01*
X76708000Y-71501000D01*
X76659399Y-71510667D01*
X76618197Y-71538197D01*
X76590667Y-71579399D01*
X76581000Y-71628000D01*
X70866000Y-71628000D01*
X70866000Y-67437000D01*
X92265500Y-67437000D01*
X92314101Y-67427333D01*
X92355303Y-67399803D01*
X92382833Y-67358601D01*
X92392500Y-67310000D01*
X92392500Y-59880500D01*
X92382833Y-59831899D01*
X92355303Y-59790697D01*
X92314101Y-59763167D01*
X92265500Y-59753500D01*
X70866000Y-59753500D01*
X70866000Y-57023000D01*
X77660500Y-57023000D01*
X77709101Y-57013333D01*
X77750303Y-56985803D01*
X77777833Y-56944601D01*
X77787500Y-56896000D01*
X77787500Y-49276000D01*
X92202000Y-49276000D01*
X92250601Y-49266333D01*
X92291803Y-49238803D01*
X92319333Y-49197601D01*
X92329000Y-49149000D01*
X92329000Y-39624000D01*
X120523000Y-39624000D01*
X120523000Y-80538000D01*
X120523000Y-80538000D01*
G37*
X120523000Y-80538000D02*
X111671117Y-80538000D01*
X111666611Y-80515347D01*
X111417522Y-80142558D01*
X111044733Y-79893469D01*
X110605000Y-79806001D01*
X109105000Y-79806001D01*
X108712000Y-79884173D01*
X108712000Y-77978000D01*
X108702333Y-77929399D01*
X108674803Y-77888197D01*
X108633601Y-77860667D01*
X108585000Y-77851000D01*
X88773000Y-77851000D01*
X88724399Y-77860667D01*
X88683197Y-77888197D01*
X88655667Y-77929399D01*
X88646000Y-77978000D01*
X88646000Y-100203000D01*
X88655667Y-100251601D01*
X88683197Y-100292803D01*
X88724399Y-100320333D01*
X88773000Y-100330000D01*
X108585000Y-100330000D01*
X108633601Y-100320333D01*
X108674803Y-100292803D01*
X108702333Y-100251601D01*
X108712000Y-100203000D01*
X108712000Y-97854033D01*
X108857235Y-97951077D01*
X109105000Y-98000360D01*
X110605000Y-98000360D01*
X110852765Y-97951077D01*
X111062809Y-97810729D01*
X111203157Y-97600685D01*
X111252440Y-97352920D01*
X111252440Y-95694500D01*
X120523000Y-95694500D01*
X120523000Y-107061000D01*
X84328000Y-107061000D01*
X84328000Y-99504500D01*
X84318333Y-99455899D01*
X84290803Y-99414697D01*
X84249601Y-99387167D01*
X84201000Y-99377500D01*
X76708000Y-99377500D01*
X76659399Y-99387167D01*
X76618197Y-99414697D01*
X76590667Y-99455899D01*
X76581000Y-99504500D01*
X76581000Y-107061000D01*
X70866000Y-107061000D01*
X70866000Y-81788000D01*
X76581000Y-81788000D01*
X76581000Y-87757000D01*
X76590667Y-87805601D01*
X76618197Y-87846803D01*
X76659399Y-87874333D01*
X76708000Y-87884000D01*
X76708000Y-96583500D01*
X76717667Y-96632101D01*
X76745197Y-96673303D01*
X76786399Y-96700833D01*
X76835000Y-96710500D01*
X84074000Y-96710500D01*
X84122601Y-96700833D01*
X84163803Y-96673303D01*
X84191333Y-96632101D01*
X84201000Y-96583500D01*
X84201000Y-81788000D01*
X84191333Y-81739399D01*
X84163803Y-81698197D01*
X84122601Y-81670667D01*
X84074000Y-81661000D01*
X76708000Y-81661000D01*
X76659399Y-81670667D01*
X76618197Y-81698197D01*
X76590667Y-81739399D01*
X76581000Y-81788000D01*
X70866000Y-81788000D01*
X70866000Y-71628000D01*
X76581000Y-71628000D01*
X76581000Y-78740000D01*
X76590667Y-78788601D01*
X76618197Y-78829803D01*
X76659399Y-78857333D01*
X76708000Y-78867000D01*
X84074000Y-78867000D01*
X84122601Y-78857333D01*
X84163803Y-78829803D01*
X84191333Y-78788601D01*
X84201000Y-78740000D01*
X84201000Y-71628000D01*
X84191333Y-71579399D01*
X84163803Y-71538197D01*
X84122601Y-71510667D01*
X84074000Y-71501000D01*
X76708000Y-71501000D01*
X76659399Y-71510667D01*
X76618197Y-71538197D01*
X76590667Y-71579399D01*
X76581000Y-71628000D01*
X70866000Y-71628000D01*
X70866000Y-67437000D01*
X92265500Y-67437000D01*
X92314101Y-67427333D01*
X92355303Y-67399803D01*
X92382833Y-67358601D01*
X92392500Y-67310000D01*
X92392500Y-59880500D01*
X92382833Y-59831899D01*
X92355303Y-59790697D01*
X92314101Y-59763167D01*
X92265500Y-59753500D01*
X70866000Y-59753500D01*
X70866000Y-57023000D01*
X77660500Y-57023000D01*
X77709101Y-57013333D01*
X77750303Y-56985803D01*
X77777833Y-56944601D01*
X77787500Y-56896000D01*
X77787500Y-49276000D01*
X92202000Y-49276000D01*
X92250601Y-49266333D01*
X92291803Y-49238803D01*
X92319333Y-49197601D01*
X92329000Y-49149000D01*
X92329000Y-39624000D01*
X120523000Y-39624000D01*
X120523000Y-80538000D01*
G04 #@! TD*
M02*
