G04 #@! TF.GenerationSoftware,KiCad,Pcbnew,(5.0.0)*
G04 #@! TF.CreationDate,2019-01-25T09:41:45+01:00*
G04 #@! TF.ProjectId,cosi_pwr,636F73695F7077722E6B696361645F70,0.1*
G04 #@! TF.SameCoordinates,Original*
G04 #@! TF.FileFunction,Copper,L2,Bot,Signal*
G04 #@! TF.FilePolarity,Positive*
%FSLAX46Y46*%
G04 Gerber Fmt 4.6, Leading zero omitted, Abs format (unit mm)*
G04 Created by KiCad (PCBNEW (5.0.0)) date 01/25/19 09:41:45*
%MOMM*%
%LPD*%
G01*
G04 APERTURE LIST*
G04 #@! TA.AperFunction,SMDPad,CuDef*
%ADD10R,1.500000X1.300000*%
G04 #@! TD*
G04 #@! TA.AperFunction,SMDPad,CuDef*
%ADD11R,1.300000X1.500000*%
G04 #@! TD*
G04 #@! TA.AperFunction,ComponentPad*
%ADD12C,2.540000*%
G04 #@! TD*
G04 #@! TA.AperFunction,ComponentPad*
%ADD13R,1.000000X2.700000*%
G04 #@! TD*
G04 #@! TA.AperFunction,ComponentPad*
%ADD14R,1.500000X3.200000*%
G04 #@! TD*
G04 #@! TA.AperFunction,ComponentPad*
%ADD15C,1.676400*%
G04 #@! TD*
G04 #@! TA.AperFunction,ComponentPad*
%ADD16R,1.651000X1.651000*%
G04 #@! TD*
G04 #@! TA.AperFunction,ComponentPad*
%ADD17C,1.651000*%
G04 #@! TD*
G04 #@! TA.AperFunction,ComponentPad*
%ADD18O,1.524000X3.048000*%
G04 #@! TD*
G04 #@! TA.AperFunction,ComponentPad*
%ADD19R,1.524000X2.000000*%
G04 #@! TD*
G04 #@! TA.AperFunction,ComponentPad*
%ADD20O,3.048000X1.524000*%
G04 #@! TD*
G04 #@! TA.AperFunction,ComponentPad*
%ADD21C,1.506220*%
G04 #@! TD*
G04 #@! TA.AperFunction,ComponentPad*
%ADD22O,1.206500X2.415540*%
G04 #@! TD*
G04 #@! TA.AperFunction,ComponentPad*
%ADD23O,3.962400X1.981200*%
G04 #@! TD*
G04 #@! TA.AperFunction,ComponentPad*
%ADD24C,1.930400*%
G04 #@! TD*
G04 #@! TA.AperFunction,ComponentPad*
%ADD25C,2.181860*%
G04 #@! TD*
G04 #@! TA.AperFunction,SMDPad,CuDef*
%ADD26R,1.500000X1.250000*%
G04 #@! TD*
G04 #@! TA.AperFunction,SMDPad,CuDef*
%ADD27R,1.250000X1.500000*%
G04 #@! TD*
G04 #@! TA.AperFunction,SMDPad,CuDef*
%ADD28R,1.800860X0.800100*%
G04 #@! TD*
G04 #@! TA.AperFunction,SMDPad,CuDef*
%ADD29R,0.900000X1.200000*%
G04 #@! TD*
G04 #@! TA.AperFunction,ViaPad*
%ADD30C,1.200000*%
G04 #@! TD*
G04 #@! TA.AperFunction,Conductor*
%ADD31C,1.000000*%
G04 #@! TD*
G04 #@! TA.AperFunction,Conductor*
%ADD32C,0.500000*%
G04 #@! TD*
G04 #@! TA.AperFunction,Conductor*
%ADD33C,2.000000*%
G04 #@! TD*
G04 #@! TA.AperFunction,Conductor*
%ADD34C,0.250000*%
G04 #@! TD*
G04 #@! TA.AperFunction,Conductor*
%ADD35C,6.000000*%
G04 #@! TD*
G04 #@! TA.AperFunction,Conductor*
%ADD36C,3.000000*%
G04 #@! TD*
G04 #@! TA.AperFunction,Conductor*
%ADD37C,0.300000*%
G04 #@! TD*
G04 #@! TA.AperFunction,Conductor*
%ADD38C,0.254000*%
G04 #@! TD*
G04 APERTURE END LIST*
D10*
G04 #@! TO.P,R1,1*
G04 #@! TO.N,/BANK2_15*
X137748000Y-94488000D03*
G04 #@! TO.P,R1,2*
G04 #@! TO.N,/N$1*
X135048000Y-94488000D03*
G04 #@! TD*
G04 #@! TO.P,R2,1*
G04 #@! TO.N,GND*
X135048000Y-98425000D03*
G04 #@! TO.P,R2,2*
G04 #@! TO.N,/N$1*
X137748000Y-98425000D03*
G04 #@! TD*
G04 #@! TO.P,R5,1*
G04 #@! TO.N,/BANK1_15*
X147400000Y-40005000D03*
G04 #@! TO.P,R5,2*
G04 #@! TO.N,/N$14*
X144700000Y-40005000D03*
G04 #@! TD*
G04 #@! TO.P,R6,1*
G04 #@! TO.N,GND*
X144700000Y-43307000D03*
G04 #@! TO.P,R6,2*
G04 #@! TO.N,/N$14*
X147400000Y-43307000D03*
G04 #@! TD*
D11*
G04 #@! TO.P,R7,1*
G04 #@! TO.N,/SW_Y+_L*
X159258000Y-100377000D03*
G04 #@! TO.P,R7,2*
G04 #@! TO.N,+5V*
X159258000Y-103077000D03*
G04 #@! TD*
D10*
G04 #@! TO.P,R8,1*
G04 #@! TO.N,/SW_Y+_H*
X167085000Y-104648000D03*
G04 #@! TO.P,R8,2*
G04 #@! TO.N,VCC_+12V*
X164385000Y-104648000D03*
G04 #@! TD*
G04 #@! TO.P,R12,1*
G04 #@! TO.N,/SW_X+_H*
X166958000Y-86614000D03*
G04 #@! TO.P,R12,2*
G04 #@! TO.N,VCC_+12V*
X164258000Y-86614000D03*
G04 #@! TD*
D11*
G04 #@! TO.P,R13,1*
G04 #@! TO.N,/SW_X-_L*
X159258000Y-91233000D03*
G04 #@! TO.P,R13,2*
G04 #@! TO.N,+5V*
X159258000Y-93933000D03*
G04 #@! TD*
D10*
G04 #@! TO.P,R14,1*
G04 #@! TO.N,/SW_X-_H*
X167085000Y-95631000D03*
G04 #@! TO.P,R14,2*
G04 #@! TO.N,VCC_+12V*
X164385000Y-95631000D03*
G04 #@! TD*
D11*
G04 #@! TO.P,R15,1*
G04 #@! TO.N,/SW_Y-_L*
X159258000Y-109521000D03*
G04 #@! TO.P,R15,2*
G04 #@! TO.N,+5V*
X159258000Y-112221000D03*
G04 #@! TD*
G04 #@! TO.P,R17,1*
G04 #@! TO.N,/SW_Z+_L*
X159258000Y-118157000D03*
G04 #@! TO.P,R17,2*
G04 #@! TO.N,+5V*
X159258000Y-120857000D03*
G04 #@! TD*
G04 #@! TO.P,R19,1*
G04 #@! TO.N,/SW_Z-_L*
X159258000Y-127047000D03*
G04 #@! TO.P,R19,2*
G04 #@! TO.N,+5V*
X159258000Y-129747000D03*
G04 #@! TD*
D10*
G04 #@! TO.P,R20,1*
G04 #@! TO.N,/SW_Z-_H*
X166704000Y-131318000D03*
G04 #@! TO.P,R20,2*
G04 #@! TO.N,VCC_+12V*
X164004000Y-131318000D03*
G04 #@! TD*
D11*
G04 #@! TO.P,R21,1*
G04 #@! TO.N,GND*
X74295000Y-139272000D03*
G04 #@! TO.P,R21,2*
G04 #@! TO.N,/BANK1_4*
X74295000Y-136572000D03*
G04 #@! TD*
G04 #@! TO.P,R22,1*
G04 #@! TO.N,GND*
X76835000Y-139272000D03*
G04 #@! TO.P,R22,2*
G04 #@! TO.N,/BANK1_9*
X76835000Y-136572000D03*
G04 #@! TD*
G04 #@! TO.P,R9,1*
G04 #@! TO.N,/N$19*
X76835000Y-123778000D03*
G04 #@! TO.P,R9,2*
G04 #@! TO.N,+3V3*
X76835000Y-121078000D03*
G04 #@! TD*
G04 #@! TO.P,R10,1*
G04 #@! TO.N,/N$20*
X74295000Y-123778000D03*
G04 #@! TO.P,R10,2*
G04 #@! TO.N,+3V3*
X74295000Y-121078000D03*
G04 #@! TD*
D10*
G04 #@! TO.P,R18,1*
G04 #@! TO.N,/SW_Z+_H*
X166704000Y-122555000D03*
G04 #@! TO.P,R18,2*
G04 #@! TO.N,VCC_+12V*
X164004000Y-122555000D03*
G04 #@! TD*
G04 #@! TO.P,R16,1*
G04 #@! TO.N,/SW_Y-_H*
X166831000Y-113665000D03*
G04 #@! TO.P,R16,2*
G04 #@! TO.N,VCC_+12V*
X164131000Y-113665000D03*
G04 #@! TD*
D12*
G04 #@! TO.P,U1,AC/N*
G04 #@! TO.N,/AC_N*
X86420960Y-63738760D03*
G04 #@! TO.P,U1,AC/L*
G04 #@! TO.N,/AC_L*
X86420960Y-42941240D03*
G04 #@! TO.P,U1,V+*
G04 #@! TO.N,+12V*
X131419600Y-55737760D03*
G04 #@! TO.P,U1,V-*
G04 #@! TO.N,GND*
X131419600Y-63738760D03*
G04 #@! TD*
D13*
G04 #@! TO.P,K1,11*
G04 #@! TO.N,/AC_N*
X103505000Y-82555080D03*
G04 #@! TO.P,K1,12*
G04 #@! TO.N,Net-(K1-Pad12)*
X93157040Y-82555080D03*
G04 #@! TO.P,K1,14*
G04 #@! TO.N,Net-(K1-Pad14)*
X97155000Y-82555080D03*
G04 #@! TO.P,K1,21*
G04 #@! TO.N,Net-(K1-Pad21)*
X103505000Y-89154000D03*
G04 #@! TO.P,K1,22*
G04 #@! TO.N,Net-(K1-Pad22)*
X93157040Y-89154000D03*
G04 #@! TO.P,K1,24*
G04 #@! TO.N,Net-(K1-Pad24)*
X97155000Y-89154000D03*
G04 #@! TO.P,K1,31*
G04 #@! TO.N,/AC_L*
X103505000Y-95752920D03*
G04 #@! TO.P,K1,32*
G04 #@! TO.N,Net-(K1-Pad32)*
X93157040Y-95752920D03*
G04 #@! TO.P,K1,34*
G04 #@! TO.N,Net-(K1-Pad34)*
X97155000Y-95752920D03*
D14*
G04 #@! TO.P,K1,A1*
G04 #@! TO.N,VCC_+12V*
X109855000Y-82555080D03*
G04 #@! TO.P,K1,A2*
G04 #@! TO.N,/N$2*
X109855000Y-95752920D03*
G04 #@! TD*
D15*
G04 #@! TO.P,D1,A*
G04 #@! TO.N,/N$2*
X128143000Y-92075000D03*
G04 #@! TO.P,D1,C*
G04 #@! TO.N,VCC_+12V*
X128143000Y-81915000D03*
G04 #@! TD*
D16*
G04 #@! TO.P,C1,1*
G04 #@! TO.N,+12V*
X140335000Y-61595000D03*
D17*
G04 #@! TO.P,C1,2*
G04 #@! TO.N,GND*
X140335000Y-64135000D03*
G04 #@! TD*
D16*
G04 #@! TO.P,C5,1*
G04 #@! TO.N,+12V*
X134620000Y-74930000D03*
D17*
G04 #@! TO.P,C5,2*
G04 #@! TO.N,GND*
X134620000Y-72390000D03*
G04 #@! TD*
D18*
G04 #@! TO.P,IO1,1*
G04 #@! TO.N,/BANK2_0*
X87630000Y-112776000D03*
G04 #@! TO.P,IO1,2*
G04 #@! TO.N,/BANK2_1*
X90170000Y-112776000D03*
G04 #@! TO.P,IO1,3*
G04 #@! TO.N,/BANK2_2*
X92710000Y-112776000D03*
G04 #@! TO.P,IO1,4*
G04 #@! TO.N,/BANK2_3*
X95250000Y-112776000D03*
G04 #@! TO.P,IO1,5*
G04 #@! TO.N,/BANK2_4*
X97790000Y-112776000D03*
G04 #@! TO.P,IO1,6*
G04 #@! TO.N,/BANK2_5*
X100330000Y-112776000D03*
G04 #@! TO.P,IO1,7*
G04 #@! TO.N,/BANK2_6*
X102870000Y-112776000D03*
G04 #@! TO.P,IO1,8*
G04 #@! TO.N,/BANK2_7*
X105410000Y-112776000D03*
G04 #@! TO.P,IO1,9*
G04 #@! TO.N,/BANK2_8*
X107950000Y-112776000D03*
G04 #@! TO.P,IO1,10*
G04 #@! TO.N,/BANK2_9*
X110490000Y-112776000D03*
G04 #@! TO.P,IO1,11*
G04 #@! TO.N,/BANK2_10*
X113030000Y-112776000D03*
G04 #@! TO.P,IO1,12*
G04 #@! TO.N,/BANK2_11*
X115570000Y-112776000D03*
G04 #@! TO.P,IO1,13*
G04 #@! TO.N,/BANK2_12*
X118110000Y-112776000D03*
G04 #@! TO.P,IO1,14*
G04 #@! TO.N,/BANK2_13*
X120650000Y-112776000D03*
G04 #@! TO.P,IO1,15*
G04 #@! TO.N,/BANK2_14*
X123190000Y-112776000D03*
G04 #@! TO.P,IO1,16*
G04 #@! TO.N,/BANK2_15*
X125730000Y-112776000D03*
G04 #@! TO.P,IO1,17*
G04 #@! TO.N,/BANK2_16*
X128270000Y-112776000D03*
G04 #@! TO.P,IO1,18*
G04 #@! TO.N,/BANK2_VCC*
X130810000Y-112776000D03*
G04 #@! TO.P,IO1,19*
G04 #@! TO.N,+5V*
X133350000Y-112776000D03*
G04 #@! TO.P,IO1,20*
G04 #@! TO.N,GND*
X135890000Y-112776000D03*
G04 #@! TD*
G04 #@! TO.P,IO2,1*
G04 #@! TO.N,/BANK1_0*
X87630000Y-138176000D03*
G04 #@! TO.P,IO2,2*
G04 #@! TO.N,/BANK1_1*
X90170000Y-138176000D03*
G04 #@! TO.P,IO2,3*
G04 #@! TO.N,/BANK1_2*
X92710000Y-138176000D03*
G04 #@! TO.P,IO2,4*
G04 #@! TO.N,/BANK1_3*
X95250000Y-138176000D03*
G04 #@! TO.P,IO2,5*
G04 #@! TO.N,/BANK1_4*
X97790000Y-138176000D03*
G04 #@! TO.P,IO2,6*
G04 #@! TO.N,/BANK1_5*
X100330000Y-138176000D03*
G04 #@! TO.P,IO2,7*
G04 #@! TO.N,/BANK1_6*
X102870000Y-138176000D03*
G04 #@! TO.P,IO2,8*
G04 #@! TO.N,/BANK1_7*
X105410000Y-138176000D03*
G04 #@! TO.P,IO2,9*
G04 #@! TO.N,/BANK1_8*
X107950000Y-138176000D03*
G04 #@! TO.P,IO2,10*
G04 #@! TO.N,/BANK1_9*
X110490000Y-138176000D03*
G04 #@! TO.P,IO2,11*
G04 #@! TO.N,/BANK1_10*
X113030000Y-138176000D03*
G04 #@! TO.P,IO2,12*
G04 #@! TO.N,/BANK1_11*
X115570000Y-138176000D03*
G04 #@! TO.P,IO2,13*
G04 #@! TO.N,/BANK1_12*
X118110000Y-138176000D03*
G04 #@! TO.P,IO2,14*
G04 #@! TO.N,/BANK1_13*
X120650000Y-138176000D03*
G04 #@! TO.P,IO2,15*
G04 #@! TO.N,/BANK1_14*
X123190000Y-138176000D03*
G04 #@! TO.P,IO2,16*
G04 #@! TO.N,/BANK1_15*
X125730000Y-138176000D03*
G04 #@! TO.P,IO2,17*
G04 #@! TO.N,/BANK1_VCC*
X128270000Y-138176000D03*
G04 #@! TO.P,IO2,18*
G04 #@! TO.N,/+1.8V*
X130810000Y-138176000D03*
G04 #@! TO.P,IO2,19*
G04 #@! TO.N,+3V3*
X133350000Y-138176000D03*
G04 #@! TO.P,IO2,20*
G04 #@! TO.N,GND*
X135890000Y-138176000D03*
G04 #@! TD*
D19*
G04 #@! TO.P,JP1,1*
G04 #@! TO.N,/N$19*
X76835000Y-129032000D03*
G04 #@! TO.P,JP1,2*
G04 #@! TO.N,/BANK1_9*
X76835000Y-131572000D03*
G04 #@! TO.P,JP1,3*
G04 #@! TO.N,/N$20*
X74295000Y-129032000D03*
G04 #@! TO.P,JP1,4*
G04 #@! TO.N,/BANK1_4*
X74295000Y-131572000D03*
G04 #@! TD*
D20*
G04 #@! TO.P,JP2,1*
G04 #@! TO.N,/SW_X+_L*
X177419000Y-87439500D03*
G04 #@! TO.P,JP2,2*
G04 #@! TO.N,/SW_X-_L*
X177419000Y-89979500D03*
G04 #@! TO.P,JP2,3*
G04 #@! TO.N,/SW_Y+_L*
X177419000Y-92519500D03*
G04 #@! TO.P,JP2,4*
G04 #@! TO.N,/SW_Y-_L*
X177419000Y-95059500D03*
G04 #@! TO.P,JP2,5*
G04 #@! TO.N,/SW_Z+_L*
X177419000Y-97599500D03*
G04 #@! TO.P,JP2,6*
G04 #@! TO.N,/SW_Z-_L*
X177419000Y-100139500D03*
G04 #@! TD*
G04 #@! TO.P,JP3,1*
G04 #@! TO.N,/SW_X+_H*
X177419000Y-112903000D03*
G04 #@! TO.P,JP3,2*
G04 #@! TO.N,/SW_X-_H*
X177419000Y-115443000D03*
G04 #@! TO.P,JP3,3*
G04 #@! TO.N,/SW_Y+_H*
X177419000Y-117983000D03*
G04 #@! TO.P,JP3,4*
G04 #@! TO.N,/SW_Y-_H*
X177419000Y-120523000D03*
G04 #@! TO.P,JP3,5*
G04 #@! TO.N,/SW_Z+_H*
X177419000Y-123063000D03*
G04 #@! TO.P,JP3,6*
G04 #@! TO.N,/SW_Z-_H*
X177419000Y-125603000D03*
G04 #@! TD*
D21*
G04 #@! TO.P,L1,P$1*
G04 #@! TO.N,+12V*
X143891000Y-78740000D03*
G04 #@! TO.P,L1,P$2*
G04 #@! TO.N,/N$4*
X143891000Y-109220000D03*
G04 #@! TD*
D22*
G04 #@! TO.P,U2,1*
G04 #@! TO.N,GND*
X151384000Y-114300000D03*
G04 #@! TO.P,U2,4*
G04 #@! TO.N,/N$4*
X143764000Y-114300000D03*
G04 #@! TO.P,U2,5*
G04 #@! TO.N,+5V*
X143764000Y-121920000D03*
G04 #@! TO.P,U2,7*
G04 #@! TO.N,GND*
X148844000Y-121920000D03*
G04 #@! TD*
D23*
G04 #@! TO.P,X1,1*
G04 #@! TO.N,/AC_L*
X73660000Y-53416200D03*
G04 #@! TO.P,X1,2*
G04 #@! TO.N,PE*
X73660000Y-58420000D03*
G04 #@! TO.P,X1,3*
G04 #@! TO.N,/AC_N*
X73660000Y-63423800D03*
G04 #@! TD*
G04 #@! TO.P,X2,1*
G04 #@! TO.N,Net-(K1-Pad34)*
X80645000Y-103047800D03*
G04 #@! TO.P,X2,2*
G04 #@! TO.N,PE*
X80645000Y-98044000D03*
G04 #@! TO.P,X2,3*
G04 #@! TO.N,Net-(K1-Pad14)*
X80645000Y-93040200D03*
G04 #@! TD*
G04 #@! TO.P,X3,1*
G04 #@! TO.N,Net-(K1-Pad34)*
X80645000Y-85267800D03*
G04 #@! TO.P,X3,2*
G04 #@! TO.N,PE*
X80645000Y-80264000D03*
G04 #@! TO.P,X3,3*
G04 #@! TO.N,Net-(K1-Pad14)*
X80645000Y-75260200D03*
G04 #@! TD*
G04 #@! TO.P,X4,1*
G04 #@! TO.N,VCC_+12V*
X175768000Y-43078400D03*
G04 #@! TO.P,X4,2*
G04 #@! TO.N,GND*
X175768000Y-48107600D03*
G04 #@! TD*
G04 #@! TO.P,X5,1*
G04 #@! TO.N,VCC_+12V*
X175768000Y-55778400D03*
G04 #@! TO.P,X5,2*
G04 #@! TO.N,GND*
X175768000Y-60807600D03*
G04 #@! TD*
G04 #@! TO.P,X6,1*
G04 #@! TO.N,VCC_+12V*
X175768000Y-68478400D03*
G04 #@! TO.P,X6,2*
G04 #@! TO.N,GND*
X175768000Y-73507600D03*
G04 #@! TD*
D24*
G04 #@! TO.P,K2,1*
G04 #@! TO.N,+12V*
X140970000Y-57150000D03*
D25*
G04 #@! TO.P,K2,2*
X151130000Y-57150000D03*
G04 #@! TO.P,K2,3*
G04 #@! TO.N,VCC_+12V*
X158750000Y-57150000D03*
G04 #@! TO.P,K2,4*
G04 #@! TO.N,Net-(K2-Pad4)*
X156210000Y-49530000D03*
D24*
G04 #@! TO.P,K2,5*
G04 #@! TO.N,/N$15*
X140970000Y-49530000D03*
G04 #@! TD*
D15*
G04 #@! TO.P,D2,A*
G04 #@! TO.N,/N$15*
X140970000Y-45720000D03*
G04 #@! TO.P,D2,C*
G04 #@! TO.N,+12V*
X151130000Y-45720000D03*
G04 #@! TD*
D26*
G04 #@! TO.P,C7,1*
G04 #@! TO.N,+5V*
X145181000Y-125476000D03*
G04 #@! TO.P,C7,2*
G04 #@! TO.N,GND*
X147681000Y-125476000D03*
G04 #@! TD*
G04 #@! TO.P,C6,1*
G04 #@! TO.N,+5V*
X145181000Y-128016000D03*
G04 #@! TO.P,C6,2*
G04 #@! TO.N,GND*
X147681000Y-128016000D03*
G04 #@! TD*
D27*
G04 #@! TO.P,C3,1*
G04 #@! TO.N,+12V*
X146050000Y-60472000D03*
G04 #@! TO.P,C3,2*
G04 #@! TO.N,GND*
X146050000Y-62972000D03*
G04 #@! TD*
G04 #@! TO.P,C2,1*
G04 #@! TO.N,+12V*
X149225000Y-60472000D03*
G04 #@! TO.P,C2,2*
G04 #@! TO.N,GND*
X149225000Y-62972000D03*
G04 #@! TD*
D28*
G04 #@! TO.P,U5,1*
G04 #@! TO.N,/N$14*
X140947140Y-40452000D03*
G04 #@! TO.P,U5,2*
G04 #@! TO.N,GND*
X140947140Y-42352000D03*
G04 #@! TO.P,U5,3*
G04 #@! TO.N,/N$15*
X137944860Y-41402000D03*
G04 #@! TD*
G04 #@! TO.P,U11,1*
G04 #@! TO.N,+5V*
X163725860Y-128458000D03*
G04 #@! TO.P,U11,2*
G04 #@! TO.N,/SW_Z-_L*
X163725860Y-126558000D03*
G04 #@! TO.P,U11,3*
G04 #@! TO.N,/SW_Z-_H*
X166728140Y-127508000D03*
G04 #@! TD*
G04 #@! TO.P,U10,1*
G04 #@! TO.N,+5V*
X163725860Y-119568000D03*
G04 #@! TO.P,U10,2*
G04 #@! TO.N,/SW_Z+_L*
X163725860Y-117668000D03*
G04 #@! TO.P,U10,3*
G04 #@! TO.N,/SW_Z+_H*
X166728140Y-118618000D03*
G04 #@! TD*
G04 #@! TO.P,U9,1*
G04 #@! TO.N,+5V*
X163725860Y-110678000D03*
G04 #@! TO.P,U9,2*
G04 #@! TO.N,/SW_Y-_L*
X163725860Y-108778000D03*
G04 #@! TO.P,U9,3*
G04 #@! TO.N,/SW_Y-_H*
X166728140Y-109728000D03*
G04 #@! TD*
G04 #@! TO.P,U8,1*
G04 #@! TO.N,+5V*
X163979860Y-92771000D03*
G04 #@! TO.P,U8,2*
G04 #@! TO.N,/SW_X-_L*
X163979860Y-90871000D03*
G04 #@! TO.P,U8,3*
G04 #@! TO.N,/SW_X-_H*
X166982140Y-91821000D03*
G04 #@! TD*
G04 #@! TO.P,U7,1*
G04 #@! TO.N,+5V*
X163852860Y-83881000D03*
G04 #@! TO.P,U7,2*
G04 #@! TO.N,/SW_X+_L*
X163852860Y-81981000D03*
G04 #@! TO.P,U7,3*
G04 #@! TO.N,/SW_X+_H*
X166855140Y-82931000D03*
G04 #@! TD*
G04 #@! TO.P,U6,1*
G04 #@! TO.N,+5V*
X163979860Y-101788000D03*
G04 #@! TO.P,U6,2*
G04 #@! TO.N,/SW_Y+_L*
X163979860Y-99888000D03*
G04 #@! TO.P,U6,3*
G04 #@! TO.N,/SW_Y+_H*
X166982140Y-100838000D03*
G04 #@! TD*
G04 #@! TO.P,U3,1*
G04 #@! TO.N,/N$1*
X131803140Y-95570000D03*
G04 #@! TO.P,U3,2*
G04 #@! TO.N,GND*
X131803140Y-97470000D03*
G04 #@! TO.P,U3,3*
G04 #@! TO.N,/N$2*
X128800860Y-96520000D03*
G04 #@! TD*
D29*
G04 #@! TO.P,R11,1*
G04 #@! TO.N,/SW_X+_L*
X159004000Y-82339000D03*
G04 #@! TO.P,R11,2*
G04 #@! TO.N,+5V*
X159004000Y-84539000D03*
G04 #@! TD*
D30*
G04 #@! TO.N,GND*
X135890000Y-108712000D03*
X80264000Y-139319000D03*
X141605000Y-138176000D03*
X149098000Y-67310000D03*
G04 #@! TO.N,+5V*
X159258000Y-86614000D03*
X159258000Y-95758000D03*
X159258000Y-122682000D03*
X159258000Y-131318000D03*
X144018000Y-132969000D03*
X159258000Y-113792000D03*
X159258000Y-104775000D03*
G04 #@! TO.N,VCC_+12V*
X162560000Y-86614000D03*
X162560000Y-95758000D03*
X162433000Y-113792000D03*
X162433000Y-122682000D03*
X162433000Y-131318000D03*
X162433000Y-104775000D03*
X182753000Y-73787000D03*
G04 #@! TD*
D31*
G04 #@! TO.N,GND*
X135890000Y-112776000D02*
X135890000Y-108712000D01*
D32*
X131803140Y-97470000D02*
X131803140Y-97767140D01*
X131803140Y-97767140D02*
X132461000Y-98425000D01*
X132461000Y-98425000D02*
X135048000Y-98425000D01*
X74295000Y-139272000D02*
X76835000Y-139272000D01*
X76835000Y-139272000D02*
X76882000Y-139319000D01*
X76882000Y-139319000D02*
X80264000Y-139319000D01*
D31*
X135890000Y-138176000D02*
X141605000Y-138176000D01*
X149225000Y-62621160D02*
X149225000Y-67183000D01*
X149225000Y-67183000D02*
X149098000Y-67310000D01*
D33*
X131419600Y-63738760D02*
X131429760Y-63738760D01*
D34*
X135549640Y-98425000D02*
X134543800Y-98425000D01*
X145196560Y-43301920D02*
X145201640Y-43307000D01*
D32*
G04 #@! TO.N,+12V*
X151130000Y-57150000D02*
X151130000Y-45720000D01*
D31*
X140335000Y-60706000D02*
X145933160Y-60706000D01*
X145933160Y-60706000D02*
X146050000Y-60822840D01*
X140335000Y-59944000D02*
X146050000Y-59944000D01*
X140335000Y-59055000D02*
X145415000Y-59055000D01*
X145415000Y-59055000D02*
X146050000Y-58420000D01*
X140335000Y-61595000D02*
X142875000Y-61595000D01*
X143647160Y-60822840D02*
X146050000Y-60822840D01*
X142875000Y-61595000D02*
X143647160Y-60822840D01*
X146050000Y-60822840D02*
X146050000Y-59944000D01*
X146050000Y-59944000D02*
X146050000Y-58420000D01*
X146050000Y-58420000D02*
X146050000Y-55737760D01*
X146050000Y-55737760D02*
X146304000Y-55737760D01*
X149225000Y-60822840D02*
X149225000Y-59055000D01*
X149225000Y-59055000D02*
X151130000Y-57150000D01*
D33*
X140335000Y-61595000D02*
X140335000Y-60706000D01*
X140335000Y-60706000D02*
X140335000Y-59944000D01*
X140335000Y-59944000D02*
X140335000Y-59055000D01*
X140335000Y-59055000D02*
X140335000Y-57785000D01*
X140335000Y-57785000D02*
X140970000Y-57150000D01*
X134620000Y-74930000D02*
X134620000Y-77343000D01*
X134620000Y-77343000D02*
X135763000Y-78486000D01*
X131419600Y-55737760D02*
X128412240Y-55737760D01*
X128778000Y-78486000D02*
X135763000Y-78486000D01*
X135763000Y-78486000D02*
X143637000Y-78486000D01*
X126492000Y-76200000D02*
X128778000Y-78486000D01*
X126492000Y-57658000D02*
X126492000Y-76200000D01*
X128412240Y-55737760D02*
X126492000Y-57658000D01*
X143637000Y-78486000D02*
X143891000Y-78740000D01*
D35*
X131419600Y-55737760D02*
X146304000Y-55737760D01*
D31*
X140335000Y-57785000D02*
X140970000Y-57150000D01*
X140335000Y-57785000D02*
X140970000Y-57150000D01*
D35*
X146304000Y-55737760D02*
X149717760Y-55737760D01*
X149717760Y-55737760D02*
X151130000Y-57150000D01*
D31*
X140335000Y-57785000D02*
X140970000Y-57150000D01*
D34*
X131561840Y-55880000D02*
X131419600Y-55737760D01*
D32*
G04 #@! TO.N,+5V*
X163725860Y-128458000D02*
X162245000Y-128458000D01*
X160956000Y-129747000D02*
X159258000Y-129747000D01*
X162245000Y-128458000D02*
X160956000Y-129747000D01*
X163725860Y-119568000D02*
X161991000Y-119568000D01*
X160909000Y-120650000D02*
X159465000Y-120650000D01*
X161991000Y-119568000D02*
X160909000Y-120650000D01*
X159465000Y-120650000D02*
X159258000Y-120857000D01*
X159004000Y-86360000D02*
X159258000Y-86614000D01*
X159004000Y-86360000D02*
X159004000Y-84539000D01*
X159258000Y-95758000D02*
X159258000Y-93933000D01*
X159258000Y-122682000D02*
X159258000Y-120857000D01*
D31*
X144018000Y-129159000D02*
X144018000Y-132969000D01*
D32*
X159258000Y-131445000D02*
X159258000Y-131318000D01*
X159258000Y-131445000D02*
X159258000Y-129747000D01*
X159258000Y-112221000D02*
X159258000Y-113792000D01*
X159258000Y-103077000D02*
X159258000Y-104775000D01*
X159258000Y-112221000D02*
X160448000Y-112221000D01*
X161925000Y-110744000D02*
X163659860Y-110744000D01*
X160448000Y-112221000D02*
X161925000Y-110744000D01*
X163659860Y-110744000D02*
X163725860Y-110678000D01*
X159258000Y-103077000D02*
X160862000Y-103077000D01*
X162085000Y-101854000D02*
X163913860Y-101854000D01*
X160862000Y-103077000D02*
X162085000Y-101854000D01*
X163913860Y-101854000D02*
X163979860Y-101788000D01*
X159258000Y-93933000D02*
X160702000Y-93933000D01*
X160702000Y-93933000D02*
X161864000Y-92771000D01*
X161864000Y-92771000D02*
X163979860Y-92771000D01*
X159004000Y-84539000D02*
X161247000Y-84539000D01*
X161247000Y-84539000D02*
X161905000Y-83881000D01*
X161905000Y-83881000D02*
X163852860Y-83881000D01*
D31*
X144018000Y-122047000D02*
X138430000Y-122047000D01*
X138176000Y-121920000D02*
X133350000Y-117094000D01*
X133350000Y-117094000D02*
X133350000Y-112776000D01*
D36*
X144018000Y-122047000D02*
X144018000Y-129159000D01*
D31*
X144018000Y-125476000D02*
X144018000Y-129159000D01*
D32*
X164127180Y-128356360D02*
X164228780Y-128457960D01*
D31*
X145531840Y-125476000D02*
X144018000Y-125476000D01*
X143764000Y-125603000D02*
X144018000Y-125603000D01*
X143891000Y-125603000D02*
X143764000Y-125603000D01*
X144018000Y-125476000D02*
X143891000Y-125603000D01*
X144018000Y-122047000D02*
X144018000Y-125603000D01*
X144018000Y-125603000D02*
X144018000Y-126502160D01*
X144018000Y-126502160D02*
X145531840Y-128016000D01*
D34*
X159359600Y-129346960D02*
X159258000Y-129245360D01*
X159359600Y-120456960D02*
X159258000Y-120355360D01*
X159359600Y-111820960D02*
X159258000Y-111719360D01*
X159359600Y-93532960D02*
X159258000Y-93431360D01*
X159105600Y-84388960D02*
X159004000Y-84287360D01*
X159359600Y-102676960D02*
X159258000Y-102575360D01*
D32*
G04 #@! TO.N,+3V3*
X133350000Y-138176000D02*
X133350000Y-135763000D01*
X79422000Y-121078000D02*
X76835000Y-121078000D01*
X80518000Y-122174000D02*
X79422000Y-121078000D01*
X80518000Y-131445000D02*
X80518000Y-122174000D01*
X82296000Y-133223000D02*
X80518000Y-131445000D01*
X130810000Y-133223000D02*
X82296000Y-133223000D01*
X133350000Y-135763000D02*
X130810000Y-133223000D01*
X76835000Y-121078000D02*
X74295000Y-121078000D01*
D31*
G04 #@! TO.N,VCC_+12V*
X182753000Y-73787000D02*
X182753000Y-66548000D01*
X182753000Y-66548000D02*
X182245000Y-66040000D01*
D36*
X175768000Y-55778400D02*
X182245000Y-55778400D01*
X181356000Y-56134000D02*
X182245000Y-56134000D01*
X181889400Y-56134000D02*
X181356000Y-56134000D01*
X182245000Y-55778400D02*
X181889400Y-56134000D01*
X175768000Y-43078400D02*
X180238400Y-43078400D01*
X179806600Y-68478400D02*
X175768000Y-68478400D01*
X182245000Y-66040000D02*
X179806600Y-68478400D01*
X182245000Y-45085000D02*
X182245000Y-56134000D01*
X182245000Y-56134000D02*
X182245000Y-66040000D01*
X180238400Y-43078400D02*
X182245000Y-45085000D01*
X158750000Y-57150000D02*
X163322000Y-57150000D01*
X170154600Y-43078400D02*
X175768000Y-43078400D01*
X167386000Y-45847000D02*
X170154600Y-43078400D01*
X167386000Y-53086000D02*
X167386000Y-45847000D01*
X163322000Y-57150000D02*
X167386000Y-53086000D01*
D32*
X164258000Y-86614000D02*
X162560000Y-86614000D01*
X162687000Y-95631000D02*
X162560000Y-95758000D01*
X162687000Y-95631000D02*
X164385000Y-95631000D01*
X162560000Y-113665000D02*
X162433000Y-113792000D01*
X162560000Y-113665000D02*
X164131000Y-113665000D01*
X162560000Y-122555000D02*
X162433000Y-122682000D01*
X164004000Y-122555000D02*
X162560000Y-122555000D01*
X162433000Y-131318000D02*
X164004000Y-131318000D01*
X162560000Y-104648000D02*
X162433000Y-104775000D01*
X162560000Y-104648000D02*
X164385000Y-104648000D01*
D31*
X175768000Y-68478400D02*
X182219600Y-68478400D01*
X182753000Y-69011800D02*
X182753000Y-73787000D01*
X182219600Y-68478400D02*
X182753000Y-69011800D01*
X175768000Y-68478400D02*
X177317400Y-68478400D01*
D32*
G04 #@! TO.N,/N$2*
X128800860Y-96520000D02*
X128800860Y-93322140D01*
X128800860Y-93322140D02*
X128143000Y-92664280D01*
X128143000Y-92664280D02*
X128143000Y-92075000D01*
X128038860Y-92179140D02*
X128143000Y-92075000D01*
G04 #@! TO.N,/N$15*
X140970000Y-45720000D02*
X139192000Y-45720000D01*
X137944860Y-44472860D02*
X137944860Y-41402000D01*
X139192000Y-45720000D02*
X137944860Y-44472860D01*
X140970000Y-49530000D02*
X140970000Y-45720000D01*
D34*
X138493500Y-41447720D02*
X138447780Y-41402000D01*
D32*
G04 #@! TO.N,/BANK2_15*
X137748000Y-94488000D02*
X139827000Y-94488000D01*
X125730000Y-104267000D02*
X125730000Y-112776000D01*
X127762000Y-102235000D02*
X125730000Y-104267000D01*
X138684000Y-102235000D02*
X127762000Y-102235000D01*
X140716000Y-100203000D02*
X138684000Y-102235000D01*
X140716000Y-95377000D02*
X140716000Y-100203000D01*
X139827000Y-94488000D02*
X140716000Y-95377000D01*
D34*
G04 #@! TO.N,/BANK1_0*
X87376000Y-137922000D02*
X87630000Y-138176000D01*
D32*
G04 #@! TO.N,/BANK1_4*
X74295000Y-131572000D02*
X74295000Y-132207000D01*
X74295000Y-132207000D02*
X73850500Y-132651500D01*
X73850500Y-132651500D02*
X73850500Y-136127500D01*
X73850500Y-136127500D02*
X74295000Y-136572000D01*
X74295000Y-136572000D02*
X72597000Y-136572000D01*
X97790000Y-140716000D02*
X97790000Y-138176000D01*
X97028000Y-141478000D02*
X97790000Y-140716000D01*
X72771000Y-141478000D02*
X97028000Y-141478000D01*
X71882000Y-140589000D02*
X72771000Y-141478000D01*
X71882000Y-137287000D02*
X71882000Y-140589000D01*
X72597000Y-136572000D02*
X71882000Y-137287000D01*
X74295000Y-131572000D02*
X74295000Y-136572000D01*
G04 #@! TO.N,/BANK1_9*
X94615000Y-135509000D02*
X109664500Y-135509000D01*
X82042000Y-135509000D02*
X94043500Y-135509000D01*
X94043500Y-135509000D02*
X94615000Y-135509000D01*
X80979000Y-136572000D02*
X82042000Y-135509000D01*
X76835000Y-136572000D02*
X80979000Y-136572000D01*
X110490000Y-136334500D02*
X110490000Y-138176000D01*
X109664500Y-135509000D02*
X110490000Y-136334500D01*
X76835000Y-131572000D02*
X76835000Y-132143500D01*
X76835000Y-132143500D02*
X77279500Y-132588000D01*
X77279500Y-132588000D02*
X77279500Y-136127500D01*
X77279500Y-136127500D02*
X76835000Y-136572000D01*
X76835000Y-131572000D02*
X76835000Y-136572000D01*
G04 #@! TO.N,/BANK1_15*
X125730000Y-138176000D02*
X125730000Y-139446000D01*
X125730000Y-139446000D02*
X127381000Y-141097000D01*
X184912000Y-40005000D02*
X147400000Y-40005000D01*
X185674000Y-40767000D02*
X184912000Y-40005000D01*
X185674000Y-128270000D02*
X185674000Y-40767000D01*
X182118000Y-131826000D02*
X185674000Y-128270000D01*
X177038000Y-131826000D02*
X182118000Y-131826000D01*
X172085000Y-136779000D02*
X177038000Y-131826000D01*
X148590000Y-136779000D02*
X172085000Y-136779000D01*
X144272000Y-141097000D02*
X148590000Y-136779000D01*
X127381000Y-141097000D02*
X144272000Y-141097000D01*
X125730000Y-138176000D02*
X125730000Y-139192000D01*
G04 #@! TO.N,/N$19*
X76835000Y-129032000D02*
X76835000Y-128460500D01*
X76835000Y-128460500D02*
X77279500Y-128016000D01*
X77279500Y-128016000D02*
X77279500Y-124222500D01*
X77279500Y-124222500D02*
X76835000Y-123778000D01*
X76835000Y-123778000D02*
X76835000Y-129032000D01*
G04 #@! TO.N,/N$20*
X74295000Y-129032000D02*
X74295000Y-128524000D01*
X74295000Y-128524000D02*
X73850500Y-128079500D01*
X73850500Y-128079500D02*
X73850500Y-124222500D01*
X73850500Y-124222500D02*
X74295000Y-123778000D01*
X74295000Y-129032000D02*
X74295000Y-128460500D01*
X74295000Y-123778000D02*
X74295000Y-129032000D01*
G04 #@! TO.N,/SW_X+_L*
X163852860Y-81981000D02*
X164272000Y-81981000D01*
X164272000Y-81981000D02*
X164846000Y-81407000D01*
X177419000Y-82550000D02*
X177419000Y-87439500D01*
X176276000Y-81407000D02*
X177419000Y-82550000D01*
X164846000Y-81407000D02*
X176276000Y-81407000D01*
X163852860Y-81981000D02*
X164145000Y-81981000D01*
X163852860Y-81981000D02*
X163852860Y-81810860D01*
X163852860Y-81810860D02*
X163449000Y-81407000D01*
X163449000Y-81407000D02*
X159639000Y-81407000D01*
X159639000Y-81407000D02*
X159004000Y-82042000D01*
X159004000Y-82042000D02*
X159004000Y-82339000D01*
D34*
X164256720Y-82082640D02*
X164355780Y-81983580D01*
D37*
X164256720Y-82082640D02*
X164355780Y-81983580D01*
X159103060Y-82491580D02*
X159004000Y-82590640D01*
D34*
X159103060Y-82491580D02*
X159004000Y-82590640D01*
D32*
G04 #@! TO.N,/SW_X-_L*
X163979860Y-90871000D02*
X164399000Y-90871000D01*
X164399000Y-90871000D02*
X165100000Y-90170000D01*
X165100000Y-90170000D02*
X177228500Y-90170000D01*
X177228500Y-90170000D02*
X177419000Y-89979500D01*
X163979860Y-90871000D02*
X164272000Y-90871000D01*
X163979860Y-90871000D02*
X164145000Y-90871000D01*
X177101500Y-89662000D02*
X177419000Y-89979500D01*
X163979860Y-90871000D02*
X164526000Y-90871000D01*
X163979860Y-90871000D02*
X163769000Y-90871000D01*
X163769000Y-90871000D02*
X163068000Y-90170000D01*
X160321000Y-90170000D02*
X159258000Y-91233000D01*
X163068000Y-90170000D02*
X160321000Y-90170000D01*
X163979860Y-90871000D02*
X163979860Y-90827860D01*
G04 #@! TO.N,/SW_Y+_L*
X163979860Y-99888000D02*
X164399000Y-99888000D01*
X164399000Y-99888000D02*
X165354000Y-99060000D01*
X172021500Y-92519500D02*
X177419000Y-92519500D01*
X170180000Y-94361000D02*
X172021500Y-92519500D01*
X170180000Y-97409000D02*
X170180000Y-94361000D01*
X168656000Y-99060000D02*
X170180000Y-97409000D01*
X165354000Y-99060000D02*
X168656000Y-99060000D01*
X163979860Y-99888000D02*
X163769000Y-99888000D01*
X163769000Y-99888000D02*
X163322000Y-99441000D01*
X163322000Y-99441000D02*
X160194000Y-99441000D01*
X160194000Y-99441000D02*
X159258000Y-100377000D01*
D34*
X159357060Y-100779580D02*
X159258000Y-100878640D01*
D32*
G04 #@! TO.N,/SW_Y-_L*
X163725860Y-108778000D02*
X163891000Y-108778000D01*
X163891000Y-108778000D02*
X164846000Y-107950000D01*
X174307500Y-95059500D02*
X177419000Y-95059500D01*
X171704000Y-97663000D02*
X174307500Y-95059500D01*
X171704000Y-105791000D02*
X171704000Y-97663000D01*
X169672000Y-107950000D02*
X171704000Y-105791000D01*
X164846000Y-107950000D02*
X169672000Y-107950000D01*
X163725860Y-108778000D02*
X164145000Y-108778000D01*
X163725860Y-108778000D02*
X163642000Y-108778000D01*
X163642000Y-108778000D02*
X163068000Y-108204000D01*
X163068000Y-108204000D02*
X160575000Y-108204000D01*
X160575000Y-108204000D02*
X159258000Y-109521000D01*
D34*
X176149000Y-95059500D02*
X177419000Y-95059500D01*
D32*
G04 #@! TO.N,/SW_Z+_L*
X163725860Y-117668000D02*
X164145000Y-117668000D01*
X164145000Y-117668000D02*
X165227000Y-116840000D01*
X175577500Y-97599500D02*
X177419000Y-97599500D01*
X173355000Y-99822000D02*
X175577500Y-97599500D01*
X173355000Y-107188000D02*
X173355000Y-99822000D01*
X170307000Y-110236000D02*
X173355000Y-107188000D01*
X170307000Y-114046000D02*
X170307000Y-110236000D01*
X167767000Y-116840000D02*
X170307000Y-114046000D01*
X165227000Y-116840000D02*
X167767000Y-116840000D01*
X163725860Y-117668000D02*
X164272000Y-117668000D01*
X163725860Y-117668000D02*
X163725860Y-117243860D01*
X159766000Y-117094000D02*
X159258000Y-117602000D01*
X163576000Y-117094000D02*
X159766000Y-117094000D01*
X163725860Y-117243860D02*
X163576000Y-117094000D01*
X159258000Y-117602000D02*
X159258000Y-118157000D01*
D34*
X176149000Y-97599500D02*
X177419000Y-97599500D01*
X159357060Y-118559580D02*
X159258000Y-118658640D01*
D32*
G04 #@! TO.N,/SW_Z-_L*
X163725860Y-126558000D02*
X164145000Y-126558000D01*
X164145000Y-126558000D02*
X165354000Y-125603000D01*
X177419000Y-106807000D02*
X177419000Y-100139500D01*
X172847000Y-111379000D02*
X177419000Y-106807000D01*
X172847000Y-120523000D02*
X172847000Y-111379000D01*
X168021000Y-125603000D02*
X172847000Y-120523000D01*
X165354000Y-125603000D02*
X168021000Y-125603000D01*
X163725860Y-126558000D02*
X164399000Y-126558000D01*
X163725860Y-126558000D02*
X163725860Y-126514860D01*
X163725860Y-126514860D02*
X163195000Y-125984000D01*
X163195000Y-125984000D02*
X160321000Y-125984000D01*
X160321000Y-125984000D02*
X159258000Y-127047000D01*
G04 #@! TO.N,/SW_X+_H*
X166958000Y-86614000D02*
X166958000Y-88439000D01*
X179578000Y-112903000D02*
X177419000Y-112903000D01*
X180467000Y-112014000D02*
X179578000Y-112903000D01*
X180467000Y-82423000D02*
X180467000Y-112014000D01*
X177927000Y-79883000D02*
X180467000Y-82423000D01*
X157861000Y-79883000D02*
X177927000Y-79883000D01*
X156210000Y-81534000D02*
X157861000Y-79883000D01*
X156210000Y-87249000D02*
X156210000Y-81534000D01*
X157861000Y-88773000D02*
X156210000Y-87249000D01*
X166497000Y-88773000D02*
X157861000Y-88773000D01*
X166958000Y-88439000D02*
X166497000Y-88773000D01*
X166958000Y-86614000D02*
X166958000Y-87169000D01*
X178435000Y-112903000D02*
X177419000Y-112903000D01*
X166958000Y-86614000D02*
X166958000Y-83033860D01*
X166958000Y-83033860D02*
X166855140Y-82931000D01*
D34*
X166329360Y-82953860D02*
X166352220Y-82931000D01*
D32*
G04 #@! TO.N,/SW_X-_H*
X167085000Y-95631000D02*
X167085000Y-97235000D01*
X180213000Y-115443000D02*
X177419000Y-115443000D01*
X181737000Y-113919000D02*
X180213000Y-115443000D01*
X181737000Y-81788000D02*
X181737000Y-113919000D01*
X178308000Y-78359000D02*
X181737000Y-81788000D01*
X157226000Y-78359000D02*
X178308000Y-78359000D01*
X154813000Y-80772000D02*
X157226000Y-78359000D01*
X154813000Y-94869000D02*
X154813000Y-80772000D01*
X157607000Y-97663000D02*
X154813000Y-94869000D01*
X166657000Y-97663000D02*
X157607000Y-97663000D01*
X167085000Y-97235000D02*
X166657000Y-97663000D01*
X167085000Y-95631000D02*
X167085000Y-91923860D01*
X167085000Y-91923860D02*
X166982140Y-91821000D01*
D34*
X166583360Y-95631000D02*
X166583360Y-96179640D01*
X166456360Y-91843860D02*
X166479220Y-91821000D01*
D32*
G04 #@! TO.N,/SW_Y+_H*
X167085000Y-104648000D02*
X167085000Y-106219000D01*
X181102000Y-117983000D02*
X177419000Y-117983000D01*
X183007000Y-116078000D02*
X181102000Y-117983000D01*
X183007000Y-80772000D02*
X183007000Y-116078000D01*
X179578000Y-77343000D02*
X183007000Y-80772000D01*
X156083000Y-77343000D02*
X179578000Y-77343000D01*
X153416000Y-80010000D02*
X156083000Y-77343000D01*
X153416000Y-104267000D02*
X153416000Y-80010000D01*
X155829000Y-106680000D02*
X153416000Y-104267000D01*
X166624000Y-106680000D02*
X155829000Y-106680000D01*
X167085000Y-106219000D02*
X166624000Y-106680000D01*
X167085000Y-104648000D02*
X167085000Y-100940860D01*
X167085000Y-100940860D02*
X166982140Y-100838000D01*
D34*
X166456360Y-100860860D02*
X166479220Y-100838000D01*
D32*
G04 #@! TO.N,/SW_Y-_H*
X166831000Y-113665000D02*
X166831000Y-114982000D01*
X181229000Y-120523000D02*
X177419000Y-120523000D01*
X182245000Y-121539000D02*
X181229000Y-120523000D01*
X182245000Y-127762000D02*
X182245000Y-121539000D01*
X180086000Y-129921000D02*
X182245000Y-127762000D01*
X176403000Y-129921000D02*
X180086000Y-129921000D01*
X171450000Y-134874000D02*
X176403000Y-129921000D01*
X157480000Y-134874000D02*
X171450000Y-134874000D01*
X154940000Y-132334000D02*
X157480000Y-134874000D01*
X154940000Y-116586000D02*
X154940000Y-132334000D01*
X155956000Y-115697000D02*
X154940000Y-116586000D01*
X166243000Y-115697000D02*
X155956000Y-115697000D01*
X166831000Y-114982000D02*
X166243000Y-115697000D01*
X166831000Y-113665000D02*
X166831000Y-113966000D01*
X166831000Y-113665000D02*
X166831000Y-109830860D01*
X166831000Y-109830860D02*
X166728140Y-109728000D01*
D34*
X166202360Y-109750860D02*
X166225220Y-109728000D01*
D32*
G04 #@! TO.N,/SW_Z+_H*
X166704000Y-122555000D02*
X166704000Y-123745000D01*
X180213000Y-123063000D02*
X177419000Y-123063000D01*
X180721000Y-123571000D02*
X180213000Y-123063000D01*
X180721000Y-127127000D02*
X180721000Y-123571000D01*
X179451000Y-128397000D02*
X180721000Y-127127000D01*
X175260000Y-128397000D02*
X179451000Y-128397000D01*
X170434000Y-133223000D02*
X175260000Y-128397000D01*
X157734000Y-133223000D02*
X170434000Y-133223000D01*
X156464000Y-131953000D02*
X157734000Y-133223000D01*
X156464000Y-125984000D02*
X156464000Y-131953000D01*
X157861000Y-124587000D02*
X156464000Y-125984000D01*
X165862000Y-124587000D02*
X157861000Y-124587000D01*
X166704000Y-123745000D02*
X165862000Y-124587000D01*
X166704000Y-122555000D02*
X166704000Y-122856000D01*
X166704000Y-122555000D02*
X166704000Y-118642140D01*
X166704000Y-118642140D02*
X166728140Y-118618000D01*
D34*
X166202360Y-118640860D02*
X166225220Y-118618000D01*
D32*
G04 #@! TO.N,/SW_Z-_H*
X166704000Y-131318000D02*
X168783000Y-131318000D01*
X171704000Y-125603000D02*
X177419000Y-125603000D01*
X170307000Y-127000000D02*
X171704000Y-125603000D01*
X170307000Y-129794000D02*
X170307000Y-127000000D01*
X168783000Y-131318000D02*
X170307000Y-129794000D01*
X176911000Y-125603000D02*
X177419000Y-125603000D01*
X166704000Y-131318000D02*
X166704000Y-127532140D01*
X166704000Y-127532140D02*
X166728140Y-127508000D01*
D34*
X176784000Y-125603000D02*
X177419000Y-125603000D01*
X166202360Y-127530860D02*
X166225220Y-127508000D01*
D31*
G04 #@! TO.N,/AC_N*
X86106000Y-63423800D02*
X86420960Y-63738760D01*
G04 #@! TO.N,/AC_L*
X86233000Y-43129200D02*
X86420960Y-42941240D01*
D33*
G04 #@! TO.N,/N$4*
X143764000Y-114300000D02*
X143764000Y-109347000D01*
X143764000Y-109347000D02*
X143891000Y-109220000D01*
D32*
G04 #@! TO.N,/N$1*
X137748000Y-98425000D02*
X137748000Y-97870000D01*
X137748000Y-97870000D02*
X135048000Y-95170000D01*
X135048000Y-95170000D02*
X135048000Y-94488000D01*
X131803140Y-95570000D02*
X131803140Y-95018860D01*
X132334000Y-94488000D02*
X135048000Y-94488000D01*
X131803140Y-95018860D02*
X132334000Y-94488000D01*
D34*
X131620260Y-95250000D02*
X131300220Y-95570040D01*
D32*
G04 #@! TO.N,/N$14*
X147400000Y-43307000D02*
X147400000Y-42705000D01*
X147400000Y-42705000D02*
X144700000Y-40005000D01*
X140947140Y-40452000D02*
X144253000Y-40452000D01*
X144253000Y-40452000D02*
X144700000Y-40005000D01*
D34*
X146898360Y-43307000D02*
X146898360Y-42885360D01*
G04 #@! TD*
D38*
G04 #@! TO.N,/AC_L*
G36*
X120523000Y-107061000D02*
X101981000Y-107061000D01*
X101981000Y-93599000D01*
X107061000Y-93599000D01*
X107061000Y-99187000D01*
X107070667Y-99235601D01*
X107098197Y-99276803D01*
X107139399Y-99304333D01*
X107188000Y-99314000D01*
X113792000Y-99314000D01*
X113840601Y-99304333D01*
X113881803Y-99276803D01*
X113909333Y-99235601D01*
X113918984Y-99189030D01*
X114617484Y-55501030D01*
X114608595Y-55452281D01*
X114581727Y-55410645D01*
X114540970Y-55382459D01*
X114490500Y-55372000D01*
X70866000Y-55372000D01*
X70866000Y-49276000D01*
X82931000Y-49276000D01*
X82979601Y-49266333D01*
X83020803Y-49238803D01*
X83048333Y-49197601D01*
X83058000Y-49149000D01*
X83058000Y-40259000D01*
X120523000Y-40259000D01*
X120523000Y-107061000D01*
X120523000Y-107061000D01*
G37*
X120523000Y-107061000D02*
X101981000Y-107061000D01*
X101981000Y-93599000D01*
X107061000Y-93599000D01*
X107061000Y-99187000D01*
X107070667Y-99235601D01*
X107098197Y-99276803D01*
X107139399Y-99304333D01*
X107188000Y-99314000D01*
X113792000Y-99314000D01*
X113840601Y-99304333D01*
X113881803Y-99276803D01*
X113909333Y-99235601D01*
X113918984Y-99189030D01*
X114617484Y-55501030D01*
X114608595Y-55452281D01*
X114581727Y-55410645D01*
X114540970Y-55382459D01*
X114490500Y-55372000D01*
X70866000Y-55372000D01*
X70866000Y-49276000D01*
X82931000Y-49276000D01*
X82979601Y-49266333D01*
X83020803Y-49238803D01*
X83048333Y-49197601D01*
X83058000Y-49149000D01*
X83058000Y-40259000D01*
X120523000Y-40259000D01*
X120523000Y-107061000D01*
G04 #@! TO.N,/AC_N*
G36*
X107569000Y-85217000D02*
X102235000Y-85217000D01*
X102235000Y-69850000D01*
X102225333Y-69801399D01*
X102197803Y-69760197D01*
X102156601Y-69732667D01*
X102108000Y-69723000D01*
X70739000Y-69723000D01*
X70739000Y-61087000D01*
X107569000Y-61087000D01*
X107569000Y-85217000D01*
X107569000Y-85217000D01*
G37*
X107569000Y-85217000D02*
X102235000Y-85217000D01*
X102235000Y-69850000D01*
X102225333Y-69801399D01*
X102197803Y-69760197D01*
X102156601Y-69732667D01*
X102108000Y-69723000D01*
X70739000Y-69723000D01*
X70739000Y-61087000D01*
X107569000Y-61087000D01*
X107569000Y-85217000D01*
G04 #@! TO.N,GND*
G36*
X85741000Y-137227955D02*
X85741000Y-139124046D01*
X85850603Y-139675051D01*
X86135212Y-140101000D01*
X78120000Y-140101000D01*
X78120000Y-139557750D01*
X77961250Y-139399000D01*
X76962000Y-139399000D01*
X76962000Y-139419000D01*
X76708000Y-139419000D01*
X76708000Y-139399000D01*
X75708750Y-139399000D01*
X75565000Y-139542750D01*
X75421250Y-139399000D01*
X74422000Y-139399000D01*
X74422000Y-139419000D01*
X74168000Y-139419000D01*
X74168000Y-139399000D01*
X74148000Y-139399000D01*
X74148000Y-139145000D01*
X74168000Y-139145000D01*
X74168000Y-139125000D01*
X74422000Y-139125000D01*
X74422000Y-139145000D01*
X75421250Y-139145000D01*
X75565000Y-139001250D01*
X75708750Y-139145000D01*
X76708000Y-139145000D01*
X76708000Y-139125000D01*
X76962000Y-139125000D01*
X76962000Y-139145000D01*
X77961250Y-139145000D01*
X78120000Y-138986250D01*
X78120000Y-138395691D01*
X78073752Y-138284040D01*
X78297522Y-138134522D01*
X78421484Y-137949000D01*
X80843377Y-137949000D01*
X80979000Y-137975977D01*
X81114623Y-137949000D01*
X81516279Y-137869106D01*
X81971762Y-137564762D01*
X82048589Y-137449782D01*
X82612372Y-136886000D01*
X85809019Y-136886000D01*
X85741000Y-137227955D01*
X85741000Y-137227955D01*
G37*
X85741000Y-137227955D02*
X85741000Y-139124046D01*
X85850603Y-139675051D01*
X86135212Y-140101000D01*
X78120000Y-140101000D01*
X78120000Y-139557750D01*
X77961250Y-139399000D01*
X76962000Y-139399000D01*
X76962000Y-139419000D01*
X76708000Y-139419000D01*
X76708000Y-139399000D01*
X75708750Y-139399000D01*
X75565000Y-139542750D01*
X75421250Y-139399000D01*
X74422000Y-139399000D01*
X74422000Y-139419000D01*
X74168000Y-139419000D01*
X74168000Y-139399000D01*
X74148000Y-139399000D01*
X74148000Y-139145000D01*
X74168000Y-139145000D01*
X74168000Y-139125000D01*
X74422000Y-139125000D01*
X74422000Y-139145000D01*
X75421250Y-139145000D01*
X75565000Y-139001250D01*
X75708750Y-139145000D01*
X76708000Y-139145000D01*
X76708000Y-139125000D01*
X76962000Y-139125000D01*
X76962000Y-139145000D01*
X77961250Y-139145000D01*
X78120000Y-138986250D01*
X78120000Y-138395691D01*
X78073752Y-138284040D01*
X78297522Y-138134522D01*
X78421484Y-137949000D01*
X80843377Y-137949000D01*
X80979000Y-137975977D01*
X81114623Y-137949000D01*
X81516279Y-137869106D01*
X81971762Y-137564762D01*
X82048589Y-137449782D01*
X82612372Y-136886000D01*
X85809019Y-136886000D01*
X85741000Y-137227955D01*
G36*
X168114078Y-41403783D02*
X165711383Y-43806479D01*
X165492040Y-43953039D01*
X165055209Y-44606803D01*
X164911422Y-44821996D01*
X164707535Y-45847000D01*
X164759001Y-46105735D01*
X164759000Y-51997861D01*
X162233862Y-54523000D01*
X158491268Y-54523000D01*
X157724996Y-54675421D01*
X156856039Y-55256039D01*
X156275421Y-56124996D01*
X156071535Y-57150000D01*
X156275421Y-58175004D01*
X156856039Y-59043961D01*
X157724996Y-59624579D01*
X158491268Y-59777000D01*
X163063269Y-59777000D01*
X163322000Y-59828465D01*
X163580731Y-59777000D01*
X163580732Y-59777000D01*
X164347004Y-59624579D01*
X165215961Y-59043961D01*
X165362523Y-58824615D01*
X169060618Y-55126521D01*
X169279961Y-54979961D01*
X169860579Y-54111004D01*
X170013000Y-53344732D01*
X170013000Y-53344731D01*
X170064465Y-53086000D01*
X170013000Y-52827269D01*
X170013000Y-46935138D01*
X171242739Y-45705400D01*
X179150262Y-45705400D01*
X179618000Y-46173139D01*
X179618001Y-53151400D01*
X175509268Y-53151400D01*
X174742996Y-53303821D01*
X174056100Y-53762790D01*
X173951154Y-53783665D01*
X173250696Y-54251696D01*
X172782665Y-54952154D01*
X172618314Y-55778400D01*
X172782665Y-56604646D01*
X173250696Y-57305104D01*
X173951154Y-57773135D01*
X174056100Y-57794010D01*
X174742996Y-58252979D01*
X175509268Y-58405400D01*
X179618000Y-58405400D01*
X179618001Y-64951860D01*
X178718462Y-65851400D01*
X175509268Y-65851400D01*
X174742996Y-66003821D01*
X174056100Y-66462790D01*
X173951154Y-66483665D01*
X173250696Y-66951696D01*
X172782665Y-67652154D01*
X172618314Y-68478400D01*
X172782665Y-69304646D01*
X173250696Y-70005104D01*
X173951154Y-70473135D01*
X174056100Y-70494010D01*
X174742996Y-70952979D01*
X175509268Y-71105400D01*
X179547869Y-71105400D01*
X179806600Y-71156865D01*
X180065331Y-71105400D01*
X180065332Y-71105400D01*
X180831604Y-70952979D01*
X181126000Y-70756270D01*
X181126000Y-73202056D01*
X181026000Y-73443478D01*
X181026000Y-74130522D01*
X181288920Y-74765267D01*
X181774733Y-75251080D01*
X182409478Y-75514000D01*
X183096522Y-75514000D01*
X183731267Y-75251080D01*
X183832500Y-75149847D01*
X183832500Y-75184000D01*
X183842167Y-75232601D01*
X183869697Y-75273803D01*
X183910899Y-75301333D01*
X183959500Y-75311000D01*
X184297001Y-75311000D01*
X184297001Y-80224087D01*
X183999761Y-79779238D01*
X183884786Y-79702414D01*
X180647589Y-76465218D01*
X180570762Y-76350238D01*
X180115279Y-76045894D01*
X179713623Y-75966000D01*
X179578000Y-75939023D01*
X179442377Y-75966000D01*
X156218623Y-75966000D01*
X156083000Y-75939023D01*
X155947377Y-75966000D01*
X155545721Y-76045894D01*
X155090238Y-76350238D01*
X155013412Y-76465216D01*
X152538216Y-78940413D01*
X152423239Y-79017238D01*
X152276542Y-79236786D01*
X152118894Y-79472722D01*
X152012023Y-80010000D01*
X152039001Y-80145628D01*
X152039000Y-104131377D01*
X152012023Y-104267000D01*
X152087809Y-104648001D01*
X152118894Y-104804278D01*
X152423238Y-105259761D01*
X152538216Y-105336587D01*
X154759412Y-107557784D01*
X154836238Y-107672762D01*
X155291721Y-107977106D01*
X155693377Y-108057000D01*
X155828999Y-108083977D01*
X155964621Y-108057000D01*
X156591000Y-108057000D01*
X156591000Y-114320000D01*
X156138071Y-114320000D01*
X156049391Y-114296132D01*
X155866517Y-114320000D01*
X155820377Y-114320000D01*
X155732331Y-114337513D01*
X155506193Y-114367028D01*
X155465162Y-114390656D01*
X155418721Y-114399894D01*
X155229093Y-114526600D01*
X155151306Y-114571394D01*
X155116585Y-114601775D01*
X154963238Y-114704238D01*
X154912216Y-114780598D01*
X154100585Y-115490776D01*
X153947238Y-115593239D01*
X153820535Y-115782864D01*
X153681507Y-115963629D01*
X153669201Y-116009351D01*
X153642894Y-116048722D01*
X153598402Y-116272400D01*
X153539133Y-116492609D01*
X153563000Y-116675478D01*
X153563001Y-132198372D01*
X153536023Y-132334000D01*
X153642894Y-132871278D01*
X153692663Y-132945762D01*
X153947239Y-133326762D01*
X154062216Y-133403587D01*
X154178000Y-133519371D01*
X154178000Y-135402000D01*
X148725621Y-135402000D01*
X148589999Y-135375023D01*
X148454377Y-135402000D01*
X148052721Y-135481894D01*
X147597238Y-135786238D01*
X147520412Y-135901216D01*
X143701629Y-139720000D01*
X135099364Y-139720000D01*
X135129398Y-139675051D01*
X135239000Y-139124046D01*
X135239000Y-137227954D01*
X135129398Y-136676949D01*
X134727000Y-136074716D01*
X134727000Y-135898621D01*
X134753977Y-135762999D01*
X134717425Y-135579239D01*
X134647106Y-135225721D01*
X134342762Y-134770238D01*
X134227784Y-134693412D01*
X131879589Y-132345218D01*
X131802762Y-132230238D01*
X131347279Y-131925894D01*
X130945623Y-131846000D01*
X130810000Y-131819023D01*
X130674377Y-131846000D01*
X82866372Y-131846000D01*
X81895000Y-130874629D01*
X81895000Y-122309622D01*
X81921977Y-122173999D01*
X81815106Y-121636721D01*
X81742318Y-121527786D01*
X81510762Y-121181238D01*
X81395784Y-121104412D01*
X80491589Y-120200218D01*
X80414762Y-120085238D01*
X79959279Y-119780894D01*
X79557623Y-119701000D01*
X79422000Y-119674023D01*
X79286377Y-119701000D01*
X78421484Y-119701000D01*
X78297522Y-119515478D01*
X77924733Y-119266389D01*
X77485000Y-119178921D01*
X76185000Y-119178921D01*
X75745267Y-119266389D01*
X75565000Y-119386839D01*
X75384733Y-119266389D01*
X74945000Y-119178921D01*
X73645000Y-119178921D01*
X73205267Y-119266389D01*
X72832478Y-119515478D01*
X72583389Y-119888267D01*
X72495921Y-120328000D01*
X72495921Y-121828000D01*
X72583389Y-122267733D01*
X72690476Y-122428000D01*
X72583389Y-122588267D01*
X72495921Y-123028000D01*
X72495921Y-123974159D01*
X72446523Y-124222500D01*
X72473501Y-124358128D01*
X72473500Y-127589107D01*
X72471389Y-127592267D01*
X72383921Y-128032000D01*
X72383921Y-130032000D01*
X72437627Y-130302000D01*
X72383921Y-130572000D01*
X72383921Y-132572000D01*
X72471389Y-133011733D01*
X72473500Y-133014893D01*
X72473501Y-135192588D01*
X72461377Y-135195000D01*
X72059721Y-135274894D01*
X71604238Y-135579238D01*
X71527410Y-135694219D01*
X71004216Y-136217413D01*
X70889238Y-136294239D01*
X70807773Y-136416161D01*
X71118441Y-111252000D01*
X85867273Y-111252000D01*
X85850602Y-111276950D01*
X85741000Y-111827955D01*
X85741000Y-113724046D01*
X85850603Y-114275051D01*
X86268108Y-114899893D01*
X86892950Y-115317398D01*
X87630000Y-115464007D01*
X88367051Y-115317398D01*
X88900001Y-114961293D01*
X89432950Y-115317398D01*
X90170000Y-115464007D01*
X90907051Y-115317398D01*
X91440001Y-114961293D01*
X91972950Y-115317398D01*
X92710000Y-115464007D01*
X93447051Y-115317398D01*
X93980001Y-114961293D01*
X94512950Y-115317398D01*
X95250000Y-115464007D01*
X95987051Y-115317398D01*
X96520001Y-114961293D01*
X97052950Y-115317398D01*
X97790000Y-115464007D01*
X98527051Y-115317398D01*
X99060001Y-114961293D01*
X99592950Y-115317398D01*
X100330000Y-115464007D01*
X101067051Y-115317398D01*
X101600001Y-114961293D01*
X102132950Y-115317398D01*
X102870000Y-115464007D01*
X103607051Y-115317398D01*
X104140001Y-114961293D01*
X104672950Y-115317398D01*
X105410000Y-115464007D01*
X106147051Y-115317398D01*
X106680001Y-114961293D01*
X107212950Y-115317398D01*
X107950000Y-115464007D01*
X108687051Y-115317398D01*
X109220001Y-114961293D01*
X109752950Y-115317398D01*
X110490000Y-115464007D01*
X111227051Y-115317398D01*
X111760001Y-114961293D01*
X112292950Y-115317398D01*
X113030000Y-115464007D01*
X113767051Y-115317398D01*
X114300001Y-114961293D01*
X114832950Y-115317398D01*
X115570000Y-115464007D01*
X116307051Y-115317398D01*
X116840001Y-114961293D01*
X117372950Y-115317398D01*
X118110000Y-115464007D01*
X118847051Y-115317398D01*
X119380001Y-114961293D01*
X119912950Y-115317398D01*
X120650000Y-115464007D01*
X121387051Y-115317398D01*
X121920001Y-114961293D01*
X122452950Y-115317398D01*
X123190000Y-115464007D01*
X123927051Y-115317398D01*
X124460001Y-114961293D01*
X124992950Y-115317398D01*
X125730000Y-115464007D01*
X126467051Y-115317398D01*
X127000001Y-114961293D01*
X127532950Y-115317398D01*
X128270000Y-115464007D01*
X129007051Y-115317398D01*
X129540001Y-114961293D01*
X130072950Y-115317398D01*
X130810000Y-115464007D01*
X131547051Y-115317398D01*
X131723000Y-115199833D01*
X131723000Y-116933762D01*
X131691127Y-117094000D01*
X131723000Y-117254238D01*
X131723000Y-117254241D01*
X131817400Y-117728823D01*
X132176999Y-118267001D01*
X132312849Y-118357773D01*
X137138845Y-123183771D01*
X137541176Y-123452600D01*
X137632206Y-123470707D01*
X137795176Y-123579600D01*
X138269758Y-123674000D01*
X141391000Y-123674000D01*
X141391001Y-129417732D01*
X141543422Y-130184004D01*
X142124040Y-131052961D01*
X142391001Y-131231338D01*
X142391001Y-132384055D01*
X142291000Y-132625478D01*
X142291000Y-133312522D01*
X142553920Y-133947267D01*
X143039733Y-134433080D01*
X143674478Y-134696000D01*
X144361522Y-134696000D01*
X144996267Y-134433080D01*
X145482080Y-133947267D01*
X145745000Y-133312522D01*
X145745000Y-132625478D01*
X145645000Y-132384057D01*
X145645000Y-131231338D01*
X145911961Y-131052961D01*
X146492579Y-130184004D01*
X146621688Y-129534929D01*
X146743522Y-129453522D01*
X146862138Y-129276000D01*
X147395250Y-129276000D01*
X147554000Y-129117250D01*
X147554000Y-128143000D01*
X147808000Y-128143000D01*
X147808000Y-129117250D01*
X147966750Y-129276000D01*
X148557309Y-129276000D01*
X148790698Y-129179327D01*
X148969327Y-129000699D01*
X149066000Y-128767310D01*
X149066000Y-128301750D01*
X148907250Y-128143000D01*
X147808000Y-128143000D01*
X147554000Y-128143000D01*
X147534000Y-128143000D01*
X147534000Y-127889000D01*
X147554000Y-127889000D01*
X147554000Y-126914750D01*
X147808000Y-126914750D01*
X147808000Y-127889000D01*
X148907250Y-127889000D01*
X149066000Y-127730250D01*
X149066000Y-127264690D01*
X148969327Y-127031301D01*
X148790698Y-126852673D01*
X148557309Y-126756000D01*
X147966750Y-126756000D01*
X147808000Y-126914750D01*
X147554000Y-126914750D01*
X147395250Y-126756000D01*
X146862138Y-126756000D01*
X146855456Y-126746000D01*
X146862138Y-126736000D01*
X147395250Y-126736000D01*
X147554000Y-126577250D01*
X147554000Y-125603000D01*
X147808000Y-125603000D01*
X147808000Y-126577250D01*
X147966750Y-126736000D01*
X148557309Y-126736000D01*
X148790698Y-126639327D01*
X148969327Y-126460699D01*
X149066000Y-126227310D01*
X149066000Y-125761750D01*
X148907250Y-125603000D01*
X147808000Y-125603000D01*
X147554000Y-125603000D01*
X147534000Y-125603000D01*
X147534000Y-125349000D01*
X147554000Y-125349000D01*
X147554000Y-124374750D01*
X147808000Y-124374750D01*
X147808000Y-125349000D01*
X148907250Y-125349000D01*
X149066000Y-125190250D01*
X149066000Y-124724690D01*
X148969327Y-124491301D01*
X148790698Y-124312673D01*
X148557309Y-124216000D01*
X147966750Y-124216000D01*
X147808000Y-124374750D01*
X147554000Y-124374750D01*
X147395250Y-124216000D01*
X146862138Y-124216000D01*
X146743522Y-124038478D01*
X146645000Y-123972648D01*
X146645000Y-121788268D01*
X146492579Y-121021996D01*
X145911961Y-120153039D01*
X145043003Y-119572421D01*
X144018000Y-119368535D01*
X142992996Y-119572421D01*
X142124039Y-120153039D01*
X141945662Y-120420000D01*
X138976926Y-120420000D01*
X134977000Y-116420076D01*
X134977000Y-114503131D01*
X135129398Y-114275051D01*
X135239000Y-113724046D01*
X135239000Y-111827954D01*
X135129398Y-111276949D01*
X134711893Y-110652107D01*
X134087050Y-110234602D01*
X133350000Y-110087993D01*
X132612949Y-110234602D01*
X132080000Y-110590706D01*
X131547050Y-110234602D01*
X130810000Y-110087993D01*
X130072949Y-110234602D01*
X129540000Y-110590706D01*
X129007050Y-110234602D01*
X128270000Y-110087993D01*
X127532949Y-110234602D01*
X127107000Y-110519211D01*
X127107000Y-109347000D01*
X141595331Y-109347000D01*
X141637001Y-109556489D01*
X141637000Y-114509488D01*
X141760410Y-115129913D01*
X142230519Y-115833481D01*
X142362833Y-115921890D01*
X142516561Y-116151960D01*
X143088891Y-116534379D01*
X143764000Y-116668667D01*
X144439110Y-116534379D01*
X145011440Y-116151960D01*
X145165168Y-115921889D01*
X145297481Y-115833481D01*
X145767590Y-115129914D01*
X145891000Y-114509489D01*
X145891000Y-110055285D01*
X145894589Y-110049914D01*
X146059669Y-109220001D01*
X145894589Y-108390086D01*
X145424481Y-107686519D01*
X144720914Y-107216411D01*
X143890999Y-107051331D01*
X143061086Y-107216411D01*
X142535115Y-107567853D01*
X142408113Y-107694855D01*
X142230520Y-107813519D01*
X142111856Y-107991112D01*
X142111853Y-107991115D01*
X141760411Y-108517086D01*
X141595331Y-109347000D01*
X127107000Y-109347000D01*
X127107000Y-104837371D01*
X128332373Y-103612000D01*
X138548377Y-103612000D01*
X138684000Y-103638977D01*
X138819623Y-103612000D01*
X139221279Y-103532106D01*
X139676762Y-103227762D01*
X139753589Y-103112782D01*
X141593787Y-101272586D01*
X141708762Y-101195762D01*
X141961175Y-100818000D01*
X142013106Y-100740279D01*
X142119977Y-100203000D01*
X142093000Y-100067377D01*
X142093000Y-95512623D01*
X142119977Y-95377000D01*
X142013106Y-94839721D01*
X141785586Y-94499214D01*
X141785585Y-94499213D01*
X141708761Y-94384238D01*
X141593786Y-94307414D01*
X140896589Y-93610218D01*
X140819762Y-93495238D01*
X140364279Y-93190894D01*
X139962623Y-93111000D01*
X139827000Y-93084023D01*
X139691377Y-93111000D01*
X139367666Y-93111000D01*
X139310522Y-93025478D01*
X138937733Y-92776389D01*
X138498000Y-92688921D01*
X136998000Y-92688921D01*
X136558267Y-92776389D01*
X136398000Y-92883476D01*
X136237733Y-92776389D01*
X135798000Y-92688921D01*
X134298000Y-92688921D01*
X133858267Y-92776389D01*
X133485478Y-93025478D01*
X133428334Y-93111000D01*
X132469621Y-93111000D01*
X132333999Y-93084023D01*
X132198377Y-93111000D01*
X131796721Y-93190894D01*
X131341238Y-93495238D01*
X131264410Y-93610219D01*
X130925357Y-93949272D01*
X130810379Y-94026098D01*
X130800254Y-94041251D01*
X130462977Y-94108339D01*
X130177860Y-94298848D01*
X130177860Y-93457763D01*
X130204837Y-93322140D01*
X130097966Y-92784861D01*
X130052234Y-92716418D01*
X130022726Y-92672256D01*
X130108200Y-92465903D01*
X130108200Y-91684097D01*
X129809016Y-90961803D01*
X129256197Y-90408984D01*
X128533903Y-90109800D01*
X127752097Y-90109800D01*
X127029803Y-90408984D01*
X126476984Y-90961803D01*
X126177800Y-91684097D01*
X126177800Y-92465903D01*
X126476984Y-93188197D01*
X127029803Y-93741016D01*
X127423861Y-93904240D01*
X127423860Y-95082952D01*
X127087908Y-95307428D01*
X126838819Y-95680217D01*
X126751351Y-96119950D01*
X126751351Y-96920050D01*
X126838819Y-97359783D01*
X127087908Y-97732572D01*
X127460697Y-97981661D01*
X127900430Y-98069129D01*
X129701290Y-98069129D01*
X130141023Y-97981661D01*
X130267710Y-97897012D01*
X130267710Y-97996359D01*
X130364383Y-98229748D01*
X130543011Y-98408377D01*
X130776400Y-98505050D01*
X131517390Y-98505050D01*
X131676140Y-98346300D01*
X131676140Y-97597000D01*
X131930140Y-97597000D01*
X131930140Y-98346300D01*
X132088890Y-98505050D01*
X132829880Y-98505050D01*
X133063269Y-98408377D01*
X133241897Y-98229748D01*
X133338570Y-97996359D01*
X133338570Y-97755750D01*
X133231510Y-97648690D01*
X133663000Y-97648690D01*
X133663000Y-98139250D01*
X133821750Y-98298000D01*
X134921000Y-98298000D01*
X134921000Y-97298750D01*
X134762250Y-97140000D01*
X134171691Y-97140000D01*
X133938302Y-97236673D01*
X133759673Y-97415301D01*
X133663000Y-97648690D01*
X133231510Y-97648690D01*
X133179820Y-97597000D01*
X131930140Y-97597000D01*
X131676140Y-97597000D01*
X131656140Y-97597000D01*
X131656140Y-97343000D01*
X131676140Y-97343000D01*
X131676140Y-97323000D01*
X131930140Y-97323000D01*
X131930140Y-97343000D01*
X133179820Y-97343000D01*
X133338570Y-97184250D01*
X133338570Y-96943641D01*
X133324797Y-96910391D01*
X133516092Y-96782572D01*
X133765181Y-96409783D01*
X133813003Y-96169366D01*
X133858267Y-96199611D01*
X134197771Y-96267142D01*
X135202189Y-97271561D01*
X135175000Y-97298750D01*
X135175000Y-98298000D01*
X135195000Y-98298000D01*
X135195000Y-98552000D01*
X135175000Y-98552000D01*
X135175000Y-99551250D01*
X135333750Y-99710000D01*
X135924309Y-99710000D01*
X136035960Y-99663752D01*
X136185478Y-99887522D01*
X136558267Y-100136611D01*
X136998000Y-100224079D01*
X138498000Y-100224079D01*
X138809512Y-100162116D01*
X138113629Y-100858000D01*
X127897623Y-100858000D01*
X127762000Y-100831023D01*
X127224721Y-100937894D01*
X127010867Y-101080787D01*
X126769238Y-101242238D01*
X126692414Y-101357213D01*
X124852216Y-103197413D01*
X124737238Y-103274239D01*
X124714000Y-103309017D01*
X124714000Y-98710750D01*
X133663000Y-98710750D01*
X133663000Y-99201310D01*
X133759673Y-99434699D01*
X133938302Y-99613327D01*
X134171691Y-99710000D01*
X134762250Y-99710000D01*
X134921000Y-99551250D01*
X134921000Y-98552000D01*
X133821750Y-98552000D01*
X133663000Y-98710750D01*
X124714000Y-98710750D01*
X124714000Y-77367532D01*
X124839853Y-77555885D01*
X124839856Y-77555888D01*
X124958520Y-77733481D01*
X125136113Y-77852145D01*
X127125855Y-79841888D01*
X127244519Y-80019481D01*
X127374384Y-80106254D01*
X127029803Y-80248984D01*
X126476984Y-80801803D01*
X126177800Y-81524097D01*
X126177800Y-82305903D01*
X126476984Y-83028197D01*
X127029803Y-83581016D01*
X127752097Y-83880200D01*
X128533903Y-83880200D01*
X129256197Y-83581016D01*
X129809016Y-83028197D01*
X130108200Y-82305903D01*
X130108200Y-81524097D01*
X129809016Y-80801803D01*
X129620213Y-80613000D01*
X135553515Y-80613000D01*
X135762999Y-80654669D01*
X135972484Y-80613000D01*
X142865645Y-80613000D01*
X143061086Y-80743589D01*
X143890999Y-80908669D01*
X144720914Y-80743589D01*
X145424481Y-80273481D01*
X145894589Y-79569914D01*
X146059669Y-78739999D01*
X145894589Y-77910086D01*
X145543147Y-77384115D01*
X145289146Y-77130114D01*
X145170481Y-76952519D01*
X144466914Y-76482410D01*
X143846489Y-76359000D01*
X143846484Y-76359000D01*
X143637000Y-76317331D01*
X143427516Y-76359000D01*
X136747000Y-76359000D01*
X136747000Y-74720511D01*
X136623590Y-74100086D01*
X136581032Y-74036393D01*
X136507111Y-73664767D01*
X136258022Y-73291978D01*
X135926964Y-73070773D01*
X136092340Y-72612869D01*
X136065553Y-72032465D01*
X135894976Y-71620656D01*
X135646215Y-71543390D01*
X134799605Y-72390000D01*
X134813748Y-72404143D01*
X134634143Y-72583748D01*
X134620000Y-72569605D01*
X134605858Y-72583748D01*
X134426253Y-72404143D01*
X134440395Y-72390000D01*
X133593785Y-71543390D01*
X133345024Y-71620656D01*
X133147660Y-72167131D01*
X133174447Y-72747535D01*
X133309355Y-73073232D01*
X132981978Y-73291978D01*
X132732889Y-73664767D01*
X132658968Y-74036394D01*
X132616410Y-74100087D01*
X132493000Y-74720512D01*
X132493000Y-76359000D01*
X129659033Y-76359000D01*
X128619000Y-75318968D01*
X128619000Y-71363785D01*
X133773390Y-71363785D01*
X134620000Y-72210395D01*
X135466610Y-71363785D01*
X135389344Y-71115024D01*
X134842869Y-70917660D01*
X134262465Y-70944447D01*
X133850656Y-71115024D01*
X133773390Y-71363785D01*
X128619000Y-71363785D01*
X128619000Y-65161215D01*
X139488390Y-65161215D01*
X139565656Y-65409976D01*
X140112131Y-65607340D01*
X140692535Y-65580553D01*
X141104344Y-65409976D01*
X141181610Y-65161215D01*
X140335000Y-64314605D01*
X139488390Y-65161215D01*
X128619000Y-65161215D01*
X128619000Y-58829959D01*
X129809325Y-59625308D01*
X131013130Y-59864760D01*
X138208000Y-59864760D01*
X138208000Y-61804488D01*
X138331410Y-62424913D01*
X138373968Y-62488606D01*
X138447889Y-62860233D01*
X138696978Y-63233022D01*
X139028036Y-63454227D01*
X138862660Y-63912131D01*
X138889447Y-64492535D01*
X139060024Y-64904344D01*
X139308785Y-64981610D01*
X140155395Y-64135000D01*
X140141253Y-64120858D01*
X140320858Y-63941253D01*
X140335000Y-63955395D01*
X140349143Y-63941253D01*
X140528748Y-64120858D01*
X140514605Y-64135000D01*
X141361215Y-64981610D01*
X141609976Y-64904344D01*
X141807340Y-64357869D01*
X141780553Y-63777465D01*
X141645645Y-63451768D01*
X141936013Y-63257750D01*
X144790000Y-63257750D01*
X144790000Y-63848309D01*
X144886673Y-64081698D01*
X145065301Y-64260327D01*
X145298690Y-64357000D01*
X145764250Y-64357000D01*
X145923000Y-64198250D01*
X145923000Y-63099000D01*
X146177000Y-63099000D01*
X146177000Y-64198250D01*
X146335750Y-64357000D01*
X146801310Y-64357000D01*
X147034699Y-64260327D01*
X147213327Y-64081698D01*
X147310000Y-63848309D01*
X147310000Y-63257750D01*
X147965000Y-63257750D01*
X147965000Y-63848309D01*
X148061673Y-64081698D01*
X148240301Y-64260327D01*
X148473690Y-64357000D01*
X148939250Y-64357000D01*
X149098000Y-64198250D01*
X149098000Y-63099000D01*
X149352000Y-63099000D01*
X149352000Y-64198250D01*
X149510750Y-64357000D01*
X149976310Y-64357000D01*
X150209699Y-64260327D01*
X150388327Y-64081698D01*
X150485000Y-63848309D01*
X150485000Y-63257750D01*
X150326250Y-63099000D01*
X149352000Y-63099000D01*
X149098000Y-63099000D01*
X148123750Y-63099000D01*
X147965000Y-63257750D01*
X147310000Y-63257750D01*
X147151250Y-63099000D01*
X146177000Y-63099000D01*
X145923000Y-63099000D01*
X144948750Y-63099000D01*
X144790000Y-63257750D01*
X141936013Y-63257750D01*
X141973022Y-63233022D01*
X141980387Y-63222000D01*
X142714762Y-63222000D01*
X142875000Y-63253873D01*
X143035238Y-63222000D01*
X143035242Y-63222000D01*
X143509824Y-63127600D01*
X144048001Y-62768001D01*
X144138774Y-62632150D01*
X144321084Y-62449840D01*
X144790000Y-62449840D01*
X144790000Y-62686250D01*
X144948750Y-62845000D01*
X145923000Y-62845000D01*
X145923000Y-62825000D01*
X146177000Y-62825000D01*
X146177000Y-62845000D01*
X147151250Y-62845000D01*
X147310000Y-62686250D01*
X147310000Y-62153138D01*
X147487522Y-62034522D01*
X147637500Y-61810063D01*
X147787478Y-62034522D01*
X147965000Y-62153138D01*
X147965000Y-62686250D01*
X148123750Y-62845000D01*
X149098000Y-62845000D01*
X149098000Y-62825000D01*
X149352000Y-62825000D01*
X149352000Y-62845000D01*
X150326250Y-62845000D01*
X150485000Y-62686250D01*
X150485000Y-62153138D01*
X150662522Y-62034522D01*
X150911611Y-61661733D01*
X150978068Y-61327631D01*
X151130000Y-61357852D01*
X152740275Y-61037547D01*
X154105400Y-60125400D01*
X155017547Y-58760275D01*
X155337852Y-57150000D01*
X155017547Y-55539725D01*
X154335647Y-54519189D01*
X152923411Y-53106953D01*
X152693161Y-52762359D01*
X152507000Y-52637970D01*
X152507000Y-49088826D01*
X153992070Y-49088826D01*
X153992070Y-49971174D01*
X154329730Y-50786357D01*
X154953643Y-51410270D01*
X155768826Y-51747930D01*
X156651174Y-51747930D01*
X157466357Y-51410270D01*
X158090270Y-50786357D01*
X158427930Y-49971174D01*
X158427930Y-49088826D01*
X158090270Y-48273643D01*
X157466357Y-47649730D01*
X156651174Y-47312070D01*
X155768826Y-47312070D01*
X154953643Y-47649730D01*
X154329730Y-48273643D01*
X153992070Y-49088826D01*
X152507000Y-49088826D01*
X152507000Y-47122213D01*
X152796016Y-46833197D01*
X153095200Y-46110903D01*
X153095200Y-45329097D01*
X152796016Y-44606803D01*
X152243197Y-44053984D01*
X151520903Y-43754800D01*
X150739097Y-43754800D01*
X150016803Y-44053984D01*
X149463984Y-44606803D01*
X149164800Y-45329097D01*
X149164800Y-46110903D01*
X149463984Y-46833197D01*
X149753001Y-47122214D01*
X149753000Y-51536918D01*
X149717760Y-51529908D01*
X149311291Y-51610760D01*
X141413784Y-51610760D01*
X142155136Y-51303682D01*
X142743682Y-50715136D01*
X143062200Y-49946165D01*
X143062200Y-49113835D01*
X142743682Y-48344864D01*
X142347000Y-47948182D01*
X142347000Y-47122213D01*
X142636016Y-46833197D01*
X142935200Y-46110903D01*
X142935200Y-45329097D01*
X142636016Y-44606803D01*
X142083197Y-44053984D01*
X141360903Y-43754800D01*
X140579097Y-43754800D01*
X139856803Y-44053984D01*
X139665079Y-44245708D01*
X139321860Y-43902489D01*
X139321860Y-43592750D01*
X143315000Y-43592750D01*
X143315000Y-44083310D01*
X143411673Y-44316699D01*
X143590302Y-44495327D01*
X143823691Y-44592000D01*
X144414250Y-44592000D01*
X144573000Y-44433250D01*
X144573000Y-43434000D01*
X143473750Y-43434000D01*
X143315000Y-43592750D01*
X139321860Y-43592750D01*
X139321860Y-42839047D01*
X139411710Y-42779012D01*
X139411710Y-42878359D01*
X139508383Y-43111748D01*
X139687011Y-43290377D01*
X139920400Y-43387050D01*
X140661390Y-43387050D01*
X140820140Y-43228300D01*
X140820140Y-42479000D01*
X141074140Y-42479000D01*
X141074140Y-43228300D01*
X141232890Y-43387050D01*
X141973880Y-43387050D01*
X142207269Y-43290377D01*
X142385897Y-43111748D01*
X142482570Y-42878359D01*
X142482570Y-42637750D01*
X142375510Y-42530690D01*
X143315000Y-42530690D01*
X143315000Y-43021250D01*
X143473750Y-43180000D01*
X144573000Y-43180000D01*
X144573000Y-42180750D01*
X144414250Y-42022000D01*
X143823691Y-42022000D01*
X143590302Y-42118673D01*
X143411673Y-42297301D01*
X143315000Y-42530690D01*
X142375510Y-42530690D01*
X142323820Y-42479000D01*
X141074140Y-42479000D01*
X140820140Y-42479000D01*
X140800140Y-42479000D01*
X140800140Y-42225000D01*
X140820140Y-42225000D01*
X140820140Y-42205000D01*
X141074140Y-42205000D01*
X141074140Y-42225000D01*
X142323820Y-42225000D01*
X142482570Y-42066250D01*
X142482570Y-41829000D01*
X144117377Y-41829000D01*
X144253000Y-41855977D01*
X144388623Y-41829000D01*
X144513910Y-41804079D01*
X144551708Y-41804079D01*
X144877689Y-42130061D01*
X144827000Y-42180750D01*
X144827000Y-43180000D01*
X144847000Y-43180000D01*
X144847000Y-43434000D01*
X144827000Y-43434000D01*
X144827000Y-44433250D01*
X144985750Y-44592000D01*
X145576309Y-44592000D01*
X145687960Y-44545752D01*
X145837478Y-44769522D01*
X146210267Y-45018611D01*
X146650000Y-45106079D01*
X148150000Y-45106079D01*
X148589733Y-45018611D01*
X148962522Y-44769522D01*
X149211611Y-44396733D01*
X149299079Y-43957000D01*
X149299079Y-42657000D01*
X149211611Y-42217267D01*
X148962522Y-41844478D01*
X148680444Y-41656000D01*
X148962522Y-41467522D01*
X149019666Y-41382000D01*
X168128633Y-41382000D01*
X168114078Y-41403783D01*
X168114078Y-41403783D01*
G37*
X168114078Y-41403783D02*
X165711383Y-43806479D01*
X165492040Y-43953039D01*
X165055209Y-44606803D01*
X164911422Y-44821996D01*
X164707535Y-45847000D01*
X164759001Y-46105735D01*
X164759000Y-51997861D01*
X162233862Y-54523000D01*
X158491268Y-54523000D01*
X157724996Y-54675421D01*
X156856039Y-55256039D01*
X156275421Y-56124996D01*
X156071535Y-57150000D01*
X156275421Y-58175004D01*
X156856039Y-59043961D01*
X157724996Y-59624579D01*
X158491268Y-59777000D01*
X163063269Y-59777000D01*
X163322000Y-59828465D01*
X163580731Y-59777000D01*
X163580732Y-59777000D01*
X164347004Y-59624579D01*
X165215961Y-59043961D01*
X165362523Y-58824615D01*
X169060618Y-55126521D01*
X169279961Y-54979961D01*
X169860579Y-54111004D01*
X170013000Y-53344732D01*
X170013000Y-53344731D01*
X170064465Y-53086000D01*
X170013000Y-52827269D01*
X170013000Y-46935138D01*
X171242739Y-45705400D01*
X179150262Y-45705400D01*
X179618000Y-46173139D01*
X179618001Y-53151400D01*
X175509268Y-53151400D01*
X174742996Y-53303821D01*
X174056100Y-53762790D01*
X173951154Y-53783665D01*
X173250696Y-54251696D01*
X172782665Y-54952154D01*
X172618314Y-55778400D01*
X172782665Y-56604646D01*
X173250696Y-57305104D01*
X173951154Y-57773135D01*
X174056100Y-57794010D01*
X174742996Y-58252979D01*
X175509268Y-58405400D01*
X179618000Y-58405400D01*
X179618001Y-64951860D01*
X178718462Y-65851400D01*
X175509268Y-65851400D01*
X174742996Y-66003821D01*
X174056100Y-66462790D01*
X173951154Y-66483665D01*
X173250696Y-66951696D01*
X172782665Y-67652154D01*
X172618314Y-68478400D01*
X172782665Y-69304646D01*
X173250696Y-70005104D01*
X173951154Y-70473135D01*
X174056100Y-70494010D01*
X174742996Y-70952979D01*
X175509268Y-71105400D01*
X179547869Y-71105400D01*
X179806600Y-71156865D01*
X180065331Y-71105400D01*
X180065332Y-71105400D01*
X180831604Y-70952979D01*
X181126000Y-70756270D01*
X181126000Y-73202056D01*
X181026000Y-73443478D01*
X181026000Y-74130522D01*
X181288920Y-74765267D01*
X181774733Y-75251080D01*
X182409478Y-75514000D01*
X183096522Y-75514000D01*
X183731267Y-75251080D01*
X183832500Y-75149847D01*
X183832500Y-75184000D01*
X183842167Y-75232601D01*
X183869697Y-75273803D01*
X183910899Y-75301333D01*
X183959500Y-75311000D01*
X184297001Y-75311000D01*
X184297001Y-80224087D01*
X183999761Y-79779238D01*
X183884786Y-79702414D01*
X180647589Y-76465218D01*
X180570762Y-76350238D01*
X180115279Y-76045894D01*
X179713623Y-75966000D01*
X179578000Y-75939023D01*
X179442377Y-75966000D01*
X156218623Y-75966000D01*
X156083000Y-75939023D01*
X155947377Y-75966000D01*
X155545721Y-76045894D01*
X155090238Y-76350238D01*
X155013412Y-76465216D01*
X152538216Y-78940413D01*
X152423239Y-79017238D01*
X152276542Y-79236786D01*
X152118894Y-79472722D01*
X152012023Y-80010000D01*
X152039001Y-80145628D01*
X152039000Y-104131377D01*
X152012023Y-104267000D01*
X152087809Y-104648001D01*
X152118894Y-104804278D01*
X152423238Y-105259761D01*
X152538216Y-105336587D01*
X154759412Y-107557784D01*
X154836238Y-107672762D01*
X155291721Y-107977106D01*
X155693377Y-108057000D01*
X155828999Y-108083977D01*
X155964621Y-108057000D01*
X156591000Y-108057000D01*
X156591000Y-114320000D01*
X156138071Y-114320000D01*
X156049391Y-114296132D01*
X155866517Y-114320000D01*
X155820377Y-114320000D01*
X155732331Y-114337513D01*
X155506193Y-114367028D01*
X155465162Y-114390656D01*
X155418721Y-114399894D01*
X155229093Y-114526600D01*
X155151306Y-114571394D01*
X155116585Y-114601775D01*
X154963238Y-114704238D01*
X154912216Y-114780598D01*
X154100585Y-115490776D01*
X153947238Y-115593239D01*
X153820535Y-115782864D01*
X153681507Y-115963629D01*
X153669201Y-116009351D01*
X153642894Y-116048722D01*
X153598402Y-116272400D01*
X153539133Y-116492609D01*
X153563000Y-116675478D01*
X153563001Y-132198372D01*
X153536023Y-132334000D01*
X153642894Y-132871278D01*
X153692663Y-132945762D01*
X153947239Y-133326762D01*
X154062216Y-133403587D01*
X154178000Y-133519371D01*
X154178000Y-135402000D01*
X148725621Y-135402000D01*
X148589999Y-135375023D01*
X148454377Y-135402000D01*
X148052721Y-135481894D01*
X147597238Y-135786238D01*
X147520412Y-135901216D01*
X143701629Y-139720000D01*
X135099364Y-139720000D01*
X135129398Y-139675051D01*
X135239000Y-139124046D01*
X135239000Y-137227954D01*
X135129398Y-136676949D01*
X134727000Y-136074716D01*
X134727000Y-135898621D01*
X134753977Y-135762999D01*
X134717425Y-135579239D01*
X134647106Y-135225721D01*
X134342762Y-134770238D01*
X134227784Y-134693412D01*
X131879589Y-132345218D01*
X131802762Y-132230238D01*
X131347279Y-131925894D01*
X130945623Y-131846000D01*
X130810000Y-131819023D01*
X130674377Y-131846000D01*
X82866372Y-131846000D01*
X81895000Y-130874629D01*
X81895000Y-122309622D01*
X81921977Y-122173999D01*
X81815106Y-121636721D01*
X81742318Y-121527786D01*
X81510762Y-121181238D01*
X81395784Y-121104412D01*
X80491589Y-120200218D01*
X80414762Y-120085238D01*
X79959279Y-119780894D01*
X79557623Y-119701000D01*
X79422000Y-119674023D01*
X79286377Y-119701000D01*
X78421484Y-119701000D01*
X78297522Y-119515478D01*
X77924733Y-119266389D01*
X77485000Y-119178921D01*
X76185000Y-119178921D01*
X75745267Y-119266389D01*
X75565000Y-119386839D01*
X75384733Y-119266389D01*
X74945000Y-119178921D01*
X73645000Y-119178921D01*
X73205267Y-119266389D01*
X72832478Y-119515478D01*
X72583389Y-119888267D01*
X72495921Y-120328000D01*
X72495921Y-121828000D01*
X72583389Y-122267733D01*
X72690476Y-122428000D01*
X72583389Y-122588267D01*
X72495921Y-123028000D01*
X72495921Y-123974159D01*
X72446523Y-124222500D01*
X72473501Y-124358128D01*
X72473500Y-127589107D01*
X72471389Y-127592267D01*
X72383921Y-128032000D01*
X72383921Y-130032000D01*
X72437627Y-130302000D01*
X72383921Y-130572000D01*
X72383921Y-132572000D01*
X72471389Y-133011733D01*
X72473500Y-133014893D01*
X72473501Y-135192588D01*
X72461377Y-135195000D01*
X72059721Y-135274894D01*
X71604238Y-135579238D01*
X71527410Y-135694219D01*
X71004216Y-136217413D01*
X70889238Y-136294239D01*
X70807773Y-136416161D01*
X71118441Y-111252000D01*
X85867273Y-111252000D01*
X85850602Y-111276950D01*
X85741000Y-111827955D01*
X85741000Y-113724046D01*
X85850603Y-114275051D01*
X86268108Y-114899893D01*
X86892950Y-115317398D01*
X87630000Y-115464007D01*
X88367051Y-115317398D01*
X88900001Y-114961293D01*
X89432950Y-115317398D01*
X90170000Y-115464007D01*
X90907051Y-115317398D01*
X91440001Y-114961293D01*
X91972950Y-115317398D01*
X92710000Y-115464007D01*
X93447051Y-115317398D01*
X93980001Y-114961293D01*
X94512950Y-115317398D01*
X95250000Y-115464007D01*
X95987051Y-115317398D01*
X96520001Y-114961293D01*
X97052950Y-115317398D01*
X97790000Y-115464007D01*
X98527051Y-115317398D01*
X99060001Y-114961293D01*
X99592950Y-115317398D01*
X100330000Y-115464007D01*
X101067051Y-115317398D01*
X101600001Y-114961293D01*
X102132950Y-115317398D01*
X102870000Y-115464007D01*
X103607051Y-115317398D01*
X104140001Y-114961293D01*
X104672950Y-115317398D01*
X105410000Y-115464007D01*
X106147051Y-115317398D01*
X106680001Y-114961293D01*
X107212950Y-115317398D01*
X107950000Y-115464007D01*
X108687051Y-115317398D01*
X109220001Y-114961293D01*
X109752950Y-115317398D01*
X110490000Y-115464007D01*
X111227051Y-115317398D01*
X111760001Y-114961293D01*
X112292950Y-115317398D01*
X113030000Y-115464007D01*
X113767051Y-115317398D01*
X114300001Y-114961293D01*
X114832950Y-115317398D01*
X115570000Y-115464007D01*
X116307051Y-115317398D01*
X116840001Y-114961293D01*
X117372950Y-115317398D01*
X118110000Y-115464007D01*
X118847051Y-115317398D01*
X119380001Y-114961293D01*
X119912950Y-115317398D01*
X120650000Y-115464007D01*
X121387051Y-115317398D01*
X121920001Y-114961293D01*
X122452950Y-115317398D01*
X123190000Y-115464007D01*
X123927051Y-115317398D01*
X124460001Y-114961293D01*
X124992950Y-115317398D01*
X125730000Y-115464007D01*
X126467051Y-115317398D01*
X127000001Y-114961293D01*
X127532950Y-115317398D01*
X128270000Y-115464007D01*
X129007051Y-115317398D01*
X129540001Y-114961293D01*
X130072950Y-115317398D01*
X130810000Y-115464007D01*
X131547051Y-115317398D01*
X131723000Y-115199833D01*
X131723000Y-116933762D01*
X131691127Y-117094000D01*
X131723000Y-117254238D01*
X131723000Y-117254241D01*
X131817400Y-117728823D01*
X132176999Y-118267001D01*
X132312849Y-118357773D01*
X137138845Y-123183771D01*
X137541176Y-123452600D01*
X137632206Y-123470707D01*
X137795176Y-123579600D01*
X138269758Y-123674000D01*
X141391000Y-123674000D01*
X141391001Y-129417732D01*
X141543422Y-130184004D01*
X142124040Y-131052961D01*
X142391001Y-131231338D01*
X142391001Y-132384055D01*
X142291000Y-132625478D01*
X142291000Y-133312522D01*
X142553920Y-133947267D01*
X143039733Y-134433080D01*
X143674478Y-134696000D01*
X144361522Y-134696000D01*
X144996267Y-134433080D01*
X145482080Y-133947267D01*
X145745000Y-133312522D01*
X145745000Y-132625478D01*
X145645000Y-132384057D01*
X145645000Y-131231338D01*
X145911961Y-131052961D01*
X146492579Y-130184004D01*
X146621688Y-129534929D01*
X146743522Y-129453522D01*
X146862138Y-129276000D01*
X147395250Y-129276000D01*
X147554000Y-129117250D01*
X147554000Y-128143000D01*
X147808000Y-128143000D01*
X147808000Y-129117250D01*
X147966750Y-129276000D01*
X148557309Y-129276000D01*
X148790698Y-129179327D01*
X148969327Y-129000699D01*
X149066000Y-128767310D01*
X149066000Y-128301750D01*
X148907250Y-128143000D01*
X147808000Y-128143000D01*
X147554000Y-128143000D01*
X147534000Y-128143000D01*
X147534000Y-127889000D01*
X147554000Y-127889000D01*
X147554000Y-126914750D01*
X147808000Y-126914750D01*
X147808000Y-127889000D01*
X148907250Y-127889000D01*
X149066000Y-127730250D01*
X149066000Y-127264690D01*
X148969327Y-127031301D01*
X148790698Y-126852673D01*
X148557309Y-126756000D01*
X147966750Y-126756000D01*
X147808000Y-126914750D01*
X147554000Y-126914750D01*
X147395250Y-126756000D01*
X146862138Y-126756000D01*
X146855456Y-126746000D01*
X146862138Y-126736000D01*
X147395250Y-126736000D01*
X147554000Y-126577250D01*
X147554000Y-125603000D01*
X147808000Y-125603000D01*
X147808000Y-126577250D01*
X147966750Y-126736000D01*
X148557309Y-126736000D01*
X148790698Y-126639327D01*
X148969327Y-126460699D01*
X149066000Y-126227310D01*
X149066000Y-125761750D01*
X148907250Y-125603000D01*
X147808000Y-125603000D01*
X147554000Y-125603000D01*
X147534000Y-125603000D01*
X147534000Y-125349000D01*
X147554000Y-125349000D01*
X147554000Y-124374750D01*
X147808000Y-124374750D01*
X147808000Y-125349000D01*
X148907250Y-125349000D01*
X149066000Y-125190250D01*
X149066000Y-124724690D01*
X148969327Y-124491301D01*
X148790698Y-124312673D01*
X148557309Y-124216000D01*
X147966750Y-124216000D01*
X147808000Y-124374750D01*
X147554000Y-124374750D01*
X147395250Y-124216000D01*
X146862138Y-124216000D01*
X146743522Y-124038478D01*
X146645000Y-123972648D01*
X146645000Y-121788268D01*
X146492579Y-121021996D01*
X145911961Y-120153039D01*
X145043003Y-119572421D01*
X144018000Y-119368535D01*
X142992996Y-119572421D01*
X142124039Y-120153039D01*
X141945662Y-120420000D01*
X138976926Y-120420000D01*
X134977000Y-116420076D01*
X134977000Y-114503131D01*
X135129398Y-114275051D01*
X135239000Y-113724046D01*
X135239000Y-111827954D01*
X135129398Y-111276949D01*
X134711893Y-110652107D01*
X134087050Y-110234602D01*
X133350000Y-110087993D01*
X132612949Y-110234602D01*
X132080000Y-110590706D01*
X131547050Y-110234602D01*
X130810000Y-110087993D01*
X130072949Y-110234602D01*
X129540000Y-110590706D01*
X129007050Y-110234602D01*
X128270000Y-110087993D01*
X127532949Y-110234602D01*
X127107000Y-110519211D01*
X127107000Y-109347000D01*
X141595331Y-109347000D01*
X141637001Y-109556489D01*
X141637000Y-114509488D01*
X141760410Y-115129913D01*
X142230519Y-115833481D01*
X142362833Y-115921890D01*
X142516561Y-116151960D01*
X143088891Y-116534379D01*
X143764000Y-116668667D01*
X144439110Y-116534379D01*
X145011440Y-116151960D01*
X145165168Y-115921889D01*
X145297481Y-115833481D01*
X145767590Y-115129914D01*
X145891000Y-114509489D01*
X145891000Y-110055285D01*
X145894589Y-110049914D01*
X146059669Y-109220001D01*
X145894589Y-108390086D01*
X145424481Y-107686519D01*
X144720914Y-107216411D01*
X143890999Y-107051331D01*
X143061086Y-107216411D01*
X142535115Y-107567853D01*
X142408113Y-107694855D01*
X142230520Y-107813519D01*
X142111856Y-107991112D01*
X142111853Y-107991115D01*
X141760411Y-108517086D01*
X141595331Y-109347000D01*
X127107000Y-109347000D01*
X127107000Y-104837371D01*
X128332373Y-103612000D01*
X138548377Y-103612000D01*
X138684000Y-103638977D01*
X138819623Y-103612000D01*
X139221279Y-103532106D01*
X139676762Y-103227762D01*
X139753589Y-103112782D01*
X141593787Y-101272586D01*
X141708762Y-101195762D01*
X141961175Y-100818000D01*
X142013106Y-100740279D01*
X142119977Y-100203000D01*
X142093000Y-100067377D01*
X142093000Y-95512623D01*
X142119977Y-95377000D01*
X142013106Y-94839721D01*
X141785586Y-94499214D01*
X141785585Y-94499213D01*
X141708761Y-94384238D01*
X141593786Y-94307414D01*
X140896589Y-93610218D01*
X140819762Y-93495238D01*
X140364279Y-93190894D01*
X139962623Y-93111000D01*
X139827000Y-93084023D01*
X139691377Y-93111000D01*
X139367666Y-93111000D01*
X139310522Y-93025478D01*
X138937733Y-92776389D01*
X138498000Y-92688921D01*
X136998000Y-92688921D01*
X136558267Y-92776389D01*
X136398000Y-92883476D01*
X136237733Y-92776389D01*
X135798000Y-92688921D01*
X134298000Y-92688921D01*
X133858267Y-92776389D01*
X133485478Y-93025478D01*
X133428334Y-93111000D01*
X132469621Y-93111000D01*
X132333999Y-93084023D01*
X132198377Y-93111000D01*
X131796721Y-93190894D01*
X131341238Y-93495238D01*
X131264410Y-93610219D01*
X130925357Y-93949272D01*
X130810379Y-94026098D01*
X130800254Y-94041251D01*
X130462977Y-94108339D01*
X130177860Y-94298848D01*
X130177860Y-93457763D01*
X130204837Y-93322140D01*
X130097966Y-92784861D01*
X130052234Y-92716418D01*
X130022726Y-92672256D01*
X130108200Y-92465903D01*
X130108200Y-91684097D01*
X129809016Y-90961803D01*
X129256197Y-90408984D01*
X128533903Y-90109800D01*
X127752097Y-90109800D01*
X127029803Y-90408984D01*
X126476984Y-90961803D01*
X126177800Y-91684097D01*
X126177800Y-92465903D01*
X126476984Y-93188197D01*
X127029803Y-93741016D01*
X127423861Y-93904240D01*
X127423860Y-95082952D01*
X127087908Y-95307428D01*
X126838819Y-95680217D01*
X126751351Y-96119950D01*
X126751351Y-96920050D01*
X126838819Y-97359783D01*
X127087908Y-97732572D01*
X127460697Y-97981661D01*
X127900430Y-98069129D01*
X129701290Y-98069129D01*
X130141023Y-97981661D01*
X130267710Y-97897012D01*
X130267710Y-97996359D01*
X130364383Y-98229748D01*
X130543011Y-98408377D01*
X130776400Y-98505050D01*
X131517390Y-98505050D01*
X131676140Y-98346300D01*
X131676140Y-97597000D01*
X131930140Y-97597000D01*
X131930140Y-98346300D01*
X132088890Y-98505050D01*
X132829880Y-98505050D01*
X133063269Y-98408377D01*
X133241897Y-98229748D01*
X133338570Y-97996359D01*
X133338570Y-97755750D01*
X133231510Y-97648690D01*
X133663000Y-97648690D01*
X133663000Y-98139250D01*
X133821750Y-98298000D01*
X134921000Y-98298000D01*
X134921000Y-97298750D01*
X134762250Y-97140000D01*
X134171691Y-97140000D01*
X133938302Y-97236673D01*
X133759673Y-97415301D01*
X133663000Y-97648690D01*
X133231510Y-97648690D01*
X133179820Y-97597000D01*
X131930140Y-97597000D01*
X131676140Y-97597000D01*
X131656140Y-97597000D01*
X131656140Y-97343000D01*
X131676140Y-97343000D01*
X131676140Y-97323000D01*
X131930140Y-97323000D01*
X131930140Y-97343000D01*
X133179820Y-97343000D01*
X133338570Y-97184250D01*
X133338570Y-96943641D01*
X133324797Y-96910391D01*
X133516092Y-96782572D01*
X133765181Y-96409783D01*
X133813003Y-96169366D01*
X133858267Y-96199611D01*
X134197771Y-96267142D01*
X135202189Y-97271561D01*
X135175000Y-97298750D01*
X135175000Y-98298000D01*
X135195000Y-98298000D01*
X135195000Y-98552000D01*
X135175000Y-98552000D01*
X135175000Y-99551250D01*
X135333750Y-99710000D01*
X135924309Y-99710000D01*
X136035960Y-99663752D01*
X136185478Y-99887522D01*
X136558267Y-100136611D01*
X136998000Y-100224079D01*
X138498000Y-100224079D01*
X138809512Y-100162116D01*
X138113629Y-100858000D01*
X127897623Y-100858000D01*
X127762000Y-100831023D01*
X127224721Y-100937894D01*
X127010867Y-101080787D01*
X126769238Y-101242238D01*
X126692414Y-101357213D01*
X124852216Y-103197413D01*
X124737238Y-103274239D01*
X124714000Y-103309017D01*
X124714000Y-98710750D01*
X133663000Y-98710750D01*
X133663000Y-99201310D01*
X133759673Y-99434699D01*
X133938302Y-99613327D01*
X134171691Y-99710000D01*
X134762250Y-99710000D01*
X134921000Y-99551250D01*
X134921000Y-98552000D01*
X133821750Y-98552000D01*
X133663000Y-98710750D01*
X124714000Y-98710750D01*
X124714000Y-77367532D01*
X124839853Y-77555885D01*
X124839856Y-77555888D01*
X124958520Y-77733481D01*
X125136113Y-77852145D01*
X127125855Y-79841888D01*
X127244519Y-80019481D01*
X127374384Y-80106254D01*
X127029803Y-80248984D01*
X126476984Y-80801803D01*
X126177800Y-81524097D01*
X126177800Y-82305903D01*
X126476984Y-83028197D01*
X127029803Y-83581016D01*
X127752097Y-83880200D01*
X128533903Y-83880200D01*
X129256197Y-83581016D01*
X129809016Y-83028197D01*
X130108200Y-82305903D01*
X130108200Y-81524097D01*
X129809016Y-80801803D01*
X129620213Y-80613000D01*
X135553515Y-80613000D01*
X135762999Y-80654669D01*
X135972484Y-80613000D01*
X142865645Y-80613000D01*
X143061086Y-80743589D01*
X143890999Y-80908669D01*
X144720914Y-80743589D01*
X145424481Y-80273481D01*
X145894589Y-79569914D01*
X146059669Y-78739999D01*
X145894589Y-77910086D01*
X145543147Y-77384115D01*
X145289146Y-77130114D01*
X145170481Y-76952519D01*
X144466914Y-76482410D01*
X143846489Y-76359000D01*
X143846484Y-76359000D01*
X143637000Y-76317331D01*
X143427516Y-76359000D01*
X136747000Y-76359000D01*
X136747000Y-74720511D01*
X136623590Y-74100086D01*
X136581032Y-74036393D01*
X136507111Y-73664767D01*
X136258022Y-73291978D01*
X135926964Y-73070773D01*
X136092340Y-72612869D01*
X136065553Y-72032465D01*
X135894976Y-71620656D01*
X135646215Y-71543390D01*
X134799605Y-72390000D01*
X134813748Y-72404143D01*
X134634143Y-72583748D01*
X134620000Y-72569605D01*
X134605858Y-72583748D01*
X134426253Y-72404143D01*
X134440395Y-72390000D01*
X133593785Y-71543390D01*
X133345024Y-71620656D01*
X133147660Y-72167131D01*
X133174447Y-72747535D01*
X133309355Y-73073232D01*
X132981978Y-73291978D01*
X132732889Y-73664767D01*
X132658968Y-74036394D01*
X132616410Y-74100087D01*
X132493000Y-74720512D01*
X132493000Y-76359000D01*
X129659033Y-76359000D01*
X128619000Y-75318968D01*
X128619000Y-71363785D01*
X133773390Y-71363785D01*
X134620000Y-72210395D01*
X135466610Y-71363785D01*
X135389344Y-71115024D01*
X134842869Y-70917660D01*
X134262465Y-70944447D01*
X133850656Y-71115024D01*
X133773390Y-71363785D01*
X128619000Y-71363785D01*
X128619000Y-65161215D01*
X139488390Y-65161215D01*
X139565656Y-65409976D01*
X140112131Y-65607340D01*
X140692535Y-65580553D01*
X141104344Y-65409976D01*
X141181610Y-65161215D01*
X140335000Y-64314605D01*
X139488390Y-65161215D01*
X128619000Y-65161215D01*
X128619000Y-58829959D01*
X129809325Y-59625308D01*
X131013130Y-59864760D01*
X138208000Y-59864760D01*
X138208000Y-61804488D01*
X138331410Y-62424913D01*
X138373968Y-62488606D01*
X138447889Y-62860233D01*
X138696978Y-63233022D01*
X139028036Y-63454227D01*
X138862660Y-63912131D01*
X138889447Y-64492535D01*
X139060024Y-64904344D01*
X139308785Y-64981610D01*
X140155395Y-64135000D01*
X140141253Y-64120858D01*
X140320858Y-63941253D01*
X140335000Y-63955395D01*
X140349143Y-63941253D01*
X140528748Y-64120858D01*
X140514605Y-64135000D01*
X141361215Y-64981610D01*
X141609976Y-64904344D01*
X141807340Y-64357869D01*
X141780553Y-63777465D01*
X141645645Y-63451768D01*
X141936013Y-63257750D01*
X144790000Y-63257750D01*
X144790000Y-63848309D01*
X144886673Y-64081698D01*
X145065301Y-64260327D01*
X145298690Y-64357000D01*
X145764250Y-64357000D01*
X145923000Y-64198250D01*
X145923000Y-63099000D01*
X146177000Y-63099000D01*
X146177000Y-64198250D01*
X146335750Y-64357000D01*
X146801310Y-64357000D01*
X147034699Y-64260327D01*
X147213327Y-64081698D01*
X147310000Y-63848309D01*
X147310000Y-63257750D01*
X147965000Y-63257750D01*
X147965000Y-63848309D01*
X148061673Y-64081698D01*
X148240301Y-64260327D01*
X148473690Y-64357000D01*
X148939250Y-64357000D01*
X149098000Y-64198250D01*
X149098000Y-63099000D01*
X149352000Y-63099000D01*
X149352000Y-64198250D01*
X149510750Y-64357000D01*
X149976310Y-64357000D01*
X150209699Y-64260327D01*
X150388327Y-64081698D01*
X150485000Y-63848309D01*
X150485000Y-63257750D01*
X150326250Y-63099000D01*
X149352000Y-63099000D01*
X149098000Y-63099000D01*
X148123750Y-63099000D01*
X147965000Y-63257750D01*
X147310000Y-63257750D01*
X147151250Y-63099000D01*
X146177000Y-63099000D01*
X145923000Y-63099000D01*
X144948750Y-63099000D01*
X144790000Y-63257750D01*
X141936013Y-63257750D01*
X141973022Y-63233022D01*
X141980387Y-63222000D01*
X142714762Y-63222000D01*
X142875000Y-63253873D01*
X143035238Y-63222000D01*
X143035242Y-63222000D01*
X143509824Y-63127600D01*
X144048001Y-62768001D01*
X144138774Y-62632150D01*
X144321084Y-62449840D01*
X144790000Y-62449840D01*
X144790000Y-62686250D01*
X144948750Y-62845000D01*
X145923000Y-62845000D01*
X145923000Y-62825000D01*
X146177000Y-62825000D01*
X146177000Y-62845000D01*
X147151250Y-62845000D01*
X147310000Y-62686250D01*
X147310000Y-62153138D01*
X147487522Y-62034522D01*
X147637500Y-61810063D01*
X147787478Y-62034522D01*
X147965000Y-62153138D01*
X147965000Y-62686250D01*
X148123750Y-62845000D01*
X149098000Y-62845000D01*
X149098000Y-62825000D01*
X149352000Y-62825000D01*
X149352000Y-62845000D01*
X150326250Y-62845000D01*
X150485000Y-62686250D01*
X150485000Y-62153138D01*
X150662522Y-62034522D01*
X150911611Y-61661733D01*
X150978068Y-61327631D01*
X151130000Y-61357852D01*
X152740275Y-61037547D01*
X154105400Y-60125400D01*
X155017547Y-58760275D01*
X155337852Y-57150000D01*
X155017547Y-55539725D01*
X154335647Y-54519189D01*
X152923411Y-53106953D01*
X152693161Y-52762359D01*
X152507000Y-52637970D01*
X152507000Y-49088826D01*
X153992070Y-49088826D01*
X153992070Y-49971174D01*
X154329730Y-50786357D01*
X154953643Y-51410270D01*
X155768826Y-51747930D01*
X156651174Y-51747930D01*
X157466357Y-51410270D01*
X158090270Y-50786357D01*
X158427930Y-49971174D01*
X158427930Y-49088826D01*
X158090270Y-48273643D01*
X157466357Y-47649730D01*
X156651174Y-47312070D01*
X155768826Y-47312070D01*
X154953643Y-47649730D01*
X154329730Y-48273643D01*
X153992070Y-49088826D01*
X152507000Y-49088826D01*
X152507000Y-47122213D01*
X152796016Y-46833197D01*
X153095200Y-46110903D01*
X153095200Y-45329097D01*
X152796016Y-44606803D01*
X152243197Y-44053984D01*
X151520903Y-43754800D01*
X150739097Y-43754800D01*
X150016803Y-44053984D01*
X149463984Y-44606803D01*
X149164800Y-45329097D01*
X149164800Y-46110903D01*
X149463984Y-46833197D01*
X149753001Y-47122214D01*
X149753000Y-51536918D01*
X149717760Y-51529908D01*
X149311291Y-51610760D01*
X141413784Y-51610760D01*
X142155136Y-51303682D01*
X142743682Y-50715136D01*
X143062200Y-49946165D01*
X143062200Y-49113835D01*
X142743682Y-48344864D01*
X142347000Y-47948182D01*
X142347000Y-47122213D01*
X142636016Y-46833197D01*
X142935200Y-46110903D01*
X142935200Y-45329097D01*
X142636016Y-44606803D01*
X142083197Y-44053984D01*
X141360903Y-43754800D01*
X140579097Y-43754800D01*
X139856803Y-44053984D01*
X139665079Y-44245708D01*
X139321860Y-43902489D01*
X139321860Y-43592750D01*
X143315000Y-43592750D01*
X143315000Y-44083310D01*
X143411673Y-44316699D01*
X143590302Y-44495327D01*
X143823691Y-44592000D01*
X144414250Y-44592000D01*
X144573000Y-44433250D01*
X144573000Y-43434000D01*
X143473750Y-43434000D01*
X143315000Y-43592750D01*
X139321860Y-43592750D01*
X139321860Y-42839047D01*
X139411710Y-42779012D01*
X139411710Y-42878359D01*
X139508383Y-43111748D01*
X139687011Y-43290377D01*
X139920400Y-43387050D01*
X140661390Y-43387050D01*
X140820140Y-43228300D01*
X140820140Y-42479000D01*
X141074140Y-42479000D01*
X141074140Y-43228300D01*
X141232890Y-43387050D01*
X141973880Y-43387050D01*
X142207269Y-43290377D01*
X142385897Y-43111748D01*
X142482570Y-42878359D01*
X142482570Y-42637750D01*
X142375510Y-42530690D01*
X143315000Y-42530690D01*
X143315000Y-43021250D01*
X143473750Y-43180000D01*
X144573000Y-43180000D01*
X144573000Y-42180750D01*
X144414250Y-42022000D01*
X143823691Y-42022000D01*
X143590302Y-42118673D01*
X143411673Y-42297301D01*
X143315000Y-42530690D01*
X142375510Y-42530690D01*
X142323820Y-42479000D01*
X141074140Y-42479000D01*
X140820140Y-42479000D01*
X140800140Y-42479000D01*
X140800140Y-42225000D01*
X140820140Y-42225000D01*
X140820140Y-42205000D01*
X141074140Y-42205000D01*
X141074140Y-42225000D01*
X142323820Y-42225000D01*
X142482570Y-42066250D01*
X142482570Y-41829000D01*
X144117377Y-41829000D01*
X144253000Y-41855977D01*
X144388623Y-41829000D01*
X144513910Y-41804079D01*
X144551708Y-41804079D01*
X144877689Y-42130061D01*
X144827000Y-42180750D01*
X144827000Y-43180000D01*
X144847000Y-43180000D01*
X144847000Y-43434000D01*
X144827000Y-43434000D01*
X144827000Y-44433250D01*
X144985750Y-44592000D01*
X145576309Y-44592000D01*
X145687960Y-44545752D01*
X145837478Y-44769522D01*
X146210267Y-45018611D01*
X146650000Y-45106079D01*
X148150000Y-45106079D01*
X148589733Y-45018611D01*
X148962522Y-44769522D01*
X149211611Y-44396733D01*
X149299079Y-43957000D01*
X149299079Y-42657000D01*
X149211611Y-42217267D01*
X148962522Y-41844478D01*
X148680444Y-41656000D01*
X148962522Y-41467522D01*
X149019666Y-41382000D01*
X168128633Y-41382000D01*
X168114078Y-41403783D01*
G04 #@! TO.N,Net-(K1-Pad14)*
G36*
X99441000Y-85852000D02*
X89535000Y-85852000D01*
X89486399Y-85861667D01*
X89445197Y-85889197D01*
X89417667Y-85930399D01*
X89408000Y-85979000D01*
X89408000Y-95377000D01*
X78613000Y-95377000D01*
X78613000Y-90297000D01*
X85090000Y-90297000D01*
X85138601Y-90287333D01*
X85179803Y-90259803D01*
X85207333Y-90218601D01*
X85217000Y-90170000D01*
X85217000Y-81205080D01*
X91304043Y-81205080D01*
X91304043Y-83905080D01*
X91407034Y-84422850D01*
X91700327Y-84861793D01*
X92139270Y-85155086D01*
X92657040Y-85258077D01*
X93657040Y-85258077D01*
X94174810Y-85155086D01*
X94613753Y-84861793D01*
X94907046Y-84422850D01*
X95010037Y-83905080D01*
X95010037Y-81205080D01*
X94907046Y-80687310D01*
X94613753Y-80248367D01*
X94174810Y-79955074D01*
X93657040Y-79852083D01*
X92657040Y-79852083D01*
X92139270Y-79955074D01*
X91700327Y-80248367D01*
X91407034Y-80687310D01*
X91304043Y-81205080D01*
X85217000Y-81205080D01*
X85217000Y-77597000D01*
X85207333Y-77548399D01*
X85179803Y-77507197D01*
X85138601Y-77479667D01*
X85090000Y-77470000D01*
X76835000Y-77470000D01*
X76835000Y-73152000D01*
X99441000Y-73152000D01*
X99441000Y-85852000D01*
X99441000Y-85852000D01*
G37*
X99441000Y-85852000D02*
X89535000Y-85852000D01*
X89486399Y-85861667D01*
X89445197Y-85889197D01*
X89417667Y-85930399D01*
X89408000Y-85979000D01*
X89408000Y-95377000D01*
X78613000Y-95377000D01*
X78613000Y-90297000D01*
X85090000Y-90297000D01*
X85138601Y-90287333D01*
X85179803Y-90259803D01*
X85207333Y-90218601D01*
X85217000Y-90170000D01*
X85217000Y-81205080D01*
X91304043Y-81205080D01*
X91304043Y-83905080D01*
X91407034Y-84422850D01*
X91700327Y-84861793D01*
X92139270Y-85155086D01*
X92657040Y-85258077D01*
X93657040Y-85258077D01*
X94174810Y-85155086D01*
X94613753Y-84861793D01*
X94907046Y-84422850D01*
X95010037Y-83905080D01*
X95010037Y-81205080D01*
X94907046Y-80687310D01*
X94613753Y-80248367D01*
X94174810Y-79955074D01*
X93657040Y-79852083D01*
X92657040Y-79852083D01*
X92139270Y-79955074D01*
X91700327Y-80248367D01*
X91407034Y-80687310D01*
X91304043Y-81205080D01*
X85217000Y-81205080D01*
X85217000Y-77597000D01*
X85207333Y-77548399D01*
X85179803Y-77507197D01*
X85138601Y-77479667D01*
X85090000Y-77470000D01*
X76835000Y-77470000D01*
X76835000Y-73152000D01*
X99441000Y-73152000D01*
X99441000Y-85852000D01*
G04 #@! TO.N,Net-(K1-Pad34)*
G36*
X82677000Y-87630000D02*
X75692000Y-87630000D01*
X75643399Y-87639667D01*
X75602197Y-87667197D01*
X75574667Y-87708399D01*
X75565000Y-87757000D01*
X75565000Y-100838000D01*
X75574667Y-100886601D01*
X75602197Y-100927803D01*
X75643399Y-100955333D01*
X75692000Y-100965000D01*
X93218000Y-100965000D01*
X93266601Y-100955333D01*
X93307803Y-100927803D01*
X93335333Y-100886601D01*
X93345000Y-100838000D01*
X93345000Y-98455917D01*
X93657040Y-98455917D01*
X94174810Y-98352926D01*
X94613753Y-98059633D01*
X94907046Y-97620690D01*
X95010037Y-97102920D01*
X95010037Y-94402920D01*
X94907046Y-93885150D01*
X94613753Y-93446207D01*
X94174810Y-93152914D01*
X93657040Y-93049923D01*
X93345000Y-93049923D01*
X93345000Y-92583000D01*
X98679000Y-92583000D01*
X98679000Y-107061000D01*
X70739000Y-107061000D01*
X70739000Y-82550000D01*
X82677000Y-82550000D01*
X82677000Y-87630000D01*
X82677000Y-87630000D01*
G37*
X82677000Y-87630000D02*
X75692000Y-87630000D01*
X75643399Y-87639667D01*
X75602197Y-87667197D01*
X75574667Y-87708399D01*
X75565000Y-87757000D01*
X75565000Y-100838000D01*
X75574667Y-100886601D01*
X75602197Y-100927803D01*
X75643399Y-100955333D01*
X75692000Y-100965000D01*
X93218000Y-100965000D01*
X93266601Y-100955333D01*
X93307803Y-100927803D01*
X93335333Y-100886601D01*
X93345000Y-100838000D01*
X93345000Y-98455917D01*
X93657040Y-98455917D01*
X94174810Y-98352926D01*
X94613753Y-98059633D01*
X94907046Y-97620690D01*
X95010037Y-97102920D01*
X95010037Y-94402920D01*
X94907046Y-93885150D01*
X94613753Y-93446207D01*
X94174810Y-93152914D01*
X93657040Y-93049923D01*
X93345000Y-93049923D01*
X93345000Y-92583000D01*
X98679000Y-92583000D01*
X98679000Y-107061000D01*
X70739000Y-107061000D01*
X70739000Y-82550000D01*
X82677000Y-82550000D01*
X82677000Y-87630000D01*
G04 #@! TD*
M02*
