G04 #@! TF.GenerationSoftware,KiCad,Pcbnew,(5.0.0)*
G04 #@! TF.CreationDate,2019-01-25T09:41:45+01:00*
G04 #@! TF.ProjectId,cosi_pwr,636F73695F7077722E6B696361645F70,0.1*
G04 #@! TF.SameCoordinates,Original*
G04 #@! TF.FileFunction,Legend,Top*
G04 #@! TF.FilePolarity,Positive*
%FSLAX46Y46*%
G04 Gerber Fmt 4.6, Leading zero omitted, Abs format (unit mm)*
G04 Created by KiCad (PCBNEW (5.0.0)) date 01/25/19 09:41:45*
%MOMM*%
%LPD*%
G01*
G04 APERTURE LIST*
%ADD10C,0.762000*%
%ADD11C,0.066040*%
%ADD12C,0.152400*%
%ADD13C,0.609600*%
%ADD14C,0.076200*%
%ADD15C,0.101600*%
%ADD16C,0.127000*%
G04 APERTURE END LIST*
D10*
G04 #@! TO.C,D1*
X128143000Y-92075000D02*
X128143000Y-91059000D01*
X128143000Y-81915000D02*
X128143000Y-82931000D01*
D11*
G04 #@! TO.C,IO1*
X133096000Y-113030000D02*
X133604000Y-113030000D01*
X133604000Y-113030000D02*
X133604000Y-112522000D01*
X133096000Y-112522000D02*
X133604000Y-112522000D01*
X133096000Y-113030000D02*
X133096000Y-112522000D01*
X130556000Y-113030000D02*
X131064000Y-113030000D01*
X131064000Y-113030000D02*
X131064000Y-112522000D01*
X130556000Y-112522000D02*
X131064000Y-112522000D01*
X130556000Y-113030000D02*
X130556000Y-112522000D01*
X128016000Y-113030000D02*
X128524000Y-113030000D01*
X128524000Y-113030000D02*
X128524000Y-112522000D01*
X128016000Y-112522000D02*
X128524000Y-112522000D01*
X128016000Y-113030000D02*
X128016000Y-112522000D01*
X125476000Y-113030000D02*
X125984000Y-113030000D01*
X125984000Y-113030000D02*
X125984000Y-112522000D01*
X125476000Y-112522000D02*
X125984000Y-112522000D01*
X125476000Y-113030000D02*
X125476000Y-112522000D01*
X122936000Y-113030000D02*
X123444000Y-113030000D01*
X123444000Y-113030000D02*
X123444000Y-112522000D01*
X122936000Y-112522000D02*
X123444000Y-112522000D01*
X122936000Y-113030000D02*
X122936000Y-112522000D01*
X120396000Y-113030000D02*
X120904000Y-113030000D01*
X120904000Y-113030000D02*
X120904000Y-112522000D01*
X120396000Y-112522000D02*
X120904000Y-112522000D01*
X120396000Y-113030000D02*
X120396000Y-112522000D01*
X117856000Y-113030000D02*
X118364000Y-113030000D01*
X118364000Y-113030000D02*
X118364000Y-112522000D01*
X117856000Y-112522000D02*
X118364000Y-112522000D01*
X117856000Y-113030000D02*
X117856000Y-112522000D01*
X115316000Y-113030000D02*
X115824000Y-113030000D01*
X115824000Y-113030000D02*
X115824000Y-112522000D01*
X115316000Y-112522000D02*
X115824000Y-112522000D01*
X115316000Y-113030000D02*
X115316000Y-112522000D01*
X112776000Y-113030000D02*
X113284000Y-113030000D01*
X113284000Y-113030000D02*
X113284000Y-112522000D01*
X112776000Y-112522000D02*
X113284000Y-112522000D01*
X112776000Y-113030000D02*
X112776000Y-112522000D01*
X110236000Y-113030000D02*
X110744000Y-113030000D01*
X110744000Y-113030000D02*
X110744000Y-112522000D01*
X110236000Y-112522000D02*
X110744000Y-112522000D01*
X110236000Y-113030000D02*
X110236000Y-112522000D01*
X107696000Y-113030000D02*
X108204000Y-113030000D01*
X108204000Y-113030000D02*
X108204000Y-112522000D01*
X107696000Y-112522000D02*
X108204000Y-112522000D01*
X107696000Y-113030000D02*
X107696000Y-112522000D01*
X105156000Y-113030000D02*
X105664000Y-113030000D01*
X105664000Y-113030000D02*
X105664000Y-112522000D01*
X105156000Y-112522000D02*
X105664000Y-112522000D01*
X105156000Y-113030000D02*
X105156000Y-112522000D01*
X102616000Y-113030000D02*
X103124000Y-113030000D01*
X103124000Y-113030000D02*
X103124000Y-112522000D01*
X102616000Y-112522000D02*
X103124000Y-112522000D01*
X102616000Y-113030000D02*
X102616000Y-112522000D01*
X100076000Y-113030000D02*
X100584000Y-113030000D01*
X100584000Y-113030000D02*
X100584000Y-112522000D01*
X100076000Y-112522000D02*
X100584000Y-112522000D01*
X100076000Y-113030000D02*
X100076000Y-112522000D01*
X97536000Y-113030000D02*
X98044000Y-113030000D01*
X98044000Y-113030000D02*
X98044000Y-112522000D01*
X97536000Y-112522000D02*
X98044000Y-112522000D01*
X97536000Y-113030000D02*
X97536000Y-112522000D01*
X94996000Y-113030000D02*
X95504000Y-113030000D01*
X95504000Y-113030000D02*
X95504000Y-112522000D01*
X94996000Y-112522000D02*
X95504000Y-112522000D01*
X94996000Y-113030000D02*
X94996000Y-112522000D01*
X92456000Y-113030000D02*
X92964000Y-113030000D01*
X92964000Y-113030000D02*
X92964000Y-112522000D01*
X92456000Y-112522000D02*
X92964000Y-112522000D01*
X92456000Y-113030000D02*
X92456000Y-112522000D01*
X89916000Y-113030000D02*
X90424000Y-113030000D01*
X90424000Y-113030000D02*
X90424000Y-112522000D01*
X89916000Y-112522000D02*
X90424000Y-112522000D01*
X89916000Y-113030000D02*
X89916000Y-112522000D01*
X87376000Y-113030000D02*
X87884000Y-113030000D01*
X87884000Y-113030000D02*
X87884000Y-112522000D01*
X87376000Y-112522000D02*
X87884000Y-112522000D01*
X87376000Y-113030000D02*
X87376000Y-112522000D01*
X135636000Y-113030000D02*
X136144000Y-113030000D01*
X136144000Y-113030000D02*
X136144000Y-112522000D01*
X135636000Y-112522000D02*
X136144000Y-112522000D01*
X135636000Y-113030000D02*
X135636000Y-112522000D01*
G04 #@! TO.C,IO2*
X133096000Y-138430000D02*
X133604000Y-138430000D01*
X133604000Y-138430000D02*
X133604000Y-137922000D01*
X133096000Y-137922000D02*
X133604000Y-137922000D01*
X133096000Y-138430000D02*
X133096000Y-137922000D01*
X130556000Y-138430000D02*
X131064000Y-138430000D01*
X131064000Y-138430000D02*
X131064000Y-137922000D01*
X130556000Y-137922000D02*
X131064000Y-137922000D01*
X130556000Y-138430000D02*
X130556000Y-137922000D01*
X128016000Y-138430000D02*
X128524000Y-138430000D01*
X128524000Y-138430000D02*
X128524000Y-137922000D01*
X128016000Y-137922000D02*
X128524000Y-137922000D01*
X128016000Y-138430000D02*
X128016000Y-137922000D01*
X125476000Y-138430000D02*
X125984000Y-138430000D01*
X125984000Y-138430000D02*
X125984000Y-137922000D01*
X125476000Y-137922000D02*
X125984000Y-137922000D01*
X125476000Y-138430000D02*
X125476000Y-137922000D01*
X122936000Y-138430000D02*
X123444000Y-138430000D01*
X123444000Y-138430000D02*
X123444000Y-137922000D01*
X122936000Y-137922000D02*
X123444000Y-137922000D01*
X122936000Y-138430000D02*
X122936000Y-137922000D01*
X120396000Y-138430000D02*
X120904000Y-138430000D01*
X120904000Y-138430000D02*
X120904000Y-137922000D01*
X120396000Y-137922000D02*
X120904000Y-137922000D01*
X120396000Y-138430000D02*
X120396000Y-137922000D01*
X117856000Y-138430000D02*
X118364000Y-138430000D01*
X118364000Y-138430000D02*
X118364000Y-137922000D01*
X117856000Y-137922000D02*
X118364000Y-137922000D01*
X117856000Y-138430000D02*
X117856000Y-137922000D01*
X115316000Y-138430000D02*
X115824000Y-138430000D01*
X115824000Y-138430000D02*
X115824000Y-137922000D01*
X115316000Y-137922000D02*
X115824000Y-137922000D01*
X115316000Y-138430000D02*
X115316000Y-137922000D01*
X112776000Y-138430000D02*
X113284000Y-138430000D01*
X113284000Y-138430000D02*
X113284000Y-137922000D01*
X112776000Y-137922000D02*
X113284000Y-137922000D01*
X112776000Y-138430000D02*
X112776000Y-137922000D01*
X110236000Y-138430000D02*
X110744000Y-138430000D01*
X110744000Y-138430000D02*
X110744000Y-137922000D01*
X110236000Y-137922000D02*
X110744000Y-137922000D01*
X110236000Y-138430000D02*
X110236000Y-137922000D01*
X107696000Y-138430000D02*
X108204000Y-138430000D01*
X108204000Y-138430000D02*
X108204000Y-137922000D01*
X107696000Y-137922000D02*
X108204000Y-137922000D01*
X107696000Y-138430000D02*
X107696000Y-137922000D01*
X105156000Y-138430000D02*
X105664000Y-138430000D01*
X105664000Y-138430000D02*
X105664000Y-137922000D01*
X105156000Y-137922000D02*
X105664000Y-137922000D01*
X105156000Y-138430000D02*
X105156000Y-137922000D01*
X102616000Y-138430000D02*
X103124000Y-138430000D01*
X103124000Y-138430000D02*
X103124000Y-137922000D01*
X102616000Y-137922000D02*
X103124000Y-137922000D01*
X102616000Y-138430000D02*
X102616000Y-137922000D01*
X100076000Y-138430000D02*
X100584000Y-138430000D01*
X100584000Y-138430000D02*
X100584000Y-137922000D01*
X100076000Y-137922000D02*
X100584000Y-137922000D01*
X100076000Y-138430000D02*
X100076000Y-137922000D01*
X97536000Y-138430000D02*
X98044000Y-138430000D01*
X98044000Y-138430000D02*
X98044000Y-137922000D01*
X97536000Y-137922000D02*
X98044000Y-137922000D01*
X97536000Y-138430000D02*
X97536000Y-137922000D01*
X94996000Y-138430000D02*
X95504000Y-138430000D01*
X95504000Y-138430000D02*
X95504000Y-137922000D01*
X94996000Y-137922000D02*
X95504000Y-137922000D01*
X94996000Y-138430000D02*
X94996000Y-137922000D01*
X92456000Y-138430000D02*
X92964000Y-138430000D01*
X92964000Y-138430000D02*
X92964000Y-137922000D01*
X92456000Y-137922000D02*
X92964000Y-137922000D01*
X92456000Y-138430000D02*
X92456000Y-137922000D01*
X89916000Y-138430000D02*
X90424000Y-138430000D01*
X90424000Y-138430000D02*
X90424000Y-137922000D01*
X89916000Y-137922000D02*
X90424000Y-137922000D01*
X89916000Y-138430000D02*
X89916000Y-137922000D01*
X87376000Y-138430000D02*
X87884000Y-138430000D01*
X87884000Y-138430000D02*
X87884000Y-137922000D01*
X87376000Y-137922000D02*
X87884000Y-137922000D01*
X87376000Y-138430000D02*
X87376000Y-137922000D01*
X135636000Y-138430000D02*
X136144000Y-138430000D01*
X136144000Y-138430000D02*
X136144000Y-137922000D01*
X135636000Y-137922000D02*
X136144000Y-137922000D01*
X135636000Y-138430000D02*
X135636000Y-137922000D01*
G04 #@! TO.C,JP1*
X77089000Y-128778000D02*
X76581000Y-128778000D01*
X76581000Y-128778000D02*
X76581000Y-129286000D01*
X77089000Y-129286000D02*
X76581000Y-129286000D01*
X77089000Y-128778000D02*
X77089000Y-129286000D01*
X77089000Y-131318000D02*
X76581000Y-131318000D01*
X76581000Y-131318000D02*
X76581000Y-131826000D01*
X77089000Y-131826000D02*
X76581000Y-131826000D01*
X77089000Y-131318000D02*
X77089000Y-131826000D01*
X74549000Y-131318000D02*
X74041000Y-131318000D01*
X74041000Y-131318000D02*
X74041000Y-131826000D01*
X74549000Y-131826000D02*
X74041000Y-131826000D01*
X74549000Y-131318000D02*
X74549000Y-131826000D01*
X74549000Y-128778000D02*
X74041000Y-128778000D01*
X74041000Y-128778000D02*
X74041000Y-129286000D01*
X74549000Y-129286000D02*
X74041000Y-129286000D01*
X74549000Y-128778000D02*
X74549000Y-129286000D01*
G04 #@! TO.C,JP2*
X177165000Y-97345500D02*
X177165000Y-97853500D01*
X177165000Y-97853500D02*
X177673000Y-97853500D01*
X177673000Y-97345500D02*
X177673000Y-97853500D01*
X177165000Y-97345500D02*
X177673000Y-97345500D01*
X177165000Y-94805500D02*
X177165000Y-95313500D01*
X177165000Y-95313500D02*
X177673000Y-95313500D01*
X177673000Y-94805500D02*
X177673000Y-95313500D01*
X177165000Y-94805500D02*
X177673000Y-94805500D01*
X177165000Y-92265500D02*
X177165000Y-92773500D01*
X177165000Y-92773500D02*
X177673000Y-92773500D01*
X177673000Y-92265500D02*
X177673000Y-92773500D01*
X177165000Y-92265500D02*
X177673000Y-92265500D01*
X177165000Y-89725500D02*
X177165000Y-90233500D01*
X177165000Y-90233500D02*
X177673000Y-90233500D01*
X177673000Y-89725500D02*
X177673000Y-90233500D01*
X177165000Y-89725500D02*
X177673000Y-89725500D01*
X177165000Y-87185500D02*
X177165000Y-87693500D01*
X177165000Y-87693500D02*
X177673000Y-87693500D01*
X177673000Y-87185500D02*
X177673000Y-87693500D01*
X177165000Y-87185500D02*
X177673000Y-87185500D01*
X177165000Y-99885500D02*
X177165000Y-100393500D01*
X177165000Y-100393500D02*
X177673000Y-100393500D01*
X177673000Y-99885500D02*
X177673000Y-100393500D01*
X177165000Y-99885500D02*
X177673000Y-99885500D01*
G04 #@! TO.C,JP3*
X177165000Y-122809000D02*
X177165000Y-123317000D01*
X177165000Y-123317000D02*
X177673000Y-123317000D01*
X177673000Y-122809000D02*
X177673000Y-123317000D01*
X177165000Y-122809000D02*
X177673000Y-122809000D01*
X177165000Y-120269000D02*
X177165000Y-120777000D01*
X177165000Y-120777000D02*
X177673000Y-120777000D01*
X177673000Y-120269000D02*
X177673000Y-120777000D01*
X177165000Y-120269000D02*
X177673000Y-120269000D01*
X177165000Y-117729000D02*
X177165000Y-118237000D01*
X177165000Y-118237000D02*
X177673000Y-118237000D01*
X177673000Y-117729000D02*
X177673000Y-118237000D01*
X177165000Y-117729000D02*
X177673000Y-117729000D01*
X177165000Y-115189000D02*
X177165000Y-115697000D01*
X177165000Y-115697000D02*
X177673000Y-115697000D01*
X177673000Y-115189000D02*
X177673000Y-115697000D01*
X177165000Y-115189000D02*
X177673000Y-115189000D01*
X177165000Y-112649000D02*
X177165000Y-113157000D01*
X177165000Y-113157000D02*
X177673000Y-113157000D01*
X177673000Y-112649000D02*
X177673000Y-113157000D01*
X177165000Y-112649000D02*
X177673000Y-112649000D01*
X177165000Y-125349000D02*
X177165000Y-125857000D01*
X177165000Y-125857000D02*
X177673000Y-125857000D01*
X177673000Y-125349000D02*
X177673000Y-125857000D01*
X177165000Y-125349000D02*
X177673000Y-125349000D01*
D12*
G04 #@! TO.C,X1*
X72263000Y-57404000D02*
X74676000Y-59817000D01*
X72644000Y-57023000D02*
X75057000Y-59436000D01*
X72644000Y-52019200D02*
X75057000Y-54432200D01*
X72263000Y-52400200D02*
X74676000Y-54815740D01*
D13*
X72644000Y-57404000D02*
X74676000Y-59436000D01*
X72644000Y-52400200D02*
X74676000Y-54432200D01*
D12*
X72644000Y-57023000D02*
X72263000Y-57404000D01*
X75057000Y-59436000D02*
X74676000Y-59817000D01*
X72644000Y-52019200D02*
X72263000Y-52400200D01*
X75057000Y-54432200D02*
X74676000Y-54815740D01*
D13*
X72644000Y-62407800D02*
X74676000Y-64439800D01*
D12*
X72263000Y-62407800D02*
X74676000Y-64820800D01*
X72644000Y-62024260D02*
X75057000Y-64439800D01*
X72644000Y-62024260D02*
X72263000Y-62407800D01*
X75057000Y-64439800D02*
X74676000Y-64820800D01*
D14*
X74917236Y-58420000D02*
G75*
G03X74917236Y-58420000I-1257236J0D01*
G01*
X74917236Y-53416200D02*
G75*
G03X74917236Y-53416200I-1257236J0D01*
G01*
X74917236Y-63423800D02*
G75*
G03X74917236Y-63423800I-1257236J0D01*
G01*
D12*
G04 #@! TO.C,X2*
X82042000Y-99060000D02*
X79629000Y-96647000D01*
X81661000Y-99441000D02*
X79248000Y-97028000D01*
X81661000Y-104444800D02*
X79248000Y-102031800D01*
X82042000Y-104063800D02*
X79629000Y-101648260D01*
D13*
X81661000Y-99060000D02*
X79629000Y-97028000D01*
X81661000Y-104063800D02*
X79629000Y-102031800D01*
D12*
X81661000Y-99441000D02*
X82042000Y-99060000D01*
X79248000Y-97028000D02*
X79629000Y-96647000D01*
X81661000Y-104444800D02*
X82042000Y-104063800D01*
X79248000Y-102031800D02*
X79629000Y-101648260D01*
D13*
X81661000Y-94056200D02*
X79629000Y-92024200D01*
D12*
X82042000Y-94056200D02*
X79629000Y-91643200D01*
X81661000Y-94439740D02*
X79248000Y-92024200D01*
X81661000Y-94439740D02*
X82042000Y-94056200D01*
X79248000Y-92024200D02*
X79629000Y-91643200D01*
D14*
X81902236Y-98044000D02*
G75*
G03X81902236Y-98044000I-1257236J0D01*
G01*
X81902236Y-103047800D02*
G75*
G03X81902236Y-103047800I-1257236J0D01*
G01*
X81902236Y-93040200D02*
G75*
G03X81902236Y-93040200I-1257236J0D01*
G01*
D12*
G04 #@! TO.C,X3*
X82042000Y-81280000D02*
X79629000Y-78867000D01*
X81661000Y-81661000D02*
X79248000Y-79248000D01*
X81661000Y-86664800D02*
X79248000Y-84251800D01*
X82042000Y-86283800D02*
X79629000Y-83868260D01*
D13*
X81661000Y-81280000D02*
X79629000Y-79248000D01*
X81661000Y-86283800D02*
X79629000Y-84251800D01*
D12*
X81661000Y-81661000D02*
X82042000Y-81280000D01*
X79248000Y-79248000D02*
X79629000Y-78867000D01*
X81661000Y-86664800D02*
X82042000Y-86283800D01*
X79248000Y-84251800D02*
X79629000Y-83868260D01*
D13*
X81661000Y-76276200D02*
X79629000Y-74244200D01*
D12*
X82042000Y-76276200D02*
X79629000Y-73863200D01*
X81661000Y-76659740D02*
X79248000Y-74244200D01*
X81661000Y-76659740D02*
X82042000Y-76276200D01*
X79248000Y-74244200D02*
X79629000Y-73863200D01*
D14*
X81902236Y-80264000D02*
G75*
G03X81902236Y-80264000I-1257236J0D01*
G01*
X81902236Y-85267800D02*
G75*
G03X81902236Y-85267800I-1257236J0D01*
G01*
X81902236Y-75260200D02*
G75*
G03X81902236Y-75260200I-1257236J0D01*
G01*
D12*
G04 #@! TO.C,X4*
X174371000Y-47091600D02*
X176784000Y-49504600D01*
X174752000Y-46710600D02*
X177165000Y-49123600D01*
X174752000Y-41681400D02*
X177165000Y-44094400D01*
X174371000Y-42062400D02*
X176784000Y-44475400D01*
D13*
X174752000Y-47091600D02*
X176784000Y-49123600D01*
X174752000Y-42062400D02*
X176784000Y-44094400D01*
D12*
X174752000Y-46710600D02*
X174371000Y-47091600D01*
X177165000Y-49123600D02*
X176784000Y-49504600D01*
X174752000Y-41681400D02*
X174371000Y-42062400D01*
X177165000Y-44094400D02*
X176784000Y-44475400D01*
D14*
X177025236Y-48107600D02*
G75*
G03X177025236Y-48107600I-1257236J0D01*
G01*
X177025236Y-43078400D02*
G75*
G03X177025236Y-43078400I-1257236J0D01*
G01*
D12*
G04 #@! TO.C,X5*
X174371000Y-59791600D02*
X176784000Y-62204600D01*
X174752000Y-59410600D02*
X177165000Y-61823600D01*
X174752000Y-54381400D02*
X177165000Y-56794400D01*
X174371000Y-54762400D02*
X176784000Y-57175400D01*
D13*
X174752000Y-59791600D02*
X176784000Y-61823600D01*
X174752000Y-54762400D02*
X176784000Y-56794400D01*
D12*
X174752000Y-59410600D02*
X174371000Y-59791600D01*
X177165000Y-61823600D02*
X176784000Y-62204600D01*
X174752000Y-54381400D02*
X174371000Y-54762400D01*
X177165000Y-56794400D02*
X176784000Y-57175400D01*
D14*
X177025236Y-60807600D02*
G75*
G03X177025236Y-60807600I-1257236J0D01*
G01*
X177025236Y-55778400D02*
G75*
G03X177025236Y-55778400I-1257236J0D01*
G01*
D12*
G04 #@! TO.C,X6*
X174371000Y-72491600D02*
X176784000Y-74904600D01*
X174752000Y-72110600D02*
X177165000Y-74523600D01*
X174752000Y-67081400D02*
X177165000Y-69494400D01*
X174371000Y-67462400D02*
X176784000Y-69875400D01*
D13*
X174752000Y-72491600D02*
X176784000Y-74523600D01*
X174752000Y-67462400D02*
X176784000Y-69494400D01*
D12*
X174752000Y-72110600D02*
X174371000Y-72491600D01*
X177165000Y-74523600D02*
X176784000Y-74904600D01*
X174752000Y-67081400D02*
X174371000Y-67462400D01*
X177165000Y-69494400D02*
X176784000Y-69875400D01*
D14*
X177025236Y-73507600D02*
G75*
G03X177025236Y-73507600I-1257236J0D01*
G01*
X177025236Y-68478400D02*
G75*
G03X177025236Y-68478400I-1257236J0D01*
G01*
D10*
G04 #@! TO.C,D2*
X140970000Y-45720000D02*
X141986000Y-45720000D01*
X151130000Y-45720000D02*
X150114000Y-45720000D01*
G04 #@! TO.C,U1*
D15*
X90442142Y-63076666D02*
X91046904Y-63076666D01*
X90321190Y-63439523D02*
X90744523Y-62169523D01*
X91167857Y-63439523D01*
X92316904Y-63318571D02*
X92256428Y-63379047D01*
X92075000Y-63439523D01*
X91954047Y-63439523D01*
X91772619Y-63379047D01*
X91651666Y-63258095D01*
X91591190Y-63137142D01*
X91530714Y-62895238D01*
X91530714Y-62713809D01*
X91591190Y-62471904D01*
X91651666Y-62350952D01*
X91772619Y-62230000D01*
X91954047Y-62169523D01*
X92075000Y-62169523D01*
X92256428Y-62230000D01*
X92316904Y-62290476D01*
X93768333Y-62109047D02*
X92679761Y-63741904D01*
X94191666Y-63439523D02*
X94191666Y-62169523D01*
X94917380Y-63439523D01*
X94917380Y-62169523D01*
X90593333Y-44026666D02*
X91198095Y-44026666D01*
X90472380Y-44389523D02*
X90895714Y-43119523D01*
X91319047Y-44389523D01*
X92468095Y-44268571D02*
X92407619Y-44329047D01*
X92226190Y-44389523D01*
X92105238Y-44389523D01*
X91923809Y-44329047D01*
X91802857Y-44208095D01*
X91742380Y-44087142D01*
X91681904Y-43845238D01*
X91681904Y-43663809D01*
X91742380Y-43421904D01*
X91802857Y-43300952D01*
X91923809Y-43180000D01*
X92105238Y-43119523D01*
X92226190Y-43119523D01*
X92407619Y-43180000D01*
X92468095Y-43240476D01*
X93919523Y-43059047D02*
X92830952Y-44691904D01*
X94947619Y-44389523D02*
X94342857Y-44389523D01*
X94342857Y-43119523D01*
X125790476Y-54549523D02*
X126213809Y-55819523D01*
X126637142Y-54549523D01*
X127060476Y-55335714D02*
X128028095Y-55335714D01*
X127544285Y-55819523D02*
X127544285Y-54851904D01*
X125790476Y-63439523D02*
X126213809Y-64709523D01*
X126637142Y-63439523D01*
X127060476Y-64225714D02*
X128028095Y-64225714D01*
G04 #@! TO.C,X1*
D16*
X77143428Y-51901271D02*
X77143428Y-52467328D01*
X77143428Y-52184300D02*
X76152828Y-52184300D01*
X76294342Y-52278642D01*
X76388685Y-52372985D01*
X76435857Y-52467328D01*
X76247171Y-57293328D02*
X76200000Y-57246157D01*
X76152828Y-57151814D01*
X76152828Y-56915957D01*
X76200000Y-56821614D01*
X76247171Y-56774442D01*
X76341514Y-56727271D01*
X76435857Y-56727271D01*
X76577371Y-56774442D01*
X77143428Y-57340500D01*
X77143428Y-56727271D01*
X76152828Y-62420500D02*
X76152828Y-61807271D01*
X76530200Y-62137471D01*
X76530200Y-61995957D01*
X76577371Y-61901614D01*
X76624542Y-61854442D01*
X76718885Y-61807271D01*
X76954742Y-61807271D01*
X77049085Y-61854442D01*
X77096257Y-61901614D01*
X77143428Y-61995957D01*
X77143428Y-62278985D01*
X77096257Y-62373328D01*
X77049085Y-62420500D01*
G04 #@! TO.C,X2*
X78057828Y-103996671D02*
X78057828Y-104562728D01*
X78057828Y-104279700D02*
X77067228Y-104279700D01*
X77208742Y-104374042D01*
X77303085Y-104468385D01*
X77350257Y-104562728D01*
X77161571Y-99736728D02*
X77114400Y-99689557D01*
X77067228Y-99595214D01*
X77067228Y-99359357D01*
X77114400Y-99265014D01*
X77161571Y-99217842D01*
X77255914Y-99170671D01*
X77350257Y-99170671D01*
X77491771Y-99217842D01*
X78057828Y-99783900D01*
X78057828Y-99170671D01*
X77067228Y-94703900D02*
X77067228Y-94090671D01*
X77444600Y-94420871D01*
X77444600Y-94279357D01*
X77491771Y-94185014D01*
X77538942Y-94137842D01*
X77633285Y-94090671D01*
X77869142Y-94090671D01*
X77963485Y-94137842D01*
X78010657Y-94185014D01*
X78057828Y-94279357D01*
X78057828Y-94562385D01*
X78010657Y-94656728D01*
X77963485Y-94703900D01*
G04 #@! TO.C,X3*
X78057828Y-86216671D02*
X78057828Y-86782728D01*
X78057828Y-86499700D02*
X77067228Y-86499700D01*
X77208742Y-86594042D01*
X77303085Y-86688385D01*
X77350257Y-86782728D01*
X77161571Y-81956728D02*
X77114400Y-81909557D01*
X77067228Y-81815214D01*
X77067228Y-81579357D01*
X77114400Y-81485014D01*
X77161571Y-81437842D01*
X77255914Y-81390671D01*
X77350257Y-81390671D01*
X77491771Y-81437842D01*
X78057828Y-82003900D01*
X78057828Y-81390671D01*
X77067228Y-76923900D02*
X77067228Y-76310671D01*
X77444600Y-76640871D01*
X77444600Y-76499357D01*
X77491771Y-76405014D01*
X77538942Y-76357842D01*
X77633285Y-76310671D01*
X77869142Y-76310671D01*
X77963485Y-76357842D01*
X78010657Y-76405014D01*
X78057828Y-76499357D01*
X78057828Y-76782385D01*
X78010657Y-76876728D01*
X77963485Y-76923900D01*
G04 #@! TO.C,X4*
X179251428Y-41360271D02*
X179251428Y-41926328D01*
X179251428Y-41643300D02*
X178260828Y-41643300D01*
X178402342Y-41737642D01*
X178496685Y-41831985D01*
X178543857Y-41926328D01*
X178355171Y-47006328D02*
X178308000Y-46959157D01*
X178260828Y-46864814D01*
X178260828Y-46628957D01*
X178308000Y-46534614D01*
X178355171Y-46487442D01*
X178449514Y-46440271D01*
X178543857Y-46440271D01*
X178685371Y-46487442D01*
X179251428Y-47053500D01*
X179251428Y-46440271D01*
G04 #@! TO.C,X5*
X179251428Y-54060271D02*
X179251428Y-54626328D01*
X179251428Y-54343300D02*
X178260828Y-54343300D01*
X178402342Y-54437642D01*
X178496685Y-54531985D01*
X178543857Y-54626328D01*
X178355171Y-59706328D02*
X178308000Y-59659157D01*
X178260828Y-59564814D01*
X178260828Y-59328957D01*
X178308000Y-59234614D01*
X178355171Y-59187442D01*
X178449514Y-59140271D01*
X178543857Y-59140271D01*
X178685371Y-59187442D01*
X179251428Y-59753500D01*
X179251428Y-59140271D01*
G04 #@! TO.C,X6*
X179251428Y-66760271D02*
X179251428Y-67326328D01*
X179251428Y-67043300D02*
X178260828Y-67043300D01*
X178402342Y-67137642D01*
X178496685Y-67231985D01*
X178543857Y-67326328D01*
X178355171Y-72406328D02*
X178308000Y-72359157D01*
X178260828Y-72264814D01*
X178260828Y-72028957D01*
X178308000Y-71934614D01*
X178355171Y-71887442D01*
X178449514Y-71840271D01*
X178543857Y-71840271D01*
X178685371Y-71887442D01*
X179251428Y-72453500D01*
X179251428Y-71840271D01*
G04 #@! TD*
M02*
