solid holder_2xlimitswitches_z-axis_part2
facet normal 0.13052619222004552 0.0 -0.9914448613738114
  outer loop
    vertex 105.99999999999999 -37.0 -91.18456067413793
    vertex 105.22354286469243 -43.0 -91.28678319527071
    vertex 105.22354286469243 -37.0 -91.28678319527071
  endloop
endfacet
facet normal 0.13052619222004552 0.0 -0.9914448613738114
  outer loop
    vertex 105.22354286469243 -43.0 -91.28678319527071
    vertex 105.99999999999999 -37.0 -91.18456067413793
    vertex 105.99999999999999 -43.0 -91.18456067413793
  endloop
endfacet
facet normal -0.13052619222004552 0.0 -0.9914448613738114
  outer loop
    vertex 106.77645713530754 -37.0 -91.28678319527071
    vertex 105.99999999999999 -43.0 -91.18456067413793
    vertex 105.99999999999999 -37.0 -91.18456067413793
  endloop
endfacet
facet normal -0.13052619222004552 0.0 -0.9914448613738114
  outer loop
    vertex 105.99999999999999 -43.0 -91.18456067413793
    vertex 106.77645713530754 -37.0 -91.28678319527071
    vertex 106.77645713530754 -43.0 -91.28678319527071
  endloop
endfacet
facet normal -0.38268343236510544 0.0 -0.9238795325112803
  outer loop
    vertex 107.49999999999999 -37.0 -91.58648446278461
    vertex 106.77645713530754 -43.0 -91.28678319527071
    vertex 106.77645713530754 -37.0 -91.28678319527071
  endloop
endfacet
facet normal -0.38268343236510544 0.0 -0.9238795325112803
  outer loop
    vertex 106.77645713530754 -43.0 -91.28678319527071
    vertex 107.49999999999999 -37.0 -91.58648446278461
    vertex 107.49999999999999 -43.0 -91.58648446278461
  endloop
endfacet
facet normal -0.608761429008713 0.0 -0.7933533402912412
  outer loop
    vertex 108.12132034355962 -37.0 -92.06324033057827
    vertex 107.49999999999999 -43.0 -91.58648446278461
    vertex 107.49999999999999 -37.0 -91.58648446278461
  endloop
endfacet
facet normal -0.608761429008713 0.0 -0.7933533402912412
  outer loop
    vertex 107.49999999999999 -43.0 -91.58648446278461
    vertex 108.12132034355962 -37.0 -92.06324033057827
    vertex 108.12132034355962 -43.0 -92.06324033057827
  endloop
endfacet
facet normal -0.7933533402912379 0.0 -0.6087614290087172
  outer loop
    vertex 108.12132034355962 -37.0 -92.06324033057827
    vertex 108.59807621135329 -43.0 -92.68456067413793
    vertex 108.12132034355962 -43.0 -92.06324033057827
  endloop
endfacet
facet normal -0.7933533402912379 0.0 -0.6087614290087172
  outer loop
    vertex 108.59807621135329 -43.0 -92.68456067413793
    vertex 108.12132034355962 -37.0 -92.06324033057827
    vertex 108.59807621135329 -37.0 -92.68456067413793
  endloop
endfacet
facet normal -0.9238795325112803 0.0 -0.38268343236510544
  outer loop
    vertex 108.59807621135329 -37.0 -92.68456067413793
    vertex 108.8977774788672 -43.0 -93.40810353883036
    vertex 108.59807621135329 -43.0 -92.68456067413793
  endloop
endfacet
facet normal -0.9238795325112803 0.0 -0.38268343236510544
  outer loop
    vertex 108.8977774788672 -43.0 -93.40810353883036
    vertex 108.59807621135329 -37.0 -92.68456067413793
    vertex 108.8977774788672 -37.0 -93.40810353883036
  endloop
endfacet
facet normal -0.9914448613738114 0.0 -0.13052619222004552
  outer loop
    vertex 108.8977774788672 -37.0 -93.40810353883036
    vertex 108.99999999999999 -43.0 -94.18456067413791
    vertex 108.8977774788672 -43.0 -93.40810353883036
  endloop
endfacet
facet normal -0.9914448613738114 0.0 -0.13052619222004552
  outer loop
    vertex 108.99999999999999 -43.0 -94.18456067413791
    vertex 108.8977774788672 -37.0 -93.40810353883036
    vertex 108.99999999999999 -37.0 -94.18456067413791
  endloop
endfacet
facet normal -0.9914448613738114 0.0 0.13052619222004552
  outer loop
    vertex 108.99999999999999 -37.0 -94.18456067413791
    vertex 108.8977774788672 -43.0 -94.96101780944548
    vertex 108.99999999999999 -43.0 -94.18456067413791
  endloop
endfacet
facet normal -0.9914448613738114 0.0 0.13052619222004552
  outer loop
    vertex 108.8977774788672 -43.0 -94.96101780944548
    vertex 108.99999999999999 -37.0 -94.18456067413791
    vertex 108.8977774788672 -37.0 -94.96101780944548
  endloop
endfacet
facet normal -0.9238795325112803 0.0 0.38268343236510544
  outer loop
    vertex 108.8977774788672 -37.0 -94.96101780944548
    vertex 108.59807621135329 -43.0 -95.68456067413791
    vertex 108.8977774788672 -43.0 -94.96101780944548
  endloop
endfacet
facet normal -0.9238795325112803 0.0 0.38268343236510544
  outer loop
    vertex 108.59807621135329 -43.0 -95.68456067413791
    vertex 108.8977774788672 -37.0 -94.96101780944548
    vertex 108.59807621135329 -37.0 -95.68456067413791
  endloop
endfacet
facet normal -0.7933533402912379 0.0 0.6087614290087172
  outer loop
    vertex 108.59807621135329 -37.0 -95.68456067413791
    vertex 108.12132034355962 -43.0 -96.30588101769757
    vertex 108.59807621135329 -43.0 -95.68456067413791
  endloop
endfacet
facet normal -0.7933533402912379 0.0 0.6087614290087172
  outer loop
    vertex 108.12132034355962 -43.0 -96.30588101769757
    vertex 108.59807621135329 -37.0 -95.68456067413791
    vertex 108.12132034355962 -37.0 -96.30588101769757
  endloop
endfacet
facet normal -0.608761429008713 -0.0 0.7933533402912412
  outer loop
    vertex 108.12132034355962 -43.0 -96.30588101769757
    vertex 107.49999999999999 -37.0 -96.78263688549121
    vertex 107.49999999999999 -43.0 -96.78263688549121
  endloop
endfacet
facet normal -0.608761429008713 -0.0 0.7933533402912412
  outer loop
    vertex 107.49999999999999 -37.0 -96.78263688549121
    vertex 108.12132034355962 -43.0 -96.30588101769757
    vertex 108.12132034355962 -37.0 -96.30588101769757
  endloop
endfacet
facet normal -0.38268343236510544 -0.0 0.9238795325112803
  outer loop
    vertex 107.49999999999999 -43.0 -96.78263688549121
    vertex 106.77645713530754 -37.0 -97.08233815300513
    vertex 106.77645713530754 -43.0 -97.08233815300513
  endloop
endfacet
facet normal -0.38268343236510544 -0.0 0.9238795325112803
  outer loop
    vertex 106.77645713530754 -37.0 -97.08233815300513
    vertex 107.49999999999999 -43.0 -96.78263688549121
    vertex 107.49999999999999 -37.0 -96.78263688549121
  endloop
endfacet
facet normal -0.13052619222004552 -0.0 0.9914448613738114
  outer loop
    vertex 106.77645713530754 -43.0 -97.08233815300513
    vertex 105.99999999999999 -37.0 -97.18456067413791
    vertex 105.99999999999999 -43.0 -97.18456067413791
  endloop
endfacet
facet normal -0.13052619222004552 -0.0 0.9914448613738114
  outer loop
    vertex 105.99999999999999 -37.0 -97.18456067413791
    vertex 106.77645713530754 -43.0 -97.08233815300513
    vertex 106.77645713530754 -37.0 -97.08233815300513
  endloop
endfacet
facet normal 0.13052619222004552 -0.0 0.9914448613738114
  outer loop
    vertex 105.99999999999999 -43.0 -97.18456067413791
    vertex 105.22354286469243 -37.0 -97.08233815300513
    vertex 105.22354286469243 -43.0 -97.08233815300513
  endloop
endfacet
facet normal 0.13052619222004552 -0.0 0.9914448613738114
  outer loop
    vertex 105.22354286469243 -37.0 -97.08233815300513
    vertex 105.99999999999999 -43.0 -97.18456067413791
    vertex 105.99999999999999 -37.0 -97.18456067413791
  endloop
endfacet
facet normal 0.38268343236510544 -0.0 0.9238795325112803
  outer loop
    vertex 105.22354286469243 -43.0 -97.08233815300513
    vertex 104.49999999999999 -37.0 -96.78263688549121
    vertex 104.49999999999999 -43.0 -96.78263688549121
  endloop
endfacet
facet normal 0.38268343236510544 -0.0 0.9238795325112803
  outer loop
    vertex 104.49999999999999 -37.0 -96.78263688549121
    vertex 105.22354286469243 -43.0 -97.08233815300513
    vertex 105.22354286469243 -37.0 -97.08233815300513
  endloop
endfacet
facet normal 0.608761429008699 -0.0 0.7933533402912517
  outer loop
    vertex 104.49999999999999 -43.0 -96.78263688549121
    vertex 103.87867965644034 -37.0 -96.30588101769757
    vertex 103.87867965644034 -43.0 -96.30588101769757
  endloop
endfacet
facet normal 0.608761429008699 -0.0 0.7933533402912517
  outer loop
    vertex 103.87867965644034 -37.0 -96.30588101769757
    vertex 104.49999999999999 -43.0 -96.78263688549121
    vertex 104.49999999999999 -37.0 -96.78263688549121
  endloop
endfacet
facet normal 0.7933533402912379 -0.0 0.6087614290087172
  outer loop
    vertex 103.87867965644034 -37.0 -96.30588101769757
    vertex 103.40192378864667 -43.0 -95.68456067413791
    vertex 103.87867965644034 -43.0 -96.30588101769757
  endloop
endfacet
facet normal 0.7933533402912379 -0.0 0.6087614290087172
  outer loop
    vertex 103.40192378864667 -43.0 -95.68456067413791
    vertex 103.87867965644034 -37.0 -96.30588101769757
    vertex 103.40192378864667 -37.0 -95.68456067413791
  endloop
endfacet
facet normal 0.9238795325112905 -0.0 0.3826834323650808
  outer loop
    vertex 103.40192378864667 -37.0 -95.68456067413791
    vertex 103.10222252113279 -43.0 -94.96101780944548
    vertex 103.40192378864667 -43.0 -95.68456067413791
  endloop
endfacet
facet normal 0.9238795325112905 -0.0 0.3826834323650808
  outer loop
    vertex 103.10222252113279 -43.0 -94.96101780944548
    vertex 103.40192378864667 -37.0 -95.68456067413791
    vertex 103.10222252113279 -37.0 -94.96101780944548
  endloop
endfacet
facet normal 0.9914448613738114 -0.0 0.13052619222004552
  outer loop
    vertex 103.10222252113279 -37.0 -94.96101780944548
    vertex 102.99999999999999 -43.0 -94.18456067413791
    vertex 103.10222252113279 -43.0 -94.96101780944548
  endloop
endfacet
facet normal 0.9914448613738114 -0.0 0.13052619222004552
  outer loop
    vertex 102.99999999999999 -43.0 -94.18456067413791
    vertex 103.10222252113279 -37.0 -94.96101780944548
    vertex 102.99999999999999 -37.0 -94.18456067413791
  endloop
endfacet
facet normal 0.9914448613738114 -0.0 -0.13052619222004552
  outer loop
    vertex 102.99999999999999 -37.0 -94.18456067413791
    vertex 103.10222252113279 -43.0 -93.40810353883036
    vertex 102.99999999999999 -43.0 -94.18456067413791
  endloop
endfacet
facet normal 0.9914448613738114 -0.0 -0.13052619222004552
  outer loop
    vertex 103.10222252113279 -43.0 -93.40810353883036
    vertex 102.99999999999999 -37.0 -94.18456067413791
    vertex 103.10222252113279 -37.0 -93.40810353883036
  endloop
endfacet
facet normal 0.9238795325112905 -0.0 -0.3826834323650808
  outer loop
    vertex 103.10222252113279 -37.0 -93.40810353883036
    vertex 103.40192378864667 -43.0 -92.68456067413793
    vertex 103.10222252113279 -43.0 -93.40810353883036
  endloop
endfacet
facet normal 0.9238795325112905 -0.0 -0.3826834323650808
  outer loop
    vertex 103.40192378864667 -43.0 -92.68456067413793
    vertex 103.10222252113279 -37.0 -93.40810353883036
    vertex 103.40192378864667 -37.0 -92.68456067413793
  endloop
endfacet
facet normal 0.7933533402912377 -0.0 -0.6087614290087172
  outer loop
    vertex 103.40192378864667 -37.0 -92.68456067413793
    vertex 103.87867965644034 -43.0 -92.06324033057827
    vertex 103.40192378864667 -43.0 -92.68456067413793
  endloop
endfacet
facet normal 0.7933533402912377 -0.0 -0.6087614290087172
  outer loop
    vertex 103.87867965644034 -43.0 -92.06324033057827
    vertex 103.40192378864667 -37.0 -92.68456067413793
    vertex 103.87867965644034 -37.0 -92.06324033057827
  endloop
endfacet
facet normal 0.608761429008699 0.0 -0.7933533402912517
  outer loop
    vertex 104.49999999999999 -37.0 -91.58648446278461
    vertex 103.87867965644034 -43.0 -92.06324033057827
    vertex 103.87867965644034 -37.0 -92.06324033057827
  endloop
endfacet
facet normal 0.608761429008699 0.0 -0.7933533402912517
  outer loop
    vertex 103.87867965644034 -43.0 -92.06324033057827
    vertex 104.49999999999999 -37.0 -91.58648446278461
    vertex 104.49999999999999 -43.0 -91.58648446278461
  endloop
endfacet
facet normal 0.38268343236510544 0.0 -0.9238795325112803
  outer loop
    vertex 105.22354286469243 -37.0 -91.28678319527071
    vertex 104.49999999999999 -43.0 -91.58648446278461
    vertex 104.49999999999999 -37.0 -91.58648446278461
  endloop
endfacet
facet normal 0.38268343236510544 0.0 -0.9238795325112803
  outer loop
    vertex 104.49999999999999 -43.0 -91.58648446278461
    vertex 105.22354286469243 -37.0 -91.28678319527071
    vertex 105.22354286469243 -43.0 -91.28678319527071
  endloop
endfacet
facet normal -0.13052619222005257 -0.9914448613738103 3.5040794202324494e-30
  outer loop
    vertex 103.5529142706151 -52.2044450422656 -113.18456067413788
    vertex 102.0 -52.00000000000001 -117.00000000000001
    vertex 103.5529142706151 -52.2044450422656 -117.00000000000001
  endloop
endfacet
facet normal -0.13052619222005257 -0.9914448613738103 3.5040794202324494e-30
  outer loop
    vertex 102.0 -52.00000000000001 -117.00000000000001
    vertex 103.5529142706151 -52.2044450422656 -113.18456067413788
    vertex 102.0 -52.00000000000001 -113.18456067413788
  endloop
endfacet
facet normal 0.13052619222005257 -0.9914448613738103 3.5040794202324494e-30
  outer loop
    vertex 102.0 -52.00000000000001 -113.18456067413788
    vertex 100.44708572938488 -52.2044450422656 -117.00000000000001
    vertex 102.0 -52.00000000000001 -117.00000000000001
  endloop
endfacet
facet normal 0.13052619222005257 -0.9914448613738103 3.5040794202324494e-30
  outer loop
    vertex 100.44708572938488 -52.2044450422656 -117.00000000000001
    vertex 102.0 -52.00000000000001 -113.18456067413788
    vertex 100.44708572938488 -52.2044450422656 -113.18456067413788
  endloop
endfacet
facet normal 0.382683432365087 -0.9238795325112878 -3.590215745233508e-18
  outer loop
    vertex 100.44708572938488 -52.2044450422656 -113.18456067413788
    vertex 99.0 -52.80384757729337 -117.00000000000001
    vertex 100.44708572938488 -52.2044450422656 -117.00000000000001
  endloop
endfacet
facet normal 0.382683432365087 -0.9238795325112878 -3.590215745233508e-18
  outer loop
    vertex 99.0 -52.80384757729337 -117.00000000000001
    vertex 100.44708572938488 -52.2044450422656 -113.18456067413788
    vertex 99.0 -52.80384757729337 -113.18456067413788
  endloop
endfacet
facet normal 0.6087614290087172 -0.7933533402912379 0.0
  outer loop
    vertex 99.0 -52.80384757729337 -113.18456067413788
    vertex 97.7573593128807 -53.75735931288072 -117.00000000000001
    vertex 99.0 -52.80384757729337 -117.00000000000001
  endloop
endfacet
facet normal 0.6087614290087172 -0.7933533402912379 0.0
  outer loop
    vertex 97.7573593128807 -53.75735931288072 -117.00000000000001
    vertex 99.0 -52.80384757729337 -113.18456067413788
    vertex 97.7573593128807 -53.75735931288072 -113.18456067413788
  endloop
endfacet
facet normal 0.7933533402912325 -0.6087614290087243 -0.0
  outer loop
    vertex 97.7573593128807 -53.75735931288072 -117.00000000000001
    vertex 96.80384757729335 -55.0 -113.18456067413788
    vertex 96.80384757729335 -55.0 -117.00000000000001
  endloop
endfacet
facet normal 0.7933533402912325 -0.6087614290087243 -0.0
  outer loop
    vertex 96.80384757729335 -55.0 -113.18456067413788
    vertex 97.7573593128807 -53.75735931288072 -117.00000000000001
    vertex 97.7573593128807 -53.75735931288072 -113.18456067413788
  endloop
endfacet
facet normal 0.9238795325112905 -0.3826834323650808 -0.0
  outer loop
    vertex 96.80384757729335 -55.0 -117.00000000000001
    vertex 96.20444504226559 -56.44708572938488 -113.18456067413788
    vertex 96.20444504226559 -56.44708572938488 -117.00000000000001
  endloop
endfacet
facet normal 0.9238795325112905 -0.3826834323650808 -0.0
  outer loop
    vertex 96.20444504226559 -56.44708572938488 -113.18456067413788
    vertex 96.80384757729335 -55.0 -117.00000000000001
    vertex 96.80384757729335 -55.0 -113.18456067413788
  endloop
endfacet
facet normal 0.9914448613738105 -0.13052619222005168 3.965400227650646e-30
  outer loop
    vertex 96.20444504226559 -56.44708572938488 -117.00000000000001
    vertex 96.0 -58.00000000000001 -113.18456067413788
    vertex 96.0 -58.00000000000001 -117.00000000000001
  endloop
endfacet
facet normal 0.9914448613738105 -0.13052619222005168 3.965400227650646e-30
  outer loop
    vertex 96.0 -58.00000000000001 -113.18456067413788
    vertex 96.20444504226559 -56.44708572938488 -117.00000000000001
    vertex 96.20444504226559 -56.44708572938488 -113.18456067413788
  endloop
endfacet
facet normal 0.9914448613738105 0.13052619222005168 3.965400227650646e-30
  outer loop
    vertex 96.0 -58.00000000000001 -117.00000000000001
    vertex 96.20444504226559 -59.55291427061513 -113.18456067413788
    vertex 96.20444504226559 -59.55291427061513 -117.00000000000001
  endloop
endfacet
facet normal 0.9914448613738105 0.13052619222005168 3.965400227650646e-30
  outer loop
    vertex 96.20444504226559 -59.55291427061513 -113.18456067413788
    vertex 96.0 -58.00000000000001 -117.00000000000001
    vertex 96.0 -58.00000000000001 -113.18456067413788
  endloop
endfacet
facet normal 0.9238795325112894 0.3826834323650834 1.352524171597696e-30
  outer loop
    vertex 96.20444504226559 -59.55291427061513 -117.00000000000001
    vertex 96.80384757729335 -61.0 -113.18456067413788
    vertex 96.80384757729335 -61.0 -117.00000000000001
  endloop
endfacet
facet normal 0.9238795325112894 0.3826834323650834 1.352524171597696e-30
  outer loop
    vertex 96.80384757729335 -61.0 -113.18456067413788
    vertex 96.20444504226559 -59.55291427061513 -117.00000000000001
    vertex 96.20444504226559 -59.55291427061513 -113.18456067413788
  endloop
endfacet
facet normal 0.7933533402912352 0.6087614290087208 -2.1515552486347323e-30
  outer loop
    vertex 96.80384757729335 -61.0 -117.00000000000001
    vertex 97.7573593128807 -62.24264068711929 -113.18456067413788
    vertex 97.7573593128807 -62.24264068711929 -117.00000000000001
  endloop
endfacet
facet normal 0.7933533402912352 0.6087614290087208 -2.1515552486347323e-30
  outer loop
    vertex 97.7573593128807 -62.24264068711929 -113.18456067413788
    vertex 96.80384757729335 -61.0 -117.00000000000001
    vertex 96.80384757729335 -61.0 -113.18456067413788
  endloop
endfacet
facet normal 0.6087614290087172 0.7933533402912379 -0.0
  outer loop
    vertex 97.7573593128807 -62.24264068711929 -113.18456067413788
    vertex 99.0 -63.19615242270664 -117.00000000000001
    vertex 97.7573593128807 -62.24264068711929 -117.00000000000001
  endloop
endfacet
facet normal 0.6087614290087172 0.7933533402912379 -0.0
  outer loop
    vertex 99.0 -63.19615242270664 -117.00000000000001
    vertex 97.7573593128807 -62.24264068711929 -113.18456067413788
    vertex 99.0 -63.19615242270664 -113.18456067413788
  endloop
endfacet
facet normal 0.382683432365087 0.9238795325112878 -3.590215745233508e-18
  outer loop
    vertex 99.0 -63.19615242270664 -113.18456067413788
    vertex 100.44708572938488 -63.79555495773442 -117.00000000000001
    vertex 99.0 -63.19615242270664 -117.00000000000001
  endloop
endfacet
facet normal 0.382683432365087 0.9238795325112878 -3.590215745233508e-18
  outer loop
    vertex 100.44708572938488 -63.79555495773442 -117.00000000000001
    vertex 99.0 -63.19615242270664 -113.18456067413788
    vertex 100.44708572938488 -63.79555495773442 -113.18456067413788
  endloop
endfacet
facet normal 0.13052619222005257 0.9914448613738103 3.5040794202324494e-30
  outer loop
    vertex 100.44708572938488 -63.79555495773442 -113.18456067413788
    vertex 102.0 -64.0 -117.00000000000001
    vertex 100.44708572938488 -63.79555495773442 -117.00000000000001
  endloop
endfacet
facet normal 0.13052619222005257 0.9914448613738103 3.5040794202324494e-30
  outer loop
    vertex 102.0 -64.0 -117.00000000000001
    vertex 100.44708572938488 -63.79555495773442 -113.18456067413788
    vertex 102.0 -64.0 -113.18456067413788
  endloop
endfacet
facet normal -0.13052619222005257 0.9914448613738103 3.5040794202324494e-30
  outer loop
    vertex 102.0 -64.0 -113.18456067413788
    vertex 103.5529142706151 -63.79555495773442 -117.00000000000001
    vertex 102.0 -64.0 -117.00000000000001
  endloop
endfacet
facet normal -0.13052619222005257 0.9914448613738103 3.5040794202324494e-30
  outer loop
    vertex 103.5529142706151 -63.79555495773442 -117.00000000000001
    vertex 102.0 -64.0 -113.18456067413788
    vertex 103.5529142706151 -63.79555495773442 -113.18456067413788
  endloop
endfacet
facet normal -0.382683432365087 0.9238795325112878 -3.590215745233508e-18
  outer loop
    vertex 103.5529142706151 -63.79555495773442 -113.18456067413788
    vertex 104.99999999999999 -63.19615242270664 -117.00000000000001
    vertex 103.5529142706151 -63.79555495773442 -117.00000000000001
  endloop
endfacet
facet normal -0.382683432365087 0.9238795325112878 -3.590215745233508e-18
  outer loop
    vertex 104.99999999999999 -63.19615242270664 -117.00000000000001
    vertex 103.5529142706151 -63.79555495773442 -113.18456067413788
    vertex 104.99999999999999 -63.19615242270664 -113.18456067413788
  endloop
endfacet
facet normal -0.6087614290087172 0.7933533402912379 -0.0
  outer loop
    vertex 104.99999999999999 -63.19615242270664 -113.18456067413788
    vertex 106.24264068711929 -62.24264068711929 -117.00000000000001
    vertex 104.99999999999999 -63.19615242270664 -117.00000000000001
  endloop
endfacet
facet normal -0.6087614290087172 0.7933533402912379 -0.0
  outer loop
    vertex 106.24264068711929 -62.24264068711929 -117.00000000000001
    vertex 104.99999999999999 -63.19615242270664 -113.18456067413788
    vertex 106.24264068711929 -62.24264068711929 -113.18456067413788
  endloop
endfacet
facet normal -0.7933533402912325 0.6087614290087243 0.0
  outer loop
    vertex 107.19615242270665 -61.000000000000014 -113.18456067413788
    vertex 106.24264068711929 -62.24264068711929 -117.00000000000001
    vertex 106.24264068711929 -62.24264068711929 -113.18456067413788
  endloop
endfacet
facet normal -0.7933533402912325 0.6087614290087243 0.0
  outer loop
    vertex 106.24264068711929 -62.24264068711929 -117.00000000000001
    vertex 107.19615242270665 -61.000000000000014 -113.18456067413788
    vertex 107.19615242270665 -61.000000000000014 -117.00000000000001
  endloop
endfacet
facet normal -0.9238795325112905 0.3826834323650808 0.0
  outer loop
    vertex 107.79555495773441 -59.55291427061513 -113.18456067413788
    vertex 107.19615242270665 -61.000000000000014 -117.00000000000001
    vertex 107.19615242270665 -61.000000000000014 -113.18456067413788
  endloop
endfacet
facet normal -0.9238795325112905 0.3826834323650808 0.0
  outer loop
    vertex 107.19615242270665 -61.000000000000014 -117.00000000000001
    vertex 107.79555495773441 -59.55291427061513 -113.18456067413788
    vertex 107.79555495773441 -59.55291427061513 -117.00000000000001
  endloop
endfacet
facet normal -0.9914448613738114 0.1305261922200446 4.613208074181713e-31
  outer loop
    vertex 107.99999999999999 -58.00000000000001 -113.18456067413788
    vertex 107.79555495773441 -59.55291427061513 -117.00000000000001
    vertex 107.79555495773441 -59.55291427061513 -113.18456067413788
  endloop
endfacet
facet normal -0.9914448613738114 0.1305261922200446 4.613208074181713e-31
  outer loop
    vertex 107.79555495773441 -59.55291427061513 -117.00000000000001
    vertex 107.99999999999999 -58.00000000000001 -113.18456067413788
    vertex 107.99999999999999 -58.00000000000001 -117.00000000000001
  endloop
endfacet
facet normal -0.9914448613738114 -0.1305261922200446 4.613208074181713e-31
  outer loop
    vertex 107.79555495773441 -56.44708572938488 -113.18456067413788
    vertex 107.99999999999999 -58.00000000000001 -117.00000000000001
    vertex 107.99999999999999 -58.00000000000001 -113.18456067413788
  endloop
endfacet
facet normal -0.9914448613738114 -0.1305261922200446 4.613208074181713e-31
  outer loop
    vertex 107.99999999999999 -58.00000000000001 -117.00000000000001
    vertex 107.79555495773441 -56.44708572938488 -113.18456067413788
    vertex 107.79555495773441 -56.44708572938488 -117.00000000000001
  endloop
endfacet
facet normal -0.9238795325112894 -0.3826834323650834 1.352524171597696e-30
  outer loop
    vertex 107.19615242270665 -55.000000000000014 -113.18456067413788
    vertex 107.79555495773441 -56.44708572938488 -117.00000000000001
    vertex 107.79555495773441 -56.44708572938488 -113.18456067413788
  endloop
endfacet
facet normal -0.9238795325112894 -0.3826834323650834 1.352524171597696e-30
  outer loop
    vertex 107.79555495773441 -56.44708572938488 -117.00000000000001
    vertex 107.19615242270665 -55.000000000000014 -113.18456067413788
    vertex 107.19615242270665 -55.000000000000014 -117.00000000000001
  endloop
endfacet
facet normal -0.7933533402912352 -0.6087614290087208 -2.1515552486347323e-30
  outer loop
    vertex 106.24264068711929 -53.75735931288072 -113.18456067413788
    vertex 107.19615242270665 -55.000000000000014 -117.00000000000001
    vertex 107.19615242270665 -55.000000000000014 -113.18456067413788
  endloop
endfacet
facet normal -0.7933533402912352 -0.6087614290087208 -2.1515552486347323e-30
  outer loop
    vertex 107.19615242270665 -55.000000000000014 -117.00000000000001
    vertex 106.24264068711929 -53.75735931288072 -113.18456067413788
    vertex 106.24264068711929 -53.75735931288072 -117.00000000000001
  endloop
endfacet
facet normal -0.6087614290087172 -0.7933533402912379 0.0
  outer loop
    vertex 106.24264068711929 -53.75735931288072 -113.18456067413788
    vertex 104.99999999999999 -52.80384757729337 -117.00000000000001
    vertex 106.24264068711929 -53.75735931288072 -117.00000000000001
  endloop
endfacet
facet normal -0.6087614290087172 -0.7933533402912379 0.0
  outer loop
    vertex 104.99999999999999 -52.80384757729337 -117.00000000000001
    vertex 106.24264068711929 -53.75735931288072 -113.18456067413788
    vertex 104.99999999999999 -52.80384757729337 -113.18456067413788
  endloop
endfacet
facet normal -0.382683432365087 -0.9238795325112878 -3.590215745233508e-18
  outer loop
    vertex 104.99999999999999 -52.80384757729337 -113.18456067413788
    vertex 103.5529142706151 -52.2044450422656 -117.00000000000001
    vertex 104.99999999999999 -52.80384757729337 -117.00000000000001
  endloop
endfacet
facet normal -0.382683432365087 -0.9238795325112878 -3.590215745233508e-18
  outer loop
    vertex 103.5529142706151 -52.2044450422656 -117.00000000000001
    vertex 104.99999999999999 -52.80384757729337 -113.18456067413788
    vertex 103.5529142706151 -52.2044450422656 -113.18456067413788
  endloop
endfacet
facet normal -1.0 0.0 0.0
  outer loop
    vertex 91.99999999999999 -38.0 -107.0
    vertex 91.99999999999999 -43.0 -113.18456067413788
    vertex 91.99999999999999 -43.0 -107.0
  endloop
endfacet
facet normal -1.0 0.0 0.0
  outer loop
    vertex 91.99999999999999 -43.0 -113.18456067413788
    vertex 91.99999999999999 -67.0 -117.00000000000001
    vertex 91.99999999999999 -67.0 -113.18456067413788
  endloop
endfacet
facet normal -1.0 0.0 0.0
  outer loop
    vertex 91.99999999999999 -67.0 -117.00000000000001
    vertex 91.99999999999999 -43.0 -113.18456067413788
    vertex 91.99999999999999 -38.0 -117.00000000000001
  endloop
endfacet
facet normal -1.0 0.0 0.0
  outer loop
    vertex 91.99999999999999 -38.0 -117.00000000000001
    vertex 91.99999999999999 -43.0 -113.18456067413788
    vertex 91.99999999999999 -38.0 -107.0
  endloop
endfacet
facet normal 0.0 -1.0 0.0
  outer loop
    vertex 112.00000000000001 -67.0 -113.18456067413788
    vertex 91.99999999999999 -67.0 -117.00000000000001
    vertex 112.00000000000001 -67.0 -117.00000000000001
  endloop
endfacet
facet normal 0.0 -1.0 0.0
  outer loop
    vertex 91.99999999999999 -67.0 -117.00000000000001
    vertex 112.00000000000001 -67.0 -113.18456067413788
    vertex 91.99999999999999 -67.0 -113.18456067413788
  endloop
endfacet
facet normal 1.0 2.6657429086821847e-15 8.933007179802777e-16
  outer loop
    vertex 111.99999999999993 -38.0 -117.00000000000001
    vertex 112.00000000000001 -67.0 -113.18456067413788
    vertex 112.00000000000001 -67.0 -117.00000000000001
  endloop
endfacet
facet normal 1.0 2.6657429086821847e-15 8.933007179802777e-16
  outer loop
    vertex 112.00000000000001 -67.0 -113.18456067413788
    vertex 111.99999999999993 -38.0 -117.00000000000001
    vertex 112.00000000000001 -43.0 -113.18456067413788
  endloop
endfacet
facet normal 1.0 2.6657429086821847e-15 8.933007179802777e-16
  outer loop
    vertex 112.00000000000001 -43.0 -113.18456067413788
    vertex 111.99999999999993 -38.0 -117.00000000000001
    vertex 111.99999999999993 -43.0 -88.0
  endloop
endfacet
facet normal 1.0 2.6657429086821847e-15 8.933007179802777e-16
  outer loop
    vertex 111.99999999999993 -43.0 -88.0
    vertex 111.99999999999993 -38.0 -117.00000000000001
    vertex 111.99999999999993 -38.0 -100.18456067413791
  endloop
endfacet
facet normal 1.0 2.6657429086821847e-15 8.933007179802777e-16
  outer loop
    vertex 111.99999999999993 -43.0 -88.0
    vertex 111.99999999999993 -38.0 -100.18456067413791
    vertex 111.99999999999993 -37.0 -88.0
  endloop
endfacet
facet normal 1.0 2.6657429086821847e-15 8.933007179802777e-16
  outer loop
    vertex 111.99999999999993 -37.0 -88.0
    vertex 111.99999999999993 -38.0 -100.18456067413791
    vertex 111.99999999999993 -37.0 -100.18456067413791
  endloop
endfacet
facet normal -0.0 -0.0 1.0
  outer loop
    vertex 111.99999999999993 -43.0 -88.0
    vertex 19.0 -40.0 -88.0
    vertex 19.0 -43.0 -88.0
  endloop
endfacet
facet normal -0.0 -0.0 1.0
  outer loop
    vertex 19.0 -40.0 -88.0
    vertex 111.99999999999993 -43.0 -88.0
    vertex 31.999999999999996 -40.0 -88.0
  endloop
endfacet
facet normal -0.0 -0.0 1.0
  outer loop
    vertex 31.999999999999996 -40.0 -88.0
    vertex 111.99999999999993 -43.0 -88.0
    vertex 31.999999999999996 -38.0 -88.0
  endloop
endfacet
facet normal -0.0 -0.0 1.0
  outer loop
    vertex 31.999999999999996 -38.0 -88.0
    vertex 111.99999999999993 -43.0 -88.0
    vertex 99.99999999999993 -38.0 -88.0
  endloop
endfacet
facet normal -0.0 -0.0 1.0
  outer loop
    vertex 99.99999999999993 -38.0 -88.0
    vertex 111.99999999999993 -43.0 -88.0
    vertex 99.99999999999993 -37.0 -88.0
  endloop
endfacet
facet normal -0.0 -0.0 1.0
  outer loop
    vertex 99.99999999999993 -37.0 -88.0
    vertex 111.99999999999993 -43.0 -88.0
    vertex 111.99999999999993 -37.0 -88.0
  endloop
endfacet
facet normal -0.0 1.0 -0.0
  outer loop
    vertex 31.999999999999996 -38.0 -88.0
    vertex 91.99999999999999 -38.0 -107.0
    vertex 31.999999999999996 -38.0 -107.0
  endloop
endfacet
facet normal -0.0 1.0 -0.0
  outer loop
    vertex 91.99999999999999 -38.0 -107.0
    vertex 31.999999999999996 -38.0 -88.0
    vertex 111.99999999999993 -38.0 -100.18456067413791
  endloop
endfacet
facet normal -0.0 1.0 -0.0
  outer loop
    vertex 111.99999999999993 -38.0 -100.18456067413791
    vertex 31.999999999999996 -38.0 -88.0
    vertex 99.99999999999993 -38.0 -95.0
  endloop
endfacet
facet normal -0.0 1.0 -0.0
  outer loop
    vertex 99.99999999999993 -38.0 -95.0
    vertex 31.999999999999996 -38.0 -88.0
    vertex 99.99999999999993 -38.0 -88.0
  endloop
endfacet
facet normal -0.0 1.0 -0.0
  outer loop
    vertex 91.99999999999999 -38.0 -107.0
    vertex 111.99999999999993 -38.0 -117.00000000000001
    vertex 91.99999999999999 -38.0 -117.00000000000001
  endloop
endfacet
facet normal -0.0 1.0 -0.0
  outer loop
    vertex 111.99999999999993 -38.0 -117.00000000000001
    vertex 91.99999999999999 -38.0 -107.0
    vertex 111.99999999999993 -38.0 -100.18456067413791
  endloop
endfacet
facet normal 0.0 -1.0 0.0
  outer loop
    vertex 112.00000000000001 -43.0 -113.18456067413788
    vertex 108.12132034355962 -43.0 -96.30588101769757
    vertex 91.99999999999999 -43.0 -113.18456067413788
  endloop
endfacet
facet normal 0.0 -1.0 0.0
  outer loop
    vertex 108.12132034355962 -43.0 -96.30588101769757
    vertex 112.00000000000001 -43.0 -113.18456067413788
    vertex 108.59807621135329 -43.0 -95.68456067413791
  endloop
endfacet
facet normal 0.0 -1.0 0.0
  outer loop
    vertex 108.59807621135329 -43.0 -95.68456067413791
    vertex 112.00000000000001 -43.0 -113.18456067413788
    vertex 111.99999999999993 -43.0 -88.0
  endloop
endfacet
facet normal 0.0 -1.0 0.0
  outer loop
    vertex 91.99999999999999 -43.0 -113.18456067413788
    vertex 108.12132034355962 -43.0 -96.30588101769757
    vertex 107.49999999999999 -43.0 -96.78263688549121
  endloop
endfacet
facet normal 0.0 -1.0 0.0
  outer loop
    vertex 91.99999999999999 -43.0 -113.18456067413788
    vertex 107.49999999999999 -43.0 -96.78263688549121
    vertex 91.99999999999999 -43.0 -107.0
  endloop
endfacet
facet normal 0.0 -1.0 0.0
  outer loop
    vertex 91.99999999999999 -43.0 -107.0
    vertex 107.49999999999999 -43.0 -96.78263688549121
    vertex 106.77645713530754 -43.0 -97.08233815300513
  endloop
endfacet
facet normal 0.0 -1.0 0.0
  outer loop
    vertex 91.99999999999999 -43.0 -107.0
    vertex 106.77645713530754 -43.0 -97.08233815300513
    vertex 105.99999999999999 -43.0 -97.18456067413791
  endloop
endfacet
facet normal 0.0 -1.0 0.0
  outer loop
    vertex 91.99999999999999 -43.0 -107.0
    vertex 105.99999999999999 -43.0 -97.18456067413791
    vertex 19.0 -43.0 -107.0
  endloop
endfacet
facet normal 0.0 -1.0 0.0
  outer loop
    vertex 108.59807621135329 -43.0 -95.68456067413791
    vertex 111.99999999999993 -43.0 -88.0
    vertex 108.8977774788672 -43.0 -94.96101780944548
  endloop
endfacet
facet normal 0.0 -1.0 0.0
  outer loop
    vertex 108.8977774788672 -43.0 -94.96101780944548
    vertex 111.99999999999993 -43.0 -88.0
    vertex 108.99999999999999 -43.0 -94.18456067413791
  endloop
endfacet
facet normal 0.0 -1.0 0.0
  outer loop
    vertex 108.99999999999999 -43.0 -94.18456067413791
    vertex 111.99999999999993 -43.0 -88.0
    vertex 108.8977774788672 -43.0 -93.40810353883036
  endloop
endfacet
facet normal 0.0 -1.0 0.0
  outer loop
    vertex 108.8977774788672 -43.0 -93.40810353883036
    vertex 111.99999999999993 -43.0 -88.0
    vertex 108.59807621135329 -43.0 -92.68456067413793
  endloop
endfacet
facet normal 0.0 -1.0 0.0
  outer loop
    vertex 108.59807621135329 -43.0 -92.68456067413793
    vertex 111.99999999999993 -43.0 -88.0
    vertex 108.12132034355962 -43.0 -92.06324033057827
  endloop
endfacet
facet normal 0.0 -1.0 0.0
  outer loop
    vertex 108.12132034355962 -43.0 -92.06324033057827
    vertex 111.99999999999993 -43.0 -88.0
    vertex 107.49999999999999 -43.0 -91.58648446278461
  endloop
endfacet
facet normal 0.0 -1.0 0.0
  outer loop
    vertex 107.49999999999999 -43.0 -91.58648446278461
    vertex 111.99999999999993 -43.0 -88.0
    vertex 106.77645713530754 -43.0 -91.28678319527071
  endloop
endfacet
facet normal 0.0 -1.0 0.0
  outer loop
    vertex 106.77645713530754 -43.0 -91.28678319527071
    vertex 111.99999999999993 -43.0 -88.0
    vertex 105.99999999999999 -43.0 -91.18456067413793
  endloop
endfacet
facet normal 0.0 -1.0 0.0
  outer loop
    vertex 105.99999999999999 -43.0 -97.18456067413791
    vertex 19.0 -43.0 -88.0
    vertex 19.0 -43.0 -107.0
  endloop
endfacet
facet normal 0.0 -1.0 0.0
  outer loop
    vertex 19.0 -43.0 -88.0
    vertex 105.99999999999999 -43.0 -97.18456067413791
    vertex 105.22354286469243 -43.0 -97.08233815300513
  endloop
endfacet
facet normal 0.0 -1.0 0.0
  outer loop
    vertex 19.0 -43.0 -88.0
    vertex 105.22354286469243 -43.0 -97.08233815300513
    vertex 104.49999999999999 -43.0 -96.78263688549121
  endloop
endfacet
facet normal 0.0 -1.0 0.0
  outer loop
    vertex 19.0 -43.0 -88.0
    vertex 104.49999999999999 -43.0 -96.78263688549121
    vertex 103.87867965644034 -43.0 -96.30588101769757
  endloop
endfacet
facet normal 0.0 -1.0 0.0
  outer loop
    vertex 19.0 -43.0 -88.0
    vertex 103.87867965644034 -43.0 -96.30588101769757
    vertex 103.40192378864667 -43.0 -95.68456067413791
  endloop
endfacet
facet normal 0.0 -1.0 0.0
  outer loop
    vertex 19.0 -43.0 -88.0
    vertex 103.40192378864667 -43.0 -95.68456067413791
    vertex 103.10222252113279 -43.0 -94.96101780944548
  endloop
endfacet
facet normal 0.0 -1.0 0.0
  outer loop
    vertex 19.0 -43.0 -88.0
    vertex 103.10222252113279 -43.0 -94.96101780944548
    vertex 102.99999999999999 -43.0 -94.18456067413791
  endloop
endfacet
facet normal 0.0 -1.0 0.0
  outer loop
    vertex 19.0 -43.0 -88.0
    vertex 102.99999999999999 -43.0 -94.18456067413791
    vertex 103.10222252113279 -43.0 -93.40810353883036
  endloop
endfacet
facet normal 0.0 -1.0 0.0
  outer loop
    vertex 19.0 -43.0 -88.0
    vertex 103.10222252113279 -43.0 -93.40810353883036
    vertex 103.40192378864667 -43.0 -92.68456067413793
  endloop
endfacet
facet normal 0.0 -1.0 0.0
  outer loop
    vertex 19.0 -43.0 -88.0
    vertex 103.40192378864667 -43.0 -92.68456067413793
    vertex 103.87867965644034 -43.0 -92.06324033057827
  endloop
endfacet
facet normal 0.0 -1.0 0.0
  outer loop
    vertex 19.0 -43.0 -88.0
    vertex 103.87867965644034 -43.0 -92.06324033057827
    vertex 104.49999999999999 -43.0 -91.58648446278461
  endloop
endfacet
facet normal 0.0 -1.0 0.0
  outer loop
    vertex 19.0 -43.0 -88.0
    vertex 104.49999999999999 -43.0 -91.58648446278461
    vertex 105.22354286469243 -43.0 -91.28678319527071
  endloop
endfacet
facet normal 0.0 -1.0 0.0
  outer loop
    vertex 19.0 -43.0 -88.0
    vertex 105.22354286469243 -43.0 -91.28678319527071
    vertex 105.99999999999999 -43.0 -91.18456067413793
  endloop
endfacet
facet normal 0.0 -1.0 0.0
  outer loop
    vertex 19.0 -43.0 -88.0
    vertex 105.99999999999999 -43.0 -91.18456067413793
    vertex 111.99999999999993 -43.0 -88.0
  endloop
endfacet
facet normal -0.0 1.0 -0.0
  outer loop
    vertex 111.99999999999993 -37.0 -100.18456067413791
    vertex 105.22354286469243 -37.0 -97.08233815300513
    vertex 105.99999999999999 -37.0 -97.18456067413791
  endloop
endfacet
facet normal -0.0 1.0 -0.0
  outer loop
    vertex 105.22354286469243 -37.0 -97.08233815300513
    vertex 111.99999999999993 -37.0 -100.18456067413791
    vertex 99.99999999999993 -37.0 -95.0
  endloop
endfacet
facet normal -0.0 1.0 -0.0
  outer loop
    vertex 105.22354286469243 -37.0 -97.08233815300513
    vertex 99.99999999999993 -37.0 -95.0
    vertex 104.49999999999999 -37.0 -96.78263688549121
  endloop
endfacet
facet normal -0.0 1.0 -0.0
  outer loop
    vertex 104.49999999999999 -37.0 -96.78263688549121
    vertex 99.99999999999993 -37.0 -95.0
    vertex 103.87867965644034 -37.0 -96.30588101769757
  endloop
endfacet
facet normal -0.0 1.0 -0.0
  outer loop
    vertex 103.87867965644034 -37.0 -96.30588101769757
    vertex 99.99999999999993 -37.0 -95.0
    vertex 103.40192378864667 -37.0 -95.68456067413791
  endloop
endfacet
facet normal -0.0 1.0 -0.0
  outer loop
    vertex 103.40192378864667 -37.0 -95.68456067413791
    vertex 99.99999999999993 -37.0 -95.0
    vertex 103.10222252113279 -37.0 -94.96101780944548
  endloop
endfacet
facet normal -0.0 1.0 -0.0
  outer loop
    vertex 103.10222252113279 -37.0 -94.96101780944548
    vertex 99.99999999999993 -37.0 -95.0
    vertex 99.99999999999993 -37.0 -88.0
  endloop
endfacet
facet normal -0.0 1.0 -0.0
  outer loop
    vertex 103.10222252113279 -37.0 -94.96101780944548
    vertex 99.99999999999993 -37.0 -88.0
    vertex 102.99999999999999 -37.0 -94.18456067413791
  endloop
endfacet
facet normal -0.0 1.0 -0.0
  outer loop
    vertex 102.99999999999999 -37.0 -94.18456067413791
    vertex 99.99999999999993 -37.0 -88.0
    vertex 103.10222252113279 -37.0 -93.40810353883036
  endloop
endfacet
facet normal -0.0 1.0 -0.0
  outer loop
    vertex 103.10222252113279 -37.0 -93.40810353883036
    vertex 99.99999999999993 -37.0 -88.0
    vertex 103.40192378864667 -37.0 -92.68456067413793
  endloop
endfacet
facet normal -0.0 1.0 -0.0
  outer loop
    vertex 103.40192378864667 -37.0 -92.68456067413793
    vertex 99.99999999999993 -37.0 -88.0
    vertex 103.87867965644034 -37.0 -92.06324033057827
  endloop
endfacet
facet normal -0.0 1.0 -0.0
  outer loop
    vertex 103.87867965644034 -37.0 -92.06324033057827
    vertex 99.99999999999993 -37.0 -88.0
    vertex 104.49999999999999 -37.0 -91.58648446278461
  endloop
endfacet
facet normal -0.0 1.0 -0.0
  outer loop
    vertex 104.49999999999999 -37.0 -91.58648446278461
    vertex 99.99999999999993 -37.0 -88.0
    vertex 105.22354286469243 -37.0 -91.28678319527071
  endloop
endfacet
facet normal -0.0 1.0 -0.0
  outer loop
    vertex 105.22354286469243 -37.0 -91.28678319527071
    vertex 99.99999999999993 -37.0 -88.0
    vertex 105.99999999999999 -37.0 -91.18456067413793
  endloop
endfacet
facet normal -0.0 1.0 -0.0
  outer loop
    vertex 111.99999999999993 -37.0 -100.18456067413791
    vertex 108.59807621135329 -37.0 -95.68456067413791
    vertex 111.99999999999993 -37.0 -88.0
  endloop
endfacet
facet normal -0.0 1.0 -0.0
  outer loop
    vertex 108.59807621135329 -37.0 -95.68456067413791
    vertex 111.99999999999993 -37.0 -100.18456067413791
    vertex 108.12132034355962 -37.0 -96.30588101769757
  endloop
endfacet
facet normal -0.0 1.0 -0.0
  outer loop
    vertex 108.12132034355962 -37.0 -96.30588101769757
    vertex 111.99999999999993 -37.0 -100.18456067413791
    vertex 107.49999999999999 -37.0 -96.78263688549121
  endloop
endfacet
facet normal -0.0 1.0 -0.0
  outer loop
    vertex 107.49999999999999 -37.0 -96.78263688549121
    vertex 111.99999999999993 -37.0 -100.18456067413791
    vertex 106.77645713530754 -37.0 -97.08233815300513
  endloop
endfacet
facet normal -0.0 1.0 -0.0
  outer loop
    vertex 106.77645713530754 -37.0 -97.08233815300513
    vertex 111.99999999999993 -37.0 -100.18456067413791
    vertex 105.99999999999999 -37.0 -97.18456067413791
  endloop
endfacet
facet normal -0.0 1.0 -0.0
  outer loop
    vertex 111.99999999999993 -37.0 -88.0
    vertex 108.59807621135329 -37.0 -95.68456067413791
    vertex 108.8977774788672 -37.0 -94.96101780944548
  endloop
endfacet
facet normal -0.0 1.0 -0.0
  outer loop
    vertex 111.99999999999993 -37.0 -88.0
    vertex 108.8977774788672 -37.0 -94.96101780944548
    vertex 108.99999999999999 -37.0 -94.18456067413791
  endloop
endfacet
facet normal -0.0 1.0 -0.0
  outer loop
    vertex 111.99999999999993 -37.0 -88.0
    vertex 108.99999999999999 -37.0 -94.18456067413791
    vertex 108.8977774788672 -37.0 -93.40810353883036
  endloop
endfacet
facet normal -0.0 1.0 -0.0
  outer loop
    vertex 111.99999999999993 -37.0 -88.0
    vertex 108.8977774788672 -37.0 -93.40810353883036
    vertex 108.59807621135329 -37.0 -92.68456067413793
  endloop
endfacet
facet normal -0.0 1.0 -0.0
  outer loop
    vertex 111.99999999999993 -37.0 -88.0
    vertex 108.59807621135329 -37.0 -92.68456067413793
    vertex 108.12132034355962 -37.0 -92.06324033057827
  endloop
endfacet
facet normal -0.0 1.0 -0.0
  outer loop
    vertex 111.99999999999993 -37.0 -88.0
    vertex 108.12132034355962 -37.0 -92.06324033057827
    vertex 107.49999999999999 -37.0 -91.58648446278461
  endloop
endfacet
facet normal -0.0 1.0 -0.0
  outer loop
    vertex 111.99999999999993 -37.0 -88.0
    vertex 107.49999999999999 -37.0 -91.58648446278461
    vertex 106.77645713530754 -37.0 -91.28678319527071
  endloop
endfacet
facet normal -0.0 1.0 -0.0
  outer loop
    vertex 111.99999999999993 -37.0 -88.0
    vertex 106.77645713530754 -37.0 -91.28678319527071
    vertex 105.99999999999999 -37.0 -91.18456067413793
  endloop
endfacet
facet normal -0.0 1.0 -0.0
  outer loop
    vertex 111.99999999999993 -37.0 -88.0
    vertex 105.99999999999999 -37.0 -91.18456067413793
    vertex 99.99999999999993 -37.0 -88.0
  endloop
endfacet
facet normal -0.3966128343182594 0.0 -0.9179859800966662
  outer loop
    vertex 111.99999999999993 -37.0 -100.18456067413791
    vertex 99.99999999999993 -38.0 -95.0
    vertex 99.99999999999993 -37.0 -95.0
  endloop
endfacet
facet normal -0.3966128343182594 0.0 -0.9179859800966662
  outer loop
    vertex 99.99999999999993 -38.0 -95.0
    vertex 111.99999999999993 -37.0 -100.18456067413791
    vertex 111.99999999999993 -38.0 -100.18456067413791
  endloop
endfacet
facet normal -1.0 0.0 0.0
  outer loop
    vertex 99.99999999999993 -37.0 -88.0
    vertex 99.99999999999993 -38.0 -95.0
    vertex 99.99999999999993 -38.0 -88.0
  endloop
endfacet
facet normal -1.0 0.0 0.0
  outer loop
    vertex 99.99999999999993 -38.0 -95.0
    vertex 99.99999999999993 -37.0 -88.0
    vertex 99.99999999999993 -37.0 -95.0
  endloop
endfacet
facet normal 1.0 -0.0 -0.0
  outer loop
    vertex 31.999999999999996 -38.0 -107.0
    vertex 31.999999999999996 -40.0 -88.0
    vertex 31.999999999999996 -40.0 -106.99999999999999
  endloop
endfacet
facet normal 1.0 -0.0 -0.0
  outer loop
    vertex 31.999999999999996 -40.0 -88.0
    vertex 31.999999999999996 -38.0 -107.0
    vertex 31.999999999999996 -38.0 -88.0
  endloop
endfacet
facet normal 1.0 0.0 0.0
  outer loop
    vertex 19.0 -40.0 -106.99999999999999
    vertex 19.0 -43.0 -88.0
    vertex 19.0 -43.0 -107.0
  endloop
endfacet
facet normal 1.0 0.0 0.0
  outer loop
    vertex 19.0 -43.0 -88.0
    vertex 19.0 -40.0 -106.99999999999999
    vertex 19.0 -40.0 -88.0
  endloop
endfacet
facet normal -0.0 -1.0 0.0
  outer loop
    vertex 31.999999999999996 -40.0 -88.0
    vertex 19.0 -40.0 -106.99999999999999
    vertex 31.999999999999996 -40.0 -106.99999999999999
  endloop
endfacet
facet normal -0.0 -1.0 0.0
  outer loop
    vertex 19.0 -40.0 -106.99999999999999
    vertex 31.999999999999996 -40.0 -88.0
    vertex 19.0 -40.0 -88.0
  endloop
endfacet
facet normal -1.6602262264151135e-16 6.613969081928042e-16 -1.0
  outer loop
    vertex 91.99999999999999 -38.0 -107.0
    vertex 31.999999999999996 -40.0 -106.99999999999999
    vertex 31.999999999999996 -38.0 -107.0
  endloop
endfacet
facet normal -1.6602262264151135e-16 6.613969081928042e-16 -1.0
  outer loop
    vertex 31.999999999999996 -40.0 -106.99999999999999
    vertex 19.0 -43.0 -107.0
    vertex 19.0 -40.0 -106.99999999999999
  endloop
endfacet
facet normal -1.6602262264151135e-16 6.613969081928042e-16 -1.0
  outer loop
    vertex 19.0 -43.0 -107.0
    vertex 31.999999999999996 -40.0 -106.99999999999999
    vertex 91.99999999999999 -43.0 -107.0
  endloop
endfacet
facet normal -1.6602262264151135e-16 6.613969081928042e-16 -1.0
  outer loop
    vertex 91.99999999999999 -43.0 -107.0
    vertex 31.999999999999996 -40.0 -106.99999999999999
    vertex 91.99999999999999 -38.0 -107.0
  endloop
endfacet
facet normal 0.0 0.0 -1.0
  outer loop
    vertex 91.99999999999999 -38.0 -117.00000000000001
    vertex 96.20444504226559 -56.44708572938488 -117.00000000000001
    vertex 91.99999999999999 -67.0 -117.00000000000001
  endloop
endfacet
facet normal 0.0 0.0 -1.0
  outer loop
    vertex 96.20444504226559 -56.44708572938488 -117.00000000000001
    vertex 91.99999999999999 -38.0 -117.00000000000001
    vertex 96.80384757729335 -55.0 -117.00000000000001
  endloop
endfacet
facet normal 0.0 0.0 -1.0
  outer loop
    vertex 96.80384757729335 -55.0 -117.00000000000001
    vertex 91.99999999999999 -38.0 -117.00000000000001
    vertex 97.7573593128807 -53.75735931288072 -117.00000000000001
  endloop
endfacet
facet normal 0.0 0.0 -1.0
  outer loop
    vertex 97.7573593128807 -53.75735931288072 -117.00000000000001
    vertex 91.99999999999999 -38.0 -117.00000000000001
    vertex 111.99999999999993 -38.0 -117.00000000000001
  endloop
endfacet
facet normal 0.0 0.0 -1.0
  outer loop
    vertex 91.99999999999999 -67.0 -117.00000000000001
    vertex 96.20444504226559 -56.44708572938488 -117.00000000000001
    vertex 96.0 -58.00000000000001 -117.00000000000001
  endloop
endfacet
facet normal 0.0 0.0 -1.0
  outer loop
    vertex 97.7573593128807 -53.75735931288072 -117.00000000000001
    vertex 111.99999999999993 -38.0 -117.00000000000001
    vertex 99.0 -52.80384757729337 -117.00000000000001
  endloop
endfacet
facet normal 0.0 0.0 -1.0
  outer loop
    vertex 99.0 -52.80384757729337 -117.00000000000001
    vertex 111.99999999999993 -38.0 -117.00000000000001
    vertex 100.44708572938488 -52.2044450422656 -117.00000000000001
  endloop
endfacet
facet normal 0.0 0.0 -1.0
  outer loop
    vertex 100.44708572938488 -52.2044450422656 -117.00000000000001
    vertex 111.99999999999993 -38.0 -117.00000000000001
    vertex 102.0 -52.00000000000001 -117.00000000000001
  endloop
endfacet
facet normal 0.0 0.0 -1.0
  outer loop
    vertex 102.0 -52.00000000000001 -117.00000000000001
    vertex 111.99999999999993 -38.0 -117.00000000000001
    vertex 103.5529142706151 -52.2044450422656 -117.00000000000001
  endloop
endfacet
facet normal 0.0 0.0 -1.0
  outer loop
    vertex 103.5529142706151 -52.2044450422656 -117.00000000000001
    vertex 111.99999999999993 -38.0 -117.00000000000001
    vertex 104.99999999999999 -52.80384757729337 -117.00000000000001
  endloop
endfacet
facet normal 0.0 0.0 -1.0
  outer loop
    vertex 104.99999999999999 -52.80384757729337 -117.00000000000001
    vertex 111.99999999999993 -38.0 -117.00000000000001
    vertex 106.24264068711929 -53.75735931288072 -117.00000000000001
  endloop
endfacet
facet normal 0.0 0.0 -1.0
  outer loop
    vertex 106.24264068711929 -53.75735931288072 -117.00000000000001
    vertex 111.99999999999993 -38.0 -117.00000000000001
    vertex 107.19615242270665 -55.000000000000014 -117.00000000000001
  endloop
endfacet
facet normal 0.0 0.0 -1.0
  outer loop
    vertex 107.19615242270665 -55.000000000000014 -117.00000000000001
    vertex 111.99999999999993 -38.0 -117.00000000000001
    vertex 107.79555495773441 -56.44708572938488 -117.00000000000001
  endloop
endfacet
facet normal 0.0 0.0 -1.0
  outer loop
    vertex 107.79555495773441 -56.44708572938488 -117.00000000000001
    vertex 111.99999999999993 -38.0 -117.00000000000001
    vertex 107.99999999999999 -58.00000000000001 -117.00000000000001
  endloop
endfacet
facet normal 0.0 0.0 -1.0
  outer loop
    vertex 91.99999999999999 -67.0 -117.00000000000001
    vertex 100.44708572938488 -63.79555495773442 -117.00000000000001
    vertex 112.00000000000001 -67.0 -117.00000000000001
  endloop
endfacet
facet normal 0.0 0.0 -1.0
  outer loop
    vertex 100.44708572938488 -63.79555495773442 -117.00000000000001
    vertex 91.99999999999999 -67.0 -117.00000000000001
    vertex 99.0 -63.19615242270664 -117.00000000000001
  endloop
endfacet
facet normal 0.0 0.0 -1.0
  outer loop
    vertex 99.0 -63.19615242270664 -117.00000000000001
    vertex 91.99999999999999 -67.0 -117.00000000000001
    vertex 97.7573593128807 -62.24264068711929 -117.00000000000001
  endloop
endfacet
facet normal 0.0 0.0 -1.0
  outer loop
    vertex 97.7573593128807 -62.24264068711929 -117.00000000000001
    vertex 91.99999999999999 -67.0 -117.00000000000001
    vertex 96.80384757729335 -61.0 -117.00000000000001
  endloop
endfacet
facet normal 0.0 0.0 -1.0
  outer loop
    vertex 96.80384757729335 -61.0 -117.00000000000001
    vertex 91.99999999999999 -67.0 -117.00000000000001
    vertex 96.20444504226559 -59.55291427061513 -117.00000000000001
  endloop
endfacet
facet normal 0.0 0.0 -1.0
  outer loop
    vertex 96.20444504226559 -59.55291427061513 -117.00000000000001
    vertex 91.99999999999999 -67.0 -117.00000000000001
    vertex 96.0 -58.00000000000001 -117.00000000000001
  endloop
endfacet
facet normal 0.0 0.0 -1.0
  outer loop
    vertex 112.00000000000001 -67.0 -117.00000000000001
    vertex 100.44708572938488 -63.79555495773442 -117.00000000000001
    vertex 102.0 -64.0 -117.00000000000001
  endloop
endfacet
facet normal 0.0 0.0 -1.0
  outer loop
    vertex 112.00000000000001 -67.0 -117.00000000000001
    vertex 102.0 -64.0 -117.00000000000001
    vertex 103.5529142706151 -63.79555495773442 -117.00000000000001
  endloop
endfacet
facet normal 0.0 0.0 -1.0
  outer loop
    vertex 112.00000000000001 -67.0 -117.00000000000001
    vertex 103.5529142706151 -63.79555495773442 -117.00000000000001
    vertex 104.99999999999999 -63.19615242270664 -117.00000000000001
  endloop
endfacet
facet normal 0.0 0.0 -1.0
  outer loop
    vertex 112.00000000000001 -67.0 -117.00000000000001
    vertex 104.99999999999999 -63.19615242270664 -117.00000000000001
    vertex 106.24264068711929 -62.24264068711929 -117.00000000000001
  endloop
endfacet
facet normal 0.0 0.0 -1.0
  outer loop
    vertex 112.00000000000001 -67.0 -117.00000000000001
    vertex 106.24264068711929 -62.24264068711929 -117.00000000000001
    vertex 107.19615242270665 -61.000000000000014 -117.00000000000001
  endloop
endfacet
facet normal 0.0 0.0 -1.0
  outer loop
    vertex 112.00000000000001 -67.0 -117.00000000000001
    vertex 107.19615242270665 -61.000000000000014 -117.00000000000001
    vertex 107.79555495773441 -59.55291427061513 -117.00000000000001
  endloop
endfacet
facet normal 0.0 0.0 -1.0
  outer loop
    vertex 112.00000000000001 -67.0 -117.00000000000001
    vertex 107.79555495773441 -59.55291427061513 -117.00000000000001
    vertex 107.99999999999999 -58.00000000000001 -117.00000000000001
  endloop
endfacet
facet normal 0.0 0.0 -1.0
  outer loop
    vertex 112.00000000000001 -67.0 -117.00000000000001
    vertex 107.99999999999999 -58.00000000000001 -117.00000000000001
    vertex 111.99999999999993 -38.0 -117.00000000000001
  endloop
endfacet
facet normal 0.0 0.0 1.0
  outer loop
    vertex 91.99999999999999 -67.0 -113.18456067413788
    vertex 96.20444504226559 -59.55291427061513 -113.18456067413788
    vertex 91.99999999999999 -43.0 -113.18456067413788
  endloop
endfacet
facet normal 0.0 0.0 1.0
  outer loop
    vertex 96.20444504226559 -59.55291427061513 -113.18456067413788
    vertex 91.99999999999999 -67.0 -113.18456067413788
    vertex 96.80384757729335 -61.0 -113.18456067413788
  endloop
endfacet
facet normal 0.0 0.0 1.0
  outer loop
    vertex 96.80384757729335 -61.0 -113.18456067413788
    vertex 91.99999999999999 -67.0 -113.18456067413788
    vertex 97.7573593128807 -62.24264068711929 -113.18456067413788
  endloop
endfacet
facet normal 0.0 0.0 1.0
  outer loop
    vertex 97.7573593128807 -62.24264068711929 -113.18456067413788
    vertex 91.99999999999999 -67.0 -113.18456067413788
    vertex 99.0 -63.19615242270664 -113.18456067413788
  endloop
endfacet
facet normal 0.0 0.0 1.0
  outer loop
    vertex 99.0 -63.19615242270664 -113.18456067413788
    vertex 91.99999999999999 -67.0 -113.18456067413788
    vertex 100.44708572938488 -63.79555495773442 -113.18456067413788
  endloop
endfacet
facet normal 0.0 0.0 1.0
  outer loop
    vertex 100.44708572938488 -63.79555495773442 -113.18456067413788
    vertex 91.99999999999999 -67.0 -113.18456067413788
    vertex 112.00000000000001 -67.0 -113.18456067413788
  endloop
endfacet
facet normal 0.0 0.0 1.0
  outer loop
    vertex 91.99999999999999 -43.0 -113.18456067413788
    vertex 96.20444504226559 -59.55291427061513 -113.18456067413788
    vertex 96.0 -58.00000000000001 -113.18456067413788
  endloop
endfacet
facet normal 0.0 0.0 1.0
  outer loop
    vertex 100.44708572938488 -63.79555495773442 -113.18456067413788
    vertex 112.00000000000001 -67.0 -113.18456067413788
    vertex 102.0 -64.0 -113.18456067413788
  endloop
endfacet
facet normal 0.0 0.0 1.0
  outer loop
    vertex 102.0 -64.0 -113.18456067413788
    vertex 112.00000000000001 -67.0 -113.18456067413788
    vertex 103.5529142706151 -63.79555495773442 -113.18456067413788
  endloop
endfacet
facet normal 0.0 0.0 1.0
  outer loop
    vertex 103.5529142706151 -63.79555495773442 -113.18456067413788
    vertex 112.00000000000001 -67.0 -113.18456067413788
    vertex 104.99999999999999 -63.19615242270664 -113.18456067413788
  endloop
endfacet
facet normal 0.0 0.0 1.0
  outer loop
    vertex 104.99999999999999 -63.19615242270664 -113.18456067413788
    vertex 112.00000000000001 -67.0 -113.18456067413788
    vertex 106.24264068711929 -62.24264068711929 -113.18456067413788
  endloop
endfacet
facet normal 0.0 0.0 1.0
  outer loop
    vertex 106.24264068711929 -62.24264068711929 -113.18456067413788
    vertex 112.00000000000001 -67.0 -113.18456067413788
    vertex 107.19615242270665 -61.000000000000014 -113.18456067413788
  endloop
endfacet
facet normal 0.0 0.0 1.0
  outer loop
    vertex 107.19615242270665 -61.000000000000014 -113.18456067413788
    vertex 112.00000000000001 -67.0 -113.18456067413788
    vertex 107.79555495773441 -59.55291427061513 -113.18456067413788
  endloop
endfacet
facet normal 0.0 0.0 1.0
  outer loop
    vertex 107.79555495773441 -59.55291427061513 -113.18456067413788
    vertex 112.00000000000001 -67.0 -113.18456067413788
    vertex 107.99999999999999 -58.00000000000001 -113.18456067413788
  endloop
endfacet
facet normal 0.0 0.0 1.0
  outer loop
    vertex 91.99999999999999 -43.0 -113.18456067413788
    vertex 99.0 -52.80384757729337 -113.18456067413788
    vertex 112.00000000000001 -43.0 -113.18456067413788
  endloop
endfacet
facet normal 0.0 0.0 1.0
  outer loop
    vertex 99.0 -52.80384757729337 -113.18456067413788
    vertex 91.99999999999999 -43.0 -113.18456067413788
    vertex 97.7573593128807 -53.75735931288072 -113.18456067413788
  endloop
endfacet
facet normal 0.0 0.0 1.0
  outer loop
    vertex 97.7573593128807 -53.75735931288072 -113.18456067413788
    vertex 91.99999999999999 -43.0 -113.18456067413788
    vertex 96.80384757729335 -55.0 -113.18456067413788
  endloop
endfacet
facet normal 0.0 0.0 1.0
  outer loop
    vertex 96.80384757729335 -55.0 -113.18456067413788
    vertex 91.99999999999999 -43.0 -113.18456067413788
    vertex 96.20444504226559 -56.44708572938488 -113.18456067413788
  endloop
endfacet
facet normal 0.0 0.0 1.0
  outer loop
    vertex 96.20444504226559 -56.44708572938488 -113.18456067413788
    vertex 91.99999999999999 -43.0 -113.18456067413788
    vertex 96.0 -58.00000000000001 -113.18456067413788
  endloop
endfacet
facet normal 0.0 0.0 1.0
  outer loop
    vertex 112.00000000000001 -43.0 -113.18456067413788
    vertex 99.0 -52.80384757729337 -113.18456067413788
    vertex 100.44708572938488 -52.2044450422656 -113.18456067413788
  endloop
endfacet
facet normal 0.0 0.0 1.0
  outer loop
    vertex 112.00000000000001 -43.0 -113.18456067413788
    vertex 100.44708572938488 -52.2044450422656 -113.18456067413788
    vertex 102.0 -52.00000000000001 -113.18456067413788
  endloop
endfacet
facet normal 0.0 0.0 1.0
  outer loop
    vertex 112.00000000000001 -43.0 -113.18456067413788
    vertex 102.0 -52.00000000000001 -113.18456067413788
    vertex 103.5529142706151 -52.2044450422656 -113.18456067413788
  endloop
endfacet
facet normal 0.0 0.0 1.0
  outer loop
    vertex 112.00000000000001 -43.0 -113.18456067413788
    vertex 103.5529142706151 -52.2044450422656 -113.18456067413788
    vertex 104.99999999999999 -52.80384757729337 -113.18456067413788
  endloop
endfacet
facet normal 0.0 0.0 1.0
  outer loop
    vertex 112.00000000000001 -43.0 -113.18456067413788
    vertex 104.99999999999999 -52.80384757729337 -113.18456067413788
    vertex 106.24264068711929 -53.75735931288072 -113.18456067413788
  endloop
endfacet
facet normal 0.0 0.0 1.0
  outer loop
    vertex 112.00000000000001 -43.0 -113.18456067413788
    vertex 106.24264068711929 -53.75735931288072 -113.18456067413788
    vertex 107.19615242270665 -55.000000000000014 -113.18456067413788
  endloop
endfacet
facet normal 0.0 0.0 1.0
  outer loop
    vertex 112.00000000000001 -43.0 -113.18456067413788
    vertex 107.19615242270665 -55.000000000000014 -113.18456067413788
    vertex 107.79555495773441 -56.44708572938488 -113.18456067413788
  endloop
endfacet
facet normal 0.0 0.0 1.0
  outer loop
    vertex 112.00000000000001 -43.0 -113.18456067413788
    vertex 107.79555495773441 -56.44708572938488 -113.18456067413788
    vertex 107.99999999999999 -58.00000000000001 -113.18456067413788
  endloop
endfacet
facet normal 0.0 0.0 1.0
  outer loop
    vertex 112.00000000000001 -43.0 -113.18456067413788
    vertex 107.99999999999999 -58.00000000000001 -113.18456067413788
    vertex 112.00000000000001 -67.0 -113.18456067413788
  endloop
endfacet
endsolid holder_2xlimitswitches_z-axis_part2
