solid holder_metalplate_base_left2
facet normal -0.7933533402912409 -4.764313113006419e-31 -0.6087614290087131
  outer loop
    vertex 10.735508472917289 0.0 64.47250747610349
    vertex 11.098076211353316 5.999999999999999 63.99999999999999
    vertex 11.098076211353316 -3.524958103184872e-16 63.99999999999999
  endloop
endfacet
facet normal -0.7933533402912409 -4.764313113006419e-31 -0.6087614290087131
  outer loop
    vertex 11.098076211353316 5.999999999999999 63.99999999999999
    vertex 10.735508472917289 0.0 64.47250747610349
    vertex 10.735508472917289 5.999999999999999 64.47250747610349
  endloop
endfacet
facet normal -0.7933533402912314 7.432203583941161e-19 -0.6087614290087259
  outer loop
    vertex 10.621320343559642 5.999999999999999 64.62132034355965
    vertex 10.735508472917289 0.0 64.47250747610349
    vertex 10.621320343559642 -3.524958103184872e-16 64.62132034355965
  endloop
endfacet
facet normal -0.7933533402912314 7.432203583941161e-19 -0.6087614290087259
  outer loop
    vertex 10.735508472917289 0.0 64.47250747610349
    vertex 10.621320343559642 5.999999999999999 64.62132034355965
    vertex 10.735508472917289 5.999999999999999 64.47250747610349
  endloop
endfacet
facet normal -0.6087614290087134 2.9728814335764997e-18 -0.7933533402912408
  outer loop
    vertex 10.621320343559642 5.999999999999999 64.62132034355965
    vertex 10.0 0.0 65.09807621135332
    vertex 10.0 5.999999999999999 65.09807621135332
  endloop
endfacet
facet normal -0.6087614290087134 2.9728814335764997e-18 -0.7933533402912408
  outer loop
    vertex 10.0 0.0 65.09807621135332
    vertex 10.621320343559642 5.999999999999999 64.62132034355965
    vertex 10.621320343559642 -3.524958103184872e-16 64.62132034355965
  endloop
endfacet
facet normal -0.3826834323650943 -1.4340047658945385e-18 -0.9238795325112849
  outer loop
    vertex 10.0 5.999999999999999 65.09807621135332
    vertex 9.276457135307563 0.0 65.3977774788672
    vertex 9.276457135307563 5.999999999999999 65.3977774788672
  endloop
endfacet
facet normal -0.3826834323650943 -1.4340047658945385e-18 -0.9238795325112849
  outer loop
    vertex 9.276457135307563 0.0 65.3977774788672
    vertex 10.0 5.999999999999999 65.09807621135332
    vertex 10.0 0.0 65.09807621135332
  endloop
endfacet
facet normal -0.1305261922200446 0.0 -0.9914448613738114
  outer loop
    vertex 9.276457135307563 5.999999999999999 65.3977774788672
    vertex 8.5 0.0 65.49999999999999
    vertex 8.5 5.999999999999999 65.49999999999999
  endloop
endfacet
facet normal -0.1305261922200446 0.0 -0.9914448613738114
  outer loop
    vertex 8.5 0.0 65.49999999999999
    vertex 9.276457135307563 5.999999999999999 65.3977774788672
    vertex 9.276457135307563 0.0 65.3977774788672
  endloop
endfacet
facet normal 0.13052619222004486 -6.950704129626482e-33 -0.9914448613738114
  outer loop
    vertex 8.5 5.999999999999999 65.49999999999999
    vertex 7.723542864692439 0.0 65.3977774788672
    vertex 7.723542864692439 5.999999999999999 65.3977774788672
  endloop
endfacet
facet normal 0.13052619222004486 -6.950704129626482e-33 -0.9914448613738114
  outer loop
    vertex 7.723542864692439 0.0 65.3977774788672
    vertex 8.5 5.999999999999999 65.49999999999999
    vertex 8.5 0.0 65.49999999999999
  endloop
endfacet
facet normal 0.3826834323650943 -2.9699211127086595e-19 -0.9238795325112849
  outer loop
    vertex 7.723542864692439 5.999999999999999 65.3977774788672
    vertex 7.000000000000001 3.524958103184872e-16 65.09807621135332
    vertex 7.000000000000001 5.999999999999999 65.09807621135332
  endloop
endfacet
facet normal 0.3826834323650943 -2.9699211127086595e-19 -0.9238795325112849
  outer loop
    vertex 7.000000000000001 3.524958103184872e-16 65.09807621135332
    vertex 7.723542864692439 5.999999999999999 65.3977774788672
    vertex 7.723542864692439 0.0 65.3977774788672
  endloop
endfacet
facet normal 0.6087614290087124 2.9728814335765347e-18 -0.7933533402912415
  outer loop
    vertex 7.000000000000001 5.999999999999999 65.09807621135332
    vertex 6.378679656440358 3.524958103184872e-16 64.62132034355965
    vertex 6.378679656440358 5.999999999999999 64.62132034355965
  endloop
endfacet
facet normal 0.6087614290087124 2.9728814335765347e-18 -0.7933533402912415
  outer loop
    vertex 6.378679656440358 3.524958103184872e-16 64.62132034355965
    vertex 7.000000000000001 5.999999999999999 65.09807621135332
    vertex 7.000000000000001 3.524958103184872e-16 65.09807621135332
  endloop
endfacet
facet normal 0.7933533402912314 -0.0 -0.6087614290087259
  outer loop
    vertex 6.264491527082711 5.999999999999999 64.47250747610349
    vertex 6.378679656440358 3.524958103184872e-16 64.62132034355965
    vertex 6.264491527082711 0.0 64.47250747610349
  endloop
endfacet
facet normal 0.7933533402912314 -0.0 -0.6087614290087259
  outer loop
    vertex 6.378679656440358 3.524958103184872e-16 64.62132034355965
    vertex 6.264491527082711 5.999999999999999 64.47250747610349
    vertex 6.378679656440358 5.999999999999999 64.62132034355965
  endloop
endfacet
facet normal 0.7933533402912417 2.281172156044501e-18 -0.6087614290087123
  outer loop
    vertex 5.901923788646685 3.524958103184872e-16 63.99999999999999
    vertex 6.264491527082711 5.999999999999999 64.47250747610349
    vertex 6.264491527082711 0.0 64.47250747610349
  endloop
endfacet
facet normal 0.7933533402912417 2.281172156044501e-18 -0.6087614290087123
  outer loop
    vertex 6.264491527082711 5.999999999999999 64.47250747610349
    vertex 5.901923788646685 3.524958103184872e-16 63.99999999999999
    vertex 5.901923788646685 5.999999999999999 63.99999999999999
  endloop
endfacet
facet normal 0.9238795325112849 -3.1650016430587705e-18 -0.38268343236509433
  outer loop
    vertex 5.602222521132795 5.999999999999999 63.27645713530757
    vertex 5.901923788646685 3.524958103184872e-16 63.99999999999999
    vertex 5.602222521132795 3.524958103184872e-16 63.27645713530757
  endloop
endfacet
facet normal 0.9238795325112849 -3.1650016430587705e-18 -0.38268343236509433
  outer loop
    vertex 5.901923788646685 3.524958103184872e-16 63.99999999999999
    vertex 5.602222521132795 5.999999999999999 63.27645713530757
    vertex 5.901923788646685 5.999999999999999 63.99999999999999
  endloop
endfacet
facet normal 0.9914448613738105 -5.560563303701437e-32 -0.13052619222005077
  outer loop
    vertex 5.5 5.999999999999999 62.5
    vertex 5.602222521132795 3.524958103184872e-16 63.27645713530757
    vertex 5.5 3.524958103184872e-16 62.5
  endloop
endfacet
facet normal 0.9914448613738105 -5.560563303701437e-32 -0.13052619222005077
  outer loop
    vertex 5.602222521132795 3.524958103184872e-16 63.27645713530757
    vertex 5.5 5.999999999999999 62.5
    vertex 5.602222521132795 5.999999999999999 63.27645713530757
  endloop
endfacet
facet normal 0.9914448613738103 -0.0 0.13052619222005263
  outer loop
    vertex 5.602222521132795 5.999999999999999 61.72354286469244
    vertex 5.5 3.524958103184872e-16 62.5
    vertex 5.602222521132795 3.524958103184872e-16 61.72354286469244
  endloop
endfacet
facet normal 0.9914448613738103 -0.0 0.13052619222005263
  outer loop
    vertex 5.5 3.524958103184872e-16 62.5
    vertex 5.602222521132795 5.999999999999999 61.72354286469244
    vertex 5.5 5.999999999999999 62.5
  endloop
endfacet
facet normal 0.9238795325112873 1.730996877164858e-18 0.38268343236508845
  outer loop
    vertex 5.901923788646684 5.999999999999999 61.0
    vertex 5.602222521132795 3.524958103184872e-16 61.72354286469244
    vertex 5.901923788646684 3.524958103184872e-16 61.0
  endloop
endfacet
facet normal 0.9238795325112873 1.730996877164858e-18 0.38268343236508845
  outer loop
    vertex 5.602222521132795 3.524958103184872e-16 61.72354286469244
    vertex 5.901923788646684 5.999999999999999 61.0
    vertex 5.602222521132795 5.999999999999999 61.72354286469244
  endloop
endfacet
facet normal 0.7933533402912382 -1.4864407167883927e-18 0.6087614290087168
  outer loop
    vertex 6.264491527082715 5.999999999999999 60.527492523896505
    vertex 5.901923788646684 3.524958103184872e-16 61.0
    vertex 6.264491527082715 0.0 60.527492523896505
  endloop
endfacet
facet normal 0.7933533402912382 -1.4864407167883927e-18 0.6087614290087168
  outer loop
    vertex 5.901923788646684 3.524958103184872e-16 61.0
    vertex 6.264491527082715 5.999999999999999 60.527492523896505
    vertex 5.901923788646684 5.999999999999999 61.0
  endloop
endfacet
facet normal 0.7933533402912217 7.432203583945142e-19 0.6087614290087383
  outer loop
    vertex 6.378679656440356 3.524958103184872e-16 60.37867965644036
    vertex 6.264491527082715 5.999999999999999 60.527492523896505
    vertex 6.264491527082715 0.0 60.527492523896505
  endloop
endfacet
facet normal 0.7933533402912217 7.432203583945142e-19 0.6087614290087383
  outer loop
    vertex 6.264491527082715 5.999999999999999 60.527492523896505
    vertex 6.378679656440356 3.524958103184872e-16 60.37867965644036
    vertex 6.378679656440356 5.999999999999999 60.37867965644036
  endloop
endfacet
facet normal 0.6087614290087224 -2.972881433576201e-18 0.7933533402912338
  outer loop
    vertex 6.999999999999998 0.0 59.901923788646684
    vertex 6.378679656440356 5.999999999999999 60.37867965644036
    vertex 6.378679656440356 3.524958103184872e-16 60.37867965644036
  endloop
endfacet
facet normal 0.6087614290087224 -2.972881433576201e-18 0.7933533402912338
  outer loop
    vertex 6.378679656440356 5.999999999999999 60.37867965644036
    vertex 6.999999999999998 0.0 59.901923788646684
    vertex 6.999999999999998 5.999999999999999 59.901923788646684
  endloop
endfacet
facet normal 0.3826834323650944 1.4340047658937517e-18 0.9238795325112849
  outer loop
    vertex 7.723542864692436 0.0 59.602222521132795
    vertex 6.999999999999998 5.999999999999999 59.901923788646684
    vertex 6.999999999999998 0.0 59.901923788646684
  endloop
endfacet
facet normal 0.3826834323650944 1.4340047658937517e-18 0.9238795325112849
  outer loop
    vertex 6.999999999999998 5.999999999999999 59.901923788646684
    vertex 7.723542864692436 0.0 59.602222521132795
    vertex 7.723542864692436 5.999999999999999 59.602222521132795
  endloop
endfacet
facet normal 0.13052619222004433 -6.950704129626455e-33 0.9914448613738114
  outer loop
    vertex 8.5 0.0 59.50000000000001
    vertex 7.723542864692436 5.999999999999999 59.602222521132795
    vertex 7.723542864692436 0.0 59.602222521132795
  endloop
endfacet
facet normal 0.13052619222004433 -6.950704129626455e-33 0.9914448613738114
  outer loop
    vertex 7.723542864692436 5.999999999999999 59.602222521132795
    vertex 8.5 0.0 59.50000000000001
    vertex 8.5 5.999999999999999 59.50000000000001
  endloop
endfacet
facet normal -0.13052619222004486 -6.950704129626482e-33 0.9914448613738114
  outer loop
    vertex 9.276457135307561 0.0 59.602222521132795
    vertex 8.5 5.999999999999999 59.50000000000001
    vertex 8.5 0.0 59.50000000000001
  endloop
endfacet
facet normal -0.13052619222004486 -6.950704129626482e-33 0.9914448613738114
  outer loop
    vertex 8.5 5.999999999999999 59.50000000000001
    vertex 9.276457135307561 0.0 59.602222521132795
    vertex 9.276457135307561 5.999999999999999 59.602222521132795
  endloop
endfacet
facet normal -0.382683432365095 -1.434004765893693e-18 0.9238795325112846
  outer loop
    vertex 9.999999999999996 -3.524958103184872e-16 59.901923788646684
    vertex 9.276457135307561 5.999999999999999 59.602222521132795
    vertex 9.276457135307561 0.0 59.602222521132795
  endloop
endfacet
facet normal -0.382683432365095 -1.434004765893693e-18 0.9238795325112846
  outer loop
    vertex 9.276457135307561 5.999999999999999 59.602222521132795
    vertex 9.999999999999996 -3.524958103184872e-16 59.901923788646684
    vertex 9.999999999999996 5.999999999999999 59.901923788646684
  endloop
endfacet
facet normal -0.6087614290087117 2.9728814335764396e-18 0.793353340291242
  outer loop
    vertex 10.621320343559642 -3.524958103184872e-16 60.37867965644035
    vertex 9.999999999999996 5.999999999999999 59.901923788646684
    vertex 9.999999999999996 -3.524958103184872e-16 59.901923788646684
  endloop
endfacet
facet normal -0.6087614290087117 2.9728814335764396e-18 0.793353340291242
  outer loop
    vertex 9.999999999999996 5.999999999999999 59.901923788646684
    vertex 10.621320343559642 -3.524958103184872e-16 60.37867965644035
    vertex 10.621320343559642 5.999999999999999 60.37867965644035
  endloop
endfacet
facet normal -0.7933533402912348 4.2247186138081576e-32 0.6087614290087211
  outer loop
    vertex 10.735508472917287 5.999999999999999 60.527492523896505
    vertex 10.621320343559642 -3.524958103184872e-16 60.37867965644035
    vertex 10.735508472917287 -3.524958103184872e-16 60.527492523896505
  endloop
endfacet
facet normal -0.7933533402912348 4.2247186138081576e-32 0.6087614290087211
  outer loop
    vertex 10.621320343559642 -3.524958103184872e-16 60.37867965644035
    vertex 10.735508472917287 5.999999999999999 60.527492523896505
    vertex 10.621320343559642 5.999999999999999 60.37867965644035
  endloop
endfacet
facet normal -0.7933533402912409 1.4864407167882926e-18 0.6087614290087131
  outer loop
    vertex 11.098076211353314 5.999999999999999 61.0
    vertex 10.735508472917287 -3.524958103184872e-16 60.527492523896505
    vertex 11.098076211353314 -3.524958103184872e-16 61.0
  endloop
endfacet
facet normal -0.7933533402912409 1.4864407167882926e-18 0.6087614290087131
  outer loop
    vertex 10.735508472917287 -3.524958103184872e-16 60.527492523896505
    vertex 11.098076211353314 5.999999999999999 61.0
    vertex 10.735508472917287 5.999999999999999 60.527492523896505
  endloop
endfacet
facet normal -0.9238795325112852 -1.7309968771643648e-18 0.38268343236509356
  outer loop
    vertex 11.397777478867203 5.999999999999999 61.72354286469243
    vertex 11.098076211353314 -3.524958103184872e-16 61.0
    vertex 11.397777478867203 -3.524958103184872e-16 61.72354286469243
  endloop
endfacet
facet normal -0.9238795325112852 -1.7309968771643648e-18 0.38268343236509356
  outer loop
    vertex 11.098076211353314 -3.524958103184872e-16 61.0
    vertex 11.397777478867203 5.999999999999999 61.72354286469243
    vertex 11.098076211353314 5.999999999999999 61.0
  endloop
endfacet
facet normal -0.9914448613738103 -1.084014725159639e-31 0.13052619222005252
  outer loop
    vertex 11.5 5.999999999999999 62.5
    vertex 11.397777478867203 -3.524958103184872e-16 61.72354286469243
    vertex 11.5 -3.524958103184872e-16 62.5
  endloop
endfacet
facet normal -0.9914448613738103 -1.084014725159639e-31 0.13052619222005252
  outer loop
    vertex 11.397777478867203 -3.524958103184872e-16 61.72354286469243
    vertex 11.5 5.999999999999999 62.5
    vertex 11.397777478867203 5.999999999999999 61.72354286469243
  endloop
endfacet
facet normal -0.9914448613738103 0.0 -0.13052619222005263
  outer loop
    vertex 11.397777478867205 5.999999999999999 63.27645713530755
    vertex 11.5 -3.524958103184872e-16 62.5
    vertex 11.397777478867205 -3.524958103184872e-16 63.27645713530755
  endloop
endfacet
facet normal -0.9914448613738103 0.0 -0.13052619222005263
  outer loop
    vertex 11.5 -3.524958103184872e-16 62.5
    vertex 11.397777478867205 5.999999999999999 63.27645713530755
    vertex 11.5 5.999999999999999 62.5
  endloop
endfacet
facet normal -0.9238795325112873 1.7309968771645321e-18 -0.38268343236508845
  outer loop
    vertex 11.098076211353316 5.999999999999999 63.99999999999999
    vertex 11.397777478867205 -3.524958103184872e-16 63.27645713530755
    vertex 11.098076211353316 -3.524958103184872e-16 63.99999999999999
  endloop
endfacet
facet normal -0.9238795325112873 1.7309968771645321e-18 -0.38268343236508845
  outer loop
    vertex 11.397777478867205 -3.524958103184872e-16 63.27645713530755
    vertex 11.098076211353316 5.999999999999999 63.99999999999999
    vertex 11.397777478867205 5.999999999999999 63.27645713530755
  endloop
endfacet
facet normal 3.457423096687257e-18 8.464700383087948e-17 -1.0
  outer loop
    vertex 22.000000000000004 90.0 8.459899447643692e-15
    vertex 0.0 41.0 0.0
    vertex 0.0 90.0 8.459899447643692e-15
  endloop
endfacet
facet normal 3.457423096687257e-18 8.464700383087948e-17 -1.0
  outer loop
    vertex 0.0 41.0 0.0
    vertex 22.000000000000004 90.0 8.459899447643692e-15
    vertex 17.0 41.0 0.0
  endloop
endfacet
facet normal 3.457423096687257e-18 8.464700383087948e-17 -1.0
  outer loop
    vertex 17.0 41.0 0.0
    vertex 22.000000000000004 90.0 8.459899447643692e-15
    vertex 17.0 5.999999999999999 -9.399888275159656e-17
  endloop
endfacet
facet normal 3.457423096687257e-18 8.464700383087948e-17 -1.0
  outer loop
    vertex 1.658803813263469e-16 5.999999999999999 -9.399888275159656e-17
    vertex 22.000000000000004 0.0 0.0
    vertex 0.0 0.0 0.0
  endloop
endfacet
facet normal 3.457423096687257e-18 8.464700383087948e-17 -1.0
  outer loop
    vertex 22.000000000000004 0.0 0.0
    vertex 1.658803813263469e-16 5.999999999999999 -9.399888275159656e-17
    vertex 17.0 5.999999999999999 -9.399888275159656e-17
  endloop
endfacet
facet normal 3.457423096687257e-18 8.464700383087948e-17 -1.0
  outer loop
    vertex 22.000000000000004 0.0 0.0
    vertex 17.0 5.999999999999999 -9.399888275159656e-17
    vertex 22.000000000000004 90.0 8.459899447643692e-15
  endloop
endfacet
facet normal 0.0 -1.0 0.0
  outer loop
    vertex 22.000000000000004 0.0 55.0
    vertex 9.999999999999996 -3.524958103184872e-16 59.901923788646684
    vertex 0.0 0.0 55.0
  endloop
endfacet
facet normal 0.0 -1.0 0.0
  outer loop
    vertex 9.999999999999996 -3.524958103184872e-16 59.901923788646684
    vertex 22.000000000000004 0.0 55.0
    vertex 10.621320343559642 -3.524958103184872e-16 60.37867965644035
  endloop
endfacet
facet normal 0.0 -1.0 0.0
  outer loop
    vertex 10.621320343559642 -3.524958103184872e-16 60.37867965644035
    vertex 22.000000000000004 0.0 55.0
    vertex 22.000000000000004 0.0 70.0
  endloop
endfacet
facet normal 0.0 -1.0 0.0
  outer loop
    vertex 0.0 0.0 55.0
    vertex 9.999999999999996 -3.524958103184872e-16 59.901923788646684
    vertex 9.276457135307561 0.0 59.602222521132795
  endloop
endfacet
facet normal 0.0 -1.0 0.0
  outer loop
    vertex 0.0 0.0 55.0
    vertex 9.276457135307561 0.0 59.602222521132795
    vertex 8.5 0.0 59.50000000000001
  endloop
endfacet
facet normal 0.0 -1.0 0.0
  outer loop
    vertex 10.621320343559642 -3.524958103184872e-16 60.37867965644035
    vertex 22.000000000000004 0.0 70.0
    vertex 10.735508472917287 -3.524958103184872e-16 60.527492523896505
  endloop
endfacet
facet normal 0.0 -1.0 0.0
  outer loop
    vertex 10.735508472917287 -3.524958103184872e-16 60.527492523896505
    vertex 22.000000000000004 0.0 70.0
    vertex 11.098076211353314 -3.524958103184872e-16 61.0
  endloop
endfacet
facet normal 0.0 -1.0 0.0
  outer loop
    vertex 11.098076211353314 -3.524958103184872e-16 61.0
    vertex 22.000000000000004 0.0 70.0
    vertex 11.397777478867203 -3.524958103184872e-16 61.72354286469243
  endloop
endfacet
facet normal 0.0 -1.0 0.0
  outer loop
    vertex 11.397777478867203 -3.524958103184872e-16 61.72354286469243
    vertex 22.000000000000004 0.0 70.0
    vertex 11.5 -3.524958103184872e-16 62.5
  endloop
endfacet
facet normal 0.0 -1.0 0.0
  outer loop
    vertex 11.5 -3.524958103184872e-16 62.5
    vertex 22.000000000000004 0.0 70.0
    vertex 11.397777478867205 -3.524958103184872e-16 63.27645713530755
  endloop
endfacet
facet normal 0.0 -1.0 0.0
  outer loop
    vertex 11.397777478867205 -3.524958103184872e-16 63.27645713530755
    vertex 22.000000000000004 0.0 70.0
    vertex 11.098076211353316 -3.524958103184872e-16 63.99999999999999
  endloop
endfacet
facet normal 0.0 -1.0 0.0
  outer loop
    vertex 11.098076211353316 -3.524958103184872e-16 63.99999999999999
    vertex 22.000000000000004 0.0 70.0
    vertex 10.735508472917289 0.0 64.47250747610349
  endloop
endfacet
facet normal 0.0 -1.0 0.0
  outer loop
    vertex 10.735508472917289 0.0 64.47250747610349
    vertex 22.000000000000004 0.0 70.0
    vertex 10.621320343559642 -3.524958103184872e-16 64.62132034355965
  endloop
endfacet
facet normal 0.0 -1.0 0.0
  outer loop
    vertex 10.621320343559642 -3.524958103184872e-16 64.62132034355965
    vertex 22.000000000000004 0.0 70.0
    vertex 10.0 0.0 65.09807621135332
  endloop
endfacet
facet normal 0.0 -1.0 0.0
  outer loop
    vertex 10.0 0.0 65.09807621135332
    vertex 22.000000000000004 0.0 70.0
    vertex 9.276457135307563 0.0 65.3977774788672
  endloop
endfacet
facet normal 0.0 -1.0 0.0
  outer loop
    vertex 9.276457135307563 0.0 65.3977774788672
    vertex 22.000000000000004 0.0 70.0
    vertex 8.5 0.0 65.49999999999999
  endloop
endfacet
facet normal 0.0 -1.0 0.0
  outer loop
    vertex 0.0 0.0 55.0
    vertex 5.901923788646684 3.524958103184872e-16 61.0
    vertex 0.0 0.0 70.0
  endloop
endfacet
facet normal 0.0 -1.0 0.0
  outer loop
    vertex 5.901923788646684 3.524958103184872e-16 61.0
    vertex 0.0 0.0 55.0
    vertex 6.264491527082715 0.0 60.527492523896505
  endloop
endfacet
facet normal 0.0 -1.0 0.0
  outer loop
    vertex 6.264491527082715 0.0 60.527492523896505
    vertex 0.0 0.0 55.0
    vertex 6.378679656440356 3.524958103184872e-16 60.37867965644036
  endloop
endfacet
facet normal 0.0 -1.0 0.0
  outer loop
    vertex 6.378679656440356 3.524958103184872e-16 60.37867965644036
    vertex 0.0 0.0 55.0
    vertex 6.999999999999998 0.0 59.901923788646684
  endloop
endfacet
facet normal 0.0 -1.0 0.0
  outer loop
    vertex 6.999999999999998 0.0 59.901923788646684
    vertex 0.0 0.0 55.0
    vertex 7.723542864692436 0.0 59.602222521132795
  endloop
endfacet
facet normal 0.0 -1.0 0.0
  outer loop
    vertex 7.723542864692436 0.0 59.602222521132795
    vertex 0.0 0.0 55.0
    vertex 8.5 0.0 59.50000000000001
  endloop
endfacet
facet normal 0.0 -1.0 0.0
  outer loop
    vertex 0.0 0.0 70.0
    vertex 5.901923788646684 3.524958103184872e-16 61.0
    vertex 5.602222521132795 3.524958103184872e-16 61.72354286469244
  endloop
endfacet
facet normal 0.0 -1.0 0.0
  outer loop
    vertex 0.0 0.0 70.0
    vertex 5.602222521132795 3.524958103184872e-16 61.72354286469244
    vertex 5.5 3.524958103184872e-16 62.5
  endloop
endfacet
facet normal 0.0 -1.0 0.0
  outer loop
    vertex 0.0 0.0 70.0
    vertex 5.5 3.524958103184872e-16 62.5
    vertex 5.602222521132795 3.524958103184872e-16 63.27645713530757
  endloop
endfacet
facet normal 0.0 -1.0 0.0
  outer loop
    vertex 0.0 0.0 70.0
    vertex 5.602222521132795 3.524958103184872e-16 63.27645713530757
    vertex 5.901923788646685 3.524958103184872e-16 63.99999999999999
  endloop
endfacet
facet normal 0.0 -1.0 0.0
  outer loop
    vertex 0.0 0.0 70.0
    vertex 5.901923788646685 3.524958103184872e-16 63.99999999999999
    vertex 6.264491527082711 0.0 64.47250747610349
  endloop
endfacet
facet normal 0.0 -1.0 0.0
  outer loop
    vertex 0.0 0.0 70.0
    vertex 6.264491527082711 0.0 64.47250747610349
    vertex 6.378679656440358 3.524958103184872e-16 64.62132034355965
  endloop
endfacet
facet normal 0.0 -1.0 0.0
  outer loop
    vertex 0.0 0.0 70.0
    vertex 6.378679656440358 3.524958103184872e-16 64.62132034355965
    vertex 7.000000000000001 3.524958103184872e-16 65.09807621135332
  endloop
endfacet
facet normal 0.0 -1.0 0.0
  outer loop
    vertex 0.0 0.0 70.0
    vertex 7.000000000000001 3.524958103184872e-16 65.09807621135332
    vertex 7.723542864692439 0.0 65.3977774788672
  endloop
endfacet
facet normal 0.0 -1.0 0.0
  outer loop
    vertex 0.0 0.0 70.0
    vertex 7.723542864692439 0.0 65.3977774788672
    vertex 8.5 0.0 65.49999999999999
  endloop
endfacet
facet normal 0.0 -1.0 0.0
  outer loop
    vertex 0.0 0.0 70.0
    vertex 8.5 0.0 65.49999999999999
    vertex 22.000000000000004 0.0 70.0
  endloop
endfacet
facet normal 1.0 0.0 0.0
  outer loop
    vertex 22.000000000000004 90.0 8.459899447643692e-15
    vertex 22.000000000000004 0.0 15.0
    vertex 22.000000000000004 0.0 0.0
  endloop
endfacet
facet normal 1.0 0.0 0.0
  outer loop
    vertex 22.000000000000004 0.0 15.0
    vertex 22.000000000000004 90.0 8.459899447643692e-15
    vertex 22.000000000000004 41.0 15.0
  endloop
endfacet
facet normal 1.0 0.0 0.0
  outer loop
    vertex 22.000000000000004 41.0 15.0
    vertex 22.000000000000004 90.0 8.459899447643692e-15
    vertex 22.000000000000004 44.0 35.0
  endloop
endfacet
facet normal 1.0 0.0 0.0
  outer loop
    vertex 22.000000000000004 41.0 15.0
    vertex 22.000000000000004 44.0 35.0
    vertex 22.000000000000004 41.0 55.0
  endloop
endfacet
facet normal 1.0 0.0 0.0
  outer loop
    vertex 22.000000000000004 44.0 35.0
    vertex 22.000000000000004 90.0 8.459899447643692e-15
    vertex 22.000000000000004 90.0 35.0
  endloop
endfacet
facet normal 1.0 0.0 0.0
  outer loop
    vertex 22.000000000000004 41.0 55.0
    vertex 22.000000000000004 0.0 70.0
    vertex 22.000000000000004 0.0 55.0
  endloop
endfacet
facet normal 1.0 0.0 0.0
  outer loop
    vertex 22.000000000000004 0.0 70.0
    vertex 22.000000000000004 41.0 55.0
    vertex 22.000000000000004 44.0 70.0
  endloop
endfacet
facet normal 1.0 0.0 0.0
  outer loop
    vertex 22.000000000000004 44.0 70.0
    vertex 22.000000000000004 41.0 55.0
    vertex 22.000000000000004 44.0 35.0
  endloop
endfacet
facet normal -1.0 3.615341644292176e-17 9.399888275159658e-17
  outer loop
    vertex 17.000000000000004 41.0 14.999999999999998
    vertex 17.0 5.999999999999999 -9.399888275159656e-17
    vertex 17.0 5.999999999999999 15.0
  endloop
endfacet
facet normal -1.0 3.615341644292176e-17 9.399888275159658e-17
  outer loop
    vertex 17.0 5.999999999999999 -9.399888275159656e-17
    vertex 17.000000000000004 41.0 14.999999999999998
    vertex 17.0 41.0 0.0
  endloop
endfacet
facet normal -1.0 0.0 0.0
  outer loop
    vertex 0.0 90.0 35.0
    vertex 0.0 44.0 31.999999999999996
    vertex 0.0 44.0 35.0
  endloop
endfacet
facet normal -1.0 0.0 0.0
  outer loop
    vertex 0.0 44.0 31.999999999999996
    vertex 0.0 90.0 35.0
    vertex 0.0 87.00000000000001 31.999999999999996
  endloop
endfacet
facet normal -1.0 0.0 0.0
  outer loop
    vertex 0.0 87.00000000000001 31.999999999999996
    vertex 0.0 90.0 35.0
    vertex 0.0 87.00000000000001 3.0000000000000058
  endloop
endfacet
facet normal -1.0 0.0 0.0
  outer loop
    vertex 0.0 44.0 70.0
    vertex 0.0 41.0 0.0
    vertex 0.0 41.0 70.0
  endloop
endfacet
facet normal -1.0 0.0 0.0
  outer loop
    vertex 0.0 41.0 0.0
    vertex 0.0 44.0 70.0
    vertex 0.0 44.0 3.0000000000000058
  endloop
endfacet
facet normal -1.0 0.0 0.0
  outer loop
    vertex 0.0 41.0 0.0
    vertex 0.0 44.0 3.0000000000000058
    vertex 0.0 90.0 8.459899447643692e-15
  endloop
endfacet
facet normal -1.0 0.0 0.0
  outer loop
    vertex 0.0 44.0 3.0000000000000058
    vertex 0.0 44.0 70.0
    vertex 0.0 44.0 35.0
  endloop
endfacet
facet normal -1.0 0.0 0.0
  outer loop
    vertex 0.0 44.0 3.0000000000000058
    vertex 0.0 44.0 35.0
    vertex 0.0 44.0 31.999999999999996
  endloop
endfacet
facet normal -1.0 0.0 0.0
  outer loop
    vertex 0.0 90.0 8.459899447643692e-15
    vertex 0.0 44.0 3.0000000000000058
    vertex 0.0 87.00000000000001 3.0000000000000058
  endloop
endfacet
facet normal -1.0 0.0 0.0
  outer loop
    vertex 0.0 90.0 8.459899447643692e-15
    vertex 0.0 87.00000000000001 3.0000000000000058
    vertex 0.0 90.0 35.0
  endloop
endfacet
facet normal 0.0 0.0 -1.0
  outer loop
    vertex 8.294019066317345e-17 5.999999999999999 55.0
    vertex 22.000000000000004 0.0 55.0
    vertex 0.0 0.0 55.0
  endloop
endfacet
facet normal 0.0 0.0 -1.0
  outer loop
    vertex 22.000000000000004 0.0 55.0
    vertex 8.294019066317345e-17 5.999999999999999 55.0
    vertex 17.0 5.999999999999999 55.0
  endloop
endfacet
facet normal 0.0 0.0 -1.0
  outer loop
    vertex 22.000000000000004 0.0 55.0
    vertex 17.0 5.999999999999999 55.0
    vertex 17.000000000000004 41.0 55.0
  endloop
endfacet
facet normal 0.0 0.0 -1.0
  outer loop
    vertex 22.000000000000004 0.0 55.0
    vertex 17.000000000000004 41.0 55.0
    vertex 22.000000000000004 41.0 55.0
  endloop
endfacet
facet normal -1.1596772928318286e-17 3.784406917987961e-17 1.0
  outer loop
    vertex 22.000000000000004 0.0 15.0
    vertex 1.658803813263469e-16 6.0 15.0
    vertex 0.0 0.0 15.0
  endloop
endfacet
facet normal -1.1596772928318286e-17 3.784406917987961e-17 1.0
  outer loop
    vertex 1.658803813263469e-16 6.0 15.0
    vertex 22.000000000000004 0.0 15.0
    vertex 17.0 5.999999999999999 15.0
  endloop
endfacet
facet normal -1.1596772928318286e-17 3.784406917987961e-17 1.0
  outer loop
    vertex 17.0 5.999999999999999 15.0
    vertex 22.000000000000004 0.0 15.0
    vertex 17.000000000000004 41.0 14.999999999999998
  endloop
endfacet
facet normal -1.1596772928318286e-17 3.784406917987961e-17 1.0
  outer loop
    vertex 17.000000000000004 41.0 14.999999999999998
    vertex 22.000000000000004 0.0 15.0
    vertex 22.000000000000004 41.0 15.0
  endloop
endfacet
facet normal -1.0 1.3329673499438594e-17 2.7533100413550903e-49
  outer loop
    vertex 8.294019066317345e-17 5.999999999999999 70.0
    vertex 0.0 0.0 55.0
    vertex 0.0 0.0 70.0
  endloop
endfacet
facet normal -1.0 1.3329673499438594e-17 2.7533100413550903e-49
  outer loop
    vertex 0.0 0.0 55.0
    vertex 8.294019066317345e-17 5.999999999999999 70.0
    vertex 8.294019066317345e-17 5.999999999999999 55.0
  endloop
endfacet
facet normal 0.0 -1.0 0.0
  outer loop
    vertex 22.000000000000004 0.0 0.0
    vertex 9.835015326359569 3.524958103184872e-16 4.813415908930998
    vertex 0.0 0.0 0.0
  endloop
endfacet
facet normal 0.0 -1.0 0.0
  outer loop
    vertex 9.835015326359569 3.524958103184872e-16 4.813415908930998
    vertex 22.000000000000004 0.0 0.0
    vertex 10.484864911260539 3.524958103184872e-16 5.250486433904722
  endloop
endfacet
facet normal 0.0 -1.0 0.0
  outer loop
    vertex 10.484864911260539 3.524958103184872e-16 5.250486433904722
    vertex 22.000000000000004 0.0 0.0
    vertex 22.000000000000004 0.0 15.0
  endloop
endfacet
facet normal 0.0 -1.0 0.0
  outer loop
    vertex 0.0 0.0 0.0
    vertex 9.835015326359569 3.524958103184872e-16 4.813415908930998
    vertex 9.094186653184336 7.049916206369744e-16 4.559431649973496
  endloop
endfacet
facet normal 0.0 -1.0 0.0
  outer loop
    vertex 0.0 0.0 0.0
    vertex 9.094186653184336 7.049916206369744e-16 4.559431649973496
    vertex 8.31286514153446 7.049916206369744e-16 4.505842264551334
  endloop
endfacet
facet normal 0.0 -1.0 0.0
  outer loop
    vertex 10.484864911260539 3.524958103184872e-16 5.250486433904722
    vertex 22.000000000000004 0.0 15.0
    vertex 10.730309646105061 3.524958103184872e-16 5.532079724024946
  endloop
endfacet
facet normal 0.0 -1.0 0.0
  outer loop
    vertex 10.730309646105061 3.524958103184872e-16 5.532079724024946
    vertex 22.000000000000004 0.0 15.0
    vertex 10.99944923260346 0.0 5.840857590910903
  endloop
endfacet
facet normal 0.0 -1.0 0.0
  outer loop
    vertex 10.99944923260346 0.0 5.840857590910903
    vertex 22.000000000000004 0.0 15.0
    vertex 11.343700219279611 0.0 6.5442965612340345
  endloop
endfacet
facet normal 0.0 -1.0 0.0
  outer loop
    vertex 11.343700219279611 0.0 6.5442965612340345
    vertex 22.000000000000004 0.0 15.0
    vertex 11.494157735448665 -3.524958103184872e-16 7.312865141534458
  endloop
endfacet
facet normal 0.0 -1.0 0.0
  outer loop
    vertex 11.494157735448665 -3.524958103184872e-16 7.312865141534458
    vertex 22.000000000000004 0.0 15.0
    vertex 11.440568350026503 -3.524958103184872e-16 8.094186653184334
  endloop
endfacet
facet normal 0.0 -1.0 0.0
  outer loop
    vertex 11.440568350026503 -3.524958103184872e-16 8.094186653184334
    vertex 22.000000000000004 0.0 15.0
    vertex 11.186584091069001 -3.524958103184872e-16 8.835015326359569
  endloop
endfacet
facet normal 0.0 -1.0 0.0
  outer loop
    vertex 11.186584091069001 -3.524958103184872e-16 8.835015326359569
    vertex 22.000000000000004 0.0 15.0
    vertex 10.749513566095278 -3.524958103184872e-16 9.484864911260539
  endloop
endfacet
facet normal 0.0 -1.0 0.0
  outer loop
    vertex 10.749513566095278 -3.524958103184872e-16 9.484864911260539
    vertex 22.000000000000004 0.0 15.0
    vertex 10.159142409089096 -3.524958103184872e-16 9.999449232603462
  endloop
endfacet
facet normal 0.0 -1.0 0.0
  outer loop
    vertex 10.159142409089096 -3.524958103184872e-16 9.999449232603462
    vertex 22.000000000000004 0.0 15.0
    vertex 9.455703438765964 -3.524958103184872e-16 10.343700219279613
  endloop
endfacet
facet normal 0.0 -1.0 0.0
  outer loop
    vertex 9.455703438765964 -3.524958103184872e-16 10.343700219279613
    vertex 22.000000000000004 0.0 15.0
    vertex 8.68713485846554 0.0 10.494157735448665
  endloop
endfacet
facet normal 0.0 -1.0 0.0
  outer loop
    vertex 0.0 0.0 0.0
    vertex 5.813415908930998 1.0574874309554614e-15 6.164984673640431
    vertex 0.0 0.0 15.0
  endloop
endfacet
facet normal 0.0 -1.0 0.0
  outer loop
    vertex 5.813415908930998 1.0574874309554614e-15 6.164984673640431
    vertex 0.0 0.0 0.0
    vertex 6.250486433904722 1.0574874309554614e-15 5.515135088739461
  endloop
endfacet
facet normal 0.0 -1.0 0.0
  outer loop
    vertex 6.250486433904722 1.0574874309554614e-15 5.515135088739461
    vertex 0.0 0.0 0.0
    vertex 6.840857590910904 1.0574874309554614e-15 5.00055076739654
  endloop
endfacet
facet normal 0.0 -1.0 0.0
  outer loop
    vertex 6.840857590910904 1.0574874309554614e-15 5.00055076739654
    vertex 0.0 0.0 0.0
    vertex 7.544296561234035 1.0574874309554614e-15 4.6562997807203885
  endloop
endfacet
facet normal 0.0 -1.0 0.0
  outer loop
    vertex 7.544296561234035 1.0574874309554614e-15 4.6562997807203885
    vertex 0.0 0.0 0.0
    vertex 8.31286514153446 7.049916206369744e-16 4.505842264551334
  endloop
endfacet
facet normal 0.0 -1.0 0.0
  outer loop
    vertex 0.0 0.0 15.0
    vertex 5.813415908930998 1.0574874309554614e-15 6.164984673640431
    vertex 5.559431649973495 1.0574874309554614e-15 6.905813346815665
  endloop
endfacet
facet normal 0.0 -1.0 0.0
  outer loop
    vertex 0.0 0.0 15.0
    vertex 5.559431649973495 1.0574874309554614e-15 6.905813346815665
    vertex 5.505842264551334 1.0574874309554614e-15 7.687134858465541
  endloop
endfacet
facet normal 0.0 -1.0 0.0
  outer loop
    vertex 0.0 0.0 15.0
    vertex 5.505842264551334 1.0574874309554614e-15 7.687134858465541
    vertex 5.656299780720388 7.049916206369744e-16 8.455703438765966
  endloop
endfacet
facet normal 0.0 -1.0 0.0
  outer loop
    vertex 0.0 0.0 15.0
    vertex 5.656299780720388 7.049916206369744e-16 8.455703438765966
    vertex 6.000550767396538 7.049916206369744e-16 9.159142409089096
  endloop
endfacet
facet normal 0.0 -1.0 0.0
  outer loop
    vertex 0.0 0.0 15.0
    vertex 6.000550767396538 7.049916206369744e-16 9.159142409089096
    vertex 6.269690353894938 7.049916206369744e-16 9.467920275975054
  endloop
endfacet
facet normal 0.0 -1.0 0.0
  outer loop
    vertex 0.0 0.0 15.0
    vertex 6.269690353894938 7.049916206369744e-16 9.467920275975054
    vertex 6.515135088739461 3.524958103184872e-16 9.749513566095278
  endloop
endfacet
facet normal 0.0 -1.0 0.0
  outer loop
    vertex 0.0 0.0 15.0
    vertex 6.515135088739461 3.524958103184872e-16 9.749513566095278
    vertex 7.16498467364043 3.524958103184872e-16 10.186584091069003
  endloop
endfacet
facet normal 0.0 -1.0 0.0
  outer loop
    vertex 0.0 0.0 15.0
    vertex 7.16498467364043 3.524958103184872e-16 10.186584091069003
    vertex 7.9058133468156635 0.0 10.440568350026505
  endloop
endfacet
facet normal 0.0 -1.0 0.0
  outer loop
    vertex 0.0 0.0 15.0
    vertex 7.9058133468156635 0.0 10.440568350026505
    vertex 8.68713485846554 0.0 10.494157735448665
  endloop
endfacet
facet normal 0.0 -1.0 0.0
  outer loop
    vertex 0.0 0.0 15.0
    vertex 8.68713485846554 0.0 10.494157735448665
    vertex 22.000000000000004 0.0 15.0
  endloop
endfacet
facet normal -1.0 0.0 0.0
  outer loop
    vertex 1.658803813263469e-16 6.0 15.0
    vertex 0.0 0.0 0.0
    vertex 0.0 0.0 15.0
  endloop
endfacet
facet normal -1.0 0.0 0.0
  outer loop
    vertex 0.0 0.0 0.0
    vertex 1.658803813263469e-16 6.0 15.0
    vertex 1.658803813263469e-16 5.999999999999999 -9.399888275159656e-17
  endloop
endfacet
facet normal 4.1470095331586724e-17 1.0 -2.349972068789914e-17
  outer loop
    vertex 1.658803813263469e-16 5.999999999999999 -9.399888275159656e-17
    vertex 6.840857590910904 6.0 5.00055076739654
    vertex 17.0 5.999999999999999 -9.399888275159656e-17
  endloop
endfacet
facet normal 4.1470095331586724e-17 1.0 -2.349972068789914e-17
  outer loop
    vertex 6.840857590910904 6.0 5.00055076739654
    vertex 1.658803813263469e-16 5.999999999999999 -9.399888275159656e-17
    vertex 6.250486433904723 6.0 5.515135088739461
  endloop
endfacet
facet normal 4.1470095331586724e-17 1.0 -2.349972068789914e-17
  outer loop
    vertex 6.250486433904723 6.0 5.515135088739461
    vertex 1.658803813263469e-16 5.999999999999999 -9.399888275159656e-17
    vertex 5.813415908930999 6.0 6.164984673640431
  endloop
endfacet
facet normal 4.1470095331586724e-17 1.0 -2.349972068789914e-17
  outer loop
    vertex 5.813415908930999 6.0 6.164984673640431
    vertex 1.658803813263469e-16 5.999999999999999 -9.399888275159656e-17
    vertex 1.658803813263469e-16 6.0 15.0
  endloop
endfacet
facet normal 4.1470095331586724e-17 1.0 -2.349972068789914e-17
  outer loop
    vertex 17.0 5.999999999999999 -9.399888275159656e-17
    vertex 6.840857590910904 6.0 5.00055076739654
    vertex 7.544296561234035 6.0 4.6562997807203885
  endloop
endfacet
facet normal 4.1470095331586724e-17 1.0 -2.349972068789914e-17
  outer loop
    vertex 17.0 5.999999999999999 -9.399888275159656e-17
    vertex 7.544296561234035 6.0 4.6562997807203885
    vertex 8.31286514153446 6.0 4.505842264551334
  endloop
endfacet
facet normal 4.1470095331586724e-17 1.0 -2.349972068789914e-17
  outer loop
    vertex 5.813415908930999 6.0 6.164984673640431
    vertex 1.658803813263469e-16 6.0 15.0
    vertex 5.5594316499734955 6.0 6.905813346815665
  endloop
endfacet
facet normal 4.1470095331586724e-17 1.0 -2.349972068789914e-17
  outer loop
    vertex 5.5594316499734955 6.0 6.905813346815665
    vertex 1.658803813263469e-16 6.0 15.0
    vertex 5.505842264551334 6.0 7.687134858465541
  endloop
endfacet
facet normal 4.1470095331586724e-17 1.0 -2.349972068789914e-17
  outer loop
    vertex 5.505842264551334 6.0 7.687134858465541
    vertex 1.658803813263469e-16 6.0 15.0
    vertex 5.6562997807203885 6.0 8.455703438765966
  endloop
endfacet
facet normal 4.1470095331586724e-17 1.0 -2.349972068789914e-17
  outer loop
    vertex 5.6562997807203885 6.0 8.455703438765966
    vertex 1.658803813263469e-16 6.0 15.0
    vertex 6.000550767396539 6.0 9.159142409089096
  endloop
endfacet
facet normal 4.1470095331586724e-17 1.0 -2.349972068789914e-17
  outer loop
    vertex 6.000550767396539 6.0 9.159142409089096
    vertex 1.658803813263469e-16 6.0 15.0
    vertex 6.269690353894939 6.0 9.467920275975054
  endloop
endfacet
facet normal 4.1470095331586724e-17 1.0 -2.349972068789914e-17
  outer loop
    vertex 6.269690353894939 6.0 9.467920275975054
    vertex 1.658803813263469e-16 6.0 15.0
    vertex 6.515135088739461 5.999999999999999 9.749513566095278
  endloop
endfacet
facet normal 4.1470095331586724e-17 1.0 -2.349972068789914e-17
  outer loop
    vertex 6.515135088739461 5.999999999999999 9.749513566095278
    vertex 1.658803813263469e-16 6.0 15.0
    vertex 7.16498467364043 5.999999999999999 10.186584091069003
  endloop
endfacet
facet normal 4.1470095331586724e-17 1.0 -2.349972068789914e-17
  outer loop
    vertex 7.16498467364043 5.999999999999999 10.186584091069003
    vertex 1.658803813263469e-16 6.0 15.0
    vertex 7.9058133468156635 5.999999999999999 10.440568350026505
  endloop
endfacet
facet normal 4.1470095331586724e-17 1.0 -2.349972068789914e-17
  outer loop
    vertex 7.9058133468156635 5.999999999999999 10.440568350026505
    vertex 1.658803813263469e-16 6.0 15.0
    vertex 8.68713485846554 5.999999999999999 10.494157735448665
  endloop
endfacet
facet normal 4.1470095331586724e-17 1.0 -2.349972068789914e-17
  outer loop
    vertex 17.0 5.999999999999999 -9.399888275159656e-17
    vertex 10.99944923260346 5.999999999999999 5.840857590910903
    vertex 17.0 5.999999999999999 15.0
  endloop
endfacet
facet normal 4.1470095331586724e-17 1.0 -2.349972068789914e-17
  outer loop
    vertex 10.99944923260346 5.999999999999999 5.840857590910903
    vertex 17.0 5.999999999999999 -9.399888275159656e-17
    vertex 10.730309646105061 5.999999999999999 5.532079724024946
  endloop
endfacet
facet normal 4.1470095331586724e-17 1.0 -2.349972068789914e-17
  outer loop
    vertex 10.730309646105061 5.999999999999999 5.532079724024946
    vertex 17.0 5.999999999999999 -9.399888275159656e-17
    vertex 10.484864911260539 5.999999999999999 5.250486433904722
  endloop
endfacet
facet normal 4.1470095331586724e-17 1.0 -2.349972068789914e-17
  outer loop
    vertex 10.484864911260539 5.999999999999999 5.250486433904722
    vertex 17.0 5.999999999999999 -9.399888275159656e-17
    vertex 9.835015326359569 5.999999999999999 4.813415908930998
  endloop
endfacet
facet normal 4.1470095331586724e-17 1.0 -2.349972068789914e-17
  outer loop
    vertex 9.835015326359569 5.999999999999999 4.813415908930998
    vertex 17.0 5.999999999999999 -9.399888275159656e-17
    vertex 9.094186653184336 6.0 4.559431649973496
  endloop
endfacet
facet normal 4.1470095331586724e-17 1.0 -2.349972068789914e-17
  outer loop
    vertex 9.094186653184336 6.0 4.559431649973496
    vertex 17.0 5.999999999999999 -9.399888275159656e-17
    vertex 8.31286514153446 6.0 4.505842264551334
  endloop
endfacet
facet normal 4.1470095331586724e-17 1.0 -2.349972068789914e-17
  outer loop
    vertex 17.0 5.999999999999999 15.0
    vertex 10.99944923260346 5.999999999999999 5.840857590910903
    vertex 11.343700219279611 5.999999999999999 6.5442965612340345
  endloop
endfacet
facet normal 4.1470095331586724e-17 1.0 -2.349972068789914e-17
  outer loop
    vertex 17.0 5.999999999999999 15.0
    vertex 11.343700219279611 5.999999999999999 6.5442965612340345
    vertex 11.494157735448665 5.999999999999999 7.312865141534458
  endloop
endfacet
facet normal 4.1470095331586724e-17 1.0 -2.349972068789914e-17
  outer loop
    vertex 17.0 5.999999999999999 15.0
    vertex 11.494157735448665 5.999999999999999 7.312865141534458
    vertex 11.440568350026503 5.999999999999999 8.094186653184334
  endloop
endfacet
facet normal 4.1470095331586724e-17 1.0 -2.349972068789914e-17
  outer loop
    vertex 17.0 5.999999999999999 15.0
    vertex 11.440568350026503 5.999999999999999 8.094186653184334
    vertex 11.186584091069001 5.999999999999999 8.835015326359569
  endloop
endfacet
facet normal 4.1470095331586724e-17 1.0 -2.349972068789914e-17
  outer loop
    vertex 17.0 5.999999999999999 15.0
    vertex 11.186584091069001 5.999999999999999 8.835015326359569
    vertex 10.749513566095278 5.999999999999999 9.484864911260539
  endloop
endfacet
facet normal 4.1470095331586724e-17 1.0 -2.349972068789914e-17
  outer loop
    vertex 17.0 5.999999999999999 15.0
    vertex 10.749513566095278 5.999999999999999 9.484864911260539
    vertex 10.159142409089096 5.999999999999999 9.999449232603462
  endloop
endfacet
facet normal 4.1470095331586724e-17 1.0 -2.349972068789914e-17
  outer loop
    vertex 17.0 5.999999999999999 15.0
    vertex 10.159142409089096 5.999999999999999 9.999449232603462
    vertex 9.455703438765964 5.999999999999999 10.343700219279613
  endloop
endfacet
facet normal 4.1470095331586724e-17 1.0 -2.349972068789914e-17
  outer loop
    vertex 17.0 5.999999999999999 15.0
    vertex 9.455703438765964 5.999999999999999 10.343700219279613
    vertex 8.68713485846554 5.999999999999999 10.494157735448665
  endloop
endfacet
facet normal 4.1470095331586724e-17 1.0 -2.349972068789914e-17
  outer loop
    vertex 17.0 5.999999999999999 15.0
    vertex 8.68713485846554 5.999999999999999 10.494157735448665
    vertex 1.658803813263469e-16 6.0 15.0
  endloop
endfacet
facet normal 0.0 0.0 -1.0
  outer loop
    vertex 2.000000000000001 87.00000000000001 31.999999999999996
    vertex 0.0 44.0 31.999999999999996
    vertex 0.0 87.00000000000001 31.999999999999996
  endloop
endfacet
facet normal 0.0 0.0 -1.0
  outer loop
    vertex 0.0 44.0 31.999999999999996
    vertex 2.000000000000001 87.00000000000001 31.999999999999996
    vertex 2.000000000000001 44.0 31.999999999999996
  endloop
endfacet
facet normal 0.0 -1.0 0.0
  outer loop
    vertex 2.000000000000001 87.00000000000001 31.999999999999996
    vertex 0.0 87.00000000000001 3.0000000000000058
    vertex 2.000000000000001 87.00000000000001 3.0000000000000058
  endloop
endfacet
facet normal 0.0 -1.0 0.0
  outer loop
    vertex 0.0 87.00000000000001 3.0000000000000058
    vertex 2.000000000000001 87.00000000000001 31.999999999999996
    vertex 0.0 87.00000000000001 31.999999999999996
  endloop
endfacet
facet normal -0.0 -0.0 1.0
  outer loop
    vertex 2.000000000000001 44.0 3.0000000000000058
    vertex 0.0 87.00000000000001 3.0000000000000058
    vertex 0.0 44.0 3.0000000000000058
  endloop
endfacet
facet normal -0.0 -0.0 1.0
  outer loop
    vertex 0.0 87.00000000000001 3.0000000000000058
    vertex 2.000000000000001 44.0 3.0000000000000058
    vertex 2.000000000000001 87.00000000000001 3.0000000000000058
  endloop
endfacet
facet normal -0.0 1.0 -0.0
  outer loop
    vertex 0.0 44.0 31.999999999999996
    vertex 2.000000000000001 44.0 3.0000000000000058
    vertex 0.0 44.0 3.0000000000000058
  endloop
endfacet
facet normal -0.0 1.0 -0.0
  outer loop
    vertex 2.000000000000001 44.0 3.0000000000000058
    vertex 0.0 44.0 31.999999999999996
    vertex 2.000000000000001 44.0 31.999999999999996
  endloop
endfacet
facet normal -1.0 0.0 0.0
  outer loop
    vertex 2.000000000000001 87.00000000000001 31.999999999999996
    vertex 2.000000000000001 44.0 3.0000000000000058
    vertex 2.000000000000001 44.0 31.999999999999996
  endloop
endfacet
facet normal -1.0 0.0 0.0
  outer loop
    vertex 2.000000000000001 44.0 3.0000000000000058
    vertex 2.000000000000001 87.00000000000001 31.999999999999996
    vertex 2.000000000000001 87.00000000000001 3.0000000000000058
  endloop
endfacet
facet normal -0.9459514862813722 2.4216019268222725e-16 -0.3243081645627552
  outer loop
    vertex 11.186584091069001 5.999999999999999 8.835015326359569
    vertex 11.440568350026503 -3.524958103184872e-16 8.094186653184334
    vertex 11.186584091069001 -3.524958103184872e-16 8.835015326359569
  endloop
endfacet
facet normal -0.9459514862813722 2.4216019268222725e-16 -0.3243081645627552
  outer loop
    vertex 11.440568350026503 -3.524958103184872e-16 8.094186653184334
    vertex 11.186584091069001 5.999999999999999 8.835015326359569
    vertex 11.440568350026503 5.999999999999999 8.094186653184334
  endloop
endfacet
facet normal 0.9459514862813717 -2.4216019268222735e-16 0.3243081645627568
  outer loop
    vertex 5.813415908930999 6.0 6.164984673640431
    vertex 5.559431649973495 1.0574874309554614e-15 6.905813346815665
    vertex 5.813415908930998 1.0574874309554614e-15 6.164984673640431
  endloop
endfacet
facet normal 0.9459514862813717 -2.4216019268222735e-16 0.3243081645627568
  outer loop
    vertex 5.559431649973495 1.0574874309554614e-15 6.905813346815665
    vertex 5.813415908930999 6.0 6.164984673640431
    vertex 5.5594316499734955 6.0 6.905813346815665
  endloop
endfacet
facet normal 0.9976561004867901 -2.1696017458463547e-16 0.06842737143491705
  outer loop
    vertex 5.5594316499734955 6.0 6.905813346815665
    vertex 5.505842264551334 1.0574874309554614e-15 7.687134858465541
    vertex 5.559431649973495 1.0574874309554614e-15 6.905813346815665
  endloop
endfacet
facet normal 0.9976561004867901 -2.1696017458463547e-16 0.06842737143491705
  outer loop
    vertex 5.505842264551334 1.0574874309554614e-15 7.687134858465541
    vertex 5.5594316499734955 6.0 6.905813346815665
    vertex 5.505842264551334 6.0 7.687134858465541
  endloop
endfacet
facet normal -0.753834852306738 6.436894322888109e-17 0.6570639355859356
  outer loop
    vertex 10.99944923260346 5.999999999999999 5.840857590910903
    vertex 10.730309646105061 3.524958103184872e-16 5.532079724024946
    vertex 10.99944923260346 0.0 5.840857590910903
  endloop
endfacet
facet normal -0.753834852306738 6.436894322888109e-17 0.6570639355859356
  outer loop
    vertex 10.730309646105061 3.524958103184872e-16 5.532079724024946
    vertex 10.99944923260346 5.999999999999999 5.840857590910903
    vertex 10.730309646105061 5.999999999999999 5.532079724024946
  endloop
endfacet
facet normal 0.9813721001486934 -1.7697467913274187e-16 -0.19211663397463352
  outer loop
    vertex 5.505842264551334 1.0574874309554614e-15 7.687134858465541
    vertex 5.6562997807203885 6.0 8.455703438765966
    vertex 5.656299780720388 7.049916206369744e-16 8.455703438765966
  endloop
endfacet
facet normal 0.9813721001486934 -1.7697467913274187e-16 -0.19211663397463352
  outer loop
    vertex 5.6562997807203885 6.0 8.455703438765966
    vertex 5.505842264551334 1.0574874309554614e-15 7.687134858465541
    vertex 5.505842264551334 6.0 7.687134858465541
  endloop
endfacet
facet normal 0.8982092129795394 -1.249286517624371e-16 -0.4395682082665629
  outer loop
    vertex 5.6562997807203885 6.0 8.455703438765966
    vertex 6.000550767396538 7.049916206369744e-16 9.159142409089096
    vertex 5.656299780720388 7.049916206369744e-16 8.455703438765966
  endloop
endfacet
facet normal 0.8982092129795394 -1.249286517624371e-16 -0.4395682082665629
  outer loop
    vertex 6.000550767396538 7.049916206369744e-16 9.159142409089096
    vertex 5.6562997807203885 6.0 8.455703438765966
    vertex 6.000550767396539 6.0 9.159142409089096
  endloop
endfacet
facet normal -0.9976561004867899 2.1696017458463557e-16 -0.06842737143491794
  outer loop
    vertex 11.440568350026503 5.999999999999999 8.094186653184334
    vertex 11.494157735448665 -3.524958103184872e-16 7.312865141534458
    vertex 11.440568350026503 -3.524958103184872e-16 8.094186653184334
  endloop
endfacet
facet normal -0.9976561004867899 2.1696017458463557e-16 -0.06842737143491794
  outer loop
    vertex 11.494157735448665 -3.524958103184872e-16 7.312865141534458
    vertex 11.440568350026503 5.999999999999999 8.094186653184334
    vertex 11.494157735448665 5.999999999999999 7.312865141534458
  endloop
endfacet
facet normal 0.7538348523067371 -6.436894322888073e-17 -0.6570639355859368
  outer loop
    vertex 6.000550767396539 6.0 9.159142409089096
    vertex 6.269690353894938 7.049916206369744e-16 9.467920275975054
    vertex 6.000550767396538 7.049916206369744e-16 9.159142409089096
  endloop
endfacet
facet normal 0.7538348523067371 -6.436894322888073e-17 -0.6570639355859368
  outer loop
    vertex 6.269690353894938 7.049916206369744e-16 9.467920275975054
    vertex 6.000550767396539 6.0 9.159142409089096
    vertex 6.269690353894939 6.0 9.467920275975054
  endloop
endfacet
facet normal 0.753834852306738 -6.436894322888113e-17 -0.6570639355859355
  outer loop
    vertex 6.269690353894938 7.049916206369744e-16 9.467920275975054
    vertex 6.515135088739461 5.999999999999999 9.749513566095278
    vertex 6.515135088739461 3.524958103184872e-16 9.749513566095278
  endloop
endfacet
facet normal 0.753834852306738 -6.436894322888113e-17 -0.6570639355859355
  outer loop
    vertex 6.515135088739461 5.999999999999999 9.749513566095278
    vertex 6.269690353894938 7.049916206369744e-16 9.467920275975054
    vertex 6.269690353894939 6.0 9.467920275975054
  endloop
endfacet
facet normal -0.7538348523067372 6.436894322888082e-17 0.6570639355859365
  outer loop
    vertex 10.730309646105061 5.999999999999999 5.532079724024946
    vertex 10.484864911260539 3.524958103184872e-16 5.250486433904722
    vertex 10.730309646105061 3.524958103184872e-16 5.532079724024946
  endloop
endfacet
facet normal -0.7538348523067372 6.436894322888082e-17 0.6570639355859365
  outer loop
    vertex 10.484864911260539 3.524958103184872e-16 5.250486433904722
    vertex 10.730309646105061 5.999999999999999 5.532079724024946
    vertex 10.484864911260539 5.999999999999999 5.250486433904722
  endloop
endfacet
facet normal 0.5580878922202271 5.774024110151887e-19 -0.829781841544622
  outer loop
    vertex 7.16498467364043 5.999999999999999 10.186584091069003
    vertex 6.515135088739461 3.524958103184872e-16 9.749513566095278
    vertex 6.515135088739461 5.999999999999999 9.749513566095278
  endloop
endfacet
facet normal 0.5580878922202271 5.774024110151887e-19 -0.829781841544622
  outer loop
    vertex 6.515135088739461 3.524958103184872e-16 9.749513566095278
    vertex 7.16498467364043 5.999999999999999 10.186584091069003
    vertex 7.16498467364043 3.524958103184872e-16 10.186584091069003
  endloop
endfacet
facet normal -0.5580878922202271 -5.774024110151887e-19 0.829781841544622
  outer loop
    vertex 10.484864911260539 3.524958103184872e-16 5.250486433904722
    vertex 9.835015326359569 5.999999999999999 4.813415908930998
    vertex 9.835015326359569 3.524958103184872e-16 4.813415908930998
  endloop
endfacet
facet normal -0.5580878922202271 -5.774024110151887e-19 0.829781841544622
  outer loop
    vertex 9.835015326359569 5.999999999999999 4.813415908930998
    vertex 10.484864911260539 3.524958103184872e-16 5.250486433904722
    vertex 10.484864911260539 5.999999999999999 5.250486433904722
  endloop
endfacet
facet normal 0.3243081645627573 6.548439903080321e-17 -0.9459514862813714
  outer loop
    vertex 7.9058133468156635 5.999999999999999 10.440568350026505
    vertex 7.16498467364043 3.524958103184872e-16 10.186584091069003
    vertex 7.16498467364043 5.999999999999999 10.186584091069003
  endloop
endfacet
facet normal 0.3243081645627573 6.548439903080321e-17 -0.9459514862813714
  outer loop
    vertex 7.16498467364043 3.524958103184872e-16 10.186584091069003
    vertex 7.9058133468156635 5.999999999999999 10.440568350026505
    vertex 7.9058133468156635 0.0 10.440568350026505
  endloop
endfacet
facet normal -0.324308164562756 -6.548439903080357e-17 0.9459514862813719
  outer loop
    vertex 9.835015326359569 3.524958103184872e-16 4.813415908930998
    vertex 9.094186653184336 6.0 4.559431649973496
    vertex 9.094186653184336 7.049916206369744e-16 4.559431649973496
  endloop
endfacet
facet normal -0.324308164562756 -6.548439903080357e-17 0.9459514862813719
  outer loop
    vertex 9.094186653184336 6.0 4.559431649973496
    vertex 9.835015326359569 3.524958103184872e-16 4.813415908930998
    vertex 9.835015326359569 5.999999999999999 4.813415908930998
  endloop
endfacet
facet normal -0.06842737143491794 -1.2592874207472813e-16 0.9976561004867899
  outer loop
    vertex 9.094186653184336 7.049916206369744e-16 4.559431649973496
    vertex 8.31286514153446 6.0 4.505842264551334
    vertex 8.31286514153446 7.049916206369744e-16 4.505842264551334
  endloop
endfacet
facet normal -0.06842737143491794 -1.2592874207472813e-16 0.9976561004867899
  outer loop
    vertex 8.31286514153446 6.0 4.505842264551334
    vertex 9.094186653184336 7.049916206369744e-16 4.559431649973496
    vertex 9.094186653184336 6.0 4.559431649973496
  endloop
endfacet
facet normal -0.9813721001486931 1.769746791327417e-16 0.19211663397463435
  outer loop
    vertex 11.494157735448665 5.999999999999999 7.312865141534458
    vertex 11.343700219279611 0.0 6.5442965612340345
    vertex 11.494157735448665 -3.524958103184872e-16 7.312865141534458
  endloop
endfacet
facet normal -0.9813721001486931 1.769746791327417e-16 0.19211663397463435
  outer loop
    vertex 11.343700219279611 0.0 6.5442965612340345
    vertex 11.494157735448665 5.999999999999999 7.312865141534458
    vertex 11.343700219279611 5.999999999999999 6.5442965612340345
  endloop
endfacet
facet normal 0.06842737143491602 1.2592874207472855e-16 -0.9976561004867902
  outer loop
    vertex 8.68713485846554 5.999999999999999 10.494157735448665
    vertex 7.9058133468156635 0.0 10.440568350026505
    vertex 7.9058133468156635 5.999999999999999 10.440568350026505
  endloop
endfacet
facet normal 0.06842737143491602 1.2592874207472855e-16 -0.9976561004867902
  outer loop
    vertex 7.9058133468156635 0.0 10.440568350026505
    vertex 8.68713485846554 5.999999999999999 10.494157735448665
    vertex 8.68713485846554 0.0 10.494157735448665
  endloop
endfacet
facet normal -0.1921166339746326 1.7779124945334614e-16 -0.9813721001486934
  outer loop
    vertex 9.455703438765964 5.999999999999999 10.343700219279613
    vertex 8.68713485846554 0.0 10.494157735448665
    vertex 8.68713485846554 5.999999999999999 10.494157735448665
  endloop
endfacet
facet normal -0.1921166339746326 1.7779124945334614e-16 -0.9813721001486934
  outer loop
    vertex 8.68713485846554 0.0 10.494157735448665
    vertex 9.455703438765964 5.999999999999999 10.343700219279613
    vertex 9.455703438765964 -3.524958103184872e-16 10.343700219279613
  endloop
endfacet
facet normal 0.19211663397463435 -1.7779124945334648e-16 0.9813721001486931
  outer loop
    vertex 8.31286514153446 7.049916206369744e-16 4.505842264551334
    vertex 7.544296561234035 6.0 4.6562997807203885
    vertex 7.544296561234035 1.0574874309554614e-15 4.6562997807203885
  endloop
endfacet
facet normal 0.19211663397463435 -1.7779124945334648e-16 0.9813721001486931
  outer loop
    vertex 7.544296561234035 6.0 4.6562997807203885
    vertex 8.31286514153446 7.049916206369744e-16 4.505842264551334
    vertex 8.31286514153446 6.0 4.505842264551334
  endloop
endfacet
facet normal -0.43956820826656373 2.1753757699565085e-16 -0.8982092129795392
  outer loop
    vertex 10.159142409089096 5.999999999999999 9.999449232603462
    vertex 9.455703438765964 -3.524958103184872e-16 10.343700219279613
    vertex 9.455703438765964 5.999999999999999 10.343700219279613
  endloop
endfacet
facet normal -0.43956820826656373 2.1753757699565085e-16 -0.8982092129795392
  outer loop
    vertex 9.455703438765964 -3.524958103184872e-16 10.343700219279613
    vertex 10.159142409089096 5.999999999999999 9.999449232603462
    vertex 10.159142409089096 -3.524958103184872e-16 9.999449232603462
  endloop
endfacet
facet normal 0.829781841544622 -2.5085739383716536e-16 0.5580878922202271
  outer loop
    vertex 6.250486433904723 6.0 5.515135088739461
    vertex 5.813415908930998 1.0574874309554614e-15 6.164984673640431
    vertex 6.250486433904722 1.0574874309554614e-15 5.515135088739461
  endloop
endfacet
facet normal 0.829781841544622 -2.5085739383716536e-16 0.5580878922202271
  outer loop
    vertex 5.813415908930998 1.0574874309554614e-15 6.164984673640431
    vertex 6.250486433904723 6.0 5.515135088739461
    vertex 5.813415908930999 6.0 6.164984673640431
  endloop
endfacet
facet normal -0.6570639355859362 2.424590781635451e-16 -0.7538348523067376
  outer loop
    vertex 10.749513566095278 5.999999999999999 9.484864911260539
    vertex 10.159142409089096 -3.524958103184872e-16 9.999449232603462
    vertex 10.159142409089096 5.999999999999999 9.999449232603462
  endloop
endfacet
facet normal -0.6570639355859362 2.424590781635451e-16 -0.7538348523067376
  outer loop
    vertex 10.159142409089096 -3.524958103184872e-16 9.999449232603462
    vertex 10.749513566095278 5.999999999999999 9.484864911260539
    vertex 10.749513566095278 -3.524958103184872e-16 9.484864911260539
  endloop
endfacet
facet normal -0.8982092129795392 1.2492865176243693e-16 0.43956820826656373
  outer loop
    vertex 11.343700219279611 5.999999999999999 6.5442965612340345
    vertex 10.99944923260346 0.0 5.840857590910903
    vertex 11.343700219279611 0.0 6.5442965612340345
  endloop
endfacet
facet normal -0.8982092129795392 1.2492865176243693e-16 0.43956820826656373
  outer loop
    vertex 10.99944923260346 0.0 5.840857590910903
    vertex 11.343700219279611 5.999999999999999 6.5442965612340345
    vertex 10.99944923260346 5.999999999999999 5.840857590910903
  endloop
endfacet
facet normal -0.8297818415446226 2.508573938371654e-16 -0.5580878922202264
  outer loop
    vertex 10.749513566095278 5.999999999999999 9.484864911260539
    vertex 11.186584091069001 -3.524958103184872e-16 8.835015326359569
    vertex 10.749513566095278 -3.524958103184872e-16 9.484864911260539
  endloop
endfacet
facet normal -0.8297818415446226 2.508573938371654e-16 -0.5580878922202264
  outer loop
    vertex 11.186584091069001 -3.524958103184872e-16 8.835015326359569
    vertex 10.749513566095278 5.999999999999999 9.484864911260539
    vertex 11.186584091069001 5.999999999999999 8.835015326359569
  endloop
endfacet
facet normal 0.6570639355859361 -2.424590781635451e-16 0.7538348523067377
  outer loop
    vertex 6.840857590910904 1.0574874309554614e-15 5.00055076739654
    vertex 6.250486433904723 6.0 5.515135088739461
    vertex 6.250486433904722 1.0574874309554614e-15 5.515135088739461
  endloop
endfacet
facet normal 0.6570639355859361 -2.424590781635451e-16 0.7538348523067377
  outer loop
    vertex 6.250486433904723 6.0 5.515135088739461
    vertex 6.840857590910904 1.0574874309554614e-15 5.00055076739654
    vertex 6.840857590910904 6.0 5.00055076739654
  endloop
endfacet
facet normal 0.43956820826656373 -2.1753757699565085e-16 0.8982092129795392
  outer loop
    vertex 7.544296561234035 1.0574874309554614e-15 4.6562997807203885
    vertex 6.840857590910904 6.0 5.00055076739654
    vertex 6.840857590910904 1.0574874309554614e-15 5.00055076739654
  endloop
endfacet
facet normal 0.43956820826656373 -2.1753757699565085e-16 0.8982092129795392
  outer loop
    vertex 6.840857590910904 6.0 5.00055076739654
    vertex 7.544296561234035 1.0574874309554614e-15 4.6562997807203885
    vertex 7.544296561234035 6.0 4.6562997807203885
  endloop
endfacet
facet normal -0.0 -0.0 1.0
  outer loop
    vertex 22.000000000000004 0.0 70.0
    vertex 8.294019066317345e-17 5.999999999999999 70.0
    vertex 0.0 0.0 70.0
  endloop
endfacet
facet normal -0.0 -0.0 1.0
  outer loop
    vertex 8.294019066317345e-17 5.999999999999999 70.0
    vertex 22.000000000000004 0.0 70.0
    vertex 17.0 5.999999999999999 70.0
  endloop
endfacet
facet normal -0.0 -0.0 1.0
  outer loop
    vertex 17.0 5.999999999999999 70.0
    vertex 22.000000000000004 0.0 70.0
    vertex 17.0 41.0 70.0
  endloop
endfacet
facet normal -0.0 -0.0 1.0
  outer loop
    vertex 17.0 41.0 70.0
    vertex 0.0 44.0 70.0
    vertex 0.0 41.0 70.0
  endloop
endfacet
facet normal -0.0 -0.0 1.0
  outer loop
    vertex 0.0 44.0 70.0
    vertex 17.0 41.0 70.0
    vertex 22.000000000000004 44.0 70.0
  endloop
endfacet
facet normal -0.0 -0.0 1.0
  outer loop
    vertex 22.000000000000004 44.0 70.0
    vertex 17.0 41.0 70.0
    vertex 22.000000000000004 0.0 70.0
  endloop
endfacet
facet normal -0.0 -0.0 1.0
  outer loop
    vertex 22.000000000000004 44.0 35.0
    vertex 0.0 90.0 35.0
    vertex 0.0 44.0 35.0
  endloop
endfacet
facet normal -0.0 -0.0 1.0
  outer loop
    vertex 0.0 90.0 35.0
    vertex 22.000000000000004 44.0 35.0
    vertex 22.000000000000004 90.0 35.0
  endloop
endfacet
facet normal -0.0 1.0 -0.0
  outer loop
    vertex 0.0 44.0 70.0
    vertex 22.000000000000004 44.0 35.0
    vertex 0.0 44.0 35.0
  endloop
endfacet
facet normal -0.0 1.0 -0.0
  outer loop
    vertex 22.000000000000004 44.0 35.0
    vertex 0.0 44.0 70.0
    vertex 22.000000000000004 44.0 70.0
  endloop
endfacet
facet normal 0.0 1.0 0.0
  outer loop
    vertex 0.0 90.0 35.0
    vertex 22.000000000000004 90.0 8.459899447643692e-15
    vertex 0.0 90.0 8.459899447643692e-15
  endloop
endfacet
facet normal 0.0 1.0 0.0
  outer loop
    vertex 22.000000000000004 90.0 8.459899447643692e-15
    vertex 0.0 90.0 35.0
    vertex 22.000000000000004 90.0 35.0
  endloop
endfacet
facet normal 0.0 -1.0 0.0
  outer loop
    vertex 17.000000000000004 41.0 14.999999999999998
    vertex 0.0 41.0 0.0
    vertex 17.0 41.0 0.0
  endloop
endfacet
facet normal 0.0 -1.0 0.0
  outer loop
    vertex 0.0 41.0 0.0
    vertex 17.000000000000004 41.0 14.999999999999998
    vertex 0.0 41.0 70.0
  endloop
endfacet
facet normal 0.0 -1.0 0.0
  outer loop
    vertex 0.0 41.0 70.0
    vertex 17.000000000000004 41.0 14.999999999999998
    vertex 22.000000000000004 41.0 15.0
  endloop
endfacet
facet normal 0.0 -1.0 0.0
  outer loop
    vertex 0.0 41.0 70.0
    vertex 22.000000000000004 41.0 15.0
    vertex 17.000000000000004 41.0 55.0
  endloop
endfacet
facet normal 0.0 -1.0 0.0
  outer loop
    vertex 17.000000000000004 41.0 55.0
    vertex 22.000000000000004 41.0 15.0
    vertex 22.000000000000004 41.0 55.0
  endloop
endfacet
facet normal 0.0 -1.0 0.0
  outer loop
    vertex 0.0 41.0 70.0
    vertex 17.000000000000004 41.0 55.0
    vertex 17.0 41.0 70.0
  endloop
endfacet
facet normal -1.0 3.9075748026067857e-17 -6.266592183439773e-17
  outer loop
    vertex 17.0 41.0 70.0
    vertex 17.0 5.999999999999999 55.0
    vertex 17.0 5.999999999999999 70.0
  endloop
endfacet
facet normal -1.0 3.9075748026067857e-17 -6.266592183439773e-17
  outer loop
    vertex 17.0 5.999999999999999 55.0
    vertex 17.0 41.0 70.0
    vertex 17.000000000000004 41.0 55.0
  endloop
endfacet
facet normal -0.0 1.0 -0.0
  outer loop
    vertex 8.294019066317345e-17 5.999999999999999 55.0
    vertex 6.999999999999998 5.999999999999999 59.901923788646684
    vertex 17.0 5.999999999999999 55.0
  endloop
endfacet
facet normal -0.0 1.0 -0.0
  outer loop
    vertex 6.999999999999998 5.999999999999999 59.901923788646684
    vertex 8.294019066317345e-17 5.999999999999999 55.0
    vertex 6.378679656440356 5.999999999999999 60.37867965644036
  endloop
endfacet
facet normal -0.0 1.0 -0.0
  outer loop
    vertex 6.378679656440356 5.999999999999999 60.37867965644036
    vertex 8.294019066317345e-17 5.999999999999999 55.0
    vertex 6.264491527082715 5.999999999999999 60.527492523896505
  endloop
endfacet
facet normal -0.0 1.0 -0.0
  outer loop
    vertex 6.264491527082715 5.999999999999999 60.527492523896505
    vertex 8.294019066317345e-17 5.999999999999999 55.0
    vertex 5.901923788646684 5.999999999999999 61.0
  endloop
endfacet
facet normal -0.0 1.0 -0.0
  outer loop
    vertex 5.901923788646684 5.999999999999999 61.0
    vertex 8.294019066317345e-17 5.999999999999999 55.0
    vertex 8.294019066317345e-17 5.999999999999999 70.0
  endloop
endfacet
facet normal -0.0 1.0 -0.0
  outer loop
    vertex 17.0 5.999999999999999 55.0
    vertex 6.999999999999998 5.999999999999999 59.901923788646684
    vertex 7.723542864692436 5.999999999999999 59.602222521132795
  endloop
endfacet
facet normal -0.0 1.0 -0.0
  outer loop
    vertex 17.0 5.999999999999999 55.0
    vertex 7.723542864692436 5.999999999999999 59.602222521132795
    vertex 8.5 5.999999999999999 59.50000000000001
  endloop
endfacet
facet normal -0.0 1.0 -0.0
  outer loop
    vertex 5.901923788646684 5.999999999999999 61.0
    vertex 8.294019066317345e-17 5.999999999999999 70.0
    vertex 5.602222521132795 5.999999999999999 61.72354286469244
  endloop
endfacet
facet normal -0.0 1.0 -0.0
  outer loop
    vertex 5.602222521132795 5.999999999999999 61.72354286469244
    vertex 8.294019066317345e-17 5.999999999999999 70.0
    vertex 5.5 5.999999999999999 62.5
  endloop
endfacet
facet normal -0.0 1.0 -0.0
  outer loop
    vertex 5.5 5.999999999999999 62.5
    vertex 8.294019066317345e-17 5.999999999999999 70.0
    vertex 5.602222521132795 5.999999999999999 63.27645713530757
  endloop
endfacet
facet normal -0.0 1.0 -0.0
  outer loop
    vertex 5.602222521132795 5.999999999999999 63.27645713530757
    vertex 8.294019066317345e-17 5.999999999999999 70.0
    vertex 5.901923788646685 5.999999999999999 63.99999999999999
  endloop
endfacet
facet normal -0.0 1.0 -0.0
  outer loop
    vertex 5.901923788646685 5.999999999999999 63.99999999999999
    vertex 8.294019066317345e-17 5.999999999999999 70.0
    vertex 6.264491527082711 5.999999999999999 64.47250747610349
  endloop
endfacet
facet normal -0.0 1.0 -0.0
  outer loop
    vertex 6.264491527082711 5.999999999999999 64.47250747610349
    vertex 8.294019066317345e-17 5.999999999999999 70.0
    vertex 6.378679656440358 5.999999999999999 64.62132034355965
  endloop
endfacet
facet normal -0.0 1.0 -0.0
  outer loop
    vertex 6.378679656440358 5.999999999999999 64.62132034355965
    vertex 8.294019066317345e-17 5.999999999999999 70.0
    vertex 7.000000000000001 5.999999999999999 65.09807621135332
  endloop
endfacet
facet normal -0.0 1.0 -0.0
  outer loop
    vertex 7.000000000000001 5.999999999999999 65.09807621135332
    vertex 8.294019066317345e-17 5.999999999999999 70.0
    vertex 7.723542864692439 5.999999999999999 65.3977774788672
  endloop
endfacet
facet normal -0.0 1.0 -0.0
  outer loop
    vertex 7.723542864692439 5.999999999999999 65.3977774788672
    vertex 8.294019066317345e-17 5.999999999999999 70.0
    vertex 8.5 5.999999999999999 65.49999999999999
  endloop
endfacet
facet normal -0.0 1.0 -0.0
  outer loop
    vertex 17.0 5.999999999999999 55.0
    vertex 11.098076211353314 5.999999999999999 61.0
    vertex 17.0 5.999999999999999 70.0
  endloop
endfacet
facet normal -0.0 1.0 -0.0
  outer loop
    vertex 11.098076211353314 5.999999999999999 61.0
    vertex 17.0 5.999999999999999 55.0
    vertex 10.735508472917287 5.999999999999999 60.527492523896505
  endloop
endfacet
facet normal -0.0 1.0 -0.0
  outer loop
    vertex 10.735508472917287 5.999999999999999 60.527492523896505
    vertex 17.0 5.999999999999999 55.0
    vertex 10.621320343559642 5.999999999999999 60.37867965644035
  endloop
endfacet
facet normal -0.0 1.0 -0.0
  outer loop
    vertex 10.621320343559642 5.999999999999999 60.37867965644035
    vertex 17.0 5.999999999999999 55.0
    vertex 9.999999999999996 5.999999999999999 59.901923788646684
  endloop
endfacet
facet normal -0.0 1.0 -0.0
  outer loop
    vertex 9.999999999999996 5.999999999999999 59.901923788646684
    vertex 17.0 5.999999999999999 55.0
    vertex 9.276457135307561 5.999999999999999 59.602222521132795
  endloop
endfacet
facet normal -0.0 1.0 -0.0
  outer loop
    vertex 9.276457135307561 5.999999999999999 59.602222521132795
    vertex 17.0 5.999999999999999 55.0
    vertex 8.5 5.999999999999999 59.50000000000001
  endloop
endfacet
facet normal -0.0 1.0 -0.0
  outer loop
    vertex 17.0 5.999999999999999 70.0
    vertex 11.098076211353314 5.999999999999999 61.0
    vertex 11.397777478867203 5.999999999999999 61.72354286469243
  endloop
endfacet
facet normal -0.0 1.0 -0.0
  outer loop
    vertex 17.0 5.999999999999999 70.0
    vertex 11.397777478867203 5.999999999999999 61.72354286469243
    vertex 11.5 5.999999999999999 62.5
  endloop
endfacet
facet normal -0.0 1.0 -0.0
  outer loop
    vertex 17.0 5.999999999999999 70.0
    vertex 11.5 5.999999999999999 62.5
    vertex 11.397777478867205 5.999999999999999 63.27645713530755
  endloop
endfacet
facet normal -0.0 1.0 -0.0
  outer loop
    vertex 17.0 5.999999999999999 70.0
    vertex 11.397777478867205 5.999999999999999 63.27645713530755
    vertex 11.098076211353316 5.999999999999999 63.99999999999999
  endloop
endfacet
facet normal -0.0 1.0 -0.0
  outer loop
    vertex 17.0 5.999999999999999 70.0
    vertex 11.098076211353316 5.999999999999999 63.99999999999999
    vertex 10.735508472917289 5.999999999999999 64.47250747610349
  endloop
endfacet
facet normal -0.0 1.0 -0.0
  outer loop
    vertex 17.0 5.999999999999999 70.0
    vertex 10.735508472917289 5.999999999999999 64.47250747610349
    vertex 10.621320343559642 5.999999999999999 64.62132034355965
  endloop
endfacet
facet normal -0.0 1.0 -0.0
  outer loop
    vertex 17.0 5.999999999999999 70.0
    vertex 10.621320343559642 5.999999999999999 64.62132034355965
    vertex 10.0 5.999999999999999 65.09807621135332
  endloop
endfacet
facet normal -0.0 1.0 -0.0
  outer loop
    vertex 17.0 5.999999999999999 70.0
    vertex 10.0 5.999999999999999 65.09807621135332
    vertex 9.276457135307563 5.999999999999999 65.3977774788672
  endloop
endfacet
facet normal -0.0 1.0 -0.0
  outer loop
    vertex 17.0 5.999999999999999 70.0
    vertex 9.276457135307563 5.999999999999999 65.3977774788672
    vertex 8.5 5.999999999999999 65.49999999999999
  endloop
endfacet
facet normal -0.0 1.0 -0.0
  outer loop
    vertex 17.0 5.999999999999999 70.0
    vertex 8.5 5.999999999999999 65.49999999999999
    vertex 8.294019066317345e-17 5.999999999999999 70.0
  endloop
endfacet
endsolid holder_metalplate_base_left2
