G75*
%MOIN*%
%OFA0B0*%
%FSLAX25Y25*%
%IPPOS*%
%LPD*%
%AMOC8*
5,1,8,0,0,1.08239X$1,22.5*
%
%ADD10R,0.06693X0.06693*%
%ADD11C,0.06693*%
%ADD12C,0.07387*%
%ADD13C,0.06387*%
%ADD14R,0.06102X0.06102*%
%ADD15C,0.06102*%
%ADD16C,0.13780*%
D10*
X0287458Y0081819D03*
D11*
X0277458Y0081819D03*
X0267458Y0081819D03*
X0257458Y0081819D03*
X0247458Y0081819D03*
X0237458Y0081819D03*
X0227458Y0081819D03*
X0217458Y0081819D03*
X0217458Y0071819D03*
X0227458Y0071819D03*
X0237458Y0071819D03*
X0247458Y0071819D03*
X0257458Y0071819D03*
X0267458Y0071819D03*
X0277458Y0071819D03*
X0287458Y0071819D03*
X0262005Y0028815D03*
X0328146Y0028815D03*
X0394288Y0028815D03*
X0195863Y0028815D03*
X0129721Y0028815D03*
D12*
X0102162Y0028815D03*
X0088383Y0048500D03*
X0115942Y0048500D03*
X0154524Y0048500D03*
X0182083Y0048500D03*
X0220666Y0048500D03*
X0248225Y0048500D03*
X0286808Y0048500D03*
X0314367Y0048500D03*
X0352949Y0048500D03*
X0380509Y0048500D03*
X0366729Y0028815D03*
X0300587Y0028815D03*
X0234446Y0028815D03*
X0168304Y0028815D03*
X0109957Y0069209D03*
X0090666Y0069209D03*
X0071375Y0069209D03*
X0071375Y0079209D03*
X0090666Y0079209D03*
X0109957Y0079209D03*
X0109957Y0089209D03*
X0090666Y0089209D03*
X0071375Y0089209D03*
D13*
X0139052Y0083146D03*
X0139052Y0072516D03*
X0179052Y0072516D03*
X0179052Y0083146D03*
X0347320Y0083146D03*
X0347320Y0072516D03*
X0387320Y0072516D03*
X0387320Y0083146D03*
D14*
X0318501Y0088028D03*
D15*
X0318501Y0078028D03*
X0318501Y0068028D03*
D16*
X0417713Y0037673D03*
X0417713Y0037673D03*
X0055509Y0037673D03*
X0055509Y0037673D03*
M02*
