%
M48
M72
T01C0.0315
T02C0.0354
T03C0.0374
T04C0.0394
T05C0.1299
%
T01
X7137Y6921
X9067Y6921
X10996Y6921
X10996Y7921
X9067Y7921
X7137Y7921
X7137Y8921
X9067Y8921
X10996Y8921
X13905Y8315
X13905Y7252
X17905Y7252
X17905Y8315
X34732Y8315
X34732Y7252
X38732Y7252
X38732Y8315
T02
X31850Y8803
X31850Y7803
X31850Y6803
T03
X28746Y7182
X27746Y7182
X26746Y7182
X25746Y7182
X24746Y7182
X23746Y7182
X22746Y7182
X21746Y7182
X21746Y8182
X22746Y8182
X23746Y8182
X24746Y8182
X25746Y8182
X26746Y8182
X27746Y8182
X28746Y8182
T04
X10216Y2881
X12972Y2881
X16830Y2881
X19586Y2881
X23445Y2881
X26200Y2881
X30059Y2881
X32815Y2881
X36673Y2881
X39429Y2881
X38051Y4850
X35295Y4850
X31437Y4850
X28681Y4850
X24823Y4850
X22067Y4850
X18208Y4850
X15452Y4850
X11594Y4850
X8838Y4850
T05
X5551Y3767
X41771Y3767
M30
