G75*
%MOIN*%
%OFA0B0*%
%FSLAX25Y25*%
%IPPOS*%
%LPD*%
%AMOC8*
5,1,8,0,0,1.08239X$1,22.5*
%
%ADD10C,0.00000*%
D10*
X0039760Y0009130D02*
X0039760Y0091807D01*
X0039761Y0091807D02*
X0039763Y0091997D01*
X0039770Y0092187D01*
X0039782Y0092377D01*
X0039798Y0092567D01*
X0039818Y0092756D01*
X0039844Y0092945D01*
X0039873Y0093133D01*
X0039908Y0093320D01*
X0039947Y0093506D01*
X0039990Y0093691D01*
X0040038Y0093876D01*
X0040090Y0094059D01*
X0040146Y0094240D01*
X0040207Y0094420D01*
X0040273Y0094599D01*
X0040342Y0094776D01*
X0040416Y0094952D01*
X0040494Y0095125D01*
X0040577Y0095297D01*
X0040663Y0095466D01*
X0040753Y0095634D01*
X0040848Y0095799D01*
X0040946Y0095962D01*
X0041049Y0096122D01*
X0041155Y0096280D01*
X0041265Y0096435D01*
X0041378Y0096588D01*
X0041496Y0096738D01*
X0041617Y0096884D01*
X0041741Y0097028D01*
X0041869Y0097169D01*
X0042000Y0097307D01*
X0042135Y0097442D01*
X0042273Y0097573D01*
X0042414Y0097701D01*
X0042558Y0097825D01*
X0042704Y0097946D01*
X0042854Y0098064D01*
X0043007Y0098177D01*
X0043162Y0098287D01*
X0043320Y0098393D01*
X0043480Y0098496D01*
X0043643Y0098594D01*
X0043808Y0098689D01*
X0043976Y0098779D01*
X0044145Y0098865D01*
X0044317Y0098948D01*
X0044490Y0099026D01*
X0044666Y0099100D01*
X0044843Y0099169D01*
X0045022Y0099235D01*
X0045202Y0099296D01*
X0045383Y0099352D01*
X0045566Y0099404D01*
X0045751Y0099452D01*
X0045936Y0099495D01*
X0046122Y0099534D01*
X0046309Y0099569D01*
X0046497Y0099598D01*
X0046686Y0099624D01*
X0046875Y0099644D01*
X0047065Y0099660D01*
X0047255Y0099672D01*
X0047445Y0099679D01*
X0047635Y0099681D01*
X0405902Y0099681D01*
X0406092Y0099679D01*
X0406282Y0099672D01*
X0406472Y0099660D01*
X0406662Y0099644D01*
X0406851Y0099624D01*
X0407040Y0099598D01*
X0407228Y0099569D01*
X0407415Y0099534D01*
X0407601Y0099495D01*
X0407786Y0099452D01*
X0407971Y0099404D01*
X0408154Y0099352D01*
X0408335Y0099296D01*
X0408515Y0099235D01*
X0408694Y0099169D01*
X0408871Y0099100D01*
X0409047Y0099026D01*
X0409220Y0098948D01*
X0409392Y0098865D01*
X0409561Y0098779D01*
X0409729Y0098689D01*
X0409894Y0098594D01*
X0410057Y0098496D01*
X0410217Y0098393D01*
X0410375Y0098287D01*
X0410530Y0098177D01*
X0410683Y0098064D01*
X0410833Y0097946D01*
X0410979Y0097825D01*
X0411123Y0097701D01*
X0411264Y0097573D01*
X0411402Y0097442D01*
X0411537Y0097307D01*
X0411668Y0097169D01*
X0411796Y0097028D01*
X0411920Y0096884D01*
X0412041Y0096738D01*
X0412159Y0096588D01*
X0412272Y0096435D01*
X0412382Y0096280D01*
X0412488Y0096122D01*
X0412591Y0095962D01*
X0412689Y0095799D01*
X0412784Y0095634D01*
X0412874Y0095466D01*
X0412960Y0095297D01*
X0413043Y0095125D01*
X0413121Y0094952D01*
X0413195Y0094776D01*
X0413264Y0094599D01*
X0413330Y0094420D01*
X0413391Y0094240D01*
X0413447Y0094059D01*
X0413499Y0093876D01*
X0413547Y0093691D01*
X0413590Y0093506D01*
X0413629Y0093320D01*
X0413664Y0093133D01*
X0413693Y0092945D01*
X0413719Y0092756D01*
X0413739Y0092567D01*
X0413755Y0092377D01*
X0413767Y0092187D01*
X0413774Y0091997D01*
X0413776Y0091807D01*
X0413776Y0068185D01*
X0413778Y0067995D01*
X0413785Y0067805D01*
X0413797Y0067615D01*
X0413813Y0067425D01*
X0413833Y0067236D01*
X0413859Y0067047D01*
X0413888Y0066859D01*
X0413923Y0066672D01*
X0413962Y0066486D01*
X0414005Y0066301D01*
X0414053Y0066116D01*
X0414105Y0065933D01*
X0414161Y0065752D01*
X0414222Y0065572D01*
X0414288Y0065393D01*
X0414357Y0065216D01*
X0414431Y0065040D01*
X0414509Y0064867D01*
X0414592Y0064695D01*
X0414678Y0064526D01*
X0414768Y0064358D01*
X0414863Y0064193D01*
X0414961Y0064030D01*
X0415064Y0063870D01*
X0415170Y0063712D01*
X0415280Y0063557D01*
X0415393Y0063404D01*
X0415511Y0063254D01*
X0415632Y0063108D01*
X0415756Y0062964D01*
X0415884Y0062823D01*
X0416015Y0062685D01*
X0416150Y0062550D01*
X0416288Y0062419D01*
X0416429Y0062291D01*
X0416573Y0062167D01*
X0416719Y0062046D01*
X0416869Y0061928D01*
X0417022Y0061815D01*
X0417177Y0061705D01*
X0417335Y0061599D01*
X0417495Y0061496D01*
X0417658Y0061398D01*
X0417823Y0061303D01*
X0417991Y0061213D01*
X0418160Y0061127D01*
X0418332Y0061044D01*
X0418505Y0060966D01*
X0418681Y0060892D01*
X0418858Y0060823D01*
X0419037Y0060757D01*
X0419217Y0060696D01*
X0419398Y0060640D01*
X0419581Y0060588D01*
X0419766Y0060540D01*
X0419951Y0060497D01*
X0420137Y0060458D01*
X0420324Y0060423D01*
X0420512Y0060394D01*
X0420701Y0060368D01*
X0420890Y0060348D01*
X0421080Y0060332D01*
X0421270Y0060320D01*
X0421460Y0060313D01*
X0421650Y0060311D01*
X0425587Y0060311D01*
X0425777Y0060309D01*
X0425967Y0060302D01*
X0426157Y0060290D01*
X0426347Y0060274D01*
X0426536Y0060254D01*
X0426725Y0060228D01*
X0426913Y0060199D01*
X0427100Y0060164D01*
X0427286Y0060125D01*
X0427471Y0060082D01*
X0427656Y0060034D01*
X0427839Y0059982D01*
X0428020Y0059926D01*
X0428200Y0059865D01*
X0428379Y0059799D01*
X0428556Y0059730D01*
X0428732Y0059656D01*
X0428905Y0059578D01*
X0429077Y0059495D01*
X0429246Y0059409D01*
X0429414Y0059319D01*
X0429579Y0059224D01*
X0429742Y0059126D01*
X0429902Y0059023D01*
X0430060Y0058917D01*
X0430215Y0058807D01*
X0430368Y0058694D01*
X0430518Y0058576D01*
X0430664Y0058455D01*
X0430808Y0058331D01*
X0430949Y0058203D01*
X0431087Y0058072D01*
X0431222Y0057937D01*
X0431353Y0057799D01*
X0431481Y0057658D01*
X0431605Y0057514D01*
X0431726Y0057368D01*
X0431844Y0057218D01*
X0431957Y0057065D01*
X0432067Y0056910D01*
X0432173Y0056752D01*
X0432276Y0056592D01*
X0432374Y0056429D01*
X0432469Y0056264D01*
X0432559Y0056096D01*
X0432645Y0055927D01*
X0432728Y0055755D01*
X0432806Y0055582D01*
X0432880Y0055406D01*
X0432949Y0055229D01*
X0433015Y0055050D01*
X0433076Y0054870D01*
X0433132Y0054689D01*
X0433184Y0054506D01*
X0433232Y0054321D01*
X0433275Y0054136D01*
X0433314Y0053950D01*
X0433349Y0053763D01*
X0433378Y0053575D01*
X0433404Y0053386D01*
X0433424Y0053197D01*
X0433440Y0053007D01*
X0433452Y0052817D01*
X0433459Y0052627D01*
X0433461Y0052437D01*
X0433461Y0009130D01*
X0433459Y0008940D01*
X0433452Y0008750D01*
X0433440Y0008560D01*
X0433424Y0008370D01*
X0433404Y0008181D01*
X0433378Y0007992D01*
X0433349Y0007804D01*
X0433314Y0007617D01*
X0433275Y0007431D01*
X0433232Y0007246D01*
X0433184Y0007061D01*
X0433132Y0006878D01*
X0433076Y0006697D01*
X0433015Y0006517D01*
X0432949Y0006338D01*
X0432880Y0006161D01*
X0432806Y0005985D01*
X0432728Y0005812D01*
X0432645Y0005640D01*
X0432559Y0005471D01*
X0432469Y0005303D01*
X0432374Y0005138D01*
X0432276Y0004975D01*
X0432173Y0004815D01*
X0432067Y0004657D01*
X0431957Y0004502D01*
X0431844Y0004349D01*
X0431726Y0004199D01*
X0431605Y0004053D01*
X0431481Y0003909D01*
X0431353Y0003768D01*
X0431222Y0003630D01*
X0431087Y0003495D01*
X0430949Y0003364D01*
X0430808Y0003236D01*
X0430664Y0003112D01*
X0430518Y0002991D01*
X0430368Y0002873D01*
X0430215Y0002760D01*
X0430060Y0002650D01*
X0429902Y0002544D01*
X0429742Y0002441D01*
X0429579Y0002343D01*
X0429414Y0002248D01*
X0429246Y0002158D01*
X0429077Y0002072D01*
X0428905Y0001989D01*
X0428732Y0001911D01*
X0428556Y0001837D01*
X0428379Y0001768D01*
X0428200Y0001702D01*
X0428020Y0001641D01*
X0427839Y0001585D01*
X0427656Y0001533D01*
X0427471Y0001485D01*
X0427286Y0001442D01*
X0427100Y0001403D01*
X0426913Y0001368D01*
X0426725Y0001339D01*
X0426536Y0001313D01*
X0426347Y0001293D01*
X0426157Y0001277D01*
X0425967Y0001265D01*
X0425777Y0001258D01*
X0425587Y0001256D01*
X0047635Y0001256D01*
X0047445Y0001258D01*
X0047255Y0001265D01*
X0047065Y0001277D01*
X0046875Y0001293D01*
X0046686Y0001313D01*
X0046497Y0001339D01*
X0046309Y0001368D01*
X0046122Y0001403D01*
X0045936Y0001442D01*
X0045751Y0001485D01*
X0045566Y0001533D01*
X0045383Y0001585D01*
X0045202Y0001641D01*
X0045022Y0001702D01*
X0044843Y0001768D01*
X0044666Y0001837D01*
X0044490Y0001911D01*
X0044317Y0001989D01*
X0044145Y0002072D01*
X0043976Y0002158D01*
X0043808Y0002248D01*
X0043643Y0002343D01*
X0043480Y0002441D01*
X0043320Y0002544D01*
X0043162Y0002650D01*
X0043007Y0002760D01*
X0042854Y0002873D01*
X0042704Y0002991D01*
X0042558Y0003112D01*
X0042414Y0003236D01*
X0042273Y0003364D01*
X0042135Y0003495D01*
X0042000Y0003630D01*
X0041869Y0003768D01*
X0041741Y0003909D01*
X0041617Y0004053D01*
X0041496Y0004199D01*
X0041378Y0004349D01*
X0041265Y0004502D01*
X0041155Y0004657D01*
X0041049Y0004815D01*
X0040946Y0004975D01*
X0040848Y0005138D01*
X0040753Y0005303D01*
X0040663Y0005471D01*
X0040577Y0005640D01*
X0040494Y0005812D01*
X0040416Y0005985D01*
X0040342Y0006161D01*
X0040273Y0006338D01*
X0040207Y0006517D01*
X0040146Y0006697D01*
X0040090Y0006878D01*
X0040038Y0007061D01*
X0039990Y0007246D01*
X0039947Y0007431D01*
X0039908Y0007617D01*
X0039873Y0007804D01*
X0039844Y0007992D01*
X0039818Y0008181D01*
X0039798Y0008370D01*
X0039782Y0008560D01*
X0039770Y0008750D01*
X0039763Y0008940D01*
X0039761Y0009130D01*
X0049013Y0037673D02*
X0049015Y0037834D01*
X0049021Y0037994D01*
X0049031Y0038155D01*
X0049045Y0038315D01*
X0049063Y0038474D01*
X0049084Y0038634D01*
X0049110Y0038792D01*
X0049140Y0038950D01*
X0049173Y0039107D01*
X0049211Y0039264D01*
X0049252Y0039419D01*
X0049297Y0039573D01*
X0049346Y0039726D01*
X0049399Y0039878D01*
X0049455Y0040028D01*
X0049515Y0040177D01*
X0049579Y0040325D01*
X0049646Y0040471D01*
X0049717Y0040615D01*
X0049792Y0040757D01*
X0049870Y0040898D01*
X0049951Y0041036D01*
X0050036Y0041173D01*
X0050125Y0041307D01*
X0050216Y0041439D01*
X0050311Y0041569D01*
X0050409Y0041696D01*
X0050510Y0041821D01*
X0050614Y0041944D01*
X0050721Y0042063D01*
X0050831Y0042180D01*
X0050944Y0042295D01*
X0051060Y0042406D01*
X0051178Y0042515D01*
X0051299Y0042620D01*
X0051423Y0042723D01*
X0051549Y0042823D01*
X0051678Y0042919D01*
X0051809Y0043012D01*
X0051942Y0043102D01*
X0052077Y0043189D01*
X0052215Y0043272D01*
X0052354Y0043351D01*
X0052496Y0043428D01*
X0052639Y0043501D01*
X0052784Y0043570D01*
X0052931Y0043635D01*
X0053079Y0043697D01*
X0053229Y0043756D01*
X0053380Y0043810D01*
X0053532Y0043861D01*
X0053686Y0043908D01*
X0053841Y0043951D01*
X0053996Y0043990D01*
X0054153Y0044026D01*
X0054311Y0044058D01*
X0054469Y0044085D01*
X0054628Y0044109D01*
X0054787Y0044129D01*
X0054947Y0044145D01*
X0055108Y0044157D01*
X0055268Y0044165D01*
X0055429Y0044169D01*
X0055589Y0044169D01*
X0055750Y0044165D01*
X0055910Y0044157D01*
X0056071Y0044145D01*
X0056231Y0044129D01*
X0056390Y0044109D01*
X0056549Y0044085D01*
X0056707Y0044058D01*
X0056865Y0044026D01*
X0057022Y0043990D01*
X0057177Y0043951D01*
X0057332Y0043908D01*
X0057486Y0043861D01*
X0057638Y0043810D01*
X0057789Y0043756D01*
X0057939Y0043697D01*
X0058087Y0043635D01*
X0058234Y0043570D01*
X0058379Y0043501D01*
X0058522Y0043428D01*
X0058664Y0043351D01*
X0058803Y0043272D01*
X0058941Y0043189D01*
X0059076Y0043102D01*
X0059209Y0043012D01*
X0059340Y0042919D01*
X0059469Y0042823D01*
X0059595Y0042723D01*
X0059719Y0042620D01*
X0059840Y0042515D01*
X0059958Y0042406D01*
X0060074Y0042295D01*
X0060187Y0042180D01*
X0060297Y0042063D01*
X0060404Y0041944D01*
X0060508Y0041821D01*
X0060609Y0041696D01*
X0060707Y0041569D01*
X0060802Y0041439D01*
X0060893Y0041307D01*
X0060982Y0041173D01*
X0061067Y0041036D01*
X0061148Y0040898D01*
X0061226Y0040757D01*
X0061301Y0040615D01*
X0061372Y0040471D01*
X0061439Y0040325D01*
X0061503Y0040177D01*
X0061563Y0040028D01*
X0061619Y0039878D01*
X0061672Y0039726D01*
X0061721Y0039573D01*
X0061766Y0039419D01*
X0061807Y0039264D01*
X0061845Y0039107D01*
X0061878Y0038950D01*
X0061908Y0038792D01*
X0061934Y0038634D01*
X0061955Y0038474D01*
X0061973Y0038315D01*
X0061987Y0038155D01*
X0061997Y0037994D01*
X0062003Y0037834D01*
X0062005Y0037673D01*
X0062003Y0037512D01*
X0061997Y0037352D01*
X0061987Y0037191D01*
X0061973Y0037031D01*
X0061955Y0036872D01*
X0061934Y0036712D01*
X0061908Y0036554D01*
X0061878Y0036396D01*
X0061845Y0036239D01*
X0061807Y0036082D01*
X0061766Y0035927D01*
X0061721Y0035773D01*
X0061672Y0035620D01*
X0061619Y0035468D01*
X0061563Y0035318D01*
X0061503Y0035169D01*
X0061439Y0035021D01*
X0061372Y0034875D01*
X0061301Y0034731D01*
X0061226Y0034589D01*
X0061148Y0034448D01*
X0061067Y0034310D01*
X0060982Y0034173D01*
X0060893Y0034039D01*
X0060802Y0033907D01*
X0060707Y0033777D01*
X0060609Y0033650D01*
X0060508Y0033525D01*
X0060404Y0033402D01*
X0060297Y0033283D01*
X0060187Y0033166D01*
X0060074Y0033051D01*
X0059958Y0032940D01*
X0059840Y0032831D01*
X0059719Y0032726D01*
X0059595Y0032623D01*
X0059469Y0032523D01*
X0059340Y0032427D01*
X0059209Y0032334D01*
X0059076Y0032244D01*
X0058941Y0032157D01*
X0058803Y0032074D01*
X0058664Y0031995D01*
X0058522Y0031918D01*
X0058379Y0031845D01*
X0058234Y0031776D01*
X0058087Y0031711D01*
X0057939Y0031649D01*
X0057789Y0031590D01*
X0057638Y0031536D01*
X0057486Y0031485D01*
X0057332Y0031438D01*
X0057177Y0031395D01*
X0057022Y0031356D01*
X0056865Y0031320D01*
X0056707Y0031288D01*
X0056549Y0031261D01*
X0056390Y0031237D01*
X0056231Y0031217D01*
X0056071Y0031201D01*
X0055910Y0031189D01*
X0055750Y0031181D01*
X0055589Y0031177D01*
X0055429Y0031177D01*
X0055268Y0031181D01*
X0055108Y0031189D01*
X0054947Y0031201D01*
X0054787Y0031217D01*
X0054628Y0031237D01*
X0054469Y0031261D01*
X0054311Y0031288D01*
X0054153Y0031320D01*
X0053996Y0031356D01*
X0053841Y0031395D01*
X0053686Y0031438D01*
X0053532Y0031485D01*
X0053380Y0031536D01*
X0053229Y0031590D01*
X0053079Y0031649D01*
X0052931Y0031711D01*
X0052784Y0031776D01*
X0052639Y0031845D01*
X0052496Y0031918D01*
X0052354Y0031995D01*
X0052215Y0032074D01*
X0052077Y0032157D01*
X0051942Y0032244D01*
X0051809Y0032334D01*
X0051678Y0032427D01*
X0051549Y0032523D01*
X0051423Y0032623D01*
X0051299Y0032726D01*
X0051178Y0032831D01*
X0051060Y0032940D01*
X0050944Y0033051D01*
X0050831Y0033166D01*
X0050721Y0033283D01*
X0050614Y0033402D01*
X0050510Y0033525D01*
X0050409Y0033650D01*
X0050311Y0033777D01*
X0050216Y0033907D01*
X0050125Y0034039D01*
X0050036Y0034173D01*
X0049951Y0034310D01*
X0049870Y0034448D01*
X0049792Y0034589D01*
X0049717Y0034731D01*
X0049646Y0034875D01*
X0049579Y0035021D01*
X0049515Y0035169D01*
X0049455Y0035318D01*
X0049399Y0035468D01*
X0049346Y0035620D01*
X0049297Y0035773D01*
X0049252Y0035927D01*
X0049211Y0036082D01*
X0049173Y0036239D01*
X0049140Y0036396D01*
X0049110Y0036554D01*
X0049084Y0036712D01*
X0049063Y0036872D01*
X0049045Y0037031D01*
X0049031Y0037191D01*
X0049021Y0037352D01*
X0049015Y0037512D01*
X0049013Y0037673D01*
X0411217Y0037673D02*
X0411219Y0037834D01*
X0411225Y0037994D01*
X0411235Y0038155D01*
X0411249Y0038315D01*
X0411267Y0038474D01*
X0411288Y0038634D01*
X0411314Y0038792D01*
X0411344Y0038950D01*
X0411377Y0039107D01*
X0411415Y0039264D01*
X0411456Y0039419D01*
X0411501Y0039573D01*
X0411550Y0039726D01*
X0411603Y0039878D01*
X0411659Y0040028D01*
X0411719Y0040177D01*
X0411783Y0040325D01*
X0411850Y0040471D01*
X0411921Y0040615D01*
X0411996Y0040757D01*
X0412074Y0040898D01*
X0412155Y0041036D01*
X0412240Y0041173D01*
X0412329Y0041307D01*
X0412420Y0041439D01*
X0412515Y0041569D01*
X0412613Y0041696D01*
X0412714Y0041821D01*
X0412818Y0041944D01*
X0412925Y0042063D01*
X0413035Y0042180D01*
X0413148Y0042295D01*
X0413264Y0042406D01*
X0413382Y0042515D01*
X0413503Y0042620D01*
X0413627Y0042723D01*
X0413753Y0042823D01*
X0413882Y0042919D01*
X0414013Y0043012D01*
X0414146Y0043102D01*
X0414281Y0043189D01*
X0414419Y0043272D01*
X0414558Y0043351D01*
X0414700Y0043428D01*
X0414843Y0043501D01*
X0414988Y0043570D01*
X0415135Y0043635D01*
X0415283Y0043697D01*
X0415433Y0043756D01*
X0415584Y0043810D01*
X0415736Y0043861D01*
X0415890Y0043908D01*
X0416045Y0043951D01*
X0416200Y0043990D01*
X0416357Y0044026D01*
X0416515Y0044058D01*
X0416673Y0044085D01*
X0416832Y0044109D01*
X0416991Y0044129D01*
X0417151Y0044145D01*
X0417312Y0044157D01*
X0417472Y0044165D01*
X0417633Y0044169D01*
X0417793Y0044169D01*
X0417954Y0044165D01*
X0418114Y0044157D01*
X0418275Y0044145D01*
X0418435Y0044129D01*
X0418594Y0044109D01*
X0418753Y0044085D01*
X0418911Y0044058D01*
X0419069Y0044026D01*
X0419226Y0043990D01*
X0419381Y0043951D01*
X0419536Y0043908D01*
X0419690Y0043861D01*
X0419842Y0043810D01*
X0419993Y0043756D01*
X0420143Y0043697D01*
X0420291Y0043635D01*
X0420438Y0043570D01*
X0420583Y0043501D01*
X0420726Y0043428D01*
X0420868Y0043351D01*
X0421007Y0043272D01*
X0421145Y0043189D01*
X0421280Y0043102D01*
X0421413Y0043012D01*
X0421544Y0042919D01*
X0421673Y0042823D01*
X0421799Y0042723D01*
X0421923Y0042620D01*
X0422044Y0042515D01*
X0422162Y0042406D01*
X0422278Y0042295D01*
X0422391Y0042180D01*
X0422501Y0042063D01*
X0422608Y0041944D01*
X0422712Y0041821D01*
X0422813Y0041696D01*
X0422911Y0041569D01*
X0423006Y0041439D01*
X0423097Y0041307D01*
X0423186Y0041173D01*
X0423271Y0041036D01*
X0423352Y0040898D01*
X0423430Y0040757D01*
X0423505Y0040615D01*
X0423576Y0040471D01*
X0423643Y0040325D01*
X0423707Y0040177D01*
X0423767Y0040028D01*
X0423823Y0039878D01*
X0423876Y0039726D01*
X0423925Y0039573D01*
X0423970Y0039419D01*
X0424011Y0039264D01*
X0424049Y0039107D01*
X0424082Y0038950D01*
X0424112Y0038792D01*
X0424138Y0038634D01*
X0424159Y0038474D01*
X0424177Y0038315D01*
X0424191Y0038155D01*
X0424201Y0037994D01*
X0424207Y0037834D01*
X0424209Y0037673D01*
X0424207Y0037512D01*
X0424201Y0037352D01*
X0424191Y0037191D01*
X0424177Y0037031D01*
X0424159Y0036872D01*
X0424138Y0036712D01*
X0424112Y0036554D01*
X0424082Y0036396D01*
X0424049Y0036239D01*
X0424011Y0036082D01*
X0423970Y0035927D01*
X0423925Y0035773D01*
X0423876Y0035620D01*
X0423823Y0035468D01*
X0423767Y0035318D01*
X0423707Y0035169D01*
X0423643Y0035021D01*
X0423576Y0034875D01*
X0423505Y0034731D01*
X0423430Y0034589D01*
X0423352Y0034448D01*
X0423271Y0034310D01*
X0423186Y0034173D01*
X0423097Y0034039D01*
X0423006Y0033907D01*
X0422911Y0033777D01*
X0422813Y0033650D01*
X0422712Y0033525D01*
X0422608Y0033402D01*
X0422501Y0033283D01*
X0422391Y0033166D01*
X0422278Y0033051D01*
X0422162Y0032940D01*
X0422044Y0032831D01*
X0421923Y0032726D01*
X0421799Y0032623D01*
X0421673Y0032523D01*
X0421544Y0032427D01*
X0421413Y0032334D01*
X0421280Y0032244D01*
X0421145Y0032157D01*
X0421007Y0032074D01*
X0420868Y0031995D01*
X0420726Y0031918D01*
X0420583Y0031845D01*
X0420438Y0031776D01*
X0420291Y0031711D01*
X0420143Y0031649D01*
X0419993Y0031590D01*
X0419842Y0031536D01*
X0419690Y0031485D01*
X0419536Y0031438D01*
X0419381Y0031395D01*
X0419226Y0031356D01*
X0419069Y0031320D01*
X0418911Y0031288D01*
X0418753Y0031261D01*
X0418594Y0031237D01*
X0418435Y0031217D01*
X0418275Y0031201D01*
X0418114Y0031189D01*
X0417954Y0031181D01*
X0417793Y0031177D01*
X0417633Y0031177D01*
X0417472Y0031181D01*
X0417312Y0031189D01*
X0417151Y0031201D01*
X0416991Y0031217D01*
X0416832Y0031237D01*
X0416673Y0031261D01*
X0416515Y0031288D01*
X0416357Y0031320D01*
X0416200Y0031356D01*
X0416045Y0031395D01*
X0415890Y0031438D01*
X0415736Y0031485D01*
X0415584Y0031536D01*
X0415433Y0031590D01*
X0415283Y0031649D01*
X0415135Y0031711D01*
X0414988Y0031776D01*
X0414843Y0031845D01*
X0414700Y0031918D01*
X0414558Y0031995D01*
X0414419Y0032074D01*
X0414281Y0032157D01*
X0414146Y0032244D01*
X0414013Y0032334D01*
X0413882Y0032427D01*
X0413753Y0032523D01*
X0413627Y0032623D01*
X0413503Y0032726D01*
X0413382Y0032831D01*
X0413264Y0032940D01*
X0413148Y0033051D01*
X0413035Y0033166D01*
X0412925Y0033283D01*
X0412818Y0033402D01*
X0412714Y0033525D01*
X0412613Y0033650D01*
X0412515Y0033777D01*
X0412420Y0033907D01*
X0412329Y0034039D01*
X0412240Y0034173D01*
X0412155Y0034310D01*
X0412074Y0034448D01*
X0411996Y0034589D01*
X0411921Y0034731D01*
X0411850Y0034875D01*
X0411783Y0035021D01*
X0411719Y0035169D01*
X0411659Y0035318D01*
X0411603Y0035468D01*
X0411550Y0035620D01*
X0411501Y0035773D01*
X0411456Y0035927D01*
X0411415Y0036082D01*
X0411377Y0036239D01*
X0411344Y0036396D01*
X0411314Y0036554D01*
X0411288Y0036712D01*
X0411267Y0036872D01*
X0411249Y0037031D01*
X0411235Y0037191D01*
X0411225Y0037352D01*
X0411219Y0037512D01*
X0411217Y0037673D01*
M02*
