G75*
%MOIN*%
%OFA0B0*%
%FSLAX25Y25*%
%IPPOS*%
%LPD*%
%AMOC8*
5,1,8,0,0,1.08239X$1,22.5*
%
%ADD10R,0.05906X0.05906*%
%ADD11C,0.05906*%
%ADD12C,0.06600*%
%ADD13C,0.05600*%
%ADD14R,0.05315X0.05315*%
%ADD15C,0.05315*%
%ADD16C,0.01000*%
%ADD17C,0.03937*%
%ADD18C,0.01181*%
D10*
X0287458Y0081819D03*
D11*
X0277458Y0081819D03*
X0267458Y0081819D03*
X0257458Y0081819D03*
X0247458Y0081819D03*
X0237458Y0081819D03*
X0227458Y0081819D03*
X0217458Y0081819D03*
X0217458Y0071819D03*
X0227458Y0071819D03*
X0237458Y0071819D03*
X0247458Y0071819D03*
X0257458Y0071819D03*
X0267458Y0071819D03*
X0277458Y0071819D03*
X0287458Y0071819D03*
X0262005Y0028815D03*
X0328146Y0028815D03*
X0394288Y0028815D03*
X0195863Y0028815D03*
X0129721Y0028815D03*
D12*
X0102162Y0028815D03*
X0088383Y0048500D03*
X0115942Y0048500D03*
X0154524Y0048500D03*
X0182083Y0048500D03*
X0220666Y0048500D03*
X0248225Y0048500D03*
X0286808Y0048500D03*
X0314367Y0048500D03*
X0352949Y0048500D03*
X0380509Y0048500D03*
X0366729Y0028815D03*
X0300587Y0028815D03*
X0234446Y0028815D03*
X0168304Y0028815D03*
X0109957Y0069209D03*
X0090666Y0069209D03*
X0071375Y0069209D03*
X0071375Y0079209D03*
X0090666Y0079209D03*
X0109957Y0079209D03*
X0109957Y0089209D03*
X0090666Y0089209D03*
X0071375Y0089209D03*
D13*
X0139052Y0083146D03*
X0139052Y0072516D03*
X0179052Y0072516D03*
X0179052Y0083146D03*
X0347320Y0083146D03*
X0347320Y0072516D03*
X0387320Y0072516D03*
X0387320Y0083146D03*
D14*
X0318501Y0088028D03*
D15*
X0318501Y0078028D03*
X0318501Y0068028D03*
D16*
X0336296Y0094169D02*
X0347320Y0083146D01*
X0336296Y0094169D02*
X0150075Y0094169D01*
X0139052Y0083146D01*
X0151075Y0058065D02*
X0141510Y0048500D01*
X0115942Y0048500D01*
X0151075Y0058065D02*
X0223705Y0058065D01*
X0237458Y0071819D01*
X0246704Y0071341D02*
X0246760Y0071341D01*
X0247458Y0071341D01*
X0247458Y0071819D01*
X0246704Y0071341D02*
X0229885Y0054522D01*
X0188105Y0054522D01*
X0182083Y0048500D01*
X0059290Y0074028D02*
X0056490Y0074028D01*
X0055557Y0074961D01*
X0056490Y0075894D01*
X0058357Y0075894D01*
X0059290Y0076827D01*
X0058357Y0077760D01*
X0055557Y0077760D01*
X0053237Y0077760D02*
X0053237Y0073094D01*
X0054170Y0072161D01*
X0055103Y0072161D01*
X0050916Y0074028D02*
X0049050Y0074028D01*
X0049983Y0074028D02*
X0049983Y0079627D01*
X0050916Y0079627D01*
X0053237Y0079627D02*
X0053237Y0080560D01*
D17*
X0090666Y0069209D02*
X0090666Y0064130D01*
X0093698Y0061098D01*
X0143304Y0061098D01*
X0172044Y0089839D01*
X0292877Y0089839D01*
X0297635Y0085081D01*
X0297635Y0076492D01*
X0292961Y0071819D01*
X0287458Y0071819D01*
X0318501Y0078028D02*
X0322820Y0078028D01*
X0329524Y0071323D01*
X0329524Y0041020D01*
X0345469Y0041020D01*
X0352949Y0048500D01*
X0329524Y0041020D02*
X0286611Y0041020D01*
X0286611Y0048500D01*
X0286808Y0048500D01*
X0286611Y0041020D02*
X0220666Y0041020D01*
X0220666Y0048500D01*
X0220666Y0041020D02*
X0154524Y0041020D01*
X0154524Y0048500D01*
X0154524Y0041020D02*
X0095863Y0041020D01*
X0088383Y0048500D01*
D18*
X0080705Y0042988D02*
X0094879Y0028815D01*
X0102162Y0028815D01*
X0110823Y0020154D01*
X0168304Y0020154D01*
X0168304Y0028815D01*
X0168304Y0020154D02*
X0234446Y0020154D01*
X0234446Y0028815D01*
X0234446Y0020154D02*
X0300587Y0020154D01*
X0300587Y0028815D01*
X0300587Y0020154D02*
X0358068Y0020154D01*
X0366729Y0028815D01*
X0080705Y0042988D02*
X0080705Y0079878D01*
X0071375Y0089209D01*
M02*
